<svg class="back-arrow" version="1.1" id="Layer_1" xmlns="http://www.w3.org/2000/svg" xmlns:xlink="http://www.w3.org/1999/xlink" x="0px" y="0px"
	 viewBox="0 0 22.3 13.8" style="enable-background:new 0 0 22.3 13.8;" xml:space="preserve">
<path d="M19.8,5.4c-0.9,0-1.9,0-2.9,0.1c-1,0-2,0-3.1,0c-1,0-2,0-3,0c-1.1,0-2.3,0-3.4,0c0,0,0-0.2,0-0.2s3.8-1.6,4.3-1.9
	c-0.1-0.5,0.6-3,0.5-3.4C11.4,0.1,2.4,5.2,0,5.4l1.5,4.4c2.4,0.1,9.4,3.9,10.2,4c-0.1-0.4,0.7-2,0.6-2.4L7.4,9.4V9.2c0.4,0,4,0,5,0
	c1,0,2.1,0,3.1,0c1,0,2,0,3,0c1,0,1.8,0,2.6,0c0-0.2,0.1-0.4,0.2-0.9c0.1-0.4,0.3-0.9,0.4-1.3c0.2-0.5,0.3-0.9,0.4-1.3
	c0.1-0.4,0.2-0.6,0.2-0.6C21.6,5.3,20.7,5.3,19.8,5.4z"/>
</svg>