<svg class="bird" xmlns="http://www.w3.org/2000/svg" viewBox="0 0 417 397"><title>Bird</title><g id="Flying"><path id="Wing" d="M193.73,163.81c1.39.7-.79,18.15-2.9,16.91-1-.56,6.19-16.18,9.36-14.27.93.56-2.45,18.21-4.77,16.69-1-.63,7.89-15.65,10.8-13.85,2.29,1.41-4,17.79-6.38,16.44-4.42-2.59,10.48-11.27,13.94-11.45,5.73-.3-9.81,25.66-23.87,16.72S191.44,162.64,193.73,163.81Z"/><path id="Body" d="M148,180.18a24.74,24.74,0,0,1,3.46-13.68c1.4-7.11,4.69-12.43,10.41-14.41,17.22-6,8.46,16.8,30.49,31.17,12,7.82,28.65,3.52,35.69,11.79a68.11,68.11,0,0,1,5.91-4.11c4-2.18,21.93-11.93,24.3-6.57,1.28,2.9-8.41,2.45-23,9.67-2,1-3.91,2-5.74,3.12a1.09,1.09,0,0,1,.08.15c5.42-2.7,10.34-4.89,12.29-5.36,5.31-1.28,29.07-7,31.16,2.57,1.13,5.16-10.81-.62-30.09,2.88a76.3,76.3,0,0,0-12.12,3.32c1,4,.84,9.61-.77,17.37-3.72,18-9.5,27.16-16.44,30.73.19.3.39.6.59.9a24,24,0,0,0,5.45,1.48c4.87.47,7.79-2.7,7.56,1a5.44,5.44,0,0,1-2.19,3.93c1.42.17,2.12.45,1.68,2.09-.58,2.16-2.82,3.3-5.65,3.2,1.53.82,2.27,1.35,1.09,3.09-2.12,3.11-6.85,2.45-10.58-1.47-2.77-2.91-4.2-6.81-3.88-9.89a15.06,15.06,0,0,1-1.33-2.46c-9.15.24-19.58-6-29.79-13.38a42.89,42.89,0,0,1-10-10.91c-.66.09-5.21.65-8.21-.13-2.73-.48-3.49-1.54-3.49-1.54s4.4-4.22,7.4-5.57l-.06-.11c-2.63.79-8.1,4.65-8.1,4.65s-2.38-3.81-3-15.19a90.05,90.05,0,0,1,.72-16.65C149.6,189.19,148.15,185.07,148,180.18Z"/></g><g id="Standing"><path d="M241,218c-1.67,23.33-11.62,38.79-39,38.79-22.62,0-41.67-19.46-40.33-39.46.12-1.77.12-9.74,2.52-16.37,6.14-17,22-40.34,38.59-40.2,13,.1,33.05,24.4,36.92,39.1C241.34,206.08,241.17,215.57,241,218Z"/><path id="Wing-2" data-name="Wing" d="M161.29,224.55c-4.64,3.38-5.8-26.85,10.87-27.05S164.09,222.51,161.29,224.55Z"/><path id="Wing-3" data-name="Wing" d="M238.43,227.77c3.15,4.81,15.09-23-.51-29.15S236.53,224.87,238.43,227.77Z"/><path id="Wing-4" data-name="Wing" d="M191.3,245.15c-6.21.59-5.73,15.16-4.05,15,1-.11,3.68-8.77,2.1-8.49-.71.12-.2,11.28,2.2,10.84.7-.13,3-11.66,1.18-11.27-.75.17.63,9.79,2.83,9.36,1.74-.33,1.31-9.71,1-11.26S197.5,244.55,191.3,245.15Z"/><path id="Wing-5" data-name="Wing" d="M210.74,245.15c6,.59,5.55,15.16,3.92,15-1-.11-3.56-8.77-2-8.49.69.12.19,11.28-2.13,10.84-.67-.13-2.86-11.66-1.14-11.27.72.17-.61,9.79-2.74,9.36-1.69-.33-1.26-9.71-1-11.26S204.74,244.55,210.74,245.15Z"/></g><g id="Post"><rect x="158.62" y="243.28" width="85.47" height="11.13" rx="5.56" ry="5.56"/></g></svg>