<svg class="downarrow" version="1.1" id="Layer_1" x="0px" y="0px" viewBox="0 0 1024 1024">
<g>
	<path class="st0" d="M983.8,312.7C958,251.8,921.1,197,874.1,150C827,103,772.3,66,711.3,40.3C648.2,13.5,581.1,0,512,0
		c-69.1,0-136.2,13.5-199.3,40.2C251.7,66,197,102.9,150,150S66,251.7,40.3,312.7C13.5,375.8,0,442.9,0,512
		c0,69.1,13.5,136.2,40.2,199.3C66,772.2,102.9,827,149.9,874c47,47,101.8,83.9,162.7,109.7c63.1,26.7,130.2,40.3,199.3,40.3h0
		c69.1,0,136.2-13.5,199.3-40.2C772.3,958,827,921.1,874,874c47-47,83.9-101.8,109.7-162.7c26.7-63.1,40.3-130.2,40.3-199.3
		C1024,442.9,1010.5,375.9,983.8,312.7z M512,976.3L512,976.3c-124.1,0-240.7-48.3-328.4-136C96,752.6,47.7,636,47.7,512
		C47.7,256,256,47.7,512,47.7c124,0,240.6,48.3,328.3,136c87.7,87.7,136,204.3,136,328.3C976.3,768,768,976.3,512,976.3z"/>
</g>
<g>
	<polygon class="st0" points="477,643 315,510 259,571 512,763 765,571 709,510 547,643 550,276 474,276 	"/>
</g>
</svg>
