<svg class="replay-arrow" id="Layer_1" data-name="Layer 1" xmlns="http://www.w3.org/2000/svg" viewBox="0 0 36.46 29.14"><title>Artboard 1</title><path d="M32.2,10.52C31.8,11,30,14.57,30,14.57A14.35,14.35,0,0,0,15.33,0C6.86,0,0,6.52,0,14.57S6.86,29.14,15.33,29.14a15.94,15.94,0,0,0,7.22-1.71L20.8,23.6a10,10,0,0,1-5.54,1.54c-5.19,0-10.81-5-10.81-10.57S10.2,3.89,15.39,3.89,25.7,9,25.7,14.57L22.45,9.8c-.53-.11-3,.85-3.5.75.13.8,5.77,7.74,5.88,10.14L29.63,22c.28-2.4,6.48-11.06,6.62-11.86C35.72,10,32.86,10.62,32.2,10.52Z"/></svg>