<svg id="troutBig" data-name="Layer 1" xmlns="http://www.w3.org/2000/svg" xmlns:xlink="http://www.w3.org/1999/xlink" viewBox="0 0 169.61 80.54"><defs><style>.cls-1{fill:url(#radial-gradient);}.cls-2{fill:#4a5853;}.cls-25,.cls-3{fill:#fff;}.cls-4{fill:url(#linear-gradient);}.cls-5{fill:url(#linear-gradient-2);}.cls-6{fill:#b5963e;}.cls-7{fill:#e0dfc2;}.cls-23,.cls-7{opacity:0.61;}.cls-8{fill:url(#linear-gradient-3);}.cls-9{fill:url(#linear-gradient-4);}.cls-10{fill:url(#linear-gradient-5);}.cls-11{fill:url(#linear-gradient-6);}.cls-12{fill:url(#linear-gradient-7);}.cls-13{fill:url(#radial-gradient-2);}.cls-14{opacity:0.66;}.cls-15{opacity:0.6;}.cls-16{fill:#e0d38e;}.cls-17{fill:#ea8d2f;}.cls-18{fill:url(#linear-gradient-8);}.cls-19{fill:url(#linear-gradient-9);}.cls-20{fill:url(#linear-gradient-10);}.cls-21{fill:url(#linear-gradient-11);}.cls-22{opacity:0.58;}.cls-23{fill:#be9a44;}.cls-24{fill:none;}.cls-24,.cls-25,.cls-26{stroke:#000;stroke-miterlimit:10;}.cls-24,.cls-26{stroke-width:0.25px;}.cls-25{stroke-width:0.1px;}.cls-27{opacity:0.7;}.cls-28{opacity:0.73;}.cls-29{opacity:0.83;}.cls-30{opacity:0.68;}.cls-31{fill:url(#linear-gradient-12);}.cls-32{fill:url(#linear-gradient-13);}.cls-33{fill:url(#linear-gradient-14);}.cls-34{fill:#c25530;}.cls-35{fill:url(#linear-gradient-15);}.cls-36{fill:url(#linear-gradient-16);}.cls-37{fill:url(#linear-gradient-17);}</style><radialGradient id="radial-gradient" cx="815.23" cy="-234.8" r="14.14" gradientTransform="matrix(0.29, 0, 0, -0.32, -225.49, -33.01)" gradientUnits="userSpaceOnUse"><stop offset="0" stop-color="#e2c45b"/><stop offset="0.06" stop-color="#e2c45b"/><stop offset="1" stop-color="#fff" stop-opacity="0"/></radialGradient><linearGradient id="linear-gradient" x1="131.84" y1="33.87" x2="128.68" y2="13.88" gradientTransform="matrix(1, 0, 0, -1, 0, 82.57)" gradientUnits="userSpaceOnUse"><stop offset="0" stop-color="#ecda00"/><stop offset="0.58" stop-color="#ea8c2d"/></linearGradient><linearGradient id="linear-gradient-2" x1="93.99" y1="58.29" x2="97.76" y2="79.67" gradientTransform="matrix(1, 0, 0, -1, 0, 82.57)" gradientUnits="userSpaceOnUse"><stop offset="0" stop-color="#ecda00"/><stop offset="0.58" stop-color="#c08438"/></linearGradient><linearGradient id="linear-gradient-3" x1="91.96" y1="61.99" x2="91.96" y2="36.61" gradientTransform="matrix(1, 0, 0, -1, 0, 82.57)" gradientUnits="userSpaceOnUse"><stop offset="0" stop-color="#6e8068"/><stop offset="0.13" stop-color="#6e8068"/><stop offset="1" stop-color="#fff" stop-opacity="0"/></linearGradient><linearGradient id="linear-gradient-4" x1="99.24" y1="21.04" x2="96.37" y2="2.89" xlink:href="#linear-gradient"/><linearGradient id="linear-gradient-5" x1="83.85" y1="60.19" x2="83.85" y2="47.78" gradientTransform="matrix(1, 0, 0, -1, 0, 82.57)" gradientUnits="userSpaceOnUse"><stop offset="0" stop-color="#b5963e"/><stop offset="1" stop-color="#fff" stop-opacity="0"/></linearGradient><linearGradient id="linear-gradient-6" x1="82.93" y1="59.47" x2="82.93" y2="27.3" gradientTransform="matrix(1, 0, 0, -1, 0, 82.57)" gradientUnits="userSpaceOnUse"><stop offset="0" stop-color="#cb9831"/><stop offset="1" stop-color="#fff" stop-opacity="0"/></linearGradient><linearGradient id="linear-gradient-7" x1="90.68" y1="22.3" x2="90.68" y2="53.81" gradientTransform="matrix(1, 0, 0, -1, 0, 82.57)" gradientUnits="userSpaceOnUse"><stop offset="0" stop-color="#fff" stop-opacity="0"/><stop offset="0.4" stop-color="#e2c45b"/><stop offset="0.58" stop-color="#e2c45b"/><stop offset="1" stop-color="#fff" stop-opacity="0"/></linearGradient><radialGradient id="radial-gradient-2" cx="26.1" cy="41.3" r="14.38" gradientTransform="matrix(1, 0, 0, -1, 0, 82.57)" gradientUnits="userSpaceOnUse"><stop offset="0" stop-color="#e2c45b"/><stop offset="0.36" stop-color="#e2c45b"/><stop offset="1" stop-color="#fff" stop-opacity="0"/></radialGradient><linearGradient id="linear-gradient-8" x1="15.28" y1="30.06" x2="15.28" y2="39.13" xlink:href="#linear-gradient-7"/><linearGradient id="linear-gradient-9" x1="372.05" y1="-41.41" x2="372.05" y2="-34.15" gradientTransform="matrix(0.31, 0.5, -0.46, 0.77, -121.82, -110.59)" xlink:href="#linear-gradient-7"/><linearGradient id="linear-gradient-10" x1="158.97" y1="61.16" x2="158.97" y2="24.27" gradientTransform="matrix(1, 0, 0, -1, 0, 82.57)" gradientUnits="userSpaceOnUse"><stop offset="0" stop-color="#e2c45b"/><stop offset="0.4" stop-color="#e0d38e" stop-opacity="0.5"/><stop offset="0.62" stop-color="#e0d38e" stop-opacity="0.5"/><stop offset="1" stop-color="#e2c45b"/></linearGradient><linearGradient id="linear-gradient-11" x1="43.41" y1="56.31" x2="45.35" y2="47.56" gradientTransform="matrix(1, 0, 0, -1, 0, 82.57)" gradientUnits="userSpaceOnUse"><stop offset="0" stop-color="#6e8068"/><stop offset="0.18" stop-color="#6e8068"/><stop offset="0.48" stop-color="#6e8068" stop-opacity="0.5"/><stop offset="0.81" stop-color="#d9dbd4" stop-opacity="0.19"/><stop offset="1" stop-color="#fff" stop-opacity="0"/></linearGradient><linearGradient id="linear-gradient-12" x1="96.43" y1="36.6" x2="96.43" y2="46.9" gradientTransform="matrix(1, 0, 0, -1, 0, 82.57)" gradientUnits="userSpaceOnUse"><stop offset="0" stop-color="#c25530" stop-opacity="0.6"/><stop offset="0.5" stop-color="#c25530"/><stop offset="1" stop-color="#c25530" stop-opacity="0.6"/></linearGradient><linearGradient id="linear-gradient-13" x1="7.81" y1="34.79" x2="11.29" y2="34.79" gradientTransform="matrix(1, 0, 0, -1, 0, 82.57)" gradientUnits="userSpaceOnUse"><stop offset="0" stop-color="#4a5854"/><stop offset="0.13" stop-color="#4a5854"/><stop offset="1" stop-color="#4a5854" stop-opacity="0.2"/></linearGradient><linearGradient id="linear-gradient-14" x1="-312.76" y1="-141" x2="-308.6" y2="-141" gradientTransform="matrix(-0.76, 2.52, -0.86, -0.66, -326.73, 736.03)" xlink:href="#linear-gradient-13"/><linearGradient id="linear-gradient-15" x1="34.32" y1="45.04" x2="28.64" y2="26.17" xlink:href="#linear-gradient-13"/><linearGradient id="linear-gradient-16" x1="37.12" y1="31.46" x2="37.12" y2="40.55" xlink:href="#linear-gradient-12"/><linearGradient id="linear-gradient-17" x1="21.87" y1="54.58" x2="21.87" y2="54.58" xlink:href="#linear-gradient-11"/></defs><title>troutBig</title><path class="cls-1" d="M17.93,40.81c0-1.16-1.46-2-2.2-2.3a3.33,3.33,0,0,0-2.19-.18,6.62,6.62,0,0,0-1.74.42,8.14,8.14,0,0,0-2.93,1.43l-.36.41a1.74,1.74,0,0,0-.28.4,2.92,2.92,0,0,0-.36,1.7c.09,1.2,2.74,2.48,5.12,2a8.14,8.14,0,0,0,3.66-2C17.47,41.76,17.93,41.34,17.93,40.81Z" transform="translate(-7.41 -0.01)"/><g id="Bottom_Back_Fin" data-name="Bottom Back Fin"><path class="cls-2" d="M95.8.29c3.41,1.49,4.89,8.09,4.61,8.33a25.81,25.81,0,0,0-1.75-2.7c-4.06-4.06-11.07,1.45-11.53.35S91.74-1.45,95.8.29Z" transform="translate(-7.41 -0.01)"/></g><g id="Bottom_Back_Fin-2" data-name="Bottom Back Fin"><path class="cls-3" d="M96.26.54c2.31.75,4.61,3.71,4.34,4.43-.1.37-.84.24-1.11.23C94.6,4.53,87.22,8.83,86.76,7.25,86.2,5.92,91.56-1.09,96.26.54Z" transform="translate(-7.41 -0.01)"/></g><path class="cls-2" d="M146.74,40.85c-1.19,6.55,7.63,15,15.51,17.3,1.84.52,9.44,2.52,12.46-1.57,1.82-2.48,1.37-6.15,1.28-7.15-.46-4.6-3-5.06-3-8.84,0-3.27,2-3.56,3-8.15.27-1.09,1.46-7.2-1-9.43s-7.14.18-11.44,2.69c-.64.39-2.38,1.27-7.52,5.71C150.05,36.37,147.11,39.15,146.74,40.85Z" transform="translate(-7.41 -0.01)"/><g id="Top_Back_Fin" data-name="Top Back Fin"><path class="cls-2" d="M134,29.9a36.9,36.9,0,0,0,4.88,2.42c1.19.49,2-.87,1.83-3.06V29c-.18-2.07-1.19-3.61-2.2-3.53a18.47,18.47,0,0,1-4.42.32c-1.1,0-2,.52-2.12,1.22v.12A4,4,0,0,0,134,29.9Z" transform="translate(-7.41 -0.01)"/></g><g id="Top_Fin" data-name="Top Fin"><path class="cls-2" d="M107.05,11.41A56.43,56.43,0,0,0,96.17,1.63C93.58-.21,88.51,3.21,85,9c-.47.85-.74,1.22-1.2,2-3.51,5.76-3.51,10.25-.1,10.23a70.82,70.82,0,0,1,15.22,1c3.14.51,6.92-.43,8.49-2.34a3.33,3.33,0,0,1,.55-.6C109.45,17.28,109.08,13.76,107.05,11.41Z" transform="translate(-7.41 -0.01)"/></g><g id="Bottom_Back_Fin-3" data-name="Bottom Back Fin"><path class="cls-2" d="M137.73,57.86c-.92,4.44,1.2,9.17-3,11.54-2.11,1.19-5.7-.58-8.37-3.66-.56-.68-.83-1-1.39-1.72-2.58-3.1-3.87-6.18-2.94-7.52,1.1-1.69,3.77-3.06,4.33-3.43,1.19-.74,4.78-2.93,7.18-3a34.78,34.78,0,0,1,5.79.22C140.31,50.74,138.19,55.65,137.73,57.86Z" transform="translate(-7.41 -0.01)"/></g><g id="Bottom_Back_Fin-4" data-name="Bottom Back Fin"><path class="cls-4" d="M138.1,57.5c-.92,4.43,1.2,9.16-3,11.53-2.11,1.18-5.7-.58-8.38-3.66l-1.38-1.72c-2.58-3.1-3.87-6.18-3-7.51,1.11-1.7,3.78-3.06,4.33-3.43,1.2-.74,4.79-2.93,7.19-3a34.87,34.87,0,0,1,5.79.22C140.67,50.27,138.47,55.29,138.1,57.5Z" transform="translate(-7.41 -0.01)"/></g><g id="Top_Fin-2" data-name="Top Fin"><path class="cls-5" d="M107.05,12.63A56.43,56.43,0,0,0,96.17,2.85C93.58,1,88.51,4.43,85,10.19c-.47.86-.74,1.23-1.2,2-3.51,5.76-3.51,10.25-.1,10.22a72.11,72.11,0,0,1,15.22,1c3.14.5,6.92-.43,8.49-2.35a3.33,3.33,0,0,1,.55-.6C109.45,18.49,109.08,15,107.05,12.63Z" transform="translate(-7.41 -0.01)"/></g><g id="Top_Back_Fin-2" data-name="Top Back Fin"><path class="cls-6" d="M134,30.37a36.83,36.83,0,0,0,4.88,2.41c1.19.49,2-.87,1.83-3.06v-.23c-.18-2.07-1.19-3.6-2.2-3.52a19,19,0,0,1-4.42.31c-1.1,0-2,.53-2.12,1.23v.12A4.21,4.21,0,0,0,134,30.37Z" transform="translate(-7.41 -0.01)"/></g><path id="Body" class="cls-7" d="M174.71,22.17c-2.75-4.6-18.23,7.6-20.16,8.53a41.94,41.94,0,0,0-5.33,2.86,13.77,13.77,0,0,1-2.75-.28c-1.47-.37-3.31-.87-4.88-1.25-2.48-.62-7.17-3.52-9.66-4.05s-4.88-.47-7.46-1c-11.6-2.4-23.45-4.46-35.31-4.87A228.89,228.89,0,0,0,32.42,29C24.82,30.59,9,33.69,7.5,43.49c.09,1.1,5.58,3.17,6.59,3.92.45.33-3-.51-6.22-.91-1-.13.64,1.53.82,1.64,4.48,2.79,15.74,7.46,23.73,9.36a200.09,200.09,0,0,0,32.21,4.68c10.78.81,20.1-.82,24.62-1,2.31-.11,8-.85,12.73-1a87.7,87.7,0,0,0,17.7-2.72c4.7-1.18,6-4.07,9.21-5.79a35.23,35.23,0,0,1,3.5-1.13c6.36-1.54,12.7.15,15.55,1.06,12.58,3.85,16.33,9.3,23,6.58a7.12,7.12,0,0,0,3.47-2.52c2.84-3.77,1.56-10-.73-14.8C172.79,39,179.83,30.73,174.71,22.17Z" transform="translate(-7.41 -0.01)"/><path id="Body-2" data-name="Body" class="cls-8" d="M174.61,21.66c-2.74-4.61-18.23,7.56-20.15,8.49A42.2,42.2,0,0,0,149.13,33a14.07,14.07,0,0,1-2.76-.29c-1.47-.37-3.3-.87-4.87-1.25-2.48-.63-7.17-3.53-9.66-4.07s-4.88-.48-7.46-1c-11.6-2.41-23.45-4.47-35.32-4.88a226.94,226.94,0,0,0-56.73,6.9C24.68,30.08,9,33.22,7.41,43c27.66,2.83,56.23,1.84,84,1.69,24-.13,59.88,5,82.3-4.29C172.79,38.45,179.74,30.23,174.61,21.66Z" transform="translate(-7.41 -0.01)"/><path class="cls-2" d="M22.7,52.4c.18-.1.27-.09.36-.2.46-.94-3.2-4.52-6.59-6.48-4-2.4-8.24-2.92-8.42-2.43s2.47,1.92,7.41,4.79c.73.45.92.56,1.56.9,1,.56,1.74,1,2.29,1.35C21.32,51.58,22,52.69,22.7,52.4Z" transform="translate(-7.41 -0.01)"/><g id="Bottom_Fin" data-name="Bottom Fin"><path class="cls-2" d="M91.46,66.14c.46,2.19,1.11,2.93,2.49,6.09.83,1.83,1.66,3.66,2.86,6.08,1.48,2.92,4.43,3,6.46.15l.18-.25c2.13-2.72,2.13-6.35.19-8.15-1.57-1.43-2.77-2.63-3.88-3.84-1.66-1.69-2-2.54-2.85-3.39-.1-.12-.47-.36-.93-.73A4.24,4.24,0,0,0,94,61a3.13,3.13,0,0,0-1.47.13c-.56.12-.83.12-.92.24C90.82,61.87,91.09,64.31,91.46,66.14Z" transform="translate(-7.41 -0.01)"/></g><g id="Bottom_Fin-2" data-name="Bottom Fin"><path class="cls-9" d="M91.56,65.89c.46,2.2,1.1,2.93,2.49,6.1.83,1.83,1.66,3.65,2.86,6.08,1.47,2.91,4.42,3,6.45.15l.19-.25c2.12-2.72,2.12-6.36.18-8.15-1.57-1.43-2.77-2.64-3.87-3.84-1.66-1.69-2-2.54-2.86-3.39a10.1,10.1,0,0,0-.92-.73,4.2,4.2,0,0,0-2-1.09,3.28,3.28,0,0,0-1.48.12c-.55.12-.83.12-.92.25C91,61.62,91.19,64.06,91.56,65.89Z" transform="translate(-7.41 -0.01)"/></g><path class="cls-10" d="M145.36,34.84c-17.65-10.23-41.87-11.69-61.65-12.46a252.06,252.06,0,0,0-31.15,3C42.35,27.37,32,29.12,22.33,33c20.85-2.3,41-6.09,62.12-6.48C105.33,27.27,124.92,31.71,145.36,34.84Z" transform="translate(-7.41 -0.01)"/><path class="cls-11" d="M144.44,40.06c0-9.29-46.19-17.41-61.65-16.94a157,157,0,0,0-31.15,3.95c-10,2.18-22.45,3-30.23,10,10.22,15.84,45.94,17,62.3,18.18C99,55.63,144.47,48.82,144.44,40.06Z" transform="translate(-7.41 -0.01)"/><path class="cls-12" d="M144.44,43.58c-9.54-11.31-37.57-12-50.86-13.3-16.23-1.06-42.74-4.74-56.66,6.06,0,1.46,4.51,2.21,5.8,7.26.82,3.22-.46,5-.19,6.87,10.36,13.07,37.29,9.47,51.61,8.71,12.62-1.07,24.71-4.8,36.69-8.68C139.85,47.26,144.44,45.74,144.44,43.58Z" transform="translate(-7.41 -0.01)"/><path class="cls-13" d="M43.36,39.14c0-3.9-5.15-6.9-7.72-7.84a14.19,14.19,0,0,0-7.44-.65c-2.39.41-4.4,1-5.87,1.39,0,0-6.87,2-9.89,4.76a16.35,16.35,0,0,0-1.28,1.45,7.3,7.3,0,0,0-.92,1.32,11,11,0,0,0-1.37,5.35c.46,3.84,9.42,8.17,17.4,7,.65-.08,5.78-.86,12.4-6.54C41.8,42.59,43.27,41.09,43.36,39.14Z" transform="translate(-7.41 -0.01)"/><g class="cls-14"><path class="cls-2" d="M60.85,52.65c-.18-.47-.55-.72-.92-.61a1.11,1.11,0,0,0-.28,1.3c.19.48.55.73.92.5A1.08,1.08,0,0,0,60.85,52.65Z" transform="translate(-7.41 -0.01)"/></g><g class="cls-15"><path class="cls-16" d="M121.34,54.25c0-.48-6,.59-10,1.38-6.74,1.43-9.69,4.12-9.6,4.24.28.61,5.45-.54,10.06-1.83.37-.13,3.32-1,7-2.54C120.51,54.86,121.34,54.49,121.34,54.25Z" transform="translate(-7.41 -0.01)"/></g><g class="cls-15"><path class="cls-16" d="M90.54,59.55c0-.61-2.49-1-4.24-1a4.14,4.14,0,0,0-4,2.65c.19.85,2.31.87,4.24.4a11.13,11.13,0,0,0,3-1.21C90.26,60,90.63,59.79,90.54,59.55Z" transform="translate(-7.41 -0.01)"/></g><path class="cls-17" d="M22.42,52.5c.19-.1.28-.1.37-.2.46-.95-3.21-4.52-6.6-6.49-4-2.39-8.23-2.92-8.41-2.42s2.46,1.91,7.41,4.79c.73.44.91.55,1.55.89,1,.56,1.74,1,2.29,1.35C21.05,51.78,21.69,52.89,22.42,52.5Z" transform="translate(-7.41 -0.01)"/><path class="cls-17" d="M15.46,49c-.09.31-2.29,1.34-4.48.73S7.32,47.18,7.5,46.69s2.93.4,4.12,1c.45.22.73.33,1.28.56C14.64,48.78,15.55,48.71,15.46,49Z" transform="translate(-7.41 -0.01)"/><path class="cls-18" d="M22.79,52.51c.18-.31-2.48-4.09-6.6-6.49S8,43.09,7.78,43.59,12.9,47,15.19,48.18a24.74,24.74,0,0,1,2.65,1.35C21.32,51.46,22.61,52.72,22.79,52.51Z" transform="translate(-7.41 -0.01)"/><path class="cls-19" d="M15.55,49c-.09.31-2.29,1.35-4.48.74S7.41,47.19,7.5,46.69s2.93.4,4.12,1A11.57,11.57,0,0,0,13,48.2C14.73,48.78,15.55,48.82,15.55,49Z" transform="translate(-7.41 -0.01)"/><path class="cls-20" d="M141,40.17a5.78,5.78,0,0,0,.28,2.41c1,4.12,4,6.18,13.32,11.14,6.33,3.34,6.88,3.42,7.7,3.69,2.94.76,9.62,2.32,12.46-1.54,1.82-2.47,1.37-6.14,1.28-7.14-.55-4.7-3.11-5.28-3-8.85s2.83-3.94,3.75-8.51c.55-2.68.55-7.15-1.74-9.07-2.56-2.15-6.77,0-11.44,2.65-4,2.2-3.85,3.08-7.52,5.69C151.43,33.66,141.78,35.23,141,40.17Z" transform="translate(-7.41 -0.01)"/><path class="cls-21" d="M81.32,23.5c-13.12-4.05-32.38,1.83-45.59,4.43-2.48.55-5.15,1.33-10.46,2.82-6.33,1.86-9.35,2.9-12.46,5.32-1,.74-5.13,3.81-4.58,5.22.73,2.21,12.35-.7,22.17-3.43C46.46,33.39,66.68,31.28,81.32,23.5Z" transform="translate(-7.41 -0.01)"/><g id="Forearm"><path class="cls-2" d="M41.61,52.5A31.24,31.24,0,0,1,55.88,52c4.6.69,5,1.41,5,1.65.37,1.79-3.5,5.14-7.46,6.16a11.55,11.55,0,0,1-5.62,0c-4.69-.91-9.83-3.77-9.65-5.57C38.3,54,38.39,53.42,41.61,52.5Z" transform="translate(-7.41 -0.01)"/></g><g class="cls-22"><path class="cls-2" d="M16.1,40.18a4,4,0,0,1,3.85-4,3.68,3.68,0,0,1,3.85,4c-.09,2.37-1.74,4.06-3.85,3.92A4.2,4.2,0,0,1,16.1,40.18Z" transform="translate(-7.41 -0.01)"/></g><g id="Forearm-2" data-name="Forearm"><path class="cls-17" d="M41.61,53a31.13,31.13,0,0,1,14.27-.53c4.6.7,5,1.41,5,1.65.37,1.8-3.5,5.14-7.46,6.16a11.68,11.68,0,0,1-5.62,0c-4.69-.92-9.83-3.79-9.65-5.59C38.3,54.42,38.49,53.88,41.61,53Z" transform="translate(-7.41 -0.01)"/></g><g id="Eye"><g id="Eye-2" data-name="Eye"><path class="cls-23" d="M20,36.68a3.15,3.15,0,0,1,2.93,3.39A3.16,3.16,0,0,1,20,43.47a3.43,3.43,0,0,1,0-6.79Z" transform="translate(-7.41 -0.01)"/><path class="cls-24" d="M20,36.68a3.15,3.15,0,0,1,2.93,3.39A3.16,3.16,0,0,1,20,43.47a3.43,3.43,0,0,1,0-6.79Z" transform="translate(-7.41 -0.01)"/></g><g id="Iris"><path d="M20.86,40.28a1,1,0,1,1-2,0c0-.74.46-1.27,1-1.16A1.08,1.08,0,0,1,20.86,40.28Z" transform="translate(-7.41 -0.01)"/></g><path id="Pupil" class="cls-25" d="M20.41,39.43a.3.3,0,0,1,.27.32.28.28,0,1,1-.55,0A.3.3,0,0,1,20.41,39.43Z" transform="translate(-7.41 -0.01)"/><path class="cls-26" d="M42.62,35.47A1,1,0,0,1,42,34.8a.91.91,0,0,1,.64-.81c.37-.13.65.21.65.67S42.9,35.58,42.62,35.47Z" transform="translate(-7.41 -0.01)"/><path class="cls-26" d="M67.58,35.24a1.09,1.09,0,0,1-.65-.72,1,1,0,0,1,.65-.85c.37-.12.64.24.64.72S68,35.35,67.58,35.24Z" transform="translate(-7.41 -0.01)"/><path class="cls-26" d="M71.82,32.92a1.09,1.09,0,0,1-.65-.72,1,1,0,0,1,.65-.85c.37-.12.64.23.64.72S72.19,32.92,71.82,32.92Z" transform="translate(-7.41 -0.01)"/><path class="cls-26" d="M64.44,33a1.07,1.07,0,0,1-.64-.71.94.94,0,0,1,.64-.84c.37-.13.65.23.65.71S64.81,33,64.44,33Z" transform="translate(-7.41 -0.01)"/><path class="cls-26" d="M61.68,35.4a1.12,1.12,0,0,1-.65-.71.94.94,0,0,1,.65-.84c.37-.12.64.23.64.71S62.05,35.39,61.68,35.4Z" transform="translate(-7.41 -0.01)"/><path class="cls-26" d="M54.31,33.11a1.07,1.07,0,0,1-.64-.7.93.93,0,0,1,.64-.83c.37-.12.64.22.64.69S54.68,33.1,54.31,33.11Z" transform="translate(-7.41 -0.01)"/><path class="cls-26" d="M50.63,32a1.09,1.09,0,0,1-.65-.69.94.94,0,0,1,.65-.83c.37-.13.64.22.64.69S51,32,50.63,32Z" transform="translate(-7.41 -0.01)"/><path class="cls-26" d="M57.07,29.52a1.05,1.05,0,0,1-.64-.69.93.93,0,0,1,.64-.84c.37-.13.65.22.65.69S57.44,29.52,57.07,29.52Z" transform="translate(-7.41 -0.01)"/><path class="cls-26" d="M62.6,28.23a1,1,0,0,1-.64-.7,1,1,0,0,1,.64-.85c.37-.13.65.23.65.7S63,28.23,62.6,28.23Z" transform="translate(-7.41 -0.01)"/><path class="cls-26" d="M82,24.35a1.08,1.08,0,0,1-.64-.73,1,1,0,0,1,.64-.86c.37-.12.65.24.65.73S82.33,24.34,82,24.35Z" transform="translate(-7.41 -0.01)"/><path class="cls-26" d="M84.18,20.43a1.33,1.33,0,0,1,0-1.21c.18-.37.55-.62.83-.5s.27.61,0,1.22S84.36,20.67,84.18,20.43Z" transform="translate(-7.41 -0.01)"/><path class="cls-26" d="M83.62,16.79a.93.93,0,0,1-1,.37,1.16,1.16,0,0,1,0-1.34c.27-.49.64-.74,1-.37S83.9,16.3,83.62,16.79Z" transform="translate(-7.41 -0.01)"/><path class="cls-26" d="M87,14.44a1.44,1.44,0,0,0-.09,1.34c.19.25.65,0,1-.49A1.05,1.05,0,0,0,88.05,14C87.77,13.71,87.31,13.83,87,14.44Z" transform="translate(-7.41 -0.01)"/><path class="cls-26" d="M88.88,10.65a1.34,1.34,0,0,1-.09-1.34.86.86,0,0,1,1-.61c.37.12.37.73.09,1.34S89.16,10.89,88.88,10.65Z" transform="translate(-7.41 -0.01)"/><path class="cls-26" d="M89.89,20.4a1.36,1.36,0,0,1-.09-1.34.81.81,0,0,1,.92-.49c.37.12.37.73.1,1.34S90.08,20.65,89.89,20.4Z" transform="translate(-7.41 -0.01)"/><path class="cls-26" d="M93.49,12.47c.28.25.28.86.19,1.35s-.56.73-.93.48-.46-.73-.18-1.34S93.22,12.23,93.49,12.47Z" transform="translate(-7.41 -0.01)"/><path class="cls-26" d="M95.34,8.33a1.42,1.42,0,0,1,.09,1.22c-.19.37-.55.61-.92.37s-.37-.74-.1-1.22S95.06,8,95.34,8.33Z" transform="translate(-7.41 -0.01)"/><path class="cls-26" d="M94.51,19.92a1.36,1.36,0,0,1-.1-1.35.73.73,0,0,1,.93-.48c.37.12.37.73.09,1.34S94.69,20.16,94.51,19.92Z" transform="translate(-7.41 -0.01)"/><path class="cls-26" d="M97.27,14.93a1.71,1.71,0,0,1-.09-1.34c.19-.37.65-.61.92-.36s.37.73.1,1.34S97.46,15.17,97.27,14.93Z" transform="translate(-7.41 -0.01)"/><path class="cls-26" d="M100.87,10.33a1.73,1.73,0,0,1,0-1.34.66.66,0,0,1,1-.35c.37.25.27.86,0,1.34S101.06,10.58,100.87,10.33Z" transform="translate(-7.41 -0.01)"/><path class="cls-26" d="M100,20.43a1.66,1.66,0,0,1-.09-1.34.77.77,0,0,1,.92-.36c.37.25.37.74.09,1.34S100.23,20.68,100,20.43Z" transform="translate(-7.41 -0.01)"/><path class="cls-26" d="M105.21,15.75a.8.8,0,0,1-1,0,1.09,1.09,0,0,1,.28-1.21c.37-.36.74-.35,1,0A1,1,0,0,1,105.21,15.75Z" transform="translate(-7.41 -0.01)"/><path class="cls-26" d="M76.43,28a1.09,1.09,0,0,1-.65-.72,1,1,0,0,1,.65-.86c.37-.12.64.24.64.72S76.8,28,76.43,28Z" transform="translate(-7.41 -0.01)"/><path class="cls-26" d="M78.27,25.59a1.06,1.06,0,0,1-.64-.72.94.94,0,0,1,.64-.85c.37-.13.65.23.65.72S78.64,25.59,78.27,25.59Z" transform="translate(-7.41 -0.01)"/><path class="cls-26" d="M38.67,33.37a1,1,0,0,1-.64-.66.91.91,0,0,1,.64-.81c.37-.12.64.21.64.67S39,33.37,38.67,33.37Z" transform="translate(-7.41 -0.01)"/><path class="cls-26" d="M36.83,37.92a1.07,1.07,0,0,1-.64-.67.9.9,0,0,1,.64-.8c.37-.11.65.22.65.67S37.2,37.91,36.83,37.92Z" transform="translate(-7.41 -0.01)"/><path class="cls-26" d="M34.08,35.7a1,1,0,0,1-.65-.66.91.91,0,0,1,.65-.79c.36-.12.64.21.64.66S34.44,35.7,34.08,35.7Z" transform="translate(-7.41 -0.01)"/><path class="cls-26" d="M31.32,33.53a1,1,0,0,1-.64-.65.9.9,0,0,1,.64-.79c.37-.12.64.21.64.65S31.69,33.52,31.32,33.53Z" transform="translate(-7.41 -0.01)"/><path class="cls-26" d="M28.57,36.88a1,1,0,0,1-.64-.64.89.89,0,0,1,.64-.78c.36-.12.64.21.64.65S28.93,36.88,28.57,36.88Z" transform="translate(-7.41 -0.01)"/><path class="cls-26" d="M25.82,34.75a1,1,0,0,1-.65-.64.9.9,0,0,1,.65-.77c.36-.12.64.2.64.63S26.18,34.74,25.82,34.75Z" transform="translate(-7.41 -0.01)"/><path class="cls-26" d="M24,35.86a1,1,0,0,1-.64-.63.89.89,0,0,1,.64-.77c.37-.11.64.2.64.64S24.35,35.86,24,35.86Z" transform="translate(-7.41 -0.01)"/><g class="cls-27"><path class="cls-26" d="M18,41.34a1,1,0,0,1-.73-.85.86.86,0,0,1,.73-.84.66.66,0,0,1,.74.84A.79.79,0,0,1,18,41.34Z" transform="translate(-7.41 -0.01)"/></g><g class="cls-28"><path class="cls-26" d="M21.87,41.35a1.18,1.18,0,0,1-.82-1,1.06,1.06,0,0,1,.82-1c.46-.11.83.32.83,1S22.24,41.46,21.87,41.35Z" transform="translate(-7.41 -0.01)"/></g><path class="cls-26" d="M13.9,39.15a1,1,0,0,1-.64-.62.84.84,0,0,1,.64-.72c.37-.11.64.2.64.61S14.27,39.15,13.9,39.15Z" transform="translate(-7.41 -0.01)"/><path class="cls-26" d="M150.14,51.35a1,1,0,0,1-.64-.65.92.92,0,0,1,.64-.81c.37-.12.64.21.64.65S150.51,51.33,150.14,51.35Z" transform="translate(-7.41 -0.01)"/><path class="cls-26" d="M153.81,53.42a1,1,0,0,1-.64-.63.91.91,0,0,1,.64-.8c.37-.13.65.19.65.63S154.18,53.41,153.81,53.42Z" transform="translate(-7.41 -0.01)"/><path class="cls-26" d="M159.32,55.33a1,1,0,0,1-.64-.62.92.92,0,0,1,.64-.79c.37-.13.64.18.64.62S159.69,55.31,159.32,55.33Z" transform="translate(-7.41 -0.01)"/><path class="cls-26" d="M163,55.11a.92.92,0,0,1-.64-.6.9.9,0,0,1,.64-.78c.36-.13.64.17.64.6S163.35,55.09,163,55.11Z" transform="translate(-7.41 -0.01)"/><path class="cls-26" d="M83.81,34.07a1.09,1.09,0,0,1-.65-.73,1,1,0,0,1,.65-.85c.37-.12.64.24.64.73S84.18,34.07,83.81,34.07Z" transform="translate(-7.41 -0.01)"/><path class="cls-26" d="M82.88,30.42a1.11,1.11,0,0,1-.64-.72,1,1,0,0,1,.64-.86c.37-.12.65.24.65.73S83.25,30.42,82.88,30.42Z" transform="translate(-7.41 -0.01)"/><path class="cls-26" d="M80.12,29.22a1.09,1.09,0,0,1-.65-.72,1,1,0,0,1,.65-.86c.37-.12.64.24.64.73S80.49,29.22,80.12,29.22Z" transform="translate(-7.41 -0.01)"/><path class="cls-26" d="M87.5,28a1.09,1.09,0,0,1-.65-.73,1,1,0,0,1,.65-.86c.37-.12.64.25.64.73S87.87,28,87.5,28Z" transform="translate(-7.41 -0.01)"/><path class="cls-26" d="M89.34,32.84a1.08,1.08,0,0,1-.64-.73.94.94,0,0,1,.64-.85c.37-.13.65.24.65.73S89.71,32.84,89.34,32.84Z" transform="translate(-7.41 -0.01)"/><path class="cls-26" d="M100.41,32.85a1.11,1.11,0,0,1-.65-.73,1,1,0,0,1,.65-.85c.37-.12.65.25.65.73S100.78,32.85,100.41,32.85Z" transform="translate(-7.41 -0.01)"/><g class="cls-29"><path class="cls-26" d="M99.49,29.2a1.13,1.13,0,0,1-.65-.74,1,1,0,0,1,.65-.85c.37-.12.64.25.64.74S99.86,29.2,99.49,29.2Z" transform="translate(-7.41 -0.01)"/></g><path class="cls-26" d="M103.18,30.43a1.11,1.11,0,0,1-.65-.73.94.94,0,0,1,.65-.85c.37-.12.64.25.64.73S103.55,30.43,103.18,30.43Z" transform="translate(-7.41 -0.01)"/><path class="cls-26" d="M105.94,32.88a1.14,1.14,0,0,1-.64-.74.94.94,0,0,1,.64-.84c.37-.12.65.24.65.73S106.31,32.88,105.94,32.88Z" transform="translate(-7.41 -0.01)"/><path class="cls-26" d="M110.56,32.9a1.09,1.09,0,0,1-.65-.73.94.94,0,0,1,.65-.84c.36-.12.64.25.64.73S110.92,32.91,110.56,32.9Z" transform="translate(-7.41 -0.01)"/><path class="cls-26" d="M113.32,31.72a1.15,1.15,0,0,1-.64-.73.93.93,0,0,1,.64-.84c.37-.12.65.25.65.73S113.69,31.72,113.32,31.72Z" transform="translate(-7.41 -0.01)"/><path class="cls-26" d="M109.63,29.27a1.14,1.14,0,0,1-.64-.74.93.93,0,0,1,.64-.84c.37-.11.65.25.65.74S110,29.27,109.63,29.27Z" transform="translate(-7.41 -0.01)"/><path class="cls-26" d="M123.46,31.83a1.12,1.12,0,0,1-.65-.72.9.9,0,0,1,.65-.82c.37-.12.64.24.64.72S123.83,31.84,123.46,31.83Z" transform="translate(-7.41 -0.01)"/><path class="cls-26" d="M125.3,34.23a1.11,1.11,0,0,1-.64-.72.9.9,0,0,1,.64-.82c.37-.12.65.24.65.72S125.67,34.23,125.3,34.23Z" transform="translate(-7.41 -0.01)"/><path class="cls-26" d="M128.07,33.08a1.09,1.09,0,0,1-.65-.72.9.9,0,0,1,.65-.81c.36-.12.64.24.64.71S128.43,33.08,128.07,33.08Z" transform="translate(-7.41 -0.01)"/><path class="cls-26" d="M126.22,30.69a1.15,1.15,0,0,1-.64-.73.9.9,0,0,1,.64-.81c.37-.11.65.25.65.72S126.59,30.69,126.22,30.69Z" transform="translate(-7.41 -0.01)"/><path class="cls-26" d="M121.62,29.42a1.11,1.11,0,0,1-.65-.73.91.91,0,0,1,.65-.82c.37-.11.64.25.64.73S122,29.43,121.62,29.42Z" transform="translate(-7.41 -0.01)"/><path class="cls-26" d="M134.51,36.67a1.06,1.06,0,0,1-.64-.71.9.9,0,0,1,.64-.81c.37-.11.64.24.64.71S134.88,36.67,134.51,36.67Z" transform="translate(-7.41 -0.01)"/><path class="cls-26" d="M133.59,33.16a1.09,1.09,0,0,1-.64-.71.89.89,0,0,1,.64-.81c.37-.11.64.25.64.71S134,33.17,133.59,33.16Z" transform="translate(-7.41 -0.01)"/><path class="cls-26" d="M137.27,34.38a1.11,1.11,0,0,1-.64-.71.88.88,0,0,1,.64-.8c.37-.11.65.24.65.71S137.64,34.38,137.27,34.38Z" transform="translate(-7.41 -0.01)"/><path class="cls-26" d="M144.63,34.49a1.11,1.11,0,0,1-.65-.69.88.88,0,0,1,.65-.79c.37-.1.64.24.64.7S145,34.49,144.63,34.49Z" transform="translate(-7.41 -0.01)"/><path class="cls-26" d="M142.79,37.88a1,1,0,0,1-.64-.69.88.88,0,0,1,.64-.79c.37-.11.64.23.64.69S143.16,37.89,142.79,37.88Z" transform="translate(-7.41 -0.01)"/><path class="cls-26" d="M151.06,36.83a1.06,1.06,0,0,1-.64-.68.86.86,0,0,1,.64-.77c.37-.11.64.23.64.68S151.43,36.83,151.06,36.83Z" transform="translate(-7.41 -0.01)"/><path class="cls-26" d="M154.73,35.77a1.07,1.07,0,0,1-.64-.67.86.86,0,0,1,.64-.76c.37-.1.64.23.64.67S155.1,35.78,154.73,35.77Z" transform="translate(-7.41 -0.01)"/><path class="cls-26" d="M158.4,33.66a1.09,1.09,0,0,1-.64-.67.82.82,0,0,1,.64-.74c.37-.1.64.23.64.67S158.77,33.67,158.4,33.66Z" transform="translate(-7.41 -0.01)"/><path class="cls-26" d="M163.9,30.61a1.1,1.1,0,0,1-.64-.66.81.81,0,0,1,.64-.72c.37-.09.65.24.65.66S164.27,30.63,163.9,30.61Z" transform="translate(-7.41 -0.01)"/><path class="cls-26" d="M153.81,40.17a1.05,1.05,0,0,1-.64-.66.88.88,0,0,1,.64-.77c.37-.11.65.22.65.66S154.18,40.17,153.81,40.17Z" transform="translate(-7.41 -0.01)"/><path class="cls-26" d="M158.4,38a1.05,1.05,0,0,1-.64-.66.85.85,0,0,1,.64-.75c.37-.1.64.23.64.66S158.77,38,158.4,38Z" transform="translate(-7.41 -0.01)"/><path class="cls-26" d="M163,35.91a1,1,0,0,1-.64-.65.83.83,0,0,1,.64-.74c.36-.1.64.23.64.66S163.35,35.92,163,35.91Z" transform="translate(-7.41 -0.01)"/><path class="cls-26" d="M161.15,40.18a1.06,1.06,0,0,1-.64-.65.85.85,0,0,1,.64-.75c.37-.11.65.22.65.65S161.52,40.18,161.15,40.18Z" transform="translate(-7.41 -0.01)"/><path class="cls-26" d="M166.65,40.18a1.05,1.05,0,0,1-.64-.63.85.85,0,0,1,.64-.74c.37-.1.64.22.64.64S167,40.18,166.65,40.18Z" transform="translate(-7.41 -0.01)"/><path class="cls-26" d="M158.4,43.43a1,1,0,0,1-.64-.64.88.88,0,0,1,.64-.77c.37-.11.64.21.64.65S158.77,43.43,158.4,43.43Z" transform="translate(-7.41 -0.01)"/><path class="cls-26" d="M163.9,45.49a1,1,0,0,1-.64-.62.88.88,0,0,1,.64-.76c.37-.11.65.2.65.63S164.27,45.48,163.9,45.49Z" transform="translate(-7.41 -0.01)"/><path class="cls-26" d="M151.06,45.74a1,1,0,0,1-.64-.66.9.9,0,0,1,.64-.79c.37-.11.64.22.64.66S151.43,45.74,151.06,45.74Z" transform="translate(-7.41 -0.01)"/><path class="cls-26" d="M154.73,47.88a1,1,0,0,1-.64-.65.89.89,0,0,1,.64-.78c.37-.12.64.2.64.64S155.1,47.87,154.73,47.88Z" transform="translate(-7.41 -0.01)"/><path class="cls-26" d="M159.32,49.92a1,1,0,0,1-.64-.63.89.89,0,0,1,.64-.78c.37-.12.64.2.64.63S159.69,49.9,159.32,49.92Z" transform="translate(-7.41 -0.01)"/><path class="cls-26" d="M164.82,52.88a.94.94,0,0,1-.64-.6.89.89,0,0,1,.64-.77c.37-.12.64.18.64.6S165.19,52.87,164.82,52.88Z" transform="translate(-7.41 -0.01)"/><path class="cls-26" d="M141.87,48.18a1,1,0,0,1-.64-.67.91.91,0,0,1,.64-.82c.37-.12.64.22.64.68S142.24,48.17,141.87,48.18Z" transform="translate(-7.41 -0.01)"/></g><g class="cls-30"><path class="cls-31" d="M146.1,39.6c-15.32,4.91-33.66,5.81-49.66,6.29C79.86,45.78,63,42.5,46.76,39.47c14.29-5.68,34.49-3.55,49.68-3.33C113,36.67,129.57,38.23,146.1,39.6Z" transform="translate(-7.41 -0.01)"/></g><path class="cls-2" d="M119.87,41c.09,3.47-1.66,6.48-3.87,6.62s-4-2.87-3.88-6.61,1.75-6.76,3.88-6.5S119.87,37.65,119.87,41Z" transform="translate(-7.41 -0.01)"/><path class="cls-2" d="M106.22,40.16c.09,2.67-1.38,5-3.13,5.11s-3.23-2.19-3.14-5.11,1.38-5.23,3.14-5.11S106.13,37.49,106.22,40.16Z" transform="translate(-7.41 -0.01)"/><path class="cls-2" d="M127.7,40.75a3.28,3.28,0,0,1-3.41-3.2,3.13,3.13,0,0,1,3.32-3.29,3.29,3.29,0,0,1,3.4,3.2A3.55,3.55,0,0,1,127.7,40.75Z" transform="translate(-7.41 -0.01)"/><path class="cls-2" d="M95.15,40.77c0,2.32-1.1,4.27-2.58,4.39S90,43.21,90,40.77s1.1-4.51,2.58-4.39S95.15,38.57,95.15,40.77Z" transform="translate(-7.41 -0.01)"/><path class="cls-2" d="M73.57,40.4c-.09-3.5,1.66-6.54,3.87-6.67s4,2.9,3.88,6.67S79.56,47.21,77.44,47,73.66,43.79,73.57,40.4Z" transform="translate(-7.41 -0.01)"/><path class="cls-2" d="M67.58,40.4c0,2.28-1.11,4.2-2.58,4.31s-2.58-1.92-2.58-4.31S63.52,36,65,36.09,67.58,38.12,67.58,40.4Z" transform="translate(-7.41 -0.01)"/><path class="cls-2" d="M141.32,39.14a2.75,2.75,0,0,1-2.58,2.76,2.53,2.53,0,0,1-2.57-2.78,2.62,2.62,0,0,1,2.57-2.76A3,3,0,0,1,141.32,39.14Z" transform="translate(-7.41 -0.01)"/><path class="cls-2" d="M149.5,39.83a2.71,2.71,0,0,1-2.57,2.71,2.5,2.5,0,0,1-2.58-2.71,2.61,2.61,0,0,1,2.58-2.71A2.87,2.87,0,0,1,149.5,39.83Z" transform="translate(-7.41 -0.01)"/><path class="cls-2" d="M51.64,37.59c-.46,1.52-1.66,2.57-2.76,2.11s-1.47-2.2-.92-3.83,1.75-2.69,2.67-2.12C51.73,34.31,52.1,36.07,51.64,37.59Z" transform="translate(-7.41 -0.01)"/><path class="cls-2" d="M52.56,42.39a2.1,2.1,0,0,1-.74,2.45c-.64.35-1.38-.36-1.65-1.41s.09-2.1.73-2.33S52.28,41.34,52.56,42.39Z" transform="translate(-7.41 -0.01)"/><g class="cls-14"><path class="cls-2" d="M57.16,49a2,2,0,0,1-.73-2.37c.27-.83,1.2-.94,2-.33a2,2,0,0,1,.74,2.38A1.37,1.37,0,0,1,57.16,49Z" transform="translate(-7.41 -0.01)"/></g><g class="cls-14"><path class="cls-2" d="M46.39,47.68c-.09-1,.28-2,1-2.18s1.38.59,1.47,1.76-.37,2.08-1,2.18S46.58,48.72,46.39,47.68Z" transform="translate(-7.41 -0.01)"/></g><path class="cls-32" d="M7.87,46.8c.09-.1.64-.08,1.73.06s1.47.25,1.56.56a1,1,0,0,1,0,1,1,1,0,0,1-.82.37C9.06,48.86,7.59,47.19,7.87,46.8Z" transform="translate(-7.41 -0.01)"/><path class="cls-33" d="M30.13,40.72c-.19,0,.18,1.66,0,4.41s-.19,4.08-1.2,5.36c-.45.64-1.19,1.27-1.1,1.49s.65,0,.92-.07c1.84-.69,2.3-4.33,2.2-7A11.68,11.68,0,0,0,30.13,40.72Z" transform="translate(-7.41 -0.01)"/><g class="cls-14"><path class="cls-2" d="M90.91,49.79c-.55-.24-.65-1.09-.28-1.83s1.11-1.09,1.66-.73a1.15,1.15,0,0,1,.28,1.71C92.11,49.67,91.37,50,90.91,49.79Z" transform="translate(-7.41 -0.01)"/></g><g class="cls-14"><path class="cls-2" d="M95,50.4a.59.59,0,0,1-.19-.85.66.66,0,0,1,.83-.37.59.59,0,0,1,.19.85A.66.66,0,0,1,95,50.4Z" transform="translate(-7.41 -0.01)"/></g><g class="cls-14"><path class="cls-2" d="M80.21,54a.59.59,0,0,1-.19-.85.66.66,0,0,1,.83-.36.61.61,0,0,1,.19.86A.64.64,0,0,1,80.21,54Z" transform="translate(-7.41 -0.01)"/></g><g class="cls-14"><path class="cls-2" d="M71.17,52.83c-.27,0-.46-.37-.37-.73s.37-.72.65-.72.46.37.37.73S71.45,52.83,71.17,52.83Z" transform="translate(-7.41 -0.01)"/></g><g class="cls-14"><path class="cls-2" d="M102.16,50.14a.63.63,0,0,1,.19-.86c.27-.24.64-.12.83.24s.09.73-.19.85A.72.72,0,0,1,102.16,50.14Z" transform="translate(-7.41 -0.01)"/></g><g class="cls-14"><path class="cls-2" d="M8.23,43.9a.46.46,0,0,1,.19-.7.63.63,0,0,1,.82.11.47.47,0,0,1-.18.71A.66.66,0,0,1,8.23,43.9Z" transform="translate(-7.41 -0.01)"/></g><g class="cls-14"><path class="cls-2" d="M10.06,44.74a.46.46,0,0,1,.18-.7.57.57,0,0,1,.83.22.45.45,0,0,1-.19.71A.83.83,0,0,1,10.06,44.74Z" transform="translate(-7.41 -0.01)"/></g><g class="cls-14"><path class="cls-2" d="M11.8,45.8a.47.47,0,0,1,.18-.71.58.58,0,0,1,.83.23c.18.31.09.62-.19.71A.81.81,0,0,1,11.8,45.8Z" transform="translate(-7.41 -0.01)"/></g><g class="cls-14"><path class="cls-2" d="M114.61,50.4c-.27.12-.46-.24-.46-.6s.28-.85.55-.85a.47.47,0,0,1,.47.6C115.07,49.91,114.89,50.39,114.61,50.4Z" transform="translate(-7.41 -0.01)"/></g><g class="cls-14"><path class="cls-2" d="M118.3,52.75c-.28,0-.46-.23-.46-.71s.28-.85.64-.85.56.23.46.71S118.58,52.75,118.3,52.75Z" transform="translate(-7.41 -0.01)"/></g><g class="cls-14"><path class="cls-2" d="M135.52,45.28a.55.55,0,0,1-.18-.81.67.67,0,0,1,.83-.36.56.56,0,0,1,.18.81A.67.67,0,0,1,135.52,45.28Z" transform="translate(-7.41 -0.01)"/></g><g class="cls-14"><path class="cls-2" d="M127.05,48.09a1.19,1.19,0,0,1-.37-1.54.89.89,0,0,1,1.39-.37,1.24,1.24,0,0,1,.36,1.53A1,1,0,0,1,127.05,48.09Z" transform="translate(-7.41 -0.01)"/></g><path class="cls-2" d="M57.16,38c.56,2.24.1,4.49-1.1,5.19s-2.67-1-3.22-3.42-.1-4.69,1.19-5.05S56.61,35.79,57.16,38Z" transform="translate(-7.41 -0.01)"/><path class="cls-34" d="M145.46,39.72C129,41,112.5,42.48,96,42.72c-16.49,0-33-1.63-49.4-3.13,16.49.65,33,1.38,49.5,1.54S129,40.41,145.46,39.72Z" transform="translate(-7.41 -0.01)"/><path class="cls-35" d="M43.18,46.93c.18,5.85-8.55,8.23-9.84,8.51h-.09C26.09,57.09,18,53,18.12,51.54c.18-2,14.49.65,15.59-4.45.64-2.89-2.85-7.24-1.75-9.36.1-.11.1-.22.28-.22C34.17,36.49,43.08,41,43.18,46.93Z" transform="translate(-7.41 -0.01)"/><path class="cls-17" d="M42.72,46.92c.18,5.85-8,9.58-9.93,8.49-1.19-.73.64-3,.55-8.33-.18-6.13-2.66-8.89-1.47-9.57C33.62,36.5,42.53,41,42.72,46.92Z" transform="translate(-7.41 -0.01)"/><g class="cls-30"><path class="cls-36" d="M39.22,51.06c-1.47.18-5.51-6-5.51-6.09,0-2.34,4-3.22,5.51-3C41,42.33,41,50.88,39.22,51.06Z" transform="translate(-7.41 -0.01)"/></g><path class="cls-17" d="M25.36,44.08c-.92,1.39-2.85,1.13-3.12.49-.46-1,2.2-4.18,3.12-3.64C25.91,41.26,26.09,43,25.36,44.08Z" transform="translate(-7.41 -0.01)"/><path class="cls-2" d="M38.76,44.59A2,2,0,0,1,38,47c-.65.33-1.38-.36-1.66-1.38a1.83,1.83,0,0,1,.74-2.24C37.75,43.11,38.49,43.56,38.76,44.59Z" transform="translate(-7.41 -0.01)"/><path class="cls-37" d="M21.87,28" transform="translate(-7.41 -0.01)"/><g id="Bottom_Fin-3" data-name="Bottom Fin"><path class="cls-3" d="M96.91,78.07c1.47,2.91,4.42,3,6.45.15l.09-.13.1-.12c0-.12-1.57.28-3,.3-2.12-.09-3.59-1.18-3.78-.69C96.81,77.58,96.81,77.7,96.91,78.07Z" transform="translate(-7.41 -0.01)"/></g><g id="Bottom_Back_Fin-5" data-name="Bottom Back Fin"><path class="cls-3" d="M135.06,69c-3.68,1.75-8.47-3.42-8.38-3.66a4.72,4.72,0,0,0,1,.55c4.6,2,9.2-.49,9.48.54C137.36,67,136.35,68.36,135.06,69Z" transform="translate(-7.41 -0.01)"/></g></svg>