<svg class="trout" version="1.1" id="Layer_1" xmlns="http://www.w3.org/2000/svg" xmlns:xlink="http://www.w3.org/1999/xlink" x="0px" y="0px"
	 viewBox="0 0 258.7 234.1" style="enable-background:new 0 0 258.7 234.1;" xml:space="preserve">
<style type="text/css">
	.st0{fill:url(#SVGID_1_);}
	.st1{fill:#4A5853;}
	.st2{fill:#FFFFFF;}
	.st3{fill:url(#SVGID_2_);}
	.st4{fill:url(#SVGID_3_);}
	.st5{fill:#B5963E;}
	.st6{fill:#E0DFC2;fill-opacity:0.61;}
	.st7{fill:none;stroke:#000000;stroke-width:0.25;stroke-miterlimit:10;}
	.st8{fill:url(#Body-2_1_);}
	.st9{fill:url(#SVGID_4_);}
	.st10{fill:url(#SVGID_5_);}
	.st11{fill:url(#SVGID_6_);}
	.st12{fill:url(#SVGID_7_);}
	.st13{fill:url(#SVGID_8_);}
	.st14{opacity:0.66;}
	.st15{opacity:0.6;}
	.st16{fill:#E0D38E;}
	.st17{fill:#EA8D2F;}
	.st18{fill:url(#SVGID_9_);}
	.st19{fill:url(#SVGID_10_);}
	.st20{fill:url(#SVGID_11_);}
	.st21{fill:url(#SVGID_12_);}
	.st22{opacity:0.58;}
	.st23{fill:#BE9A44;fill-opacity:0.61;stroke:#000000;stroke-width:0.25;stroke-miterlimit:10;}
	.st24{fill:#FFFFFF;stroke:#000000;stroke-width:0.1;stroke-miterlimit:10;}
	.st25{stroke:#000000;stroke-width:0.25;stroke-miterlimit:10;}
	.st26{opacity:0.7;}
	.st27{opacity:0.73;}
	.st28{opacity:0.83;}
	.st29{opacity:0.68;}
	.st30{fill:url(#SVGID_13_);}
	.st31{fill:url(#SVGID_14_);}
	.st32{fill:url(#SVGID_15_);}
	.st33{fill:#C25530;}
	.st34{fill:url(#SVGID_16_);}
	.st35{fill:url(#SVGID_17_);}
	.st36{fill:url(#SVGID_18_);}
	.st37{fill:none;stroke:#FFCC00;stroke-miterlimit:10;}
	.st38{fill:#FFFFFF;stroke:#000000;stroke-miterlimit:10;}
	.st39{font-family:'PermanentMarker';}
	.st40{font-size:29px;}
</style>
<title>trout</title>
<radialGradient id="SVGID_1_" cx="2995.4988" cy="-1153.95" r="15.04" gradientTransform="matrix(0.29 0 0 -0.32 -827.4892 -166.38)" gradientUnits="userSpaceOnUse">
	<stop  offset="0" style="stop-color:#E2C45B"/>
	<stop  offset="6.000000e-02" style="stop-color:#E2C45B"/>
	<stop  offset="1" style="stop-color:#FFFFFF;stop-opacity:0"/>
</radialGradient>
<path class="st0" d="M48.6,201.5c0-1.1-1.6-1.9-2.4-2.2c-0.8-0.3-1.6-0.4-2.4-0.2c-0.6,0-1.3,0.2-1.9,0.4c-1.1,0.2-2.2,0.7-3.2,1.4
	l-0.4,0.4c-0.1,0.1-0.2,0.3-0.3,0.4c-0.3,0.5-0.5,1.1-0.4,1.7c0.1,1.2,3,2.4,5.6,1.9c1.5-0.4,2.8-1,4-2
	C48.1,202.4,48.6,202,48.6,201.5z"/>
<g id="Bottom_Back_Fin">
	<path class="st1" d="M133.3,168.2c3.7,1.2,5.3,6.6,5,6.8c-0.6-0.8-1.2-1.5-1.9-2.2c-4.4-3.3-12,1.2-12.5,0.3
		S128.8,166.8,133.3,168.2z"/>
</g>
<g id="Bottom_Back_Fin-2">
	<path class="st2" d="M133.7,168.4c2.5,0.6,5,3,4.7,3.6c-0.1,0.3-0.9,0.2-1.2,0.2c-5.3-0.5-13.3,3-13.8,1.7
		C122.8,172.8,128.6,167.1,133.7,168.4z"/>
</g>
<path class="st1" d="M188.5,201.5c-1.3,5.8,8.3,13.5,16.9,16.2c2,0.6,10.3,3.2,13.6-0.6c2-2.3,1.5-6,1.4-7c-0.5-4.6-3.3-5.1-3.3-8.8
	c0-3.2,2.2-3.5,3.3-8.1c0.3-1.1,1.6-7.3-1.1-9.3s-7.8,0.8-12.5,3.4c-2.9,1.7-5.6,3.5-8.2,5.6C192.1,197.6,188.9,200,188.5,201.5z"/>
<g id="Top_Back_Fin">
	<path class="st1" d="M174.6,192.1c1.7,0.8,3.5,1.4,5.3,2c1.3,0.4,2.2-0.8,2-2.7v-0.2c-0.2-1.8-1.3-3.1-2.4-3
		c-1.6,0.3-3.2,0.4-4.8,0.4c-1.2,0-2.2,0.5-2.3,1.1v0.1C172.4,190.5,173.4,191.6,174.6,192.1z"/>
</g>
<g id="Top_Fin">
	<path class="st1" d="M145.4,177.2c-3.6-3.1-7.6-5.7-11.8-7.9c-2.8-1.5-8.3,1.3-12.1,6c-0.5,0.7-0.8,1-1.3,1.6
		c-3.8,4.7-3.8,8.4-0.1,8.4c5.5-0.1,11,0.1,16.5,0.8c3.4,0.4,7.5-0.4,9.2-2c0.2-0.2,0.4-0.4,0.6-0.5
		C148,182,147.6,179.1,145.4,177.2z"/>
</g>
<g id="Bottom_Back_Fin-3">
	<path class="st1" d="M178.7,216.2c-1,3.8,1.3,8-3.3,9.8c-2.3,0.9-6.2-0.8-9.1-3.5l-1.5-1.5c-2.8-2.7-4.2-5.3-3.2-6.4
		c1.2-1.4,4.1-2.5,4.7-2.8c1.3-0.6,5.2-2.4,7.8-2.4c2.1,0,4.2,0.1,6.3,0.3C181.5,210.1,179.3,214.3,178.7,216.2z"/>
</g>
<g id="Bottom_Back_Fin-4">
	
		<linearGradient id="SVGID_2_" gradientUnits="userSpaceOnUse" x1="487.9797" y1="-288.9293" x2="485.2484" y2="-306.1274" gradientTransform="matrix(1 0 0 -1 -315.85 -80.88)">
		<stop  offset="0" style="stop-color:#ECDA00"/>
		<stop  offset="0.58" style="stop-color:#EA8C2D"/>
	</linearGradient>
	<path class="st3" d="M179.1,215.9c-1,3.8,1.3,8-3.3,9.8c-2.3,0.9-6.2-0.8-9.1-3.5l-1.5-1.5c-2.8-2.7-4.2-5.3-3.2-6.4
		c1.2-1.4,4.1-2.5,4.7-2.8c1.3-0.6,5.2-2.4,7.8-2.4c2.1,0,4.2,0.1,6.3,0.3C181.9,209.7,179.5,214,179.1,215.9z"/>
</g>
<g id="Top_Fin-2">
	
		<linearGradient id="SVGID_3_" gradientUnits="userSpaceOnUse" x1="447.2812" y1="-269.3013" x2="450.4603" y2="-251.2465" gradientTransform="matrix(1 0 0 -1 -315.85 -80.88)">
		<stop  offset="0" style="stop-color:#ECDA00"/>
		<stop  offset="0.58" style="stop-color:#C08438"/>
	</linearGradient>
	<path class="st4" d="M145.4,178.2c-3.6-3.1-7.6-5.7-11.8-7.9c-2.8-1.5-8.3,1.3-12.1,6c-0.5,0.7-0.8,1-1.3,1.6
		c-3.8,4.7-3.8,8.4-0.1,8.4c5.5-0.1,11,0.1,16.5,0.8c3.4,0.4,7.5-0.4,9.2-2c0.2-0.2,0.4-0.4,0.6-0.5
		C148,183,147.6,180.1,145.4,178.2z"/>
</g>
<g id="Top_Back_Fin-2">
	<path class="st5" d="M174.6,192.5c1.7,0.8,3.5,1.4,5.3,2c1.3,0.4,2.2-0.8,2-2.7v-0.2c-0.2-1.8-1.3-3.1-2.4-3
		c-1.6,0.3-3.2,0.4-4.8,0.4c-1.2,0-2.2,0.5-2.3,1.1v0.1C172.4,190.9,173.4,191.9,174.6,192.5z"/>
</g>
<path id="Body" class="st6" d="M219,183.1c-3-4.3-19.9,8.3-22,9.2c-2,0.8-3.9,1.7-5.8,2.7c-1,0-2-0.1-3-0.2c-1.6-0.3-3.6-0.7-5.3-1
	c-2.7-0.5-7.8-2.9-10.5-3.3s-5.3-0.3-8.1-0.7c-15.5-2.2-30.6-3.6-38.3-3.7c-8.6-0.2-38.8,0.6-61.6,4.7c-15.6,2.6-27.7,6.9-27.2,13.4
	c0.1,1.1,6.1,3,7.2,3.7c0.5,0.3-3.3-0.4-6.8-0.7c-1.1-0.1,0.7,1.5,0.9,1.6c4.9,2.6,17.2,6.4,25.9,7.7c11.6,1.5,23.3,2.5,35,2.8
	c11.7,0.4,21.8-1,26.7-1.2c2.5-0.1,8.7-0.7,13.8-0.8c6.4-0.2,12.9-0.9,19.2-2c5.1-0.9,6.5-3.3,10-4.7c0.1,0,2-0.6,3.8-0.9
	c6.9-1.2,13.8,0.4,16.9,1.3c13.7,3.8,17.8,9.4,25.1,7.3c1.5-0.3,2.8-1.1,3.8-2.2c3.1-3.5,1.7-9.9-0.8-14.6
	C216.9,199.7,224.6,191.1,219,183.1z"/>
<path id="Jawline" class="st7" d="M64.7,190.8c2.5,0.7,15.9,9.1,16.3,11.5c0.8,4.4-5.9,10.3-16.3,14.4"/>
<linearGradient id="Body-2_1_" gradientUnits="userSpaceOnUse" x1="444.9083" y1="-262.59" x2="444.9083" y2="-285.5316" gradientTransform="matrix(1 0 0 -1 -315.85 -80.88)">
	<stop  offset="0" style="stop-color:#6E8068"/>
	<stop  offset="0.13" style="stop-color:#6E8068"/>
	<stop  offset="1" style="stop-color:#FFFFFF;stop-opacity:0"/>
</linearGradient>
<path id="Body-2" class="st8" d="M218.9,182.6c-3-4.3-19.9,8.3-22,9.2c-2,0.8-3.9,1.7-5.8,2.7c-1,0-2-0.1-3-0.2
	c-1.6-0.3-3.6-0.7-5.3-1c-2.7-0.5-7.8-2.9-10.5-3.3s-5.3-0.3-8.1-0.7c-15.5-2.2-30.6-3.6-38.3-3.7c-8.6-0.2-38.8,0.6-61.6,4.7
	c-15.5,2.6-27.6,6.9-27.2,13.4c0.1,1.1,183.2,2.2,180.8-2.6C216.9,199.2,224.5,190.6,218.9,182.6z"/>
<path class="st1" d="M53.8,212.3c0.2-0.1,0.3-0.1,0.4-0.2c0.5-0.9-3.5-4.1-7.2-5.9c-4.4-2.2-9-2.7-9.2-2.2s2.7,1.9,8.1,4.5
	c0.8,0.4,1,0.5,1.7,0.8c1.1,0.5,1.9,0.9,2.5,1.2C52.3,211.6,53,212.6,53.8,212.3z"/>
<g id="Bottom_Fin">
	<path class="st1" d="M128.5,222.2c0.5,1.8,1.2,2.4,2.7,5c0.9,1.5,1.8,3,3.1,5c1.6,2.4,4.8,2.5,7,0.2l0.2-0.2
		c2.3-2.2,2.3-5.2,0.2-6.7c-1.7-1.2-3-2.2-4.2-3.2c-1.8-1.4-2.2-2.1-3.1-2.8c-0.1-0.1-0.5-0.3-1-0.6c-0.7-0.5-1.4-0.8-2.2-0.9
		c-0.5-0.1-1.1,0-1.6,0.1c-0.6,0.1-0.9,0.1-1,0.2C127.8,218.7,128.1,220.7,128.5,222.2z"/>
</g>
<g id="Bottom_Fin-2">
	
		<linearGradient id="SVGID_4_" gradientUnits="userSpaceOnUse" x1="452.5083" y1="-299.5107" x2="450.1883" y2="-314.2108" gradientTransform="matrix(1 0 0 -1 -315.85 -80.88)">
		<stop  offset="0" style="stop-color:#ECDA00"/>
		<stop  offset="0.58" style="stop-color:#EA8C2D"/>
	</linearGradient>
	<path class="st9" d="M128.6,222c0.5,1.8,1.2,2.4,2.7,5c0.9,1.5,1.8,3,3.1,5c1.6,2.4,4.8,2.5,7,0.2l0.2-0.2c2.3-2.2,2.3-5.2,0.2-6.7
		c-1.7-1.2-3-2.2-4.2-3.2c-1.8-1.4-2.2-2.1-3.1-2.8c-0.1-0.1-0.5-0.3-1-0.6c-0.7-0.5-1.4-0.8-2.2-0.9c-0.5-0.1-1.1,0-1.6,0.1
		c-0.6,0.1-0.9,0.1-1,0.2C128,218.5,128.3,220.5,128.6,222z"/>
</g>
<linearGradient id="SVGID_5_" gradientUnits="userSpaceOnUse" x1="436.074" y1="-267.21" x2="436.074" y2="-277.1501" gradientTransform="matrix(1 0 0 -1 -315.85 -80.88)">
	<stop  offset="0" style="stop-color:#B5963E"/>
	<stop  offset="1" style="stop-color:#FFFFFF;stop-opacity:0"/>
</linearGradient>
<path class="st10" d="M187,196.2c0.2-1-30.4-9.8-66.9-9.9c-11.3,0.1-22.6,0.7-33.8,2c-16.2,1.7-33,5.1-32.9,5.9
	c0.1,1,28.9-5,67.5-4.5C160.8,190.1,186.8,197.1,187,196.2z"/>
<linearGradient id="SVGID_6_" gradientUnits="userSpaceOnUse" x1="435.0733" y1="-267.81" x2="435.0733" y2="-294.2371" gradientTransform="matrix(1 0 0 -1 -315.85 -80.88)">
	<stop  offset="0" style="stop-color:#CB9831"/>
	<stop  offset="1" style="stop-color:#FFFFFF;stop-opacity:0"/>
</linearGradient>
<path class="st11" d="M186,200.8c0-6.8-37.8-13.9-66.9-13.9c-11.3,0.1-22.6,1-33.8,2.8c-19,2.8-32.8,4.8-32.9,8.3
	c-0.2,5.5,33.4,14.7,67.7,15.3C150.7,213.8,186,207.3,186,200.8z"/>
<linearGradient id="SVGID_7_" gradientUnits="userSpaceOnUse" x1="443.5239" y1="-298.09" x2="443.5239" y2="-272.84" gradientTransform="matrix(1 0 0 -1 -315.85 -80.88)">
	<stop  offset="0" style="stop-color:#FFFFFF;stop-opacity:0"/>
	<stop  offset="0.4" style="stop-color:#E2C45B"/>
	<stop  offset="0.58" style="stop-color:#E2C45B"/>
	<stop  offset="1" style="stop-color:#FFFFFF;stop-opacity:0"/>
</linearGradient>
<path class="st12" d="M186,203.9c0.1-5-32.9-9.5-55.2-11.1c-37.7-2.7-61.4,1.8-61.5,4.7c0,1.3,4.9,2,6.3,6.4c0.9,2.8-0.5,4.4-0.2,6
	c1.2,6.7,29.7,8.3,56,6.6c13.5-1,26.8-3.3,39.8-6.8C181,207.1,186,205.8,186,203.9z"/>
<radialGradient id="SVGID_8_" cx="373.3737" cy="-282.9459" r="15.012" gradientTransform="matrix(1 0 0 -1 -315.85 -80.88)" gradientUnits="userSpaceOnUse">
	<stop  offset="0" style="stop-color:#E2C45B"/>
	<stop  offset="0.36" style="stop-color:#E2C45B"/>
	<stop  offset="1" style="stop-color:#FFFFFF;stop-opacity:0"/>
</radialGradient>
<path class="st13" d="M76.3,200c0-3.4-5.6-6.1-8.4-7c-2.6-0.8-5.4-1.1-8.1-0.8c-2.6,0.3-4.8,0.8-6.4,1.1c0,0-7.5,1.7-10.8,4.3
	c-0.5,0.4-1,0.9-1.4,1.4c-0.4,0.4-0.7,0.8-1,1.3c-1,1.6-1.5,3.4-1.5,5.3c0.5,3.8,10.3,7.5,19,6.1c0.7-0.1,6.3-1.1,13.5-6.2
	C74.6,203,76.3,201.7,76.3,200z"/>
<g class="st14">
	<path class="st1" d="M95.3,211.4c-0.2-0.4-0.6-0.6-1-0.5c-0.4,0.2-0.5,0.7-0.3,1.1c0,0,0,0,0,0l0,0c0.1,0.4,0.6,0.6,0.9,0.4H95
		C95.4,212.2,95.5,211.8,95.3,211.4z"/>
</g>
<g class="st15">
	<path class="st16" d="M160.9,212.7c0-0.4-6.5,0.4-10.8,1c-7.3,1.1-10.5,3.3-10.4,3.4c0.3,0.5,5.9-0.4,10.9-1.4
		c0.4-0.1,3.6-0.8,7.6-2C160,213.2,160.9,212.9,160.9,212.7z"/>
</g>
<g class="st15">
	<path class="st16" d="M127.5,216.8c0-0.5-2.7-0.8-4.6-0.8c-3.1,0-4.4,2.1-4.3,2.2c0.2,0.7,2.5,0.7,4.6,0.3c1.1-0.2,2.2-0.5,3.2-1
		C127.3,217.2,127.6,217,127.5,216.8z"/>
</g>
<path class="st17" d="M53.5,212.4c0.2-0.1,0.3-0.1,0.4-0.2c0.5-0.9-3.5-4.1-7.2-5.9c-4.4-2.2-9-2.7-9.2-2.2s2.7,1.9,8.1,4.5
	c0.8,0.4,1,0.5,1.7,0.8c1.1,0.5,1.9,0.9,2.5,1.2C52,211.8,52.7,212.8,53.5,212.4z"/>
<path class="st17" d="M45.9,209.4c-0.1,0.3-2.5,1.4-4.9,0.9s-4-2.4-3.8-2.9s3.2,0.3,4.5,0.8c0.5,0.2,0.8,0.3,1.4,0.5
	C45,209.2,46,209.1,45.9,209.4z"/>
<linearGradient id="SVGID_9_" gradientUnits="userSpaceOnUse" x1="361.5761" y1="-293.31" x2="361.5761" y2="-285.05" gradientTransform="matrix(1 0 0 -1 -315.85 -80.88)">
	<stop  offset="0" style="stop-color:#FFFFFF;stop-opacity:0"/>
	<stop  offset="0.4" style="stop-color:#E2C45B"/>
	<stop  offset="0.58" style="stop-color:#E2C45B"/>
	<stop  offset="1" style="stop-color:#FFFFFF;stop-opacity:0"/>
</linearGradient>
<path class="st18" d="M53.9,212.4c0.2-0.3-2.7-3.7-7.2-5.9s-9-2.7-9.2-2.2s5.6,3.2,8.1,4.3c1,0.4,2,0.8,2.9,1.2
	C52.3,211.5,53.7,212.6,53.9,212.4z"/>
<linearGradient id="SVGID_10_" gradientUnits="userSpaceOnUse" x1="1476.6193" y1="-699.9793" x2="1476.6193" y2="-691.7193" gradientTransform="matrix(0.31 0.5 -0.46 0.77 -736.0715 5.6731)">
	<stop  offset="0" style="stop-color:#FFFFFF;stop-opacity:0"/>
	<stop  offset="0.4" style="stop-color:#E2C45B"/>
	<stop  offset="0.58" style="stop-color:#E2C45B"/>
	<stop  offset="1" style="stop-color:#FFFFFF;stop-opacity:0"/>
</linearGradient>
<path class="st19" d="M46,209.4c-0.1,0.3-2.5,1.4-4.9,0.9s-4-2.4-3.9-2.9s3.2,0.3,4.5,0.8c0.5,0.2,1,0.4,1.5,0.5
	C45.1,209.2,46,209.2,46,209.4z"/>
<linearGradient id="SVGID_11_" gradientUnits="userSpaceOnUse" x1="517.7527" y1="-263.4455" x2="517.7527" y2="-299.2655" gradientTransform="matrix(1 0 0 -1 -315.85 -80.88)">
	<stop  offset="0" style="stop-color:#E2C45B"/>
	<stop  offset="0.4" style="stop-color:#E0D38E;stop-opacity:0.5"/>
	<stop  offset="0.62" style="stop-color:#E0D38E;stop-opacity:0.5"/>
	<stop  offset="1" style="stop-color:#E2C45B"/>
</linearGradient>
<path class="st20" d="M182.3,200.9c-0.1,0.7,0,1.4,0.3,2.1c1.1,3.6,4.3,5.3,14.5,10.2c6.9,3.3,7.5,3.5,8.4,3.8
	c3.2,0.9,10.5,3,13.6-0.6c2-2.3,1.5-6,1.4-7c-0.6-4.7-3.4-5.3-3.3-8.8s3.1-3.9,4.1-8.5c0.6-2.7,0.6-7.2-1.9-8.9
	c-2.8-1.9-7.4,0.6-12.5,3.4c-4.4,2.3-4.2,3.1-8.2,5.6C193.6,195.1,183.1,196.6,182.3,200.9z"/>
<linearGradient id="SVGID_12_" gradientUnits="userSpaceOnUse" x1="392.1299" y1="-268.7887" x2="394.0299" y2="-277.3687" gradientTransform="matrix(1 0 0 -1 -315.85 -80.88)">
	<stop  offset="0" style="stop-color:#6E8068"/>
	<stop  offset="0.18" style="stop-color:#6E8068"/>
	<stop  offset="0.48" style="stop-color:#6E8068;stop-opacity:0.5"/>
	<stop  offset="0.81" style="stop-color:#D9DBD4;stop-opacity:0.19"/>
	<stop  offset="1" style="stop-color:#FFFFFF;stop-opacity:0"/>
</linearGradient>
<path class="st21" d="M117.5,187.2c-0.3-2.3-37.7,1.2-49.5,2.8c-2.7,0.4-5.6,1-11.4,2.2c-6.9,1.5-10.2,2.4-13.6,4.7
	c-1.1,0.7-5.6,3.7-5,5.1c0.8,2.2,13.5-0.8,24.2-3.2C102.4,189.8,117.6,188.7,117.5,187.2z"/>
<g id="Forearm">
	<path class="st1" d="M74.4,211.7c5.1-1.2,10.3-1.5,15.5-0.8c5,0.5,5.4,1.1,5.4,1.3c0.4,1.5-3.8,4.4-8.1,5.4c-2,0.5-4.1,0.5-6.1,0.2
		c-5.1-0.6-10.7-2.9-10.5-4.5C70.8,213.1,70.9,212.6,74.4,211.7z"/>
</g>
<g class="st22">
	<path class="st1" d="M46.6,200.9c-0.1-2,1.8-3.7,4.2-3.8c2.1-0.2,3.9,1.3,4.2,3.3c0,0,0,0,0,0c0,0.1,0,0.3,0,0.5
		c-0.1,2.1-1.9,3.8-4,3.7h-0.1C48.7,204.6,46.9,203.1,46.6,200.9z"/>
</g>
<g id="Forearm-2">
	<path class="st17" d="M74.4,212.1c5.1-1.2,10.3-1.5,15.5-0.8c5,0.5,5.4,1.1,5.4,1.3c0.4,1.5-3.8,4.4-8.1,5.4
		c-2,0.5-4.1,0.5-6.1,0.2c-5.1-0.6-10.7-2.9-10.5-4.5C70.8,213.5,71,213,74.4,212.1z"/>
</g>
<circle id="Eye" class="st23" cx="50.8" cy="200.8" r="3.2"/>
<g id="Iris">
	<path d="M51.8,201c0,0.6-0.5,1.1-1.1,1.1s-1.1-0.5-1.1-1.1c-0.1-0.5,0.3-1,0.9-1.1h0.2C51.3,199.9,51.8,200.4,51.8,201z"/>
</g>
<circle id="Pupil" class="st24" cx="51.3" cy="200.5" r="0.3"/>
<path class="st25" d="M75.5,196.8c-0.3-0.1-0.6-0.3-0.7-0.6c0.1-0.4,0.3-0.6,0.7-0.7c0.3-0.1,0.6,0.1,0.7,0.4c0,0.1,0,0.1,0,0.2
	C76.1,196.6,75.8,196.9,75.5,196.8z"/>
<path class="st25" d="M102.6,196.8c-0.3-0.1-0.6-0.3-0.7-0.6c0.1-0.4,0.3-0.6,0.7-0.7c0.3-0.1,0.6,0.1,0.7,0.4c0,0.1,0,0.1,0,0.2
	C103.3,196.6,103,196.9,102.6,196.8z"/>
<path class="st25" d="M107.3,194.9c-0.3-0.1-0.6-0.3-0.7-0.6c0.1-0.4,0.3-0.6,0.7-0.7c0.3-0.1,0.6,0.1,0.7,0.4c0,0.1,0,0.1,0,0.2
	c0,0.3-0.2,0.7-0.6,0.7H107.3z"/>
<path class="st25" d="M99.3,194.9c-0.3-0.1-0.6-0.3-0.7-0.6c0.1-0.4,0.3-0.6,0.7-0.7c0.3-0.1,0.6,0.1,0.7,0.4c0,0.1,0,0.1,0,0.2
	c0,0.3-0.2,0.7-0.6,0.7H99.3z"/>
<path class="st25" d="M96.3,196.9c-0.3-0.1-0.6-0.3-0.7-0.6c0.1-0.4,0.3-0.6,0.7-0.7c0.3-0.1,0.6,0.1,0.7,0.4c0,0.1,0,0.1,0,0.2
	c0,0.3-0.2,0.7-0.6,0.7H96.3z"/>
<path class="st25" d="M88.3,194.9c-0.3-0.1-0.6-0.3-0.7-0.6c0.1-0.4,0.3-0.6,0.7-0.7c0.3-0.1,0.6,0.1,0.7,0.4c0,0.1,0,0.1,0,0.2
	c0,0.3-0.2,0.7-0.6,0.7H88.3z"/>
<path class="st25" d="M84.3,193.9c-0.3-0.1-0.6-0.3-0.7-0.6c0.1-0.4,0.3-0.6,0.7-0.7c0.3-0.1,0.6,0.1,0.7,0.4c0,0.1,0,0.1,0,0.2
	c0,0.3-0.2,0.7-0.6,0.7H84.3z"/>
<path class="st25" d="M91.3,191.9c-0.3-0.1-0.6-0.3-0.7-0.6c0.1-0.4,0.3-0.6,0.7-0.7c0.3-0.1,0.6,0.1,0.7,0.4c0,0.1,0,0.1,0,0.2
	c0,0.3-0.2,0.7-0.6,0.7H91.3z"/>
<path class="st25" d="M97.3,190.9c-0.3-0.1-0.6-0.3-0.7-0.6c0.1-0.4,0.3-0.6,0.7-0.7c0.3-0.1,0.6,0.1,0.7,0.4c0,0.1,0,0.1,0,0.2
	c0,0.3-0.2,0.7-0.6,0.7H97.3z"/>
<path class="st25" d="M118.3,187.9c-0.3-0.1-0.6-0.3-0.7-0.6c0.1-0.4,0.3-0.6,0.7-0.7c0.3-0.1,0.6,0.1,0.7,0.4c0,0.1,0,0.1,0,0.2
	c0,0.3-0.2,0.7-0.6,0.7H118.3z"/>
<path class="st25" d="M120.6,184.7c-0.2-0.3-0.2-0.7,0-1c0.2-0.3,0.5-0.5,0.9-0.4c0.3,0.1,0.3,0.5,0,1S120.8,184.9,120.6,184.7z"/>
<path class="st25" d="M120,181.7c-0.3,0.3-0.7,0.4-1.1,0.3c-0.3-0.3-0.3-0.8,0-1.1c0,0,0,0,0,0c0.3-0.4,0.7-0.6,1.1-0.3
	S120.3,181.3,120,181.7z"/>
<path class="st25" d="M123.7,179.8c-0.3,0.3-0.3,0.8-0.1,1.1c0.2,0.2,0.7,0,1.1-0.4s0.4-0.9,0.1-1.1
	C124.4,179.2,123.9,179.4,123.7,179.8C123.7,179.8,123.7,179.8,123.7,179.8L123.7,179.8z"/>
<path class="st25" d="M125.7,176.7c-0.3-0.3-0.3-0.8-0.1-1.1c0.2-0.4,0.7-0.6,1.1-0.5c0.4,0.1,0.4,0.6,0.1,1.1
	S126,176.9,125.7,176.7z"/>
<path class="st25" d="M126.8,184.7c-0.3-0.2-0.3-0.7-0.1-1.1c0.2-0.3,0.6-0.5,1-0.4c0.4,0.1,0.4,0.6,0.1,1.1
	C127.5,184.8,127,184.9,126.8,184.7z"/>
<path class="st25" d="M130.7,178.2c0.3,0.2,0.3,0.7,0.2,1.1c-0.2,0.4-0.6,0.6-1,0.4h0c-0.4-0.1-0.5-0.6-0.2-1.1
	S130.4,178,130.7,178.2z"/>
<path class="st25" d="M132.7,174.8c0.2,0.3,0.3,0.7,0.1,1c-0.2,0.3-0.6,0.5-1,0.3c-0.4-0.2-0.4-0.6-0.1-1S132.4,174.5,132.7,174.8z"
	/>
<path class="st25" d="M131.8,184.3c-0.3-0.2-0.3-0.7-0.1-1.1c0.2-0.4,0.6-0.5,1-0.4c0.4,0.1,0.4,0.6,0.1,1.1S132,184.5,131.8,184.3z
	"/>
<path class="st25" d="M134.8,180.2c-0.3-0.3-0.3-0.7-0.1-1.1c0.2-0.3,0.6-0.5,1-0.3c0.4,0.2,0.4,0.6,0.1,1.1S135,180.4,134.8,180.2z
	"/>
<path class="st25" d="M138.7,176.4c-0.2-0.3-0.2-0.8,0-1.1c0.2-0.4,0.7-0.5,1.1-0.3c0,0,0,0,0,0l0,0c0.4,0.2,0.3,0.7,0,1.1
	S138.9,176.6,138.7,176.4z"/>
<path class="st25" d="M137.8,184.7c-0.3-0.3-0.3-0.7-0.1-1.1c0.3-0.3,0.6-0.4,1-0.3c0.4,0.2,0.4,0.6,0.1,1.1S138,184.9,137.8,184.7z
	"/>
<path class="st25" d="M143.4,180.8c-0.3,0.2-0.8,0.2-1.1,0c-0.2-0.2-0.1-0.7,0.3-1c0.3-0.3,0.8-0.3,1.1,0c0,0,0,0,0,0
	C143.9,180.2,143.8,180.6,143.4,180.8C143.5,180.8,143.5,180.8,143.4,180.8L143.4,180.8z"/>
<path class="st25" d="M112.3,190.9c-0.3-0.1-0.6-0.3-0.7-0.6c0.1-0.4,0.3-0.6,0.7-0.7c0.3-0.1,0.6,0.1,0.7,0.4c0,0.1,0,0.1,0,0.2
	c0,0.3-0.2,0.7-0.6,0.7H112.3z"/>
<path class="st25" d="M114.3,188.9c-0.3-0.1-0.6-0.3-0.7-0.6c0.1-0.4,0.3-0.6,0.7-0.7c0.3-0.1,0.6,0.1,0.7,0.4c0,0.1,0,0.1,0,0.2
	c0,0.3-0.2,0.7-0.6,0.7H114.3z"/>
<path class="st25" d="M71.3,194.9c-0.3-0.1-0.6-0.3-0.7-0.6c0.1-0.4,0.3-0.6,0.7-0.7c0.3-0.1,0.6,0.1,0.7,0.4c0,0.1,0,0.1,0,0.2
	c0,0.3-0.2,0.7-0.6,0.7H71.3z"/>
<path class="st25" d="M69.3,198.9c-0.3-0.1-0.6-0.3-0.7-0.6c0.1-0.4,0.3-0.6,0.7-0.7c0.3-0.1,0.6,0.1,0.7,0.4c0,0.1,0,0.1,0,0.2
	c0,0.3-0.2,0.7-0.6,0.7H69.3z"/>
<path class="st25" d="M66.3,196.9c-0.3-0.1-0.6-0.3-0.7-0.6c0.1-0.4,0.3-0.6,0.7-0.7c0.3-0.1,0.6,0.1,0.7,0.4c0,0.1,0,0.1,0,0.2
	c0,0.3-0.2,0.7-0.6,0.7H66.3z"/>
<path class="st25" d="M63.3,194.9c-0.3-0.1-0.6-0.3-0.7-0.6c0.1-0.4,0.3-0.6,0.7-0.7c0.3-0.1,0.6,0.1,0.7,0.4c0,0.1,0,0.1,0,0.2
	c0,0.3-0.2,0.7-0.6,0.7H63.3z"/>
<path class="st25" d="M60.3,197.9c-0.3-0.1-0.6-0.3-0.7-0.6c0.1-0.4,0.3-0.6,0.7-0.7c0.3-0.1,0.6,0.1,0.7,0.4c0,0.1,0,0.1,0,0.2
	c0,0.3-0.2,0.7-0.6,0.7H60.3z"/>
<path class="st25" d="M57.3,195.9c-0.3-0.1-0.6-0.3-0.7-0.6c0.1-0.4,0.3-0.6,0.7-0.7c0.3-0.1,0.6,0.1,0.7,0.4c0,0.1,0,0.1,0,0.2
	c0,0.3-0.2,0.7-0.6,0.7H57.3z"/>
<path class="st25" d="M55.3,196.9c-0.3-0.1-0.6-0.3-0.7-0.6c0.1-0.4,0.3-0.6,0.7-0.7c0.3-0.1,0.6,0.1,0.7,0.4c0,0.1,0,0.1,0,0.2
	c0,0.3-0.2,0.7-0.6,0.7H55.3z"/>
<g class="st26">
	<path class="st25" d="M48.7,202c-0.4-0.1-0.8-0.4-0.8-0.8s0.3-0.7,0.8-0.8c0.4-0.1,0.7,0.1,0.8,0.5c0,0.1,0,0.2,0,0.3
		C49.5,201.7,49.2,202,48.7,202L48.7,202z"/>
</g>
<g class="st27">
	<path class="st25" d="M52.9,202c-0.5-0.1-0.8-0.4-0.9-0.9c0-0.5,0.4-0.9,0.9-0.9c0.5-0.1,0.9,0.3,0.9,0.9S53.3,202.1,52.9,202z"/>
</g>
<path class="st25" d="M44.3,199.9c-0.3-0.1-0.6-0.3-0.7-0.6c0.1-0.4,0.3-0.6,0.7-0.7c0.3-0.1,0.6,0.1,0.7,0.4c0,0.1,0,0.1,0,0.2
	c0,0.3-0.2,0.7-0.6,0.7H44.3z"/>
<path class="st25" d="M192.3,210.9c-0.3-0.1-0.6-0.3-0.7-0.6c0.1-0.4,0.3-0.6,0.7-0.7c0.3-0.1,0.6,0.1,0.7,0.4c0,0.1,0,0.1,0,0.2
	c0,0.3-0.2,0.7-0.6,0.7H192.3z"/>
<path class="st25" d="M196.3,212.9c-0.3-0.1-0.6-0.3-0.7-0.6c0.1-0.4,0.3-0.6,0.7-0.7c0.3-0.1,0.6,0.1,0.7,0.4c0,0.1,0,0.1,0,0.2
	c0,0.3-0.2,0.7-0.6,0.7H196.3z"/>
<path class="st25" d="M202.3,214.9c-0.3-0.1-0.6-0.3-0.7-0.6c0.1-0.4,0.3-0.6,0.7-0.7c0.3-0.1,0.6,0.1,0.7,0.4c0,0.1,0,0.1,0,0.2
	c0,0.3-0.2,0.7-0.6,0.7H202.3z"/>
<path class="st25" d="M206.3,214.9c-0.3-0.1-0.6-0.3-0.7-0.6c0.1-0.4,0.3-0.6,0.7-0.7c0.3-0.1,0.6,0.1,0.7,0.4c0,0.1,0,0.1,0,0.2
	c0,0.3-0.2,0.7-0.6,0.7H206.3z"/>
<path class="st25" d="M120.3,195.9c-0.3-0.1-0.6-0.3-0.7-0.6c0.1-0.4,0.3-0.6,0.7-0.7c0.3-0.1,0.6,0.1,0.7,0.4c0,0.1,0,0.1,0,0.2
	c0,0.3-0.2,0.7-0.6,0.7H120.3z"/>
<path class="st25" d="M119.3,192.9c-0.3-0.1-0.6-0.3-0.7-0.6c0.1-0.4,0.3-0.6,0.7-0.7c0.3-0.1,0.6,0.1,0.7,0.4c0,0.1,0,0.1,0,0.2
	c0,0.3-0.2,0.7-0.6,0.7H119.3z"/>
<path class="st25" d="M116.3,191.9c-0.3-0.1-0.6-0.3-0.7-0.6c0.1-0.4,0.3-0.6,0.7-0.7c0.3-0.1,0.6,0.1,0.7,0.4c0,0.1,0,0.1,0,0.2
	c0,0.3-0.2,0.7-0.6,0.7H116.3z"/>
<path class="st25" d="M124.3,190.9c-0.3-0.1-0.6-0.3-0.7-0.6c0.1-0.4,0.3-0.6,0.7-0.7c0.3-0.1,0.6,0.1,0.7,0.4c0,0.1,0,0.1,0,0.2
	c0,0.3-0.2,0.7-0.6,0.7H124.3z"/>
<path class="st25" d="M126.3,194.9c-0.3-0.1-0.6-0.3-0.7-0.6c0.1-0.4,0.3-0.6,0.7-0.7c0.3-0.1,0.6,0.1,0.7,0.4c0,0.1,0,0.1,0,0.2
	c0,0.3-0.2,0.7-0.6,0.7H126.3z"/>
<path class="st25" d="M138.3,194.9c-0.3-0.1-0.6-0.3-0.7-0.6c0.1-0.4,0.3-0.6,0.7-0.7c0.3-0.1,0.6,0.1,0.7,0.4c0,0.1,0,0.1,0,0.2
	c0,0.3-0.2,0.7-0.6,0.7H138.3z"/>
<g class="st28">
	<path class="st25" d="M137.3,191.9c-0.3-0.1-0.6-0.3-0.7-0.6c0.1-0.4,0.3-0.6,0.7-0.7c0.3-0.1,0.6,0.1,0.7,0.4c0,0.1,0,0.1,0,0.2
		c0,0.3-0.2,0.7-0.6,0.7H137.3z"/>
</g>
<path class="st25" d="M141.3,192.9c-0.3-0.1-0.6-0.3-0.7-0.6c0.1-0.4,0.3-0.6,0.7-0.7c0.3-0.1,0.6,0.1,0.7,0.4c0,0.1,0,0.1,0,0.2
	c0,0.3-0.2,0.7-0.6,0.7H141.3z"/>
<path class="st25" d="M144.3,194.9c-0.3-0.1-0.6-0.3-0.7-0.6c0.1-0.4,0.3-0.6,0.7-0.7c0.3-0.1,0.6,0.1,0.7,0.4c0,0.1,0,0.1,0,0.2
	c0,0.3-0.2,0.7-0.6,0.7H144.3z"/>
<path class="st25" d="M149.3,194.9c-0.3-0.1-0.6-0.3-0.7-0.6c0.1-0.4,0.3-0.6,0.7-0.7c0.3-0.1,0.6,0.1,0.7,0.4c0,0.1,0,0.1,0,0.2
	c0,0.3-0.2,0.7-0.6,0.7H149.3z"/>
<path class="st25" d="M152.3,193.9c-0.3-0.1-0.6-0.3-0.7-0.6c0.1-0.4,0.3-0.6,0.7-0.7c0.3-0.1,0.6,0.1,0.7,0.4c0,0.1,0,0.1,0,0.2
	c0,0.3-0.2,0.7-0.6,0.7H152.3z"/>
<path class="st25" d="M148.3,191.9c-0.3-0.1-0.6-0.3-0.7-0.6c0.1-0.4,0.3-0.6,0.7-0.7c0.3-0.1,0.6,0.1,0.7,0.4c0,0.1,0,0.1,0,0.2
	c0,0.3-0.2,0.7-0.6,0.7H148.3z"/>
<path class="st25" d="M163.3,193.9c-0.3-0.1-0.6-0.3-0.7-0.6c0.1-0.4,0.3-0.6,0.7-0.7c0.3-0.1,0.6,0.1,0.7,0.4c0,0.1,0,0.1,0,0.2
	c0,0.3-0.2,0.7-0.6,0.7H163.3z"/>
<path class="st25" d="M165.3,195.9c-0.3-0.1-0.6-0.3-0.7-0.6c0.1-0.4,0.3-0.6,0.7-0.7c0.3-0.1,0.6,0.1,0.7,0.4c0,0.1,0,0.1,0,0.2
	c0,0.3-0.2,0.7-0.6,0.7H165.3z"/>
<path class="st25" d="M168.3,194.9c-0.3-0.1-0.6-0.3-0.7-0.6c0.1-0.4,0.3-0.6,0.7-0.7c0.3-0.1,0.6,0.1,0.7,0.4c0,0.1,0,0.1,0,0.2
	c0,0.3-0.2,0.7-0.6,0.7H168.3z"/>
<path class="st25" d="M166.3,192.9c-0.3-0.1-0.6-0.3-0.7-0.6c0.1-0.4,0.3-0.6,0.7-0.7c0.3-0.1,0.6,0.1,0.7,0.4c0,0.1,0,0.1,0,0.2
	c0,0.3-0.2,0.7-0.6,0.7H166.3z"/>
<path class="st25" d="M161.3,191.9c-0.3-0.1-0.6-0.3-0.7-0.6c0.1-0.4,0.3-0.6,0.7-0.7c0.3-0.1,0.6,0.1,0.7,0.4c0,0.1,0,0.1,0,0.2
	c0,0.3-0.2,0.7-0.6,0.7H161.3z"/>
<path class="st25" d="M175.3,197.9c-0.3-0.1-0.6-0.3-0.7-0.6c0.1-0.4,0.3-0.6,0.7-0.7c0.3-0.1,0.6,0.1,0.7,0.4c0,0.1,0,0.1,0,0.2
	c0,0.3-0.2,0.7-0.6,0.7H175.3z"/>
<path class="st25" d="M174.3,194.9c-0.3-0.1-0.6-0.3-0.7-0.6c0.1-0.4,0.3-0.6,0.7-0.7c0.3-0.1,0.6,0.1,0.7,0.4c0,0.1,0,0.1,0,0.2
	c0,0.3-0.2,0.7-0.6,0.7H174.3z"/>
<path class="st25" d="M178.3,195.9c-0.3-0.1-0.6-0.3-0.7-0.6c0.1-0.4,0.3-0.6,0.7-0.7c0.3-0.1,0.6,0.1,0.7,0.4c0,0.1,0,0.1,0,0.2
	c0,0.3-0.2,0.7-0.6,0.7H178.3z"/>
<path class="st25" d="M186.3,195.9c-0.3-0.1-0.6-0.3-0.7-0.6c0.1-0.4,0.3-0.6,0.7-0.7c0.3-0.1,0.6,0.1,0.7,0.4c0,0.1,0,0.1,0,0.2
	c0,0.3-0.2,0.7-0.6,0.7H186.3z"/>
<path class="st25" d="M184.3,198.9c-0.3-0.1-0.6-0.3-0.7-0.6c0.1-0.4,0.3-0.6,0.7-0.7c0.3-0.1,0.6,0.1,0.7,0.4c0,0.1,0,0.1,0,0.2
	c0,0.3-0.2,0.7-0.6,0.7H184.3z"/>
<path class="st25" d="M193.3,197.9c-0.3-0.1-0.6-0.3-0.7-0.6c0.1-0.4,0.3-0.6,0.7-0.7c0.3-0.1,0.6,0.1,0.7,0.4c0,0.1,0,0.1,0,0.2
	c0,0.3-0.2,0.7-0.6,0.7H193.3z"/>
<path class="st25" d="M197.3,196.9c-0.3-0.1-0.6-0.3-0.7-0.6c0.1-0.4,0.3-0.6,0.7-0.7c0.3-0.1,0.6,0.1,0.7,0.4c0,0.1,0,0.1,0,0.2
	c0,0.3-0.2,0.7-0.6,0.7H197.3z"/>
<path class="st25" d="M201.3,194.9c-0.3-0.1-0.6-0.3-0.7-0.6c0.1-0.4,0.3-0.6,0.7-0.7c0.3-0.1,0.6,0.1,0.7,0.4c0,0.1,0,0.1,0,0.2
	c0,0.3-0.2,0.7-0.6,0.7H201.3z"/>
<path class="st25" d="M207.3,191.9c-0.3-0.1-0.6-0.3-0.7-0.6c0.1-0.4,0.3-0.6,0.7-0.7c0.3-0.1,0.6,0.1,0.7,0.4c0,0.1,0,0.1,0,0.2
	c0,0.3-0.2,0.7-0.6,0.7H207.3z"/>
<path class="st25" d="M196.3,200.9c-0.3-0.1-0.6-0.3-0.7-0.6c0.1-0.4,0.3-0.6,0.7-0.7c0.3-0.1,0.6,0.1,0.7,0.4c0,0.1,0,0.1,0,0.2
	c0,0.3-0.2,0.7-0.6,0.7H196.3z"/>
<path class="st25" d="M201.3,198.9c-0.3-0.1-0.6-0.3-0.7-0.6c0.1-0.4,0.3-0.6,0.7-0.7c0.3-0.1,0.6,0.1,0.7,0.4c0,0.1,0,0.1,0,0.2
	c0,0.3-0.2,0.7-0.6,0.7H201.3z"/>
<path class="st25" d="M206.3,196.9c-0.3-0.1-0.6-0.3-0.7-0.6c0.1-0.4,0.3-0.6,0.7-0.7c0.3-0.1,0.6,0.1,0.7,0.4c0,0.1,0,0.1,0,0.2
	c0,0.3-0.2,0.7-0.6,0.7H206.3z"/>
<path class="st25" d="M204.3,200.9c-0.3-0.1-0.6-0.3-0.7-0.6c0.1-0.4,0.3-0.6,0.7-0.7c0.3-0.1,0.6,0.1,0.7,0.4c0,0.1,0,0.1,0,0.2
	c0,0.3-0.2,0.7-0.6,0.7H204.3z"/>
<path class="st25" d="M210.3,200.9c-0.3-0.1-0.6-0.3-0.7-0.6c0.1-0.4,0.3-0.6,0.7-0.7c0.3-0.1,0.6,0.1,0.7,0.4c0,0.1,0,0.1,0,0.2
	c0,0.3-0.2,0.7-0.6,0.7H210.3z"/>
<path class="st25" d="M201.3,203.9c-0.3-0.1-0.6-0.3-0.7-0.6c0.1-0.4,0.3-0.6,0.7-0.7c0.3-0.1,0.6,0.1,0.7,0.4c0,0.1,0,0.1,0,0.2
	c0,0.3-0.2,0.7-0.6,0.7H201.3z"/>
<path class="st25" d="M207.3,205.9c-0.3-0.1-0.6-0.3-0.7-0.6c0.1-0.4,0.3-0.6,0.7-0.7c0.3-0.1,0.6,0.1,0.7,0.4c0,0.1,0,0.1,0,0.2
	c0,0.3-0.2,0.7-0.6,0.7H207.3z"/>
<path class="st25" d="M193.3,205.9c-0.3-0.1-0.6-0.3-0.7-0.6c0.1-0.4,0.3-0.6,0.7-0.7c0.3-0.1,0.6,0.1,0.7,0.4c0,0.1,0,0.1,0,0.2
	c0,0.3-0.2,0.7-0.6,0.7H193.3z"/>
<path class="st25" d="M197.3,207.9c-0.3-0.1-0.6-0.3-0.7-0.6c0.1-0.4,0.3-0.6,0.7-0.7c0.3-0.1,0.6,0.1,0.7,0.4c0,0.1,0,0.1,0,0.2
	c0,0.3-0.2,0.7-0.6,0.7H197.3z"/>
<path class="st25" d="M202.3,209.9c-0.3-0.1-0.6-0.3-0.7-0.6c0.1-0.4,0.3-0.6,0.7-0.7c0.3-0.1,0.6,0.1,0.7,0.4c0,0.1,0,0.1,0,0.2
	c0,0.3-0.2,0.7-0.6,0.7H202.3z"/>
<path class="st25" d="M208.3,212.9c-0.3-0.1-0.6-0.3-0.7-0.6c0.1-0.4,0.3-0.6,0.7-0.7c0.3-0.1,0.6,0.1,0.7,0.4c0,0.1,0,0.1,0,0.2
	c0,0.3-0.2,0.7-0.6,0.7H208.3z"/>
<path class="st25" d="M183.3,207.9c-0.3-0.1-0.6-0.3-0.7-0.6c0.1-0.4,0.3-0.6,0.7-0.7c0.3-0.1,0.6,0.1,0.7,0.4c0,0.1,0,0.1,0,0.2
	c0,0.3-0.2,0.7-0.6,0.7H183.3z"/>
<g class="st29">
	
		<linearGradient id="SVGID_13_" gradientUnits="userSpaceOnUse" x1="449.7738" y1="-286.58" x2="449.7738" y2="-278.56" gradientTransform="matrix(1 0 0 -1 -315.85 -80.88)">
		<stop  offset="0" style="stop-color:#C25530;stop-opacity:0.6"/>
		<stop  offset="0.5" style="stop-color:#C25530"/>
		<stop  offset="1" style="stop-color:#C25530;stop-opacity:0.6"/>
	</linearGradient>
	<path class="st30" d="M187.8,200.4c0,1.1-37.8,5-53.9,5.2c-14.7,0.2-53.9-5.2-53.9-5.3c0.1-2.1,39.6-2.9,53.9-2.7
		C150.1,197.9,187.8,200.4,187.8,200.4z"/>
</g>
<path class="st1" d="M159.3,201.6c0.1,2.9-1.8,5.4-4.2,5.5s-4.3-2.4-4.2-5.5s1.9-5.6,4.2-5.4S159.3,198.8,159.3,201.6z"/>
<path class="st1" d="M144.5,200.9c0.2,2.1-1.3,3.9-3.4,4.2c-1.9,0.1-3.5-1.8-3.4-4.2s1.5-4.3,3.4-4.2
	C143.1,197.1,144.6,198.9,144.5,200.9z"/>
<path class="st1" d="M167.8,201.4c-1.9,0.1-3.6-1.1-3.7-2.7s1.5-2.8,3.6-2.8s3.7,1.2,3.7,2.7S169.7,201.3,167.8,201.4z"/>
<path class="st1" d="M132.5,201.4c0,1.9-1.2,3.5-2.8,3.6s-2.8-1.6-2.8-3.6s1.2-3.7,2.8-3.6C131.4,198.2,132.6,199.7,132.5,201.4z"/>
<path class="st1" d="M109.1,201.1c-0.1-2.9,1.8-5.4,4.2-5.5s4.3,2.4,4.2,5.5s-1.9,5.6-4.2,5.4S109.3,203.9,109.1,201.1z"/>
<path class="st1" d="M102.6,201.1c0,1.9-1.2,3.5-2.8,3.6s-2.8-1.6-2.8-3.6s1.2-3.7,2.8-3.6S102.6,199.2,102.6,201.1z"/>
<path class="st1" d="M182.6,200c-0.1,1.4-1.4,2.5-2.8,2.4c-1.4,0.2-2.6-0.8-2.8-2.1c0,0,0,0,0,0c0-0.1,0-0.2,0-0.3
	c0.1-1.4,1.3-2.5,2.8-2.4c0,0,0,0,0,0l0,0C181.2,197.7,182.4,198.7,182.6,200z"/>
<path class="st1" d="M191.5,200.6c-0.1,1.4-1.4,2.5-2.8,2.4c-1.4,0.2-2.6-0.8-2.8-2.1c0,0,0,0,0,0c0-0.1,0-0.2,0-0.3
	c0.1-1.4,1.3-2.5,2.8-2.4c0,0,0,0,0,0l0,0C190.1,198.2,191.3,199.2,191.5,200.6z"/>
<path class="st1" d="M85.3,198.7c-0.4,1.3-1.7,2.1-3,1.8c-1.2-0.4-1.6-1.9-1-3.3s1.9-2.3,2.9-1.8C85.4,196.1,85.9,197.5,85.3,198.7z
	"/>
<path class="st1" d="M86.3,202.8c0.3,0.8,0,1.7-0.8,2.1c-0.7,0.3-1.5-0.3-1.8-1.2c-0.4-0.7-0.2-1.5,0.5-1.9c0.7-0.4,1.5-0.2,1.9,0.5
	C86.2,202.5,86.3,202.7,86.3,202.8z"/>
<g class="st14">
	<path class="st1" d="M91.3,208.4c-0.8-0.3-1.1-1.2-0.8-1.9c0,0,0,0,0,0v-0.1c0.3-0.7,1.3-0.8,2.2-0.3s1.2,1.4,0.8,2
		C92.9,208.7,92,208.8,91.3,208.4z"/>
</g>
<g class="st14">
	<path class="st1" d="M79.6,207.4c-0.2-0.8,0.3-1.6,1.1-1.9c0.8-0.2,1.5,0.5,1.6,1.5c0.2,0.8-0.3,1.7-1.1,1.9
		C80.5,209,79.8,208.3,79.6,207.4z"/>
</g>
<linearGradient id="SVGID_14_" gradientUnits="userSpaceOnUse" x1="353.4138" y1="-289.3135" x2="357.2238" y2="-289.3135" gradientTransform="matrix(1 0 0 -1 -315.85 -80.88)">
	<stop  offset="0" style="stop-color:#4A5854"/>
	<stop  offset="0.13" style="stop-color:#4A5854"/>
	<stop  offset="1" style="stop-color:#4A5854;stop-opacity:0.2"/>
</linearGradient>
<path class="st31" d="M37.6,207.5c0.6-0.1,1.3-0.1,1.9,0c1.3,0.1,1.6,0.2,1.7,0.5c0.2,0.3,0.2,0.7,0,1c-0.2,0.2-0.6,0.4-0.9,0.4
	C38.9,209.5,37.3,207.9,37.6,207.5z"/>
<linearGradient id="SVGID_15_" gradientUnits="userSpaceOnUse" x1="-811.2027" y1="-972.9883" x2="-807.3027" y2="-972.9883" gradientTransform="matrix(-0.76 2.52 -0.86 -0.66 -1389.8998 1603.2233)">
	<stop  offset="0" style="stop-color:#4A5854"/>
	<stop  offset="0.13" style="stop-color:#4A5854"/>
	<stop  offset="1" style="stop-color:#4A5854;stop-opacity:0.2"/>
</linearGradient>
<path class="st32" d="M61.9,201.4c-0.2,0,0.2,1.5,0,4s-0.2,3.7-1.3,4.9c-0.5,0.6-1.3,1.2-1.2,1.4s0.7,0,1-0.1c2-0.7,2.5-4,2.4-6.4
	C62.8,203.9,62.5,202.6,61.9,201.4z"/>
<g class="st14">
	<path class="st1" d="M127.9,208.8c-0.6-0.2-0.7-0.9-0.3-1.5c0.4-0.6,1.1-0.9,1.8-0.6c0.4,0.1,0.7,0.6,0.5,1c0,0.1-0.1,0.3-0.2,0.4
		C129.3,208.7,128.6,209,127.9,208.8z"/>
</g>
<g class="st14">
	<path class="st1" d="M132.3,209.3c-0.2-0.1-0.4-0.3-0.3-0.5c0-0.1,0.1-0.1,0.1-0.2c0.2-0.3,0.6-0.4,0.9-0.3
		c0.2,0.1,0.4,0.3,0.3,0.5c0,0.1-0.1,0.1-0.1,0.2C133,209.3,132.7,209.4,132.3,209.3z"/>
</g>
<g class="st14">
	<path class="st1" d="M116.3,212.3c-0.2-0.1-0.4-0.3-0.3-0.5c0-0.1,0.1-0.1,0.1-0.2c0.2-0.3,0.6-0.4,0.9-0.3
		c0.2,0.1,0.4,0.3,0.3,0.5c0,0.1-0.1,0.1-0.1,0.2C117,212.3,116.7,212.4,116.3,212.3z"/>
</g>
<g class="st14">
	<path class="st1" d="M106.5,211.4c-0.2,0-0.4-0.2-0.4-0.4c0,0,0,0,0,0c0,0,0-0.1,0-0.1c0.1-0.3,0.4-0.6,0.7-0.6
		c0.2,0,0.4,0.2,0.4,0.4c0,0,0,0,0,0v0.1C107.1,211.1,106.9,211.4,106.5,211.4z"/>
</g>
<g class="st14">
	<path class="st1" d="M140.1,209.1c-0.2-0.2-0.1-0.4,0-0.6c0,0,0,0,0,0c0,0,0.1-0.1,0.1-0.1c0.3-0.2,0.7-0.1,0.9,0.2c0,0,0,0,0,0
		l0,0c0.2,0.2,0.2,0.4,0,0.6c0,0-0.1,0.1-0.2,0.1C140.7,209.4,140.4,209.3,140.1,209.1z"/>
</g>
<g class="st14">
	<path class="st1" d="M38,204.6c-0.2-0.2-0.1-0.4,0-0.6c0,0,0,0,0,0c0,0,0.1-0.1,0.1-0.1c0.3-0.2,0.7-0.1,0.9,0.1
		c0.2,0.2,0.1,0.5-0.1,0.6c0,0,0,0,0,0l-0.1,0.1C38.6,204.9,38.3,204.9,38,204.6z"/>
</g>
<g class="st14">
	<path class="st1" d="M40,205.4c-0.2-0.2-0.1-0.4,0-0.6c0,0,0,0,0,0c0,0,0.1-0.1,0.1-0.1c0.3-0.2,0.7-0.1,0.9,0.2c0,0,0,0,0,0l0,0
		c0.2,0.2,0.2,0.4,0,0.6c0,0-0.1,0.1-0.2,0.1C40.6,205.7,40.3,205.6,40,205.4z"/>
</g>
<g class="st14">
	<path class="st1" d="M41.9,206.4c-0.2-0.2-0.1-0.4,0-0.6c0,0,0,0,0,0c0,0,0.1-0.1,0.1-0.1c0.3-0.2,0.7-0.1,0.9,0.2c0,0,0,0,0,0l0,0
		c0.2,0.2,0.2,0.4,0,0.6c0,0-0.1,0.1-0.2,0.1C42.5,206.7,42.2,206.6,41.9,206.4z"/>
</g>
<g class="st14">
	<path class="st1" d="M153.6,209.4c-0.3,0.1-0.5-0.2-0.5-0.5c0-0.4,0.2-0.7,0.6-0.7c0.3,0,0.6,0.2,0.5,0.5S153.9,209.4,153.6,209.4z
		"/>
</g>
<g class="st14">
	<path class="st1" d="M157.6,211.4c-0.3,0-0.5-0.2-0.5-0.6c0-0.4,0.3-0.7,0.6-0.7c0,0,0,0,0,0h0c0.3,0,0.5,0.2,0.5,0.4
		c0,0.1,0,0.1,0,0.2C158.3,211.1,158,211.4,157.6,211.4z"/>
</g>
<g class="st14">
	<path class="st1" d="M176.3,205.3c-0.2-0.1-0.4-0.3-0.3-0.5c0-0.1,0.1-0.1,0.1-0.2c0.2-0.3,0.6-0.4,0.9-0.3
		c0.2,0.1,0.4,0.3,0.3,0.5c0,0.1-0.1,0.1-0.1,0.2C177,205.3,176.7,205.4,176.3,205.3z"/>
</g>
<g class="st14">
	<path class="st1" d="M167.1,207.6c-0.5-0.2-0.7-0.7-0.5-1.1c0-0.1,0.1-0.1,0.1-0.1c0.3-0.5,1-0.6,1.5-0.3c0,0,0,0,0,0l0,0
		c0.5,0.2,0.6,0.8,0.4,1.2c0,0,0,0.1,0,0.1C168.3,207.8,167.6,207.9,167.1,207.6z"/>
</g>
<path class="st1" d="M91.3,199.1c0.6,1.9,0.1,3.8-1.2,4.4s-2.9-0.8-3.5-2.9s-0.1-4,1.3-4.3S90.7,197.2,91.3,199.1z"/>
<path class="st33" d="M187.1,200.5c0,0-35.8,2.4-53.7,2.5s-53.6-2.6-53.6-2.6s35.8,1.2,53.7,1.3S187.1,200.5,187.1,200.5z"/>
<linearGradient id="SVGID_16_" gradientUnits="userSpaceOnUse" x1="381.7209" y1="-279.2221" x2="376.3109" y2="-297.2221" gradientTransform="matrix(1 0 0 -1 -315.85 -80.88)">
	<stop  offset="0" style="stop-color:#4A5854"/>
	<stop  offset="0.13" style="stop-color:#4A5854"/>
	<stop  offset="1" style="stop-color:#4A5854;stop-opacity:0.2"/>
</linearGradient>
<path class="st34" d="M76.1,206.8c0.2,5.1-9.3,7.5-10.7,7.8h-0.1c-7.8,1.8-16.6-1.5-16.5-2.9c0.2-1.9,15.8,0,17-4.6
	c0.7-2.6-3.1-6.5-1.9-8.4c0.1-0.1,0.1-0.2,0.3-0.2C66.3,197.6,76,201.6,76.1,206.8z"/>
<path class="st17" d="M75.6,206.8c0.2,5.1-8.7,8.7-10.8,7.8c-1.3-0.6,0.7-2.7,0.6-7.5c-0.2-5.5-2.9-8-1.6-8.6
	C65.7,197.6,75.4,201.6,75.6,206.8z"/>
<g class="st29">
	
		<linearGradient id="SVGID_17_" gradientUnits="userSpaceOnUse" x1="385.3863" y1="-291.46" x2="385.3863" y2="-283.45" gradientTransform="matrix(1 0 0 -1 -315.85 -80.88)">
		<stop  offset="0" style="stop-color:#C25530;stop-opacity:0.6"/>
		<stop  offset="0.5" style="stop-color:#C25530"/>
		<stop  offset="1" style="stop-color:#C25530;stop-opacity:0.6"/>
	</linearGradient>
	<path class="st35" d="M71.8,210.5c-1.6,0.2-6-5.2-6-5.3c0-2.1,4.4-2.9,6-2.7C73.7,202.8,73.7,210.3,71.8,210.5z"/>
</g>
<path class="st17" d="M56.7,204.5c-1,1.3-3.1,1.1-3.4,0.5c-0.5-0.9,2.4-3.9,3.4-3.4C57.3,201.9,57.5,203.5,56.7,204.5z"/>
<path class="st1" d="M71.3,204.8c0.3,0.8,0,1.7-0.8,2.1c-0.7,0.3-1.5-0.3-1.8-1.2c-0.4-0.7-0.2-1.5,0.5-1.9c0.7-0.4,1.5-0.2,1.9,0.5
	l0,0C71.2,204.5,71.3,204.7,71.3,204.8z"/>
<linearGradient id="SVGID_18_" gradientUnits="userSpaceOnUse" x1="368.7738" y1="-270.41" x2="368.7738" y2="-270.41" gradientTransform="matrix(1 0 0 -1 -315.85 -80.88)">
	<stop  offset="0" style="stop-color:#6E8068"/>
	<stop  offset="0.18" style="stop-color:#6E8068"/>
	<stop  offset="0.48" style="stop-color:#6E8068;stop-opacity:0.5"/>
	<stop  offset="0.81" style="stop-color:#D9DBD4;stop-opacity:0.19"/>
	<stop  offset="1" style="stop-color:#FFFFFF;stop-opacity:0"/>
</linearGradient>
<path class="st36" d="M52.9,189.5"/>
<g id="Bottom_Fin-3">
	<path class="st2" d="M134.4,232c1.6,2.4,4.8,2.5,7,0.2l0.1-0.1l0.1-0.1c0-0.1-1.7,0.2-3.3,0.2c-2.3-0.1-3.9-1-4.1-0.6
		C134.3,231.6,134.3,231.7,134.4,232z"/>
</g>
<g id="Bottom_Back_Fin-5">
	<path class="st2" d="M175.8,225.7c-4,1.3-9.2-3.3-9.1-3.5c0.3,0.2,0.7,0.4,1.1,0.5c5,1.9,10,0,10.3,0.9
		C178.3,224.1,177.3,225.2,175.8,225.7z"/>
</g>
<path class="st37" d="M218.3,92.4c6.1-24.7-10.4-46.7-12.1-49C181.3,11,114,5.2,75.1,32.7C13.6,76.1,30.5,197.8,33.8,198.2
	c1.8,0.2-4.3-33.7,17.2-53.9c36.7-34.4,109.8,12.4,151-25.6C205.4,115.6,214.8,106.7,218.3,92.4z"/>
<path class="st38" d="M312.4,93.1"/>
<text transform="matrix(1 0 0 1 82.3648 85)" class="st39 st40">Hello!</text>
</svg>
