<svg id="troutSmall" data-name="Layer 1" xmlns="http://www.w3.org/2000/svg" xmlns:xlink="http://www.w3.org/1999/xlink" viewBox="0 0 184.43 53.09"><defs><style>.cls-1{fill:url(#radial-gradient);}.cls-2{fill:#4a5853;}.cls-25,.cls-3{fill:#fff;}.cls-4{fill:url(#linear-gradient);}.cls-5{fill:url(#linear-gradient-2);}.cls-6{fill:#b5963e;}.cls-7{fill:#e0dfc2;}.cls-23,.cls-7{opacity:0.61;}.cls-8{fill:url(#linear-gradient-3);}.cls-9{fill:url(#linear-gradient-4);}.cls-10{fill:url(#linear-gradient-5);}.cls-11{fill:url(#linear-gradient-6);}.cls-12{fill:url(#linear-gradient-7);}.cls-13{fill:url(#radial-gradient-2);}.cls-14{opacity:0.66;}.cls-15{opacity:0.6;}.cls-16{fill:#e0d38e;}.cls-17{fill:#ea8d2f;}.cls-18{fill:url(#linear-gradient-8);}.cls-19{fill:url(#linear-gradient-9);}.cls-20{fill:url(#linear-gradient-10);}.cls-21{fill:url(#linear-gradient-11);}.cls-22{opacity:0.58;}.cls-23{fill:#be9a44;}.cls-24{fill:none;}.cls-24,.cls-25,.cls-26{stroke:#000;stroke-miterlimit:10;}.cls-24,.cls-26{stroke-width:0.25px;}.cls-25{stroke-width:0.1px;}.cls-27{opacity:0.7;}.cls-28{opacity:0.73;}.cls-29{opacity:0.83;}.cls-30{opacity:0.68;}.cls-31{fill:url(#linear-gradient-12);}.cls-32{fill:url(#linear-gradient-13);}.cls-33{fill:url(#linear-gradient-14);}.cls-34{fill:#c25530;}.cls-35{fill:url(#linear-gradient-15);}.cls-36{fill:url(#linear-gradient-16);}.cls-37{fill:url(#linear-gradient-17);}</style><radialGradient id="radial-gradient" cx="791.55" cy="-242.01" r="14.92" gradientTransform="matrix(0.29, 0, 0, -0.32, -225.49, -42.6)" gradientUnits="userSpaceOnUse"><stop offset="0" stop-color="#e2c45b"/><stop offset="0.06" stop-color="#e2c45b"/><stop offset="1" stop-color="#fff" stop-opacity="0"/></radialGradient><linearGradient id="linear-gradient" x1="134.98" y1="29.14" x2="132.66" y2="14.51" gradientTransform="matrix(1, 0, 0, -1, 0, 68)" gradientUnits="userSpaceOnUse"><stop offset="0" stop-color="#ecda00"/><stop offset="0.58" stop-color="#ea8c2d"/></linearGradient><linearGradient id="linear-gradient-2" x1="94.41" y1="44.7" x2="97.04" y2="59.63" gradientTransform="matrix(1, 0, 0, -1, 0, 68)" gradientUnits="userSpaceOnUse"><stop offset="0" stop-color="#ecda00"/><stop offset="0.58" stop-color="#c08438"/></linearGradient><linearGradient id="linear-gradient-3" x1="91.94" y1="54" x2="91.94" y2="29.98" gradientTransform="matrix(1, 0, 0, -1, 0, 68)" gradientUnits="userSpaceOnUse"><stop offset="0" stop-color="#6e8068"/><stop offset="0.13" stop-color="#6e8068"/><stop offset="1" stop-color="#fff" stop-opacity="0"/></linearGradient><linearGradient id="linear-gradient-4" x1="99.37" y1="20.74" x2="97.52" y2="9.07" xlink:href="#linear-gradient"/><linearGradient id="linear-gradient-5" x1="83.11" y1="46.83" x2="83.11" y2="39.25" gradientTransform="matrix(1, 0, 0, -1, 0, 68)" gradientUnits="userSpaceOnUse"><stop offset="0" stop-color="#b5963e"/><stop offset="1" stop-color="#fff" stop-opacity="0"/></linearGradient><linearGradient id="linear-gradient-6" x1="82.11" y1="46.35" x2="82.11" y2="25.1" gradientTransform="matrix(1, 0, 0, -1, 0, 68)" gradientUnits="userSpaceOnUse"><stop offset="0" stop-color="#cb9831"/><stop offset="1" stop-color="#fff" stop-opacity="0"/></linearGradient><linearGradient id="linear-gradient-7" x1="90.55" y1="20.68" x2="90.55" y2="43.56" gradientTransform="matrix(1, 0, 0, -1, 0, 68)" gradientUnits="userSpaceOnUse"><stop offset="0" stop-color="#fff" stop-opacity="0"/><stop offset="0.4" stop-color="#e2c45b"/><stop offset="0.58" stop-color="#e2c45b"/><stop offset="1" stop-color="#fff" stop-opacity="0"/></linearGradient><radialGradient id="radial-gradient-2" cx="20.34" cy="33.91" r="14.75" gradientTransform="matrix(1, 0, 0, -1, 0, 68)" gradientUnits="userSpaceOnUse"><stop offset="0" stop-color="#e2c45b"/><stop offset="0.36" stop-color="#e2c45b"/><stop offset="1" stop-color="#fff" stop-opacity="0"/></radialGradient><linearGradient id="linear-gradient-8" x1="8.57" y1="24.34" x2="8.57" y2="31.87" xlink:href="#linear-gradient-7"/><linearGradient id="linear-gradient-9" x1="360.22" y1="-41.94" x2="360.22" y2="-33.52" gradientTransform="matrix(0.31, 0.5, -0.46, 0.77, -125.15, -112.29)" xlink:href="#linear-gradient-7"/><linearGradient id="linear-gradient-10" x1="164.79" y1="53.13" x2="164.79" y2="18.16" gradientTransform="matrix(1, 0, 0, -1, 0, 68)" gradientUnits="userSpaceOnUse"><stop offset="0" stop-color="#e2c45b"/><stop offset="0.4" stop-color="#e0d38e" stop-opacity="0.5"/><stop offset="0.62" stop-color="#e0d38e" stop-opacity="0.5"/><stop offset="1" stop-color="#e2c45b"/></linearGradient><linearGradient id="linear-gradient-11" x1="38.96" y1="47.6" x2="41.28" y2="37.1" gradientTransform="matrix(1, 0, 0, -1, 0, 68)" gradientUnits="userSpaceOnUse"><stop offset="0" stop-color="#6e8068"/><stop offset="0.18" stop-color="#6e8068"/><stop offset="0.48" stop-color="#6e8068" stop-opacity="0.5"/><stop offset="0.81" stop-color="#d9dbd4" stop-opacity="0.19"/><stop offset="1" stop-color="#fff" stop-opacity="0"/></linearGradient><linearGradient id="linear-gradient-12" x1="96.8" y1="31.25" x2="96.8" y2="38.06" gradientTransform="matrix(1, 0, 0, -1, 0, 68)" gradientUnits="userSpaceOnUse"><stop offset="0" stop-color="#c25530" stop-opacity="0.6"/><stop offset="0.5" stop-color="#c25530"/><stop offset="1" stop-color="#c25530" stop-opacity="0.6"/></linearGradient><linearGradient id="linear-gradient-13" x1="0.44" y1="27.65" x2="4.23" y2="27.65" gradientTransform="matrix(1, 0, 0, -1, 0, 68)" gradientUnits="userSpaceOnUse"><stop offset="0" stop-color="#4a5854"/><stop offset="0.13" stop-color="#4a5854"/><stop offset="1" stop-color="#4a5854" stop-opacity="0.2"/></linearGradient><linearGradient id="linear-gradient-14" x1="-311.44" y1="-142.95" x2="-307.81" y2="-142.95" gradientTransform="matrix(-0.76, 2.52, -0.86, -0.66, -332.98, 723.92)" xlink:href="#linear-gradient-13"/><linearGradient id="linear-gradient-15" x1="28.43" y1="37.55" x2="23.29" y2="20.48" xlink:href="#linear-gradient-13"/><linearGradient id="linear-gradient-16" x1="32.33" y1="26.6" x2="32.33" y2="33.65" xlink:href="#linear-gradient-12"/><linearGradient id="linear-gradient-17" x1="15.74" y1="45.79" x2="15.74" y2="45.79" xlink:href="#linear-gradient-11"/></defs><title>troutSmall</title><path class="cls-1" d="M11.45,33.48c0-1-1.59-1.82-2.39-2.12a4.33,4.33,0,0,0-2.39-.21,7.82,7.82,0,0,0-1.89.38A8.87,8.87,0,0,0,1.59,32.9l-.4.4a2,2,0,0,0-.29.4,2.67,2.67,0,0,0-.4,1.69c.1,1.2,3,2.33,5.57,1.8a10.33,10.33,0,0,0,4-2C11,34.34,11.45,34,11.45,33.48Z" transform="translate(0 -6.5)"/><g id="Bottom_Back_Fin" data-name="Bottom Back Fin"><path class="cls-2" d="M96.11,6.67c3.71.94,5.31,5.26,5,5.42a19,19,0,0,0-1.9-1.75c-4.41-2.61-12,1-12.53.26S91.7,5.58,96.11,6.67Z" transform="translate(0 -6.5)"/></g><g id="Bottom_Back_Fin-2" data-name="Bottom Back Fin"><path class="cls-3" d="M96.61,6.83c2.51.47,5,2.36,4.71,2.85-.1.24-.9.17-1.2.17-5.31-.34-13.33,2.43-13.83,1.39S91.5,5.82,96.61,6.83Z" transform="translate(0 -6.5)"/></g><path class="cls-2" d="M151.49,33.44c-1.3,5.13,8.29,12.17,16.87,15.21,2,.68,10.27,3.82,13.55.28,2-2.14,1.5-5.87,1.4-6.87-.5-4.6-3.29-5.13-3.29-8.77,0-3.14,2.19-3.44,3.29-8,.29-1.11,1.59-7.39-1.1-9.18s-7.77,1.36-12.45,4c-.7.41-2.59,1.51-8.18,5.5C155.09,30.06,151.89,32.12,151.49,33.44Z" transform="translate(0 -6.5)"/><g id="Top_Back_Fin" data-name="Top Back Fin"><path class="cls-2" d="M137.59,25.44c2.1.72,3.1,1,5.3,1.62,1.3.32,2.2-.74,2-2.38v-.17c-.2-1.56-1.3-2.65-2.4-2.53a27.89,27.89,0,0,1-4.8.48c-1.2,0-2.21.48-2.31,1v.08C135.38,24.12,136.39,25,137.59,25.44Z" transform="translate(0 -6.5)"/></g><g id="Top_Fin" data-name="Top Fin"><path class="cls-2" d="M108.34,13.76A63.8,63.8,0,0,0,96.51,7.55c-2.81-1.18-8.32,1-12.13,4.8-.5.55-.8.79-1.3,1.27-3.81,3.74-3.81,6.73-.1,6.75A157.76,157.76,0,0,1,99.52,21c3.41.3,7.52-.38,9.22-1.69a3.11,3.11,0,0,1,.6-.42C110.94,17.61,110.54,15.26,108.34,13.76Z" transform="translate(0 -6.5)"/></g><g id="Bottom_Back_Fin-3" data-name="Bottom Back Fin"><path class="cls-2" d="M141.69,46.06c-1,3.23,1.3,6.95-3.3,8.24-2.3.64-6.21-1-9.11-3.36l-1.5-1.3c-2.81-2.34-4.21-4.51-3.21-5.39,1.2-1.14,4.11-2,4.71-2.24,1.3-.47,5.2-1.92,7.81-1.88a53.08,53.08,0,0,1,6.3.38C144.49,40.88,142.19,44.45,141.69,46.06Z" transform="translate(0 -6.5)"/></g><g id="Bottom_Back_Fin-4" data-name="Bottom Back Fin"><path class="cls-4" d="M142.09,45.82c-1,3.23,1.3,7-3.3,8.24-2.3.65-6.21-1-9.11-3.36l-1.5-1.3C125.37,47.06,124,44.9,125,44c1.2-1.14,4.11-2,4.71-2.24,1.3-.48,5.2-1.93,7.81-1.88a51.85,51.85,0,0,1,6.3.37C144.89,40.54,142.49,44.2,142.09,45.82Z" transform="translate(0 -6.5)"/></g><g id="Top_Fin-2" data-name="Top Fin"><path class="cls-5" d="M108.34,14.57A62.62,62.62,0,0,0,96.51,8.36c-2.81-1.19-8.32,1.05-12.13,4.79a17.1,17.1,0,0,1-1.3,1.27c-3.81,3.75-3.81,6.74-.1,6.76a155.15,155.15,0,0,1,16.54.65c3.41.31,7.52-.37,9.22-1.69a3.63,3.63,0,0,1,.6-.41C110.94,18.42,110.54,16.07,108.34,14.57Z" transform="translate(0 -6.5)"/></g><g id="Top_Back_Fin-2" data-name="Top Back Fin"><path class="cls-6" d="M137.59,25.78c2.1.72,3.1,1,5.3,1.62,1.3.33,2.2-.73,2-2.37v-.17c-.2-1.56-1.3-2.65-2.4-2.53a28.92,28.92,0,0,1-4.8.47c-1.2,0-2.21.48-2.31,1v.08C135.38,24.46,136.39,25.29,137.59,25.78Z" transform="translate(0 -6.5)"/></g><path id="Body" class="cls-7" d="M181.91,15.29c-3-4-19.83,8.93-21.93,9.8-2.6,1.17-4.8,1.92-5.79,2.56a19.76,19.76,0,0,1-3-.12c-1.6-.24-3.6-.56-5.3-.79-2.7-.38-7.8-2.33-10.51-2.62s-5.3-.14-8.1-.42C114.5,22.54,101.72,21.36,88.89,21c-20.49-.27-41.34.26-61.67,2.78C19.46,24.52,1.85,25.91.1,36.2.2,37.3,6.17,39,7.27,39.69c.5.28-3.29-.3-6.77-.5-1.1-.07.69,1.47.89,1.56C6.27,43.18,18.53,46.19,27.22,47c11.7.7,23.29,1,35,1.11S84.08,46.9,89,46.73c2.51-.09,8.72-.56,13.84-.6a172.14,172.14,0,0,0,19.24-1.36c5.11-.64,6.51-2.6,10-3.71.1,0,2-.47,3.8-.69a44.53,44.53,0,0,1,16.91,1.51c13.69,3.75,17.77,9.49,25,7.95a6.2,6.2,0,0,0,3.78-1.91c3.09-3.26,1.7-9.79-.79-14.43C179.82,31.72,187.49,22.79,181.91,15.29Z" transform="translate(0 -6.5)"/><path id="Body-2" data-name="Body" class="cls-8" d="M181.81,14.8c-3-4-19.83,9-21.93,9.84-2.6,1.17-4.8,1.93-5.79,2.57a21.16,21.16,0,0,1-3-.12c-1.6-.24-3.6-.55-5.3-.78-2.7-.38-7.8-2.33-10.51-2.61s-5.3-.14-8.11-.42C114.4,22.13,101.62,21,88.79,20.64c-20.49-.27-41.33.23-61.67,2.73C19.31,24.07,1.87,25.45,0,35.7c30.26,1.88,61,.31,91.34.2,26.14-.09,64.7,6.44,89.48-2.8C179.82,31.23,187.39,22.29,181.81,14.8Z" transform="translate(0 -6.5)"/><path class="cls-2" d="M16.64,43.57c.2-.11.3-.11.4-.21.5-.86-3.49-3.71-7.18-5.37-4.39-2-9-2.5-9.16-2s2.68,1.89,8.06,4.24c.8.36,1,.45,1.7.72,1.09.44,1.89.8,2.49,1.06C15.14,43,15.84,43.88,16.64,43.57Z" transform="translate(0 -6.5)"/><g id="Bottom_Fin" data-name="Bottom Fin"><path class="cls-2" d="M91.4,50c.5,1.44,1.2,1.92,2.7,4,.91,1.2,1.81,2.41,3.11,4,1.61,1.94,4.81,2.06,7,.24l.2-.15c2.31-1.74,2.31-4.16.2-5.4-1.7-1-3-1.81-4.21-2.62-1.8-1.14-2.21-1.7-3.11-2.27-.1-.08-.5-.24-1-.49a5.91,5.91,0,0,0-2.21-.72,5.63,5.63,0,0,0-1.6.07,4,4,0,0,0-1,.17C90.7,47.21,91,48.81,91.4,50Z" transform="translate(0 -6.5)"/></g><g id="Bottom_Fin-2" data-name="Bottom Fin"><path class="cls-9" d="M91.5,49.85c.5,1.45,1.2,1.93,2.7,4,.91,1.2,1.81,2.41,3.11,4,1.61,1.94,4.81,2.06,7,.24l.2-.15c2.31-1.74,2.31-4.16.2-5.4-1.7-1-3-1.81-4.21-2.62-1.8-1.14-2.2-1.7-3.11-2.27-.1-.08-.5-.24-1-.49a5.91,5.91,0,0,0-2.21-.72,5.29,5.29,0,0,0-1.6.07c-.6.08-.9.08-1,.17C90.9,47.05,91.1,48.65,91.5,49.85Z" transform="translate(0 -6.5)"/></g><path class="cls-10" d="M150,28.78c-20.68-7.55-45.31-7.07-67-7.6-11.3-.07-22.59.4-33.86,1.09-11,.9-22.17,1.51-32.88,4.36,22.53-.54,44.91-2.8,67.54-2.71C106,24.44,127.88,27.2,150,28.78Z" transform="translate(0 -6.5)"/><path class="cls-11" d="M149,32.83c.06-6.43-50.05-11-67-11.17a297.35,297.35,0,0,0-33.86,1.77c-9.54.86-25,.48-32.87,6.75C27.63,45.2,65.82,42.39,83,42.9,99.46,42.72,148.94,38.32,149,32.83Z" transform="translate(0 -6.5)"/><path class="cls-12" d="M149,35.55C137.51,25,108.33,27.26,93.7,26.42c-17-.76-46-5.54-61.59,3.48,0,1.15,4.9,1.81,6.3,5.62.9,2.43-.5,3.84-.2,5.22,11.64,10.6,42.3,5.25,56.1,4.7,13.43-.65,26.65-2.72,39.87-5.1C144,38.31,149,37.21,149,35.55Z" transform="translate(0 -6.5)"/><path class="cls-13" d="M39.11,32.13c0-3-5.6-5.38-8.4-6.25A21.77,21.77,0,0,0,22.62,25c-2.59.2-4.79.6-6.38.84,0,0-7.48,1.39-10.77,3.89A15.08,15.08,0,0,0,4.08,31a6.69,6.69,0,0,0-1,1.28,9.82,9.82,0,0,0-1.5,5.26c.5,3.76,10.26,6.89,18.94,5.29.7-.11,6.29-1.31,13.48-5.89C37.41,34.72,39,33.61,39.11,32.13Z" transform="translate(0 -6.5)"/><g class="cls-14"><path class="cls-2" d="M58.13,41.63a.93.93,0,0,0-1-.4.62.62,0,0,0-.3.92.78.78,0,0,0,1,.31A.59.59,0,0,0,58.13,41.63Z" transform="translate(0 -6.5)"/></g><g class="cls-15"><path class="cls-16" d="M123.87,42.66c0-.33-6.51.23-10.82.66-7.32.81-10.52,2.56-10.42,2.64.3.41,5.91-.27,10.92-1,.4-.07,3.61-.59,7.62-1.51C123,43.06,123.87,42.83,123.87,42.66Z" transform="translate(0 -6.5)"/></g><g class="cls-15"><path class="cls-16" d="M90.4,45.68c0-.4-2.71-.63-4.62-.63-3.1,0-4.41,1.72-4.31,1.8.2.56,2.51.54,4.61.21a17.89,17.89,0,0,0,3.21-.81C90.09,46,90.5,45.84,90.4,45.68Z" transform="translate(0 -6.5)"/></g><path class="cls-17" d="M16.34,43.67c.2-.1.3-.1.4-.2.5-.86-3.49-3.72-7.18-5.38-4.39-2-9-2.5-9.16-2S3.08,38,8.46,40.34c.8.36,1,.45,1.7.71,1.09.45,1.89.8,2.49,1.06C14.84,43.18,15.54,44.08,16.34,43.67Z" transform="translate(0 -6.5)"/><path class="cls-17" d="M8.76,41.1c-.1.29-2.49,1.45-4.88,1S-.1,39.9.1,39.4s3.18.21,4.48.66c.5.18.8.27,1.39.45C7.87,40.94,8.86,40.81,8.76,41.1Z" transform="translate(0 -6.5)"/><path class="cls-18" d="M16.74,43.65c.2-.28-2.7-3.34-7.18-5.36s-9-2.5-9.16-2S6,39.35,8.46,40.34a30.41,30.41,0,0,1,2.89,1.06C15.14,42.89,16.54,43.85,16.74,43.65Z" transform="translate(0 -6.5)"/><path class="cls-19" d="M8.86,41.1c-.1.29-2.49,1.44-4.88,1S0,39.9.1,39.4s3.18.21,4.48.66a14.6,14.6,0,0,0,1.49.45C8,40.93,8.86,40.9,8.86,41.1Z" transform="translate(0 -6.5)"/><path class="cls-20" d="M145.19,32.92a3.14,3.14,0,0,0,.3,1.82c1.1,3.13,4.3,4.51,14.49,9.35,6.89,3.26,7.48,3.57,8.38,3.9,3.19,1,10.47,3.61,13.55.25,2-2.15,1.5-5.88,1.4-6.88-.6-4.7-3.39-5.32-3.29-8.75s3.09-3.87,4.08-8.5c.6-2.72.6-7.24-1.89-8.74-2.79-1.68-7.37,1.17-12.45,4.07-4.39,2.39-4.19,3.12-8.18,5.52C156.58,27.75,146.09,29.19,145.19,32.92Z" transform="translate(0 -6.5)"/><path class="cls-21" d="M80.37,21.89c-15.76-2.79-33.65,0-49.56,1.32-2.69.28-5.59.71-11.38,1.65C12.55,26,9.26,26.81,5.87,29c-1.09.67-5.57,3.6-5,5,.79,2.18,13.44-.89,24.12-3C43,27.7,63,27.19,80.37,21.89Z" transform="translate(0 -6.5)"/><g id="Forearm"><path class="cls-2" d="M37.21,42.34a47.24,47.24,0,0,1,15.51-1c5,.33,5.41.83,5.41,1C58.53,43.53,54.32,46,50,47a19.44,19.44,0,0,1-6.11.38c-5.1-.32-10.7-2.11-10.5-3.53C33.61,43.67,33.71,43.22,37.21,42.34Z" transform="translate(0 -6.5)"/></g><g class="cls-22"><path class="cls-2" d="M9.46,32.9c-.1-1.92,1.79-3.53,4.19-3.59s4.28,1.55,4.18,3.6a3.84,3.84,0,0,1-4.18,3.5A4.11,4.11,0,0,1,9.46,32.9Z" transform="translate(0 -6.5)"/></g><g id="Forearm-2" data-name="Forearm"><path class="cls-17" d="M37.21,42.69a47.18,47.18,0,0,1,15.51-1c5,.32,5.41.82,5.41,1,.4,1.24-3.81,3.74-8.11,4.72a19.2,19.2,0,0,1-6.11.39c-5.1-.31-10.7-2.1-10.5-3.52C33.61,44,33.81,43.57,37.21,42.69Z" transform="translate(0 -6.5)"/></g><g id="Eye"><g id="Eye-2" data-name="Eye"><path class="cls-23" d="M13.65,29.79a3,3,0,1,1,0,6.05,3,3,0,1,1,0-6.05Z" transform="translate(0 -6.5)"/><path class="cls-24" d="M13.65,29.79a3,3,0,1,1,0,6.05,3,3,0,1,1,0-6.05Z" transform="translate(0 -6.5)"/></g><g id="Iris"><path d="M14.64,33a1.1,1.1,0,0,1-2.19,0,1,1,0,0,1,1.1-1A1.08,1.08,0,0,1,14.64,33Z" transform="translate(0 -6.5)"/></g><path id="Pupil" class="cls-25" d="M14.14,32.25a.28.28,0,1,1-.29.28A.28.28,0,0,1,14.14,32.25Z" transform="translate(0 -6.5)"/><path class="cls-26" d="M38.31,29.35a1,1,0,0,1-.7-.53c0-.26.3-.52.7-.6a.55.55,0,0,1,.7.53C38.91,29.18,38.61,29.44,38.31,29.35Z" transform="translate(0 -6.5)"/><path class="cls-26" d="M65.44,29.56a1,1,0,0,1-.7-.49c0-.25.3-.49.7-.57a.54.54,0,0,1,.7.49C66,29.4,65.84,29.65,65.44,29.56Z" transform="translate(0 -6.5)"/><path class="cls-26" d="M70.05,28a1,1,0,0,1-.7-.49c0-.25.3-.49.7-.57a.54.54,0,0,1,.7.49C70.75,27.88,70.45,28,70.05,28Z" transform="translate(0 -6.5)"/><path class="cls-26" d="M62,28a1,1,0,0,1-.7-.5c0-.25.3-.49.7-.57a.54.54,0,0,1,.7.5C62.73,27.82,62.43,28,62,28Z" transform="translate(0 -6.5)"/><path class="cls-26" d="M59,29.61a1,1,0,0,1-.7-.5c0-.25.3-.5.7-.58a.54.54,0,0,1,.7.5C59.73,29.45,59.43,29.61,59,29.61Z" transform="translate(0 -6.5)"/><path class="cls-26" d="M51,27.87a1,1,0,0,1-.7-.52c0-.25.3-.5.7-.58a.55.55,0,0,1,.7.52C51.72,27.71,51.42,27.87,51,27.87Z" transform="translate(0 -6.5)"/><path class="cls-26" d="M47,27a1,1,0,0,1-.7-.52c0-.26.3-.51.7-.58a.55.55,0,0,1,.7.52C47.71,26.81,47.41,27,47,27Z" transform="translate(0 -6.5)"/><path class="cls-26" d="M54,25.39a1,1,0,0,1-.7-.51c0-.25.3-.5.7-.57a.55.55,0,0,1,.7.51C54.72,25.24,54.42,25.4,54,25.39Z" transform="translate(0 -6.5)"/><path class="cls-26" d="M60,24.66a1.06,1.06,0,0,1-.7-.51c0-.25.3-.49.7-.57a.55.55,0,0,1,.7.51C60.73,24.5,60.43,24.66,60,24.66Z" transform="translate(0 -6.5)"/><path class="cls-26" d="M81.07,22.45a1,1,0,0,1-.7-.48c0-.25.3-.48.7-.56a.53.53,0,0,1,.7.49C81.77,22.3,81.47,22.46,81.07,22.45Z" transform="translate(0 -6.5)"/><path class="cls-26" d="M83.48,19.9c-.2-.17-.2-.49,0-.81a.94.94,0,0,1,.9-.31c.3.08.3.4,0,.8S83.68,20.06,83.48,19.9Z" transform="translate(0 -6.5)"/><path class="cls-26" d="M82.88,17.48a1.42,1.42,0,0,1-1.11.23c-.3-.16-.3-.57,0-.89a.87.87,0,0,1,1.11-.23C83.28,16.76,83.18,17.16,82.88,17.48Z" transform="translate(0 -6.5)"/><path class="cls-26" d="M86.59,16c-.3.32-.3.72-.1.88s.7,0,1.1-.32.4-.72.1-.88A.91.91,0,0,0,86.59,16Z" transform="translate(0 -6.5)"/><path class="cls-26" d="M88.59,13.5a.62.62,0,0,1-.1-.89,1.11,1.11,0,0,1,1.1-.39c.4.08.4.48.1.88A1,1,0,0,1,88.59,13.5Z" transform="translate(0 -6.5)"/><path class="cls-26" d="M89.69,19.92c-.3-.16-.3-.56-.1-.88a1.08,1.08,0,0,1,1-.32c.4.08.4.48.1.88A.82.82,0,0,1,89.69,19.92Z" transform="translate(0 -6.5)"/><path class="cls-26" d="M93.6,14.71c.3.16.3.56.2.88a.81.81,0,0,1-1,.32c-.4-.08-.5-.48-.2-.88A.78.78,0,0,1,93.6,14.71Z" transform="translate(0 -6.5)"/><path class="cls-26" d="M95.61,12a.62.62,0,0,1,.1.81.89.89,0,0,1-1,.24c-.4-.16-.4-.48-.1-.8S95.31,11.73,95.61,12Z" transform="translate(0 -6.5)"/><path class="cls-26" d="M94.71,19.6c-.3-.16-.3-.56-.1-.88a1,1,0,0,1,1-.33c.4.08.4.49.1.89A.8.8,0,0,1,94.71,19.6Z" transform="translate(0 -6.5)"/><path class="cls-26" d="M97.71,16.3a.72.72,0,0,1-.1-.88.93.93,0,0,1,1-.25c.4.16.4.48.1.88A.87.87,0,0,1,97.71,16.3Z" transform="translate(0 -6.5)"/><path class="cls-26" d="M101.62,13.21a.72.72,0,0,1,0-.88,1,1,0,0,1,1.11-.26c.4.16.3.56,0,.89S101.82,13.37,101.62,13.21Z" transform="translate(0 -6.5)"/><path class="cls-26" d="M100.72,19.9a.73.73,0,0,1-.1-.89,1.15,1.15,0,0,1,1-.25c.4.16.4.48.1.89S100.92,20.06,100.72,19.9Z" transform="translate(0 -6.5)"/><path class="cls-26" d="M106.33,16.7a1.31,1.31,0,0,1-1.1,0c-.2-.16-.1-.57.3-.81a.93.93,0,0,1,1.11,0A.53.53,0,0,1,106.33,16.7Z" transform="translate(0 -6.5)"/><path class="cls-26" d="M75.06,24.83a1,1,0,0,1-.7-.49c0-.24.3-.48.7-.56a.54.54,0,0,1,.7.49C75.76,24.67,75.46,24.83,75.06,24.83Z" transform="translate(0 -6.5)"/><path class="cls-26" d="M77.06,23.23a1,1,0,0,1-.7-.49c0-.24.3-.48.7-.56a.54.54,0,0,1,.7.49C77.76,23.07,77.46,23.23,77.06,23.23Z" transform="translate(0 -6.5)"/><path class="cls-26" d="M34,27.63a1.06,1.06,0,0,1-.7-.54c0-.27.3-.53.7-.61a.56.56,0,0,1,.7.55C34.71,27.46,34.41,27.64,34,27.63Z" transform="translate(0 -6.5)"/><path class="cls-26" d="M32,31.14a1,1,0,0,1-.7-.54c0-.26.3-.53.7-.61a.55.55,0,0,1,.7.54C32.71,31,32.41,31.14,32,31.14Z" transform="translate(0 -6.5)"/><path class="cls-26" d="M29,29.33a1,1,0,0,1-.7-.54c0-.27.3-.54.7-.62a.56.56,0,0,1,.7.55C29.72,29.16,29.42,29.34,29,29.33Z" transform="translate(0 -6.5)"/><path class="cls-26" d="M26,27.49a1.09,1.09,0,0,1-.7-.56c0-.27.3-.54.7-.62a.56.56,0,0,1,.7.56C26.72,27.32,26.42,27.5,26,27.49Z" transform="translate(0 -6.5)"/><path class="cls-26" d="M23,30.17a1,1,0,0,1-.69-.56c0-.27.29-.54.69-.63a.56.56,0,0,1,.7.56C23.72,30,23.42,30.17,23,30.17Z" transform="translate(0 -6.5)"/><path class="cls-26" d="M20,28.29a1,1,0,0,1-.7-.56c0-.28.3-.55.7-.64a.56.56,0,0,1,.7.57C20.73,28.12,20.43,28.3,20,28.29Z" transform="translate(0 -6.5)"/><path class="cls-26" d="M18,29.19a1.05,1.05,0,0,1-.69-.57c0-.28.3-.56.69-.64a.56.56,0,0,1,.7.57C18.73,29,18.43,29.19,18,29.19Z" transform="translate(0 -6.5)"/><g class="cls-27"><path class="cls-26" d="M11.55,34c-.4-.09-.8-.38-.8-.76s.3-.67.8-.76a.65.65,0,0,1,.8.76A.77.77,0,0,1,11.55,34Z" transform="translate(0 -6.5)"/></g><g class="cls-28"><path class="cls-26" d="M15.74,33.94a1.14,1.14,0,0,1-.9-.84,1,1,0,0,1,.9-.85.77.77,0,0,1,.9.84C16.54,33.66,16.14,34,15.74,33.94Z" transform="translate(0 -6.5)"/></g><path class="cls-26" d="M7.07,31.93a1.06,1.06,0,0,1-.7-.58.81.81,0,0,1,.7-.68.56.56,0,0,1,.7.59A.62.62,0,0,1,7.07,31.93Z" transform="translate(0 -6.5)"/><path class="cls-26" d="M155.18,41.86a1,1,0,0,1-.69-.56c0-.27.29-.53.69-.61a.56.56,0,0,1,.7.56C155.88,41.7,155.58,41.87,155.18,41.86Z" transform="translate(0 -6.5)"/><path class="cls-26" d="M159.18,43.79a1.1,1.1,0,0,1-.7-.57c0-.27.3-.53.7-.61a.56.56,0,0,1,.7.57C159.88,43.63,159.58,43.8,159.18,43.79Z" transform="translate(0 -6.5)"/><path class="cls-26" d="M165.17,45.87a1.1,1.1,0,0,1-.7-.59c0-.27.3-.54.7-.61a.57.57,0,0,1,.7.58C165.87,45.72,165.57,45.89,165.17,45.87Z" transform="translate(0 -6.5)"/><path class="cls-26" d="M169.16,46.06a1.1,1.1,0,0,1-.7-.59c0-.28.3-.55.7-.63a.58.58,0,0,1,.7.6C169.86,45.91,169.56,46.08,169.16,46.06Z" transform="translate(0 -6.5)"/><path class="cls-26" d="M83.08,28.9a1,1,0,0,1-.7-.48c0-.24.3-.48.7-.56a.53.53,0,0,1,.7.48C83.78,28.74,83.48,28.9,83.08,28.9Z" transform="translate(0 -6.5)"/><path class="cls-26" d="M82.07,26.48a1,1,0,0,1-.7-.48c0-.24.3-.48.7-.56a.54.54,0,0,1,.71.48C82.78,26.33,82.48,26.49,82.07,26.48Z" transform="translate(0 -6.5)"/><path class="cls-26" d="M79.07,25.67a1.06,1.06,0,0,1-.7-.49c0-.24.3-.48.7-.56a.53.53,0,0,1,.7.48C79.77,25.51,79.47,25.67,79.07,25.67Z" transform="translate(0 -6.5)"/><path class="cls-26" d="M87.09,24.89a1,1,0,0,1-.7-.48c0-.24.3-.48.7-.56a.53.53,0,0,1,.7.48C87.79,24.73,87.49,24.89,87.09,24.89Z" transform="translate(0 -6.5)"/><path class="cls-26" d="M89.09,28.11a1,1,0,0,1-.7-.48c0-.25.3-.49.7-.57a.54.54,0,0,1,.7.49C89.79,28,89.49,28.11,89.09,28.11Z" transform="translate(0 -6.5)"/><path class="cls-26" d="M101.12,28.1a1,1,0,0,1-.7-.48c0-.24.3-.49.7-.57a.53.53,0,0,1,.7.48C101.82,27.93,101.52,28.1,101.12,28.1Z" transform="translate(0 -6.5)"/><g class="cls-29"><path class="cls-26" d="M100.12,25.69a1,1,0,0,1-.7-.48c0-.24.3-.48.7-.57a.53.53,0,0,1,.7.48C100.82,25.53,100.52,25.69,100.12,25.69Z" transform="translate(0 -6.5)"/></g><path class="cls-26" d="M104.13,26.48a1,1,0,0,1-.7-.48c0-.24.3-.49.7-.57a.53.53,0,0,1,.7.48C104.83,26.31,104.53,26.48,104.13,26.48Z" transform="translate(0 -6.5)"/><path class="cls-26" d="M107.14,28.08a1,1,0,0,1-.71-.48c0-.25.31-.49.71-.57a.53.53,0,0,1,.7.48C107.84,27.91,107.54,28.08,107.14,28.08Z" transform="translate(0 -6.5)"/><path class="cls-26" d="M112.15,28.05a1,1,0,0,1-.7-.48c0-.24.3-.49.7-.57a.53.53,0,0,1,.7.48C112.85,27.89,112.55,28.05,112.15,28.05Z" transform="translate(0 -6.5)"/><path class="cls-26" d="M115.15,27.22a1,1,0,0,1-.7-.48c0-.25.3-.49.7-.58a.54.54,0,0,1,.71.48C115.86,27.05,115.55,27.22,115.15,27.22Z" transform="translate(0 -6.5)"/><path class="cls-26" d="M111.15,25.63a1,1,0,0,1-.71-.48c0-.25.3-.49.71-.58a.53.53,0,0,1,.7.48C111.85,25.46,111.55,25.62,111.15,25.63Z" transform="translate(0 -6.5)"/><path class="cls-26" d="M126.17,27.12a1,1,0,0,1-.7-.49c0-.25.3-.5.7-.59a.53.53,0,0,1,.7.49C126.87,26.94,126.57,27.11,126.17,27.12Z" transform="translate(0 -6.5)"/><path class="cls-26" d="M128.18,28.76a1,1,0,0,1-.7-.49c0-.25.3-.51.7-.59a.53.53,0,0,1,.7.49C128.88,28.59,128.58,28.75,128.18,28.76Z" transform="translate(0 -6.5)"/><path class="cls-26" d="M131.18,27.89a1,1,0,0,1-.7-.49c0-.25.3-.51.7-.59a.53.53,0,0,1,.7.49C131.88,27.72,131.58,27.89,131.18,27.89Z" transform="translate(0 -6.5)"/><path class="cls-26" d="M129.18,26.25a1,1,0,0,1-.7-.49c0-.25.3-.51.7-.6a.53.53,0,0,1,.7.49C129.88,26.07,129.58,26.24,129.18,26.25Z" transform="translate(0 -6.5)"/><path class="cls-26" d="M124.17,25.49a1,1,0,0,1-.7-.49c0-.25.3-.5.7-.59a.53.53,0,0,1,.7.49C124.87,25.31,124.57,25.48,124.17,25.49Z" transform="translate(0 -6.5)"/><path class="cls-26" d="M138.19,30.36a1,1,0,0,1-.7-.5c0-.26.3-.51.7-.6a.53.53,0,0,1,.7.5C138.89,30.19,138.59,30.36,138.19,30.36Z" transform="translate(0 -6.5)"/><path class="cls-26" d="M137.19,27.82a1,1,0,0,1-.7-.5c0-.25.3-.51.7-.6a.53.53,0,0,1,.7.5C137.89,27.64,137.59,27.82,137.19,27.82Z" transform="translate(0 -6.5)"/><path class="cls-26" d="M141.19,28.63a1,1,0,0,1-.7-.51c0-.26.3-.52.7-.61a.53.53,0,0,1,.7.51C141.89,28.45,141.59,28.62,141.19,28.63Z" transform="translate(0 -6.5)"/><path class="cls-26" d="M149.19,28.53a1,1,0,0,1-.7-.52c0-.26.3-.53.7-.62a.53.53,0,0,1,.7.51C149.89,28.34,149.59,28.52,149.19,28.53Z" transform="translate(0 -6.5)"/><path class="cls-26" d="M147.19,31.17a1,1,0,0,1-.7-.52c0-.26.3-.52.7-.61a.53.53,0,0,1,.7.51C147.89,31,147.59,31.17,147.19,31.17Z" transform="translate(0 -6.5)"/><path class="cls-26" d="M156.18,30.22a1,1,0,0,1-.7-.53c0-.27.3-.54.7-.64a.54.54,0,0,1,.7.53C156.88,30,156.58,30.22,156.18,30.22Z" transform="translate(0 -6.5)"/><path class="cls-26" d="M160.18,29.27a1,1,0,0,1-.7-.53c0-.27.3-.55.7-.65a.54.54,0,0,1,.7.54C160.88,29.08,160.58,29.27,160.18,29.27Z" transform="translate(0 -6.5)"/><path class="cls-26" d="M164.17,27.37a1,1,0,0,1-.7-.53c0-.28.3-.56.7-.66a.53.53,0,0,1,.7.53A.62.62,0,0,1,164.17,27.37Z" transform="translate(0 -6.5)"/><path class="cls-26" d="M170.16,24.42a1,1,0,0,1-.7-.55c0-.28.3-.57.7-.68a.53.53,0,0,1,.69.54A.65.65,0,0,1,170.16,24.42Z" transform="translate(0 -6.5)"/><path class="cls-26" d="M159.18,32.91a1,1,0,0,1-.7-.54c0-.27.3-.54.7-.64a.55.55,0,0,1,.7.54C159.88,32.73,159.58,32.91,159.18,32.91Z" transform="translate(0 -6.5)"/><path class="cls-26" d="M164.17,31.06a1,1,0,0,1-.7-.54c0-.28.3-.56.7-.66a.55.55,0,0,1,.7.55A.61.61,0,0,1,164.17,31.06Z" transform="translate(0 -6.5)"/><path class="cls-26" d="M169.16,29.15a1,1,0,0,1-.7-.55c0-.29.3-.57.7-.67a.54.54,0,0,1,.7.55A.63.63,0,0,1,169.16,29.15Z" transform="translate(0 -6.5)"/><path class="cls-26" d="M167.16,32.91a1,1,0,0,1-.69-.56c0-.28.29-.56.69-.65a.54.54,0,0,1,.7.55A.62.62,0,0,1,167.16,32.91Z" transform="translate(0 -6.5)"/><path class="cls-26" d="M173.15,32.91a1.06,1.06,0,0,1-.7-.58c0-.28.3-.57.7-.67a.55.55,0,0,1,.69.58A.62.62,0,0,1,173.15,32.91Z" transform="translate(0 -6.5)"/><path class="cls-26" d="M164.17,35.68a1.09,1.09,0,0,1-.7-.56c0-.28.3-.55.7-.64a.55.55,0,0,1,.7.56C164.87,35.5,164.57,35.68,164.17,35.68Z" transform="translate(0 -6.5)"/><path class="cls-26" d="M170.16,37.62a1.07,1.07,0,0,1-.7-.57c0-.29.3-.56.7-.65a.56.56,0,0,1,.69.57A.6.6,0,0,1,170.16,37.62Z" transform="translate(0 -6.5)"/><path class="cls-26" d="M156.18,37.4a1.07,1.07,0,0,1-.7-.55c0-.27.3-.53.7-.62a.56.56,0,0,1,.7.55C156.88,37.23,156.58,37.4,156.18,37.4Z" transform="translate(0 -6.5)"/><path class="cls-26" d="M160.18,39.28a1.09,1.09,0,0,1-.7-.56c0-.27.3-.54.7-.63a.56.56,0,0,1,.7.56C160.88,39.11,160.58,39.29,160.18,39.28Z" transform="translate(0 -6.5)"/><path class="cls-26" d="M165.17,41.24a1.07,1.07,0,0,1-.7-.57c0-.28.3-.55.7-.63a.56.56,0,0,1,.7.57C165.87,41.08,165.57,41.25,165.17,41.24Z" transform="translate(0 -6.5)"/><path class="cls-26" d="M171.15,44.27a1.07,1.07,0,0,1-.69-.6c0-.28.29-.55.69-.63a.58.58,0,0,1,.7.6A.59.59,0,0,1,171.15,44.27Z" transform="translate(0 -6.5)"/><path class="cls-26" d="M146.19,39a1,1,0,0,1-.7-.53c0-.26.3-.51.7-.6a.55.55,0,0,1,.7.54C146.89,38.84,146.59,39,146.19,39Z" transform="translate(0 -6.5)"/></g><g class="cls-30"><path class="cls-31" d="M150.79,32.47c-17.4,3.77-36.22,3.9-54,4.23-18-.15-36.15-2-54-4.3,17.11-3.77,36.48-2.24,54-2.13C114.81,30.62,132.81,31.47,150.79,32.47Z" transform="translate(0 -6.5)"/></g><path class="cls-2" d="M122.27,33.5A4.34,4.34,0,0,1,118.06,38a4.19,4.19,0,0,1-4.21-4.5c.1-2.6,1.91-4.56,4.21-4.41A4.47,4.47,0,0,1,122.27,33.5Z" transform="translate(0 -6.5)"/><path class="cls-2" d="M107.44,32.92A3.43,3.43,0,0,1,104,36.31a3.25,3.25,0,0,1-3.41-3.39A3.35,3.35,0,0,1,104,29.54,3.64,3.64,0,0,1,107.44,32.92Z" transform="translate(0 -6.5)"/><path class="cls-2" d="M130.78,33.34c-1.9.08-3.61-.92-3.71-2.25s1.51-2.33,3.61-2.35,3.7,1,3.7,2.24S132.68,33.26,130.78,33.34Z" transform="translate(0 -6.5)"/><path class="cls-2" d="M95.41,33.32a2.91,2.91,0,0,1-2.81,2.89,2.89,2.89,0,0,1,0-5.77A3,3,0,0,1,95.41,33.32Z" transform="translate(0 -6.5)"/><path class="cls-2" d="M72,33.08a4.32,4.32,0,0,1,4.21-4.44,4.15,4.15,0,0,1,4.21,4.44c-.1,2.58-1.9,4.52-4.21,4.37A4.52,4.52,0,0,1,72,33.08Z" transform="translate(0 -6.5)"/><path class="cls-2" d="M65.44,33.09a3,3,0,0,1-2.81,3,2.79,2.79,0,0,1-2.8-3c.1-1.74,1.2-3.06,2.8-3A3,3,0,0,1,65.44,33.09Z" transform="translate(0 -6.5)"/><path class="cls-2" d="M145.59,32.13c0,1-1.2,2.08-2.8,2.08s-2.8-.87-2.8-2.06,1.2-2.06,2.8-2.08A2.78,2.78,0,0,1,145.59,32.13Z" transform="translate(0 -6.5)"/><path class="cls-2" d="M154.49,32.65c0,1.07-1.2,2.13-2.8,2.12s-2.8-.89-2.8-2.12,1.2-2.11,2.8-2.12A2.7,2.7,0,0,1,154.49,32.65Z" transform="translate(0 -6.5)"/><path class="cls-2" d="M48.11,31.05a2.66,2.66,0,0,1-3,1.53,1.89,1.89,0,0,1-1-2.83c.6-1.19,1.9-1.94,2.9-1.51A2,2,0,0,1,48.11,31.05Z" transform="translate(0 -6.5)"/><path class="cls-2" d="M49.12,34.52a1.31,1.31,0,0,1-.81,1.79,1.51,1.51,0,0,1-1.8-1,1.23,1.23,0,0,1,.8-1.7A1.55,1.55,0,0,1,49.12,34.52Z" transform="translate(0 -6.5)"/><g class="cls-14"><path class="cls-2" d="M54.12,39.19c-.8-.32-1.2-1.07-.8-1.66s1.3-.68,2.2-.28,1.2,1.16.8,1.66A2,2,0,0,1,54.12,39.19Z" transform="translate(0 -6.5)"/></g><g class="cls-14"><path class="cls-2" d="M42.41,38.51a1.41,1.41,0,0,1,1.1-1.65,1.35,1.35,0,0,1,1.6,1.27A1.4,1.4,0,0,1,44,39.77,1.59,1.59,0,0,1,42.41,38.51Z" transform="translate(0 -6.5)"/></g><path class="cls-32" d="M.5,39.49a4.78,4.78,0,0,1,1.89-.06c1.29.07,1.59.16,1.69.45a.88.88,0,0,1,0,1,1.31,1.31,0,0,1-.9.43C1.79,41.43.2,39.89.5,39.49Z" transform="translate(0 -6.5)"/><path class="cls-33" d="M24.72,33.36c-.2,0,.2,1.36,0,3.64s-.2,3.36-1.3,4.48c-.5.57-1.29,1.14-1.19,1.32s.69,0,1-.12c2-.71,2.5-3.71,2.4-5.88A7.57,7.57,0,0,0,24.72,33.36Z" transform="translate(0 -6.5)"/><g class="cls-14"><path class="cls-2" d="M90.8,39.26c-.61-.16-.71-.72-.3-1.2a1.69,1.69,0,0,1,1.8-.48c.6.24.8.72.3,1.12A2,2,0,0,1,90.8,39.26Z" transform="translate(0 -6.5)"/></g><g class="cls-14"><path class="cls-2" d="M95.21,39.67c-.3-.09-.4-.33-.2-.57a.93.93,0,0,1,.9-.24c.3.08.4.33.2.57A.93.93,0,0,1,95.21,39.67Z" transform="translate(0 -6.5)"/></g><g class="cls-14"><path class="cls-2" d="M79.17,42.12c-.3-.08-.4-.32-.2-.57a1,1,0,0,1,.9-.25c.3.08.4.32.2.57A1,1,0,0,1,79.17,42.12Z" transform="translate(0 -6.5)"/></g><g class="cls-14"><path class="cls-2" d="M69.35,41.47c-.3,0-.5-.23-.4-.48a.85.85,0,0,1,.7-.5c.3,0,.5.24.4.49A.84.84,0,0,1,69.35,41.47Z" transform="translate(0 -6.5)"/></g><g class="cls-14"><path class="cls-2" d="M103,39.53c-.2-.17-.1-.49.2-.57a.74.74,0,0,1,.9.17c.2.24.1.48-.2.56A1.14,1.14,0,0,1,103,39.53Z" transform="translate(0 -6.5)"/></g><g class="cls-14"><path class="cls-2" d="M.9,36.59a.44.44,0,0,1,.19-.7A.74.74,0,0,1,2,36a.44.44,0,0,1-.2.7A.74.74,0,0,1,.9,36.59Z" transform="translate(0 -6.5)"/></g><g class="cls-14"><path class="cls-2" d="M2.89,37.35a.44.44,0,0,1,.2-.7.65.65,0,0,1,.89.18.43.43,0,0,1-.2.7A1,1,0,0,1,2.89,37.35Z" transform="translate(0 -6.5)"/></g><g class="cls-14"><path class="cls-2" d="M4.78,38.29A.44.44,0,0,1,5,37.6a.64.64,0,0,1,.89.18.42.42,0,0,1-.2.69A1,1,0,0,1,4.78,38.29Z" transform="translate(0 -6.5)"/></g><g class="cls-14"><path class="cls-2" d="M116.56,39.86a.4.4,0,0,1-.5-.41.6.6,0,0,1,.6-.57c.3,0,.6.17.5.41S116.86,39.86,116.56,39.86Z" transform="translate(0 -6.5)"/></g><g class="cls-14"><path class="cls-2" d="M120.56,41.54a.46.46,0,0,1-.5-.5.61.61,0,0,1,.7-.56c.31,0,.61.17.51.5A.78.78,0,0,1,120.56,41.54Z" transform="translate(0 -6.5)"/></g><g class="cls-14"><path class="cls-2" d="M139.29,36.67a.35.35,0,0,1-.2-.6.88.88,0,0,1,.9-.24.35.35,0,0,1,.2.6A.88.88,0,0,1,139.29,36.67Z" transform="translate(0 -6.5)"/></g><g class="cls-14"><path class="cls-2" d="M130.08,38.52a.7.7,0,0,1-.4-1.09,1.2,1.2,0,0,1,1.5-.24c.5.26.7.76.4,1.09A1.36,1.36,0,0,1,130.08,38.52Z" transform="translate(0 -6.5)"/></g><path class="cls-2" d="M54.12,31.41c.6,1.6.1,3.18-1.2,3.69s-2.9-.66-3.5-2.44-.1-3.38,1.3-3.62S53.52,29.82,54.12,31.41Z" transform="translate(0 -6.5)"/><path class="cls-34" d="M150.09,32.56c-17.9,1.06-35.85,1.91-53.78,2-17.91,0-35.83-1-53.7-2.12,17.93.53,35.87,1,53.8,1.08S132.21,33.14,150.09,32.56Z" transform="translate(0 -6.5)"/><path class="cls-35" d="M38.91,38c.2,4.42-9.29,6.84-10.69,7.17h-.1c-7.79,1.93-16.57-.67-16.47-2,.2-1.82,15.77-.59,17-4.73.7-2.34-3.1-5.84-1.9-7.54.1-.09.1-.18.3-.18C29.12,30,38.81,33.52,38.91,38Z" transform="translate(0 -6.5)"/><path class="cls-17" d="M38.41,38.05c.2,4.43-8.7,7.9-10.79,7.18-1.3-.49.7-2.45.6-6.75-.2-4.94-2.9-7.2-1.6-7.73C28.52,30,38.21,33.53,38.41,38.05Z" transform="translate(0 -6.5)"/><g class="cls-30"><path class="cls-36" d="M34.61,41.36c-1.6.21-6-4.5-6-4.59,0-1.89,4.39-2.62,6-2.45C36.51,34.58,36.51,41.13,34.61,41.36Z" transform="translate(0 -6.5)"/></g><path class="cls-17" d="M19.53,36.24c-1,1.21-3.09,1.07-3.39.51-.5-.84,2.39-3.65,3.39-3.19C20.13,33.83,20.33,35.3,19.53,36.24Z" transform="translate(0 -6.5)"/><path class="cls-2" d="M34.11,36.35a1.38,1.38,0,0,1-.8,1.86,1.48,1.48,0,0,1-1.8-1,1.31,1.31,0,0,1,.8-1.78A1.52,1.52,0,0,1,34.11,36.35Z" transform="translate(0 -6.5)"/><path class="cls-37" d="M15.74,22.21" transform="translate(0 -6.5)"/><g id="Bottom_Fin-3" data-name="Bottom Fin"><path class="cls-3" d="M97.31,57.9c1.61,1.94,4.81,2.06,7,.24l.1-.07.1-.08c0-.08-1.7.13-3.31.11-2.3-.11-3.91-.85-4.11-.53C97.21,57.58,97.21,57.66,97.31,57.9Z" transform="translate(0 -6.5)"/></g><g id="Bottom_Back_Fin-5" data-name="Bottom Back Fin"><path class="cls-3" d="M138.79,54.06c-4,.9-9.21-3.19-9.11-3.36a6.77,6.77,0,0,0,1.1.46c5,1.79,10,.44,10.31,1.23C141.29,52.83,140.19,53.71,138.79,54.06Z" transform="translate(0 -6.5)"/></g></svg>