<svg class="trout" id="Layer_1" data-name="Layer 1" xmlns="http://www.w3.org/2000/svg" xmlns:xlink="http://www.w3.org/1999/xlink" viewBox="0 0 184.44 66.09"><defs><style>.cls-1{fill:url(#radial-gradient);}.cls-2{fill:#4a5853;}.cls-25,.cls-3{fill:#fff;}.cls-4{fill:url(#linear-gradient);}.cls-5{fill:url(#linear-gradient-2);}.cls-6{fill:#b5963e;}.cls-7{fill:#e0dfc2;}.cls-24,.cls-7{fill-opacity:0.61;}.cls-8{fill:none;}.cls-24,.cls-25,.cls-26,.cls-8{stroke:#000;stroke-miterlimit:10;}.cls-24,.cls-26,.cls-8{stroke-width:0.25px;}.cls-9{fill:url(#linear-gradient-3);}.cls-10{fill:url(#linear-gradient-4);}.cls-11{fill:url(#linear-gradient-5);}.cls-12{fill:url(#linear-gradient-6);}.cls-13{fill:url(#linear-gradient-7);}.cls-14{fill:url(#radial-gradient-2);}.cls-15{opacity:0.66;}.cls-16{opacity:0.6;}.cls-17{fill:#e0d38e;}.cls-18{fill:#ea8d2f;}.cls-19{fill:url(#linear-gradient-8);}.cls-20{fill:url(#linear-gradient-9);}.cls-21{fill:url(#linear-gradient-10);}.cls-22{fill:url(#linear-gradient-11);}.cls-23{opacity:0.58;}.cls-24{fill:#be9a44;}.cls-25{stroke-width:0.1px;}.cls-27{opacity:0.7;}.cls-28{opacity:0.73;}.cls-29{opacity:0.83;}.cls-30{opacity:0.68;}.cls-31{fill:url(#linear-gradient-12);}.cls-32{fill:url(#linear-gradient-13);}.cls-33{fill:url(#linear-gradient-14);}.cls-34{fill:#c25530;}.cls-35{fill:url(#linear-gradient-15);}.cls-36{fill:url(#linear-gradient-16);}.cls-37{fill:url(#linear-gradient-17);}</style><radialGradient id="radial-gradient" cx="791.63" cy="-242.04" r="15.04" gradientTransform="matrix(0.29, 0, 0, -0.32, -225.49, -42.6)" gradientUnits="userSpaceOnUse"><stop offset="0" stop-color="#e2c45b"/><stop offset="0.06" stop-color="#e2c45b"/><stop offset="1" stop-color="#fff" stop-opacity="0"/></radialGradient><linearGradient id="linear-gradient" x1="135.01" y1="27.99" x2="132.28" y2="10.78" gradientTransform="matrix(1, 0, 0, -1, 0, 68)" gradientUnits="userSpaceOnUse"><stop offset="0" stop-color="#ecda00"/><stop offset="0.58" stop-color="#ea8c2d"/></linearGradient><linearGradient id="linear-gradient-2" x1="94.31" y1="47.61" x2="97.49" y2="65.67" gradientTransform="matrix(1, 0, 0, -1, 0, 68)" gradientUnits="userSpaceOnUse"><stop offset="0" stop-color="#ecda00"/><stop offset="0.58" stop-color="#c08438"/></linearGradient><linearGradient id="linear-gradient-3" x1="91.93" y1="54.32" x2="91.93" y2="31.38" gradientTransform="matrix(1, 0, 0, -1, 0, 68)" gradientUnits="userSpaceOnUse"><stop offset="0" stop-color="#6e8068"/><stop offset="0.13" stop-color="#6e8068"/><stop offset="1" stop-color="#fff" stop-opacity="0"/></linearGradient><linearGradient id="linear-gradient-4" x1="99.53" y1="17.4" x2="97.21" y2="2.7" xlink:href="#linear-gradient"/><linearGradient id="linear-gradient-5" x1="83.1" y1="49.7" x2="83.1" y2="39.76" gradientTransform="matrix(1, 0, 0, -1, 0, 68)" gradientUnits="userSpaceOnUse"><stop offset="0" stop-color="#b5963e"/><stop offset="1" stop-color="#fff" stop-opacity="0"/></linearGradient><linearGradient id="linear-gradient-6" x1="82.1" y1="49.1" x2="82.1" y2="22.67" gradientTransform="matrix(1, 0, 0, -1, 0, 68)" gradientUnits="userSpaceOnUse"><stop offset="0" stop-color="#cb9831"/><stop offset="1" stop-color="#fff" stop-opacity="0"/></linearGradient><linearGradient id="linear-gradient-7" x1="90.55" y1="18.82" x2="90.55" y2="44.07" gradientTransform="matrix(1, 0, 0, -1, 0, 68)" gradientUnits="userSpaceOnUse"><stop offset="0" stop-color="#fff" stop-opacity="0"/><stop offset="0.4" stop-color="#e2c45b"/><stop offset="0.58" stop-color="#e2c45b"/><stop offset="1" stop-color="#fff" stop-opacity="0"/></linearGradient><radialGradient id="radial-gradient-2" cx="20.38" cy="33.96" r="15.02" gradientTransform="matrix(1, 0, 0, -1, 0, 68)" gradientUnits="userSpaceOnUse"><stop offset="0" stop-color="#e2c45b"/><stop offset="0.36" stop-color="#e2c45b"/><stop offset="1" stop-color="#fff" stop-opacity="0"/></radialGradient><linearGradient id="linear-gradient-8" x1="8.6" y1="23.6" x2="8.6" y2="31.86" xlink:href="#linear-gradient-7"/><linearGradient id="linear-gradient-9" x1="360.4" y1="-41.78" x2="360.4" y2="-33.52" gradientTransform="matrix(0.31, 0.5, -0.46, 0.77, -125.15, -112.29)" xlink:href="#linear-gradient-7"/><linearGradient id="linear-gradient-10" x1="164.75" y1="53.46" x2="164.75" y2="17.64" gradientTransform="matrix(1, 0, 0, -1, 0, 68)" gradientUnits="userSpaceOnUse"><stop offset="0" stop-color="#e2c45b"/><stop offset="0.4" stop-color="#e0d38e" stop-opacity="0.5"/><stop offset="0.62" stop-color="#e0d38e" stop-opacity="0.5"/><stop offset="1" stop-color="#e2c45b"/></linearGradient><linearGradient id="linear-gradient-11" x1="39.16" y1="48.12" x2="41.06" y2="39.54" gradientTransform="matrix(1, 0, 0, -1, 0, 68)" gradientUnits="userSpaceOnUse"><stop offset="0" stop-color="#6e8068"/><stop offset="0.18" stop-color="#6e8068"/><stop offset="0.48" stop-color="#6e8068" stop-opacity="0.5"/><stop offset="0.81" stop-color="#d9dbd4" stop-opacity="0.19"/><stop offset="1" stop-color="#fff" stop-opacity="0"/></linearGradient><linearGradient id="linear-gradient-12" x1="96.8" y1="30.33" x2="96.8" y2="38.35" gradientTransform="matrix(1, 0, 0, -1, 0, 68)" gradientUnits="userSpaceOnUse"><stop offset="0" stop-color="#c25530" stop-opacity="0.6"/><stop offset="0.5" stop-color="#c25530"/><stop offset="1" stop-color="#c25530" stop-opacity="0.6"/></linearGradient><linearGradient id="linear-gradient-13" x1="0.44" y1="27.59" x2="4.25" y2="27.59" gradientTransform="matrix(1, 0, 0, -1, 0, 68)" gradientUnits="userSpaceOnUse"><stop offset="0" stop-color="#4a5854"/><stop offset="0.13" stop-color="#4a5854"/><stop offset="1" stop-color="#4a5854" stop-opacity="0.2"/></linearGradient><linearGradient id="linear-gradient-14" x1="-311.44" y1="-143.13" x2="-307.54" y2="-143.13" gradientTransform="matrix(-0.76, 2.52, -0.86, -0.66, -332.98, 723.92)" xlink:href="#linear-gradient-13"/><linearGradient id="linear-gradient-15" x1="28.75" y1="37.69" x2="23.34" y2="19.69" xlink:href="#linear-gradient-13"/><linearGradient id="linear-gradient-16" x1="32.41" y1="25.45" x2="32.41" y2="33.46" xlink:href="#linear-gradient-12"/><linearGradient id="linear-gradient-17" x1="15.8" y1="46.5" x2="15.8" y2="46.5" xlink:href="#linear-gradient-11"/></defs><path class="cls-1" d="M11.5,33.5c0-1.1-1.6-1.9-2.4-2.2a4.17,4.17,0,0,0-2.4-.2,7.81,7.81,0,0,0-1.9.4,9,9,0,0,0-3.2,1.4l-.4.4a1.87,1.87,0,0,0-.3.4,2.68,2.68,0,0,0-.4,1.7c.1,1.2,3,2.4,5.6,1.9a9.74,9.74,0,0,0,4-2C11,34.4,11.5,34,11.5,33.5Z" transform="translate(0.01 0.03)"/><g id="Bottom_Back_Fin" data-name="Bottom Back Fin"><path class="cls-2" d="M96.1.2c3.7,1.2,5.3,6.6,5,6.8a20.87,20.87,0,0,0-1.9-2.2c-4.4-3.3-12,1.2-12.5.3S91.7-1.2,96.1.2Z" transform="translate(0.01 0.03)"/></g><g id="Bottom_Back_Fin-2" data-name="Bottom Back Fin"><path class="cls-3" d="M96.6.4c2.5.6,5,3,4.7,3.6-.1.3-.9.2-1.2.2-5.3-.5-13.3,3-13.8,1.7C85.7,4.8,91.5-.9,96.6.4Z" transform="translate(0.01 0.03)"/></g><path class="cls-2" d="M151.4,33.5c-1.3,5.8,8.3,13.5,16.9,16.2,2,.6,10.3,3.2,13.6-.6,2-2.3,1.5-6,1.4-7-.5-4.6-3.3-5.1-3.3-8.8,0-3.2,2.2-3.5,3.3-8.1.3-1.1,1.6-7.3-1.1-9.3s-7.8.8-12.5,3.4a68.67,68.67,0,0,0-8.2,5.6C155,29.6,151.8,32,151.4,33.5Z" transform="translate(0.01 0.03)"/><g id="Top_Back_Fin" data-name="Top Back Fin"><path class="cls-2" d="M137.5,24.1a48.13,48.13,0,0,0,5.3,2c1.3.4,2.2-.8,2-2.7v-.2c-.2-1.8-1.3-3.1-2.4-3a25.22,25.22,0,0,1-4.8.4c-1.2,0-2.2.5-2.3,1.1v.1C135.3,22.5,136.3,23.6,137.5,24.1Z" transform="translate(0.01 0.03)"/></g><g id="Top_Fin" data-name="Top Fin"><path class="cls-2" d="M108.3,9.2A59.25,59.25,0,0,0,96.5,1.3c-2.8-1.5-8.3,1.3-12.1,6-.5.7-.8,1-1.3,1.6-3.8,4.7-3.8,8.4-.1,8.4a110.6,110.6,0,0,1,16.5.8c3.4.4,7.5-.4,9.2-2a3.17,3.17,0,0,1,.6-.5C110.9,14,110.5,11.1,108.3,9.2Z" transform="translate(0.01 0.03)"/></g><g id="Bottom_Back_Fin-3" data-name="Bottom Back Fin"><path class="cls-2" d="M141.6,48.2c-1,3.8,1.3,8-3.3,9.8-2.3.9-6.2-.8-9.1-3.5L127.7,53c-2.8-2.7-4.2-5.3-3.2-6.4,1.2-1.4,4.1-2.5,4.7-2.8,1.3-.6,5.2-2.4,7.8-2.4a46.43,46.43,0,0,1,6.3.3C144.4,42.1,142.1,46.3,141.6,48.2Z" transform="translate(0.01 0.03)"/></g><g id="Bottom_Back_Fin-4" data-name="Bottom Back Fin"><path class="cls-4" d="M142,47.9c-1,3.8,1.3,8-3.3,9.8-2.3.9-6.2-.8-9.1-3.5l-1.5-1.5c-2.8-2.7-4.2-5.3-3.2-6.4,1.2-1.4,4.1-2.5,4.7-2.8,1.3-.6,5.2-2.4,7.8-2.4a46.43,46.43,0,0,1,6.3.3C144.8,41.7,142.4,46,142,47.9Z" transform="translate(0.01 0.03)"/></g><g id="Top_Fin-2" data-name="Top Fin"><path class="cls-5" d="M108.3,10.2A59.25,59.25,0,0,0,96.5,2.3c-2.8-1.5-8.3,1.3-12.1,6-.5.7-.8,1-1.3,1.6-3.8,4.7-3.8,8.4-.1,8.4a110.6,110.6,0,0,1,16.5.8c3.4.4,7.5-.4,9.2-2a3.17,3.17,0,0,1,.6-.5C110.9,15,110.5,12.1,108.3,10.2Z" transform="translate(0.01 0.03)"/></g><g id="Top_Back_Fin-2" data-name="Top Back Fin"><path class="cls-6" d="M137.5,24.5a48.13,48.13,0,0,0,5.3,2c1.3.4,2.2-.8,2-2.7v-.2c-.2-1.8-1.3-3.1-2.4-3a25.22,25.22,0,0,1-4.8.4c-1.2,0-2.2.5-2.3,1.1v.1C135.3,22.9,136.3,23.9,137.5,24.5Z" transform="translate(0.01 0.03)"/></g><path id="Body" class="cls-7" d="M181.9,15.1c-3-4.3-19.9,8.3-22,9.2a59.18,59.18,0,0,0-5.8,2.7,17.86,17.86,0,0,1-3-.2c-1.6-.3-3.6-.7-5.3-1-2.7-.5-7.8-2.9-10.5-3.3s-5.3-.3-8.1-.7c-15.5-2.2-30.6-3.6-38.3-3.7-8.6-.2-38.8.6-61.6,4.7C11.7,25.4-.4,29.7.1,36.2c.1,1.1,6.1,3,7.2,3.7.5.3-3.3-.4-6.8-.7-1.1-.1.7,1.5.9,1.6,4.9,2.6,17.2,6.4,25.9,7.7a337,337,0,0,0,35,2.8c11.7.4,21.8-1,26.7-1.2,2.5-.1,8.7-.7,13.8-.8a129.88,129.88,0,0,0,19.2-2c5.1-.9,6.5-3.3,10-4.7.1,0,2-.6,3.8-.9,6.9-1.2,13.8.4,16.9,1.3,13.7,3.8,17.8,9.4,25.1,7.3a6.89,6.89,0,0,0,3.8-2.2c3.1-3.5,1.7-9.9-.8-14.6C179.8,31.7,187.5,23.1,181.9,15.1Z" transform="translate(0.01 0.03)"/><path id="Jawline" class="cls-8" d="M27.6,22.8c2.5.7,15.9,9.1,16.3,11.5.8,4.4-5.9,10.3-16.3,14.4" transform="translate(0.01 0.03)"/><path id="Body-2" data-name="Body" class="cls-9" d="M181.8,14.6c-3-4.3-19.9,8.3-22,9.2a59.18,59.18,0,0,0-5.8,2.7,17.86,17.86,0,0,1-3-.2c-1.6-.3-3.6-.7-5.3-1-2.7-.5-7.8-2.9-10.5-3.3s-5.3-.3-8.1-.7c-15.5-2.2-30.6-3.6-38.3-3.7-8.6-.2-38.8.6-61.6,4.7C11.7,24.9-.4,29.2,0,35.7c.1,1.1,183.2,2.2,180.8-2.6C179.8,31.2,187.4,22.6,181.8,14.6Z" transform="translate(0.01 0.03)"/><path class="cls-2" d="M16.7,44.3c.2-.1.3-.1.4-.2.5-.9-3.5-4.1-7.2-5.9C5.5,36,.9,35.5.7,36s2.7,1.9,8.1,4.5c.8.4,1,.5,1.7.8,1.1.5,1.9.9,2.5,1.2C15.2,43.6,15.9,44.6,16.7,44.3Z" transform="translate(0.01 0.03)"/><g id="Bottom_Fin" data-name="Bottom Fin"><path class="cls-2" d="M91.4,54.2c.5,1.8,1.2,2.4,2.7,5,.9,1.5,1.8,3,3.1,5,1.6,2.4,4.8,2.5,7,.2l.2-.2c2.3-2.2,2.3-5.2.2-6.7-1.7-1.2-3-2.2-4.2-3.2-1.8-1.4-2.2-2.1-3.1-2.8-.1-.1-.5-.3-1-.6a5.15,5.15,0,0,0-2.2-.9,4.57,4.57,0,0,0-1.6.1c-.6.1-.9.1-1,.2C90.7,50.7,91,52.7,91.4,54.2Z" transform="translate(0.01 0.03)"/></g><g id="Bottom_Fin-2" data-name="Bottom Fin"><path class="cls-10" d="M91.5,54c.5,1.8,1.2,2.4,2.7,5,.9,1.5,1.8,3,3.1,5,1.6,2.4,4.8,2.5,7,.2l.2-.2c2.3-2.2,2.3-5.2.2-6.7-1.7-1.2-3-2.2-4.2-3.2-1.8-1.4-2.2-2.1-3.1-2.8-.1-.1-.5-.3-1-.6a5.15,5.15,0,0,0-2.2-.9,4.57,4.57,0,0,0-1.6.1c-.6.1-.9.1-1,.2C90.9,50.5,91.1,52.5,91.5,54Z" transform="translate(0.01 0.03)"/></g><path class="cls-11" d="M149.9,28.2c.2-1-30.4-9.8-66.9-9.9a325.91,325.91,0,0,0-33.8,2C33,22,16.2,25.4,16.3,26.2c.1,1,28.9-5,67.5-4.5C123.7,22.1,149.7,29.1,149.9,28.2Z" transform="translate(0.01 0.03)"/><path class="cls-12" d="M148.9,32.8c0-6.8-37.8-13.9-66.9-13.9a223.21,223.21,0,0,0-33.8,2.8c-19,2.8-32.8,4.8-32.9,8.3C15.1,35.5,48.7,44.7,83,45.3,113.6,45.8,148.9,39.3,148.9,32.8Z" transform="translate(0.01 0.03)"/><path class="cls-13" d="M148.9,35.9c.1-5-32.9-9.5-55.2-11.1C56,22.1,32.3,26.6,32.2,29.5c0,1.3,4.9,2,6.3,6.4.9,2.8-.5,4.4-.2,6,1.2,6.7,29.7,8.3,56,6.6a213.84,213.84,0,0,0,39.8-6.8C143.9,39.1,148.9,37.8,148.9,35.9Z" transform="translate(0.01 0.03)"/><path class="cls-14" d="M39.2,32c0-3.4-5.6-6.1-8.4-7a19.06,19.06,0,0,0-8.1-.8c-2.6.3-4.8.8-6.4,1.1,0,0-7.5,1.7-10.8,4.3A15.51,15.51,0,0,0,4.1,31a7.11,7.11,0,0,0-1,1.3,10,10,0,0,0-1.5,5.3c.5,3.8,10.3,7.5,19,6.1.7-.1,6.3-1.1,13.5-6.2C37.5,35,39.1,33.7,39.2,32Z" transform="translate(0.01 0.03)"/><g class="cls-15"><path class="cls-2" d="M58.2,43.4a.88.88,0,0,0-1-.5.8.8,0,0,0-.3,1.1.73.73,0,0,0,1,.4A.78.78,0,0,0,58.2,43.4Z" transform="translate(0.01 0.03)"/></g><g class="cls-16"><path class="cls-17" d="M123.8,44.7c0-.4-6.5.4-10.8,1-7.3,1.1-10.5,3.3-10.4,3.4.3.5,5.9-.4,10.9-1.4.4-.1,3.6-.8,7.6-2C122.9,45.2,123.8,44.9,123.8,44.7Z" transform="translate(0.01 0.03)"/></g><g class="cls-16"><path class="cls-17" d="M90.4,48.8c0-.5-2.7-.8-4.6-.8-3.1,0-4.4,2.1-4.3,2.2.2.7,2.5.7,4.6.3a14.74,14.74,0,0,0,3.2-1C90.1,49.2,90.5,49,90.4,48.8Z" transform="translate(0.01 0.03)"/></g><path class="cls-18" d="M16.4,44.4c.2-.1.3-.1.4-.2.5-.9-3.5-4.1-7.2-5.9C5.2,36.1.6,35.6.4,36.1S3.1,38,8.5,40.6c.8.4,1,.5,1.7.8,1.1.5,1.9.9,2.5,1.2C14.9,43.8,15.6,44.8,16.4,44.4Z" transform="translate(0.01 0.03)"/><path class="cls-18" d="M8.8,41.4c-.1.3-2.5,1.4-4.9.9s-4-2.4-3.8-2.9,3.2.3,4.5.8c.5.2.8.3,1.4.5C7.9,41.2,8.9,41.1,8.8,41.4Z" transform="translate(0.01 0.03)"/><path class="cls-19" d="M16.8,44.4c.2-.3-2.7-3.7-7.2-5.9S.6,35.8.4,36.3,6,39.5,8.5,40.6a30.21,30.21,0,0,1,2.9,1.2C15.2,43.5,16.6,44.6,16.8,44.4Z" transform="translate(0.01 0.03)"/><path class="cls-20" d="M8.9,41.4c-.1.3-2.5,1.4-4.9.9S0,39.9.1,39.4s3.2.3,4.5.8a13.08,13.08,0,0,0,1.5.5C8,41.2,8.9,41.2,8.9,41.4Z" transform="translate(0.01 0.03)"/><path class="cls-21" d="M145.1,32.9a4.12,4.12,0,0,0,.3,2.1c1.1,3.6,4.3,5.3,14.5,10.2,6.9,3.3,7.5,3.5,8.4,3.8,3.2.9,10.5,3,13.6-.6,2-2.3,1.5-6,1.4-7-.6-4.7-3.4-5.3-3.3-8.8s3.1-3.9,4.1-8.5c.6-2.7.6-7.2-1.9-8.9-2.8-1.9-7.4.6-12.5,3.4-4.4,2.3-4.2,3.1-8.2,5.6C156.5,27.1,146,28.6,145.1,32.9Z" transform="translate(0.01 0.03)"/><path class="cls-22" d="M80.4,19.2c-.3-2.3-37.7,1.2-49.5,2.8-2.7.4-5.6,1-11.4,2.2-6.9,1.5-10.2,2.4-13.6,4.7C4.8,29.6.3,32.6.9,34c.8,2.2,13.5-.8,24.2-3.2C65.3,21.8,80.5,20.7,80.4,19.2Z" transform="translate(0.01 0.03)"/><g id="Forearm"><path class="cls-2" d="M37.3,43.7a41.6,41.6,0,0,1,15.5-.8c5,.5,5.4,1.1,5.4,1.3.4,1.5-3.8,4.4-8.1,5.4a16.08,16.08,0,0,1-6.1.2c-5.1-.6-10.7-2.9-10.5-4.5C33.7,45.1,33.8,44.6,37.3,43.7Z" transform="translate(0.01 0.03)"/></g><g class="cls-23"><path class="cls-2" d="M9.5,32.9c-.1-2,1.8-3.7,4.2-3.8a3.79,3.79,0,0,1,4.2,3.8,3.88,3.88,0,0,1-4.2,3.7A4.24,4.24,0,0,1,9.5,32.9Z" transform="translate(0.01 0.03)"/></g><g id="Forearm-2" data-name="Forearm"><path class="cls-18" d="M37.3,44.1a41.6,41.6,0,0,1,15.5-.8c5,.5,5.4,1.1,5.4,1.3.4,1.5-3.8,4.4-8.1,5.4a16.08,16.08,0,0,1-6.1.2c-5.1-.6-10.7-2.9-10.5-4.5C33.7,45.5,33.9,45,37.3,44.1Z" transform="translate(0.01 0.03)"/></g><circle id="Eye" class="cls-24" cx="13.71" cy="32.83" r="3.2"/><g id="Iris"><path d="M14.7,33a1.1,1.1,0,0,1-2.2,0,1,1,0,0,1,1.1-1.1A1.11,1.11,0,0,1,14.7,33Z" transform="translate(0.01 0.03)"/></g><circle id="Pupil" class="cls-25" cx="14.21" cy="32.53" r="0.3"/><path class="cls-26" d="M38.4,28.8a1.06,1.06,0,0,1-.7-.6.84.84,0,0,1,.7-.7.56.56,0,0,1,.7.6C39,28.6,38.7,28.9,38.4,28.8Z" transform="translate(0.01 0.03)"/><path class="cls-26" d="M65.5,28.8a1.06,1.06,0,0,1-.7-.6.84.84,0,0,1,.7-.7.56.56,0,0,1,.7.6C66.1,28.6,65.9,28.9,65.5,28.8Z" transform="translate(0.01 0.03)"/><path class="cls-26" d="M70.1,26.9a1.06,1.06,0,0,1-.7-.6.84.84,0,0,1,.7-.7.56.56,0,0,1,.7.6A.63.63,0,0,1,70.1,26.9Z" transform="translate(0.01 0.03)"/><path class="cls-26" d="M62.1,26.9a1.06,1.06,0,0,1-.7-.6.84.84,0,0,1,.7-.7.56.56,0,0,1,.7.6A.63.63,0,0,1,62.1,26.9Z" transform="translate(0.01 0.03)"/><path class="cls-26" d="M59.1,28.9a1.06,1.06,0,0,1-.7-.6.84.84,0,0,1,.7-.7.56.56,0,0,1,.7.6A.63.63,0,0,1,59.1,28.9Z" transform="translate(0.01 0.03)"/><path class="cls-26" d="M51.1,26.9a1.06,1.06,0,0,1-.7-.6.84.84,0,0,1,.7-.7.56.56,0,0,1,.7.6A.63.63,0,0,1,51.1,26.9Z" transform="translate(0.01 0.03)"/><path class="cls-26" d="M47.1,25.9a1.06,1.06,0,0,1-.7-.6.84.84,0,0,1,.7-.7.56.56,0,0,1,.7.6A.63.63,0,0,1,47.1,25.9Z" transform="translate(0.01 0.03)"/><path class="cls-26" d="M54.1,23.9a1.06,1.06,0,0,1-.7-.6.84.84,0,0,1,.7-.7.56.56,0,0,1,.7.6A.63.63,0,0,1,54.1,23.9Z" transform="translate(0.01 0.03)"/><path class="cls-26" d="M60.1,22.9a1.06,1.06,0,0,1-.7-.6.84.84,0,0,1,.7-.7.56.56,0,0,1,.7.6A.63.63,0,0,1,60.1,22.9Z" transform="translate(0.01 0.03)"/><path class="cls-26" d="M81.1,19.9a1.06,1.06,0,0,1-.7-.6.84.84,0,0,1,.7-.7.56.56,0,0,1,.7.6A.63.63,0,0,1,81.1,19.9Z" transform="translate(0.01 0.03)"/><path class="cls-26" d="M83.5,16.7a.89.89,0,0,1,0-1,.87.87,0,0,1,.9-.4c.3.1.3.5,0,1S83.7,16.9,83.5,16.7Z" transform="translate(0.01 0.03)"/><path class="cls-26" d="M82.9,13.7a1.19,1.19,0,0,1-1.1.3.78.78,0,0,1,0-1.1c.3-.4.7-.6,1.1-.3S83.2,13.3,82.9,13.7Z" transform="translate(0.01 0.03)"/><path class="cls-26" d="M86.6,11.8a.92.92,0,0,0-.1,1.1c.2.2.7,0,1.1-.4s.4-.9.1-1.1A.81.81,0,0,0,86.6,11.8Z" transform="translate(0.01 0.03)"/><path class="cls-26" d="M88.6,8.7a.9.9,0,0,1-.1-1.1,1,1,0,0,1,1.1-.5c.4.1.4.6.1,1.1S88.9,8.9,88.6,8.7Z" transform="translate(0.01 0.03)"/><path class="cls-26" d="M89.7,16.7c-.3-.2-.3-.7-.1-1.1a1,1,0,0,1,1-.4c.4.1.4.6.1,1.1S89.9,16.9,89.7,16.7Z" transform="translate(0.01 0.03)"/><path class="cls-26" d="M93.6,10.2c.3.2.3.7.2,1.1a.73.73,0,0,1-1,.4c-.4-.1-.5-.6-.2-1.1S93.3,10,93.6,10.2Z" transform="translate(0.01 0.03)"/><path class="cls-26" d="M95.6,6.8a.9.9,0,0,1,.1,1,.78.78,0,0,1-1,.3c-.4-.2-.4-.6-.1-1S95.3,6.5,95.6,6.8Z" transform="translate(0.01 0.03)"/><path class="cls-26" d="M94.7,16.3c-.3-.2-.3-.7-.1-1.1a.86.86,0,0,1,1-.4c.4.1.4.6.1,1.1S94.9,16.5,94.7,16.3Z" transform="translate(0.01 0.03)"/><path class="cls-26" d="M97.7,12.2a1.07,1.07,0,0,1-.1-1.1.81.81,0,0,1,1-.3c.4.2.4.6.1,1.1S97.9,12.4,97.7,12.2Z" transform="translate(0.01 0.03)"/><path class="cls-26" d="M101.6,8.4a1.08,1.08,0,0,1,0-1.1.8.8,0,0,1,1.1-.3c.4.2.3.7,0,1.1S101.8,8.6,101.6,8.4Z" transform="translate(0.01 0.03)"/><path class="cls-26" d="M100.7,16.7a1.07,1.07,0,0,1-.1-1.1,1,1,0,0,1,1-.3c.4.2.4.6.1,1.1S100.9,16.9,100.7,16.7Z" transform="translate(0.01 0.03)"/><path class="cls-26" d="M106.3,12.8a1.07,1.07,0,0,1-1.1,0c-.2-.2-.1-.7.3-1a.78.78,0,0,1,1.1,0A.71.71,0,0,1,106.3,12.8Z" transform="translate(0.01 0.03)"/><path class="cls-26" d="M75.1,22.9a1.06,1.06,0,0,1-.7-.6.84.84,0,0,1,.7-.7.56.56,0,0,1,.7.6A.63.63,0,0,1,75.1,22.9Z" transform="translate(0.01 0.03)"/><path class="cls-26" d="M77.1,20.9a1.06,1.06,0,0,1-.7-.6.84.84,0,0,1,.7-.7.56.56,0,0,1,.7.6A.63.63,0,0,1,77.1,20.9Z" transform="translate(0.01 0.03)"/><path class="cls-26" d="M34.1,26.9a1.06,1.06,0,0,1-.7-.6.84.84,0,0,1,.7-.7.56.56,0,0,1,.7.6A.63.63,0,0,1,34.1,26.9Z" transform="translate(0.01 0.03)"/><path class="cls-26" d="M32.1,30.9a1.06,1.06,0,0,1-.7-.6.84.84,0,0,1,.7-.7.56.56,0,0,1,.7.6A.63.63,0,0,1,32.1,30.9Z" transform="translate(0.01 0.03)"/><path class="cls-26" d="M29.1,28.9a1.06,1.06,0,0,1-.7-.6.84.84,0,0,1,.7-.7.56.56,0,0,1,.7.6A.63.63,0,0,1,29.1,28.9Z" transform="translate(0.01 0.03)"/><path class="cls-26" d="M26.1,26.9a1.06,1.06,0,0,1-.7-.6.84.84,0,0,1,.7-.7.56.56,0,0,1,.7.6A.63.63,0,0,1,26.1,26.9Z" transform="translate(0.01 0.03)"/><path class="cls-26" d="M23.1,29.9a1.06,1.06,0,0,1-.7-.6.84.84,0,0,1,.7-.7.56.56,0,0,1,.7.6A.63.63,0,0,1,23.1,29.9Z" transform="translate(0.01 0.03)"/><path class="cls-26" d="M20.1,27.9a1.06,1.06,0,0,1-.7-.6.84.84,0,0,1,.7-.7.56.56,0,0,1,.7.6A.63.63,0,0,1,20.1,27.9Z" transform="translate(0.01 0.03)"/><path class="cls-26" d="M18.1,28.9a1.06,1.06,0,0,1-.7-.6.84.84,0,0,1,.7-.7.56.56,0,0,1,.7.6A.63.63,0,0,1,18.1,28.9Z" transform="translate(0.01 0.03)"/><g class="cls-27"><path class="cls-26" d="M11.6,34c-.4-.1-.8-.4-.8-.8s.3-.7.8-.8a.66.66,0,0,1,.8.8A.79.79,0,0,1,11.6,34Z" transform="translate(0.01 0.03)"/></g><g class="cls-28"><path class="cls-26" d="M15.8,34a1.18,1.18,0,0,1-.9-.9,1.06,1.06,0,0,1,.9-.9c.5-.1.9.3.9.9S16.2,34.1,15.8,34Z" transform="translate(0.01 0.03)"/></g><path class="cls-26" d="M7.1,31.9a1.06,1.06,0,0,1-.7-.6.84.84,0,0,1,.7-.7.56.56,0,0,1,.7.6A.63.63,0,0,1,7.1,31.9Z" transform="translate(0.01 0.03)"/><path class="cls-26" d="M155.1,42.9a1.06,1.06,0,0,1-.7-.6.84.84,0,0,1,.7-.7.56.56,0,0,1,.7.6A.63.63,0,0,1,155.1,42.9Z" transform="translate(0.01 0.03)"/><path class="cls-26" d="M159.1,44.9a1.06,1.06,0,0,1-.7-.6.84.84,0,0,1,.7-.7.56.56,0,0,1,.7.6A.63.63,0,0,1,159.1,44.9Z" transform="translate(0.01 0.03)"/><path class="cls-26" d="M165.1,46.9a1.06,1.06,0,0,1-.7-.6.84.84,0,0,1,.7-.7.56.56,0,0,1,.7.6A.63.63,0,0,1,165.1,46.9Z" transform="translate(0.01 0.03)"/><path class="cls-26" d="M169.1,46.9a1.06,1.06,0,0,1-.7-.6.84.84,0,0,1,.7-.7.56.56,0,0,1,.7.6A.63.63,0,0,1,169.1,46.9Z" transform="translate(0.01 0.03)"/><path class="cls-26" d="M83.1,27.9a1.06,1.06,0,0,1-.7-.6.84.84,0,0,1,.7-.7.56.56,0,0,1,.7.6A.63.63,0,0,1,83.1,27.9Z" transform="translate(0.01 0.03)"/><path class="cls-26" d="M82.1,24.9a1.06,1.06,0,0,1-.7-.6.84.84,0,0,1,.7-.7.56.56,0,0,1,.7.6A.63.63,0,0,1,82.1,24.9Z" transform="translate(0.01 0.03)"/><path class="cls-26" d="M79.1,23.9a1.06,1.06,0,0,1-.7-.6.84.84,0,0,1,.7-.7.56.56,0,0,1,.7.6A.63.63,0,0,1,79.1,23.9Z" transform="translate(0.01 0.03)"/><path class="cls-26" d="M87.1,22.9a1.06,1.06,0,0,1-.7-.6.84.84,0,0,1,.7-.7.56.56,0,0,1,.7.6A.63.63,0,0,1,87.1,22.9Z" transform="translate(0.01 0.03)"/><path class="cls-26" d="M89.1,26.9a1.06,1.06,0,0,1-.7-.6.84.84,0,0,1,.7-.7.56.56,0,0,1,.7.6A.63.63,0,0,1,89.1,26.9Z" transform="translate(0.01 0.03)"/><path class="cls-26" d="M101.1,26.9a1.06,1.06,0,0,1-.7-.6.84.84,0,0,1,.7-.7.56.56,0,0,1,.7.6A.63.63,0,0,1,101.1,26.9Z" transform="translate(0.01 0.03)"/><g class="cls-29"><path class="cls-26" d="M100.1,23.9a1.06,1.06,0,0,1-.7-.6.84.84,0,0,1,.7-.7.56.56,0,0,1,.7.6A.63.63,0,0,1,100.1,23.9Z" transform="translate(0.01 0.03)"/></g><path class="cls-26" d="M104.1,24.9a1.06,1.06,0,0,1-.7-.6.84.84,0,0,1,.7-.7.56.56,0,0,1,.7.6A.63.63,0,0,1,104.1,24.9Z" transform="translate(0.01 0.03)"/><path class="cls-26" d="M107.1,26.9a1.06,1.06,0,0,1-.7-.6.84.84,0,0,1,.7-.7.56.56,0,0,1,.7.6A.63.63,0,0,1,107.1,26.9Z" transform="translate(0.01 0.03)"/><path class="cls-26" d="M112.1,26.9a1.06,1.06,0,0,1-.7-.6.84.84,0,0,1,.7-.7.56.56,0,0,1,.7.6A.63.63,0,0,1,112.1,26.9Z" transform="translate(0.01 0.03)"/><path class="cls-26" d="M115.1,25.9a1.06,1.06,0,0,1-.7-.6.84.84,0,0,1,.7-.7.56.56,0,0,1,.7.6A.63.63,0,0,1,115.1,25.9Z" transform="translate(0.01 0.03)"/><path class="cls-26" d="M111.1,23.9a1.06,1.06,0,0,1-.7-.6.84.84,0,0,1,.7-.7.56.56,0,0,1,.7.6A.63.63,0,0,1,111.1,23.9Z" transform="translate(0.01 0.03)"/><path class="cls-26" d="M126.1,25.9a1.06,1.06,0,0,1-.7-.6.84.84,0,0,1,.7-.7.56.56,0,0,1,.7.6A.63.63,0,0,1,126.1,25.9Z" transform="translate(0.01 0.03)"/><path class="cls-26" d="M128.1,27.9a1.06,1.06,0,0,1-.7-.6.84.84,0,0,1,.7-.7.56.56,0,0,1,.7.6A.63.63,0,0,1,128.1,27.9Z" transform="translate(0.01 0.03)"/><path class="cls-26" d="M131.1,26.9a1.06,1.06,0,0,1-.7-.6.84.84,0,0,1,.7-.7.56.56,0,0,1,.7.6A.63.63,0,0,1,131.1,26.9Z" transform="translate(0.01 0.03)"/><path class="cls-26" d="M129.1,24.9a1.06,1.06,0,0,1-.7-.6.84.84,0,0,1,.7-.7.56.56,0,0,1,.7.6A.63.63,0,0,1,129.1,24.9Z" transform="translate(0.01 0.03)"/><path class="cls-26" d="M124.1,23.9a1.06,1.06,0,0,1-.7-.6.84.84,0,0,1,.7-.7.56.56,0,0,1,.7.6A.63.63,0,0,1,124.1,23.9Z" transform="translate(0.01 0.03)"/><path class="cls-26" d="M138.1,29.9a1.06,1.06,0,0,1-.7-.6.84.84,0,0,1,.7-.7.56.56,0,0,1,.7.6A.63.63,0,0,1,138.1,29.9Z" transform="translate(0.01 0.03)"/><path class="cls-26" d="M137.1,26.9a1.06,1.06,0,0,1-.7-.6.84.84,0,0,1,.7-.7.56.56,0,0,1,.7.6A.63.63,0,0,1,137.1,26.9Z" transform="translate(0.01 0.03)"/><path class="cls-26" d="M141.1,27.9a1.06,1.06,0,0,1-.7-.6.84.84,0,0,1,.7-.7.56.56,0,0,1,.7.6A.63.63,0,0,1,141.1,27.9Z" transform="translate(0.01 0.03)"/><path class="cls-26" d="M149.1,27.9a1.06,1.06,0,0,1-.7-.6.84.84,0,0,1,.7-.7.56.56,0,0,1,.7.6A.63.63,0,0,1,149.1,27.9Z" transform="translate(0.01 0.03)"/><path class="cls-26" d="M147.1,30.9a1.06,1.06,0,0,1-.7-.6.84.84,0,0,1,.7-.7.56.56,0,0,1,.7.6A.63.63,0,0,1,147.1,30.9Z" transform="translate(0.01 0.03)"/><path class="cls-26" d="M156.1,29.9a1.06,1.06,0,0,1-.7-.6.84.84,0,0,1,.7-.7.56.56,0,0,1,.7.6A.63.63,0,0,1,156.1,29.9Z" transform="translate(0.01 0.03)"/><path class="cls-26" d="M160.1,28.9a1.06,1.06,0,0,1-.7-.6.84.84,0,0,1,.7-.7.56.56,0,0,1,.7.6A.63.63,0,0,1,160.1,28.9Z" transform="translate(0.01 0.03)"/><path class="cls-26" d="M164.1,26.9a1.06,1.06,0,0,1-.7-.6.84.84,0,0,1,.7-.7.56.56,0,0,1,.7.6A.63.63,0,0,1,164.1,26.9Z" transform="translate(0.01 0.03)"/><path class="cls-26" d="M170.1,23.9a1.06,1.06,0,0,1-.7-.6.84.84,0,0,1,.7-.7.56.56,0,0,1,.7.6A.63.63,0,0,1,170.1,23.9Z" transform="translate(0.01 0.03)"/><path class="cls-26" d="M159.1,32.9a1.06,1.06,0,0,1-.7-.6.84.84,0,0,1,.7-.7.56.56,0,0,1,.7.6A.63.63,0,0,1,159.1,32.9Z" transform="translate(0.01 0.03)"/><path class="cls-26" d="M164.1,30.9a1.06,1.06,0,0,1-.7-.6.84.84,0,0,1,.7-.7.56.56,0,0,1,.7.6A.63.63,0,0,1,164.1,30.9Z" transform="translate(0.01 0.03)"/><path class="cls-26" d="M169.1,28.9a1.06,1.06,0,0,1-.7-.6.84.84,0,0,1,.7-.7.56.56,0,0,1,.7.6A.63.63,0,0,1,169.1,28.9Z" transform="translate(0.01 0.03)"/><path class="cls-26" d="M167.1,32.9a1.06,1.06,0,0,1-.7-.6.84.84,0,0,1,.7-.7.56.56,0,0,1,.7.6A.63.63,0,0,1,167.1,32.9Z" transform="translate(0.01 0.03)"/><path class="cls-26" d="M173.1,32.9a1.06,1.06,0,0,1-.7-.6.84.84,0,0,1,.7-.7.56.56,0,0,1,.7.6A.63.63,0,0,1,173.1,32.9Z" transform="translate(0.01 0.03)"/><path class="cls-26" d="M164.1,35.9a1.06,1.06,0,0,1-.7-.6.84.84,0,0,1,.7-.7.56.56,0,0,1,.7.6A.63.63,0,0,1,164.1,35.9Z" transform="translate(0.01 0.03)"/><path class="cls-26" d="M170.1,37.9a1.06,1.06,0,0,1-.7-.6.84.84,0,0,1,.7-.7.56.56,0,0,1,.7.6A.63.63,0,0,1,170.1,37.9Z" transform="translate(0.01 0.03)"/><path class="cls-26" d="M156.1,37.9a1.06,1.06,0,0,1-.7-.6.84.84,0,0,1,.7-.7.56.56,0,0,1,.7.6A.63.63,0,0,1,156.1,37.9Z" transform="translate(0.01 0.03)"/><path class="cls-26" d="M160.1,39.9a1.06,1.06,0,0,1-.7-.6.84.84,0,0,1,.7-.7.56.56,0,0,1,.7.6A.63.63,0,0,1,160.1,39.9Z" transform="translate(0.01 0.03)"/><path class="cls-26" d="M165.1,41.9a1.06,1.06,0,0,1-.7-.6.84.84,0,0,1,.7-.7.56.56,0,0,1,.7.6A.63.63,0,0,1,165.1,41.9Z" transform="translate(0.01 0.03)"/><path class="cls-26" d="M171.1,44.9a1.06,1.06,0,0,1-.7-.6.84.84,0,0,1,.7-.7.56.56,0,0,1,.7.6A.63.63,0,0,1,171.1,44.9Z" transform="translate(0.01 0.03)"/><path class="cls-26" d="M146.1,39.9a1.06,1.06,0,0,1-.7-.6.84.84,0,0,1,.7-.7.56.56,0,0,1,.7.6A.63.63,0,0,1,146.1,39.9Z" transform="translate(0.01 0.03)"/><g class="cls-30"><path class="cls-31" d="M150.7,32.4c0,1.1-37.8,5-53.9,5.2-14.7.2-53.9-5.2-53.9-5.3.1-2.1,39.6-2.9,53.9-2.7C113,29.9,150.7,32.4,150.7,32.4Z" transform="translate(0.01 0.03)"/></g><path class="cls-2" d="M122.2,33.6c.1,2.9-1.8,5.4-4.2,5.5s-4.3-2.4-4.2-5.5,1.9-5.6,4.2-5.4S122.2,30.8,122.2,33.6Z" transform="translate(0.01 0.03)"/><path class="cls-2" d="M107.4,32.9a3.92,3.92,0,0,1-3.4,4.2c-1.9.1-3.5-1.8-3.4-4.2s1.5-4.3,3.4-4.2A4.15,4.15,0,0,1,107.4,32.9Z" transform="translate(0.01 0.03)"/><path class="cls-2" d="M130.7,33.4c-1.9.1-3.6-1.1-3.7-2.7s1.5-2.8,3.6-2.8,3.7,1.2,3.7,2.7S132.6,33.3,130.7,33.4Z" transform="translate(0.01 0.03)"/><path class="cls-2" d="M95.4,33.4c0,1.9-1.2,3.5-2.8,3.6s-2.8-1.6-2.8-3.6,1.2-3.7,2.8-3.6A3.5,3.5,0,0,1,95.4,33.4Z" transform="translate(0.01 0.03)"/><path class="cls-2" d="M72,33.1c-.1-2.9,1.8-5.4,4.2-5.5s4.3,2.4,4.2,5.5-1.9,5.6-4.2,5.4S72.1,35.9,72,33.1Z" transform="translate(0.01 0.03)"/><path class="cls-2" d="M65.5,33.1c0,1.9-1.2,3.5-2.8,3.6s-2.8-1.6-2.8-3.6,1.2-3.7,2.8-3.6S65.5,31.2,65.5,33.1Z" transform="translate(0.01 0.03)"/><path class="cls-2" d="M145.5,32a2.67,2.67,0,0,1-2.8,2.4,2.48,2.48,0,0,1-2.8-2.4,2.6,2.6,0,0,1,2.8-2.4A2.91,2.91,0,0,1,145.5,32Z" transform="translate(0.01 0.03)"/><path class="cls-2" d="M154.4,32.6a2.67,2.67,0,0,1-2.8,2.4,2.48,2.48,0,0,1-2.8-2.4,2.6,2.6,0,0,1,2.8-2.4A2.82,2.82,0,0,1,154.4,32.6Z" transform="translate(0.01 0.03)"/><path class="cls-2" d="M48.2,30.7a2.58,2.58,0,0,1-3,1.8c-1.2-.4-1.6-1.9-1-3.3s1.9-2.3,2.9-1.8A2.51,2.51,0,0,1,48.2,30.7Z" transform="translate(0.01 0.03)"/><path class="cls-2" d="M49.2,34.8a1.62,1.62,0,0,1-.8,2.1c-.7.3-1.5-.3-1.8-1.2a1.4,1.4,0,1,1,2.6-.9Z" transform="translate(0.01 0.03)"/><g class="cls-15"><path class="cls-2" d="M54.2,40.4a1.49,1.49,0,0,1-.8-2c.3-.7,1.3-.8,2.2-.3s1.2,1.4.8,2A1.76,1.76,0,0,1,54.2,40.4Z" transform="translate(0.01 0.03)"/></g><g class="cls-15"><path class="cls-2" d="M42.5,39.4a1.63,1.63,0,0,1,1.1-1.9c.8-.2,1.5.5,1.6,1.5a1.6,1.6,0,0,1-1.1,1.9C43.4,41,42.7,40.3,42.5,39.4Z" transform="translate(0.01 0.03)"/></g><path class="cls-32" d="M.5,39.5a4.94,4.94,0,0,1,1.9,0c1.3.1,1.6.2,1.7.5a.91.91,0,0,1,0,1,1.22,1.22,0,0,1-.9.4C1.8,41.5.2,39.9.5,39.5Z" transform="translate(0.01 0.03)"/><path class="cls-33" d="M24.8,33.4c-.2,0,.2,1.5,0,4s-.2,3.7-1.3,4.9c-.5.6-1.3,1.2-1.2,1.4s.7,0,1-.1c2-.7,2.5-4,2.4-6.4A9,9,0,0,0,24.8,33.4Z" transform="translate(0.01 0.03)"/><g class="cls-15"><path class="cls-2" d="M90.8,40.8c-.6-.2-.7-.9-.3-1.5a1.48,1.48,0,0,1,1.8-.6.82.82,0,0,1,.3,1.4A1.79,1.79,0,0,1,90.8,40.8Z" transform="translate(0.01 0.03)"/></g><g class="cls-15"><path class="cls-2" d="M95.2,41.3a.43.43,0,0,1-.2-.7.81.81,0,0,1,.9-.3.43.43,0,0,1,.2.7A.81.81,0,0,1,95.2,41.3Z" transform="translate(0.01 0.03)"/></g><g class="cls-15"><path class="cls-2" d="M79.2,44.3a.43.43,0,0,1-.2-.7.81.81,0,0,1,.9-.3.43.43,0,0,1,.2.7A.81.81,0,0,1,79.2,44.3Z" transform="translate(0.01 0.03)"/></g><g class="cls-15"><path class="cls-2" d="M69.4,43.4a.44.44,0,0,1-.4-.6.86.86,0,0,1,.7-.6.44.44,0,0,1,.4.6A.86.86,0,0,1,69.4,43.4Z" transform="translate(0.01 0.03)"/></g><g class="cls-15"><path class="cls-2" d="M103,41.1a.44.44,0,0,1,.2-.7.65.65,0,0,1,.9.2.43.43,0,0,1-.2.7A1,1,0,0,1,103,41.1Z" transform="translate(0.01 0.03)"/></g><g class="cls-15"><path class="cls-2" d="M.9,36.6a.44.44,0,0,1,.2-.7A.74.74,0,0,1,2,36a.44.44,0,0,1-.2.7A.74.74,0,0,1,.9,36.6Z" transform="translate(0.01 0.03)"/></g><g class="cls-15"><path class="cls-2" d="M2.9,37.4a.44.44,0,0,1,.2-.7.65.65,0,0,1,.9.2.43.43,0,0,1-.2.7A1,1,0,0,1,2.9,37.4Z" transform="translate(0.01 0.03)"/></g><g class="cls-15"><path class="cls-2" d="M4.8,38.4a.44.44,0,0,1,.2-.7.65.65,0,0,1,.9.2.43.43,0,0,1-.2.7A1,1,0,0,1,4.8,38.4Z" transform="translate(0.01 0.03)"/></g><g class="cls-15"><path class="cls-2" d="M116.5,41.4c-.3.1-.5-.2-.5-.5a.67.67,0,0,1,.6-.7c.3,0,.6.2.5.5S116.8,41.4,116.5,41.4Z" transform="translate(0.01 0.03)"/></g><g class="cls-15"><path class="cls-2" d="M120.5,43.4c-.3,0-.5-.2-.5-.6a.68.68,0,0,1,.7-.7.47.47,0,0,1,.5.6A.84.84,0,0,1,120.5,43.4Z" transform="translate(0.01 0.03)"/></g><g class="cls-15"><path class="cls-2" d="M139.2,37.3a.43.43,0,0,1-.2-.7.81.81,0,0,1,.9-.3.43.43,0,0,1,.2.7A.81.81,0,0,1,139.2,37.3Z" transform="translate(0.01 0.03)"/></g><g class="cls-15"><path class="cls-2" d="M130,39.6a.88.88,0,0,1-.4-1.3,1.08,1.08,0,0,1,1.5-.3.92.92,0,0,1,.4,1.3A1.21,1.21,0,0,1,130,39.6Z" transform="translate(0.01 0.03)"/></g><path class="cls-2" d="M54.2,31.1c.6,1.9.1,3.8-1.2,4.4s-2.9-.8-3.5-2.9-.1-4,1.3-4.3S53.6,29.2,54.2,31.1Z" transform="translate(0.01 0.03)"/><path class="cls-34" d="M150,32.5S114.2,34.9,96.3,35s-53.6-2.6-53.6-2.6,35.8,1.2,53.7,1.3S150,32.5,150,32.5Z" transform="translate(0.01 0.03)"/><path class="cls-35" d="M39,38.8c.2,5.1-9.3,7.5-10.7,7.8h-.1c-7.8,1.8-16.6-1.5-16.5-2.9.2-1.9,15.8,0,17-4.6.7-2.6-3.1-6.5-1.9-8.4.1-.1.1-.2.3-.2C29.2,29.6,38.9,33.6,39,38.8Z" transform="translate(0.01 0.03)"/><path class="cls-18" d="M38.5,38.8c.2,5.1-8.7,8.7-10.8,7.8-1.3-.6.7-2.7.6-7.5-.2-5.5-2.9-8-1.6-8.6C28.6,29.6,38.3,33.6,38.5,38.8Z" transform="translate(0.01 0.03)"/><g class="cls-30"><path class="cls-36" d="M34.7,42.5c-1.6.2-6-5.2-6-5.3,0-2.1,4.4-2.9,6-2.7C36.6,34.8,36.6,42.3,34.7,42.5Z" transform="translate(0.01 0.03)"/></g><path class="cls-18" d="M19.6,36.5c-1,1.3-3.1,1.1-3.4.5-.5-.9,2.4-3.9,3.4-3.4C20.2,33.9,20.4,35.5,19.6,36.5Z" transform="translate(0.01 0.03)"/><path class="cls-2" d="M34.2,36.8a1.62,1.62,0,0,1-.8,2.1c-.7.3-1.5-.3-1.8-1.2a1.4,1.4,0,1,1,2.6-.9Z" transform="translate(0.01 0.03)"/><path class="cls-37" d="M15.8,21.5" transform="translate(0.01 0.03)"/><g id="Bottom_Fin-3" data-name="Bottom Fin"><path class="cls-3" d="M97.3,64c1.6,2.4,4.8,2.5,7,.2l.1-.1.1-.1c0-.1-1.7.2-3.3.2-2.3-.1-3.9-1-4.1-.6C97.2,63.6,97.2,63.7,97.3,64Z" transform="translate(0.01 0.03)"/></g><g id="Bottom_Back_Fin-5" data-name="Bottom Back Fin"><path class="cls-3" d="M138.7,57.7c-4,1.3-9.2-3.3-9.1-3.5a6.07,6.07,0,0,0,1.1.5c5,1.9,10,0,10.3.9C141.2,56.1,140.1,57.2,138.7,57.7Z" transform="translate(0.01 0.03)"/></g></svg>