<svg class="trout" id="Layer_1" data-name="Layer 1" xmlns="http://www.w3.org/2000/svg" xmlns:xlink="http://www.w3.org/1999/xlink" viewBox="0 0 184.44 66.09"><defs><style>.cls-1{fill:url(#radial-gradient);}.cls-2{fill:#4a5853;}.cls-25,.cls-3{fill:#fff;}.cls-4{fill:url(#linear-gradient);}.cls-5{fill:url(#linear-gradient-2);}.cls-6{fill:#b5963e;}.cls-7{fill:#e0dfc2;}.cls-24,.cls-7{fill-opacity:0.61;}.cls-8{fill:none;}.cls-24,.cls-25,.cls-26,.cls-8{stroke:#000;stroke-miterlimit:10;}.cls-24,.cls-26,.cls-8{stroke-width:0.25px;}.cls-9{fill:url(#linear-gradient-3);}.cls-10{fill:url(#linear-gradient-4);}.cls-11{fill:url(#linear-gradient-5);}.cls-12{fill:url(#linear-gradient-6);}.cls-13{fill:url(#linear-gradient-7);}.cls-14{fill:url(#radial-gradient-2);}.cls-15{opacity:0.66;}.cls-16{opacity:0.6;}.cls-17{fill:#e0d38e;}.cls-18{fill:#ea8d2f;}.cls-19{fill:url(#linear-gradient-8);}.cls-20{fill:url(#linear-gradient-9);}.cls-21{fill:url(#linear-gradient-10);}.cls-22{fill:url(#linear-gradient-11);}.cls-23{opacity:0.58;}.cls-24{fill:#be9a44;}.cls-25{stroke-width:0.1px;}.cls-27{opacity:0.7;}.cls-28{opacity:0.73;}.cls-29{opacity:0.83;}.cls-30{opacity:0.68;}.cls-31{fill:url(#linear-gradient-12);}.cls-32{fill:url(#linear-gradient-13);}.cls-33{fill:url(#linear-gradient-14);}.cls-34{fill:#c25530;}.cls-35{fill:url(#linear-gradient-15);}.cls-36{fill:url(#linear-gradient-16);}.cls-37{fill:url(#linear-gradient-17);}</style><radialGradient id="radial-gradient" cx="1247.04" cy="1041.45" r="15.04" gradientTransform="translate(-41.69 -45.47) scale(0.29 0.32)" gradientUnits="userSpaceOnUse"><stop offset="0" stop-color="#e2c45b"/><stop offset="0.06" stop-color="#e2c45b"/><stop offset="1" stop-color="#fff" stop-opacity="0"/></radialGradient><linearGradient id="linear-gradient" x1="450.86" y1="524.93" x2="448.13" y2="542.12" gradientTransform="translate(0.01 -231.97)" gradientUnits="userSpaceOnUse"><stop offset="0" stop-color="#ecda00"/><stop offset="0.58" stop-color="#ea8c2d"/></linearGradient><linearGradient id="linear-gradient-2" x1="410.16" y1="505.3" x2="413.34" y2="487.24" gradientTransform="translate(0.01 -231.97)" gradientUnits="userSpaceOnUse"><stop offset="0" stop-color="#ecda00"/><stop offset="0.58" stop-color="#c08438"/></linearGradient><linearGradient id="linear-gradient-3" x1="407.79" y1="498.59" x2="407.79" y2="521.53" gradientTransform="translate(0.01 -231.97)" gradientUnits="userSpaceOnUse"><stop offset="0" stop-color="#6e8068"/><stop offset="0.13" stop-color="#6e8068"/><stop offset="1" stop-color="#fff" stop-opacity="0"/></linearGradient><linearGradient id="linear-gradient-4" x1="415.39" y1="535.51" x2="413.07" y2="550.21" xlink:href="#linear-gradient"/><linearGradient id="linear-gradient-5" x1="398.96" y1="503.21" x2="398.96" y2="513.15" gradientTransform="translate(0.01 -231.97)" gradientUnits="userSpaceOnUse"><stop offset="0" stop-color="#b5963e"/><stop offset="1" stop-color="#fff" stop-opacity="0"/></linearGradient><linearGradient id="linear-gradient-6" x1="397.95" y1="503.81" x2="397.95" y2="530.23" gradientTransform="translate(0.01 -231.97)" gradientUnits="userSpaceOnUse"><stop offset="0" stop-color="#cb9831"/><stop offset="1" stop-color="#fff" stop-opacity="0"/></linearGradient><linearGradient id="linear-gradient-7" x1="406.41" y1="534.09" x2="406.41" y2="508.84" gradientTransform="translate(0.01 -231.97)" gradientUnits="userSpaceOnUse"><stop offset="0" stop-color="#fff" stop-opacity="0"/><stop offset="0.4" stop-color="#e2c45b"/><stop offset="0.58" stop-color="#e2c45b"/><stop offset="1" stop-color="#fff" stop-opacity="0"/></linearGradient><radialGradient id="radial-gradient-2" cx="336.26" cy="518.94" r="15.01" gradientTransform="translate(0.01 -231.97)" gradientUnits="userSpaceOnUse"><stop offset="0" stop-color="#e2c45b"/><stop offset="0.36" stop-color="#e2c45b"/><stop offset="1" stop-color="#fff" stop-opacity="0"/></radialGradient><linearGradient id="linear-gradient-8" x1="324.46" y1="529.31" x2="324.46" y2="521.05" xlink:href="#linear-gradient-7"/><linearGradient id="linear-gradient-9" x1="829.19" y1="462.77" x2="829.19" y2="454.51" gradientTransform="matrix(0.31, 0.5, 0.46, -0.77, -147.51, 231.64)" xlink:href="#linear-gradient-7"/><linearGradient id="linear-gradient-10" x1="480.61" y1="499.44" x2="480.61" y2="535.26" gradientTransform="translate(0.01 -231.97)" gradientUnits="userSpaceOnUse"><stop offset="0" stop-color="#e2c45b"/><stop offset="0.4" stop-color="#e0d38e" stop-opacity="0.5"/><stop offset="0.62" stop-color="#e0d38e" stop-opacity="0.5"/><stop offset="1" stop-color="#e2c45b"/></linearGradient><linearGradient id="linear-gradient-11" x1="355.01" y1="504.79" x2="356.91" y2="513.37" gradientTransform="translate(0.01 -231.97)" gradientUnits="userSpaceOnUse"><stop offset="0" stop-color="#6e8068"/><stop offset="0.18" stop-color="#6e8068"/><stop offset="0.48" stop-color="#6e8068" stop-opacity="0.5"/><stop offset="0.81" stop-color="#d9dbd4" stop-opacity="0.19"/><stop offset="1" stop-color="#fff" stop-opacity="0"/></linearGradient><linearGradient id="linear-gradient-12" x1="412.66" y1="522.58" x2="412.66" y2="514.56" gradientTransform="translate(0.01 -231.97)" gradientUnits="userSpaceOnUse"><stop offset="0" stop-color="#c25530" stop-opacity="0.6"/><stop offset="0.5" stop-color="#c25530"/><stop offset="1" stop-color="#c25530" stop-opacity="0.6"/></linearGradient><linearGradient id="linear-gradient-13" x1="316.3" y1="525.31" x2="320.11" y2="525.31" gradientTransform="translate(0.01 -231.97)" gradientUnits="userSpaceOnUse"><stop offset="0" stop-color="#4a5854"/><stop offset="0.13" stop-color="#4a5854"/><stop offset="1" stop-color="#4a5854" stop-opacity="0.2"/></linearGradient><linearGradient id="linear-gradient-14" x1="-29.3" y1="666.26" x2="-25.4" y2="666.26" gradientTransform="matrix(-0.76, 2.52, 0.86, 0.66, -253.12, -79.82)" xlink:href="#linear-gradient-13"/><linearGradient id="linear-gradient-15" x1="344.6" y1="515.22" x2="339.19" y2="533.22" xlink:href="#linear-gradient-13"/><linearGradient id="linear-gradient-16" x1="348.27" y1="527.46" x2="348.27" y2="519.45" xlink:href="#linear-gradient-12"/><linearGradient id="linear-gradient-17" x1="331.66" y1="506.41" x2="331.66" y2="506.41" xlink:href="#linear-gradient-11"/></defs><title>trout</title><path class="cls-1" d="M327.37,286.44c0-1.1-1.6-1.9-2.4-2.2a4,4,0,0,0-2.4-.2,7.23,7.23,0,0,0-1.9.4,8.74,8.74,0,0,0-3.2,1.4l-.4.4a1.68,1.68,0,0,0-.3.4,2.6,2.6,0,0,0-.4,1.7c.1,1.2,3,2.4,5.6,1.9a9.87,9.87,0,0,0,4-2C326.87,287.34,327.37,286.94,327.37,286.44Z" transform="translate(-315.86 -252.91)"/><g id="Bottom_Back_Fin" data-name="Bottom Back Fin"><path class="cls-2" d="M412,253.14c3.7,1.2,5.3,6.6,5,6.8a21.13,21.13,0,0,0-1.9-2.2c-4.4-3.3-12,1.2-12.5.3S407.57,251.74,412,253.14Z" transform="translate(-315.86 -252.91)"/></g><g id="Bottom_Back_Fin-2" data-name="Bottom Back Fin-2"><path class="cls-3" d="M412.47,253.34c2.5.6,5,3,4.7,3.6-.1.3-.9.2-1.2.2-5.3-.5-13.3,3-13.8,1.7C401.57,257.74,407.37,252,412.47,253.34Z" transform="translate(-315.86 -252.91)"/></g><path class="cls-2" d="M467.27,286.44c-1.3,5.8,8.3,13.5,16.9,16.2,2,.6,10.3,3.2,13.6-.6,2-2.3,1.5-6,1.4-7-.5-4.6-3.3-5.1-3.3-8.8,0-3.2,2.2-3.5,3.3-8.1.3-1.1,1.6-7.3-1.1-9.3s-7.8.8-12.5,3.4a66.29,66.29,0,0,0-8.2,5.6C470.87,282.54,467.67,284.94,467.27,286.44Z" transform="translate(-315.86 -252.91)"/><g id="Top_Back_Fin" data-name="Top Back Fin"><path class="cls-2" d="M453.37,277a48.91,48.91,0,0,0,5.3,2c1.3.4,2.2-.8,2-2.7v-.2c-.2-1.8-1.3-3.1-2.4-3a25.85,25.85,0,0,1-4.8.4c-1.2,0-2.2.5-2.3,1.1v.1C451.17,275.44,452.17,276.54,453.37,277Z" transform="translate(-315.86 -252.91)"/></g><g id="Top_Fin" data-name="Top Fin"><path class="cls-2" d="M424.17,262.14a59.47,59.47,0,0,0-11.8-7.9c-2.8-1.5-8.3,1.3-12.1,6-.5.7-.8,1-1.3,1.6-3.8,4.7-3.8,8.4-.1,8.4a109.69,109.69,0,0,1,16.5.8c3.4.4,7.5-.4,9.2-2a2.62,2.62,0,0,1,.6-.5C426.77,266.94,426.37,264,424.17,262.14Z" transform="translate(-315.86 -252.91)"/></g><g id="Bottom_Back_Fin-3" data-name="Bottom Back Fin-3"><path class="cls-2" d="M457.47,301.14c-1,3.8,1.3,8-3.3,9.8-2.3.9-6.2-.8-9.1-3.5l-1.5-1.5c-2.8-2.7-4.2-5.3-3.2-6.4,1.2-1.4,4.1-2.5,4.7-2.8,1.3-.6,5.2-2.4,7.8-2.4a44.31,44.31,0,0,1,6.3.3C460.27,295,458,299.24,457.47,301.14Z" transform="translate(-315.86 -252.91)"/></g><g id="Bottom_Back_Fin-4" data-name="Bottom Back Fin-4"><path class="cls-4" d="M457.87,300.84c-1,3.8,1.3,8-3.3,9.8-2.3.9-6.2-.8-9.1-3.5l-1.5-1.5c-2.8-2.7-4.2-5.3-3.2-6.4,1.2-1.4,4.1-2.5,4.7-2.8,1.3-.6,5.2-2.4,7.8-2.4a44.31,44.31,0,0,1,6.3.3C460.67,294.64,458.27,298.94,457.87,300.84Z" transform="translate(-315.86 -252.91)"/></g><g id="Top_Fin-2" data-name="Top Fin-2"><path class="cls-5" d="M424.17,263.14a59.47,59.47,0,0,0-11.8-7.9c-2.8-1.5-8.3,1.3-12.1,6-.5.7-.8,1-1.3,1.6-3.8,4.7-3.8,8.4-.1,8.4a109.69,109.69,0,0,1,16.5.8c3.4.4,7.5-.4,9.2-2a2.62,2.62,0,0,1,.6-.5C426.77,267.94,426.37,265,424.17,263.14Z" transform="translate(-315.86 -252.91)"/></g><g id="Top_Back_Fin-2" data-name="Top Back Fin-2"><path class="cls-6" d="M453.37,277.44a48.91,48.91,0,0,0,5.3,2c1.3.4,2.2-.8,2-2.7v-.2c-.2-1.8-1.3-3.1-2.4-3a25.85,25.85,0,0,1-4.8.4c-1.2,0-2.2.5-2.3,1.1v.1C451.17,275.84,452.17,276.84,453.37,277.44Z" transform="translate(-315.86 -252.91)"/></g><path id="Body" class="cls-7" d="M497.77,268c-3-4.3-19.9,8.3-22,9.2a55.54,55.54,0,0,0-5.8,2.7,18.75,18.75,0,0,1-3-.2c-1.6-.3-3.6-.7-5.3-1-2.7-.5-7.8-2.9-10.5-3.3s-5.3-.3-8.1-.7c-15.5-2.2-30.6-3.6-38.3-3.7-8.6-.2-38.8.6-61.6,4.7-15.6,2.6-27.7,6.9-27.2,13.4.1,1.1,6.1,3,7.2,3.7.5.3-3.3-.4-6.8-.7-1.1-.1.7,1.5.9,1.6,4.9,2.6,17.2,6.4,25.9,7.7a338.7,338.7,0,0,0,35,2.8c11.7.4,21.8-1,26.7-1.2,2.5-.1,8.7-.7,13.8-.8a130.35,130.35,0,0,0,19.2-2c5.1-.9,6.5-3.3,10-4.7.1,0,2-.6,3.8-.9,6.9-1.2,13.8.4,16.9,1.3,13.7,3.8,17.8,9.4,25.1,7.3a7,7,0,0,0,3.8-2.2c3.1-3.5,1.7-9.9-.8-14.6C495.67,284.64,503.37,276,497.77,268Z" transform="translate(-315.86 -252.91)"/><path id="Jawline" class="cls-8" d="M343.47,275.74c2.5.7,15.9,9.1,16.3,11.5.8,4.4-5.9,10.3-16.3,14.4" transform="translate(-315.86 -252.91)"/><path id="Body-2" class="cls-9" d="M497.67,267.54c-3-4.3-19.9,8.3-22,9.2a55.54,55.54,0,0,0-5.8,2.7,18.75,18.75,0,0,1-3-.2c-1.6-.3-3.6-.7-5.3-1-2.7-.5-7.8-2.9-10.5-3.3s-5.3-.3-8.1-.7c-15.5-2.2-30.6-3.6-38.3-3.7-8.6-.2-38.8.6-61.6,4.7-15.5,2.6-27.6,6.9-27.2,13.4.1,1.1,183.2,2.2,180.8-2.6C495.67,284.14,503.27,275.54,497.67,267.54Z" transform="translate(-315.86 -252.91)"/><path class="cls-2" d="M332.57,297.24c.2-.1.3-.1.4-.2.5-.9-3.5-4.1-7.2-5.9-4.4-2.2-9-2.7-9.2-2.2s2.7,1.9,8.1,4.5c.8.4,1,.5,1.7.8,1.1.5,1.9.9,2.5,1.2C331.07,296.54,331.77,297.54,332.57,297.24Z" transform="translate(-315.86 -252.91)"/><g id="Bottom_Fin" data-name="Bottom Fin"><path class="cls-2" d="M407.27,307.14c.5,1.8,1.2,2.4,2.7,5,.9,1.5,1.8,3,3.1,5,1.6,2.4,4.8,2.5,7,.2l.2-.2c2.3-2.2,2.3-5.2.2-6.7-1.7-1.2-3-2.2-4.2-3.2-1.8-1.4-2.2-2.1-3.1-2.8-.1-.1-.5-.3-1-.6a5.12,5.12,0,0,0-2.2-.9,4.3,4.3,0,0,0-1.6.1c-.6.1-.9.1-1,.2C406.57,303.64,406.87,305.64,407.27,307.14Z" transform="translate(-315.86 -252.91)"/></g><g id="Bottom_Fin-2" data-name="Bottom Fin-2"><path class="cls-10" d="M407.37,306.94c.5,1.8,1.2,2.4,2.7,5,.9,1.5,1.8,3,3.1,5,1.6,2.4,4.8,2.5,7,.2l.2-.2c2.3-2.2,2.3-5.2.2-6.7-1.7-1.2-3-2.2-4.2-3.2-1.8-1.4-2.2-2.1-3.1-2.8-.1-.1-.5-.3-1-.6a5.12,5.12,0,0,0-2.2-.9,4.3,4.3,0,0,0-1.6.1c-.6.1-.9.1-1,.2C406.77,303.44,407,305.44,407.37,306.94Z" transform="translate(-315.86 -252.91)"/></g><path class="cls-11" d="M465.77,281.14c.2-1-30.4-9.8-66.9-9.9a323.35,323.35,0,0,0-33.8,2c-16.2,1.7-33,5.1-32.9,5.9.1,1,28.9-5,67.5-4.5C439.57,275,465.57,282,465.77,281.14Z" transform="translate(-315.86 -252.91)"/><path class="cls-12" d="M464.77,285.74c0-6.8-37.8-13.9-66.9-13.9a222.3,222.3,0,0,0-33.8,2.8c-19,2.8-32.8,4.8-32.9,8.3-.2,5.5,33.4,14.7,67.7,15.3C429.47,298.74,464.77,292.24,464.77,285.74Z" transform="translate(-315.86 -252.91)"/><path class="cls-13" d="M464.77,288.84c.1-5-32.9-9.5-55.2-11.1-37.7-2.7-61.4,1.8-61.5,4.7,0,1.3,4.9,2,6.3,6.4.9,2.8-.5,4.4-.2,6,1.2,6.7,29.7,8.3,56,6.6a214.84,214.84,0,0,0,39.8-6.8C459.77,292,464.77,290.74,464.77,288.84Z" transform="translate(-315.86 -252.91)"/><path class="cls-14" d="M355.07,284.94c0-3.4-5.6-6.1-8.4-7a19,19,0,0,0-8.1-.8c-2.6.3-4.8.8-6.4,1.1,0,0-7.5,1.7-10.8,4.3a13.22,13.22,0,0,0-1.4,1.4,6.62,6.62,0,0,0-1,1.3,9.91,9.91,0,0,0-1.5,5.3c.5,3.8,10.3,7.5,19,6.1.7-.1,6.3-1.1,13.5-6.2C353.37,287.94,355,286.64,355.07,284.94Z" transform="translate(-315.86 -252.91)"/><g class="cls-15"><path class="cls-2" d="M374.07,296.34a.87.87,0,0,0-1-.5.78.78,0,0,0-.31,1.08v0a.73.73,0,0,0,.94.42l.06,0A.78.78,0,0,0,374.07,296.34Z" transform="translate(-315.86 -252.91)"/></g><g class="cls-16"><path class="cls-17" d="M439.67,297.64c0-.4-6.5.4-10.8,1-7.3,1.1-10.5,3.3-10.4,3.4.3.5,5.9-.4,10.9-1.4.4-.1,3.6-.8,7.6-2C438.77,298.14,439.67,297.84,439.67,297.64Z" transform="translate(-315.86 -252.91)"/></g><g class="cls-16"><path class="cls-17" d="M406.27,301.74c0-.5-2.7-.8-4.6-.8-3.1,0-4.4,2.1-4.3,2.2.2.7,2.5.7,4.6.3a15,15,0,0,0,3.2-1C406,302.14,406.37,301.94,406.27,301.74Z" transform="translate(-315.86 -252.91)"/></g><path class="cls-18" d="M332.27,297.34c.2-.1.3-.1.4-.2.5-.9-3.5-4.1-7.2-5.9-4.4-2.2-9-2.7-9.2-2.2s2.7,1.9,8.1,4.5c.8.4,1,.5,1.7.8,1.1.5,1.9.9,2.5,1.2C330.77,296.74,331.47,297.74,332.27,297.34Z" transform="translate(-315.86 -252.91)"/><path class="cls-18" d="M324.67,294.34c-.1.3-2.5,1.4-4.9.9s-4-2.4-3.8-2.9,3.2.3,4.5.8c.5.2.8.3,1.4.5C323.77,294.14,324.77,294,324.67,294.34Z" transform="translate(-315.86 -252.91)"/><path class="cls-19" d="M332.67,297.34c.2-.3-2.7-3.7-7.2-5.9s-9-2.7-9.2-2.2,5.6,3.2,8.1,4.3c1,.35,1.95.75,2.9,1.2C331.07,296.44,332.47,297.54,332.67,297.34Z" transform="translate(-315.86 -252.91)"/><path class="cls-20" d="M324.77,294.34c-.1.3-2.5,1.4-4.9.9s-4-2.4-3.9-2.9,3.2.3,4.5.8a14.65,14.65,0,0,0,1.5.5C323.87,294.14,324.77,294.14,324.77,294.34Z" transform="translate(-315.86 -252.91)"/><path class="cls-21" d="M461,285.84a4,4,0,0,0,.3,2.1c1.1,3.6,4.3,5.3,14.5,10.2,6.9,3.3,7.5,3.5,8.4,3.8,3.2.9,10.5,3,13.6-.6,2-2.3,1.5-6,1.4-7-.6-4.7-3.4-5.3-3.3-8.8s3.1-3.9,4.1-8.5c.6-2.7.6-7.2-1.9-8.9-2.8-1.9-7.4.6-12.5,3.4-4.4,2.3-4.2,3.1-8.2,5.6C472.37,280,461.87,281.54,461,285.84Z" transform="translate(-315.86 -252.91)"/><path class="cls-22" d="M396.27,272.14c-.3-2.3-37.7,1.2-49.5,2.8-2.7.4-5.6,1-11.4,2.2-6.9,1.5-10.2,2.4-13.6,4.7-1.1.7-5.6,3.7-5,5.1.8,2.2,13.5-.8,24.2-3.2C381.17,274.74,396.37,273.64,396.27,272.14Z" transform="translate(-315.86 -252.91)"/><g id="Forearm"><path class="cls-2" d="M353.17,296.64a41.48,41.48,0,0,1,15.5-.8c5,.5,5.4,1.1,5.4,1.3.4,1.5-3.8,4.4-8.1,5.4a16.27,16.27,0,0,1-6.1.2c-5.1-.6-10.7-2.9-10.5-4.5C349.57,298,349.67,297.54,353.17,296.64Z" transform="translate(-315.86 -252.91)"/></g><g class="cls-23"><path class="cls-2" d="M325.37,285.84c-.1-2,1.8-3.7,4.2-3.8a3.77,3.77,0,0,1,4.17,3.35,3.4,3.4,0,0,1,0,.45,3.89,3.89,0,0,1-4,3.71h-.15A4.24,4.24,0,0,1,325.37,285.84Z" transform="translate(-315.86 -252.91)"/></g><g id="Forearm-2"><path class="cls-18" d="M353.17,297a41.48,41.48,0,0,1,15.5-.8c5,.5,5.4,1.1,5.4,1.3.4,1.5-3.8,4.4-8.1,5.4a16.27,16.27,0,0,1-6.1.2c-5.1-.6-10.7-2.9-10.5-4.5C349.57,298.44,349.77,297.94,353.17,297Z" transform="translate(-315.86 -252.91)"/></g><circle id="Eye" class="cls-24" cx="13.71" cy="32.83" r="3.2"/><g id="Iris"><path d="M330.57,285.94a1.1,1.1,0,1,1-2.2,0,1,1,0,0,1,.88-1.1h.22A1.11,1.11,0,0,1,330.57,285.94Z" transform="translate(-315.86 -252.91)"/></g><circle id="Pupil" class="cls-25" cx="14.21" cy="32.53" r="0.3"/><path class="cls-26" d="M354.27,281.74a1.06,1.06,0,0,1-.7-.6.82.82,0,0,1,.7-.7.56.56,0,0,1,.68.39.75.75,0,0,1,0,.21C354.87,281.54,354.57,281.84,354.27,281.74Z" transform="translate(-315.86 -252.91)"/><path class="cls-26" d="M381.37,281.74a1.06,1.06,0,0,1-.7-.6.82.82,0,0,1,.7-.7.56.56,0,0,1,.68.39.75.75,0,0,1,0,.21C382,281.54,381.77,281.84,381.37,281.74Z" transform="translate(-315.86 -252.91)"/><path class="cls-26" d="M386,279.84a1.06,1.06,0,0,1-.7-.6.82.82,0,0,1,.7-.7.56.56,0,0,1,.68.39.75.75,0,0,1,0,.21.64.64,0,0,1-.56.7Z" transform="translate(-315.86 -252.91)"/><path class="cls-26" d="M378,279.84a1.06,1.06,0,0,1-.7-.6.82.82,0,0,1,.7-.7.56.56,0,0,1,.68.39.75.75,0,0,1,0,.21.64.64,0,0,1-.56.7Z" transform="translate(-315.86 -252.91)"/><path class="cls-26" d="M375,281.84a1.06,1.06,0,0,1-.7-.6.82.82,0,0,1,.7-.7.56.56,0,0,1,.68.39.75.75,0,0,1,0,.21.64.64,0,0,1-.56.7Z" transform="translate(-315.86 -252.91)"/><path class="cls-26" d="M367,279.84a1.06,1.06,0,0,1-.7-.6.82.82,0,0,1,.7-.7.56.56,0,0,1,.68.39.75.75,0,0,1,0,.21.64.64,0,0,1-.56.7Z" transform="translate(-315.86 -252.91)"/><path class="cls-26" d="M363,278.84a1.06,1.06,0,0,1-.7-.6.82.82,0,0,1,.7-.7.56.56,0,0,1,.68.39.75.75,0,0,1,0,.21.64.64,0,0,1-.56.7Z" transform="translate(-315.86 -252.91)"/><path class="cls-26" d="M370,276.84a1.06,1.06,0,0,1-.7-.6.82.82,0,0,1,.7-.7.56.56,0,0,1,.68.39.75.75,0,0,1,0,.21.64.64,0,0,1-.56.7Z" transform="translate(-315.86 -252.91)"/><path class="cls-26" d="M376,275.84a1.06,1.06,0,0,1-.7-.6.82.82,0,0,1,.7-.7.56.56,0,0,1,.68.39.75.75,0,0,1,0,.21.64.64,0,0,1-.56.7Z" transform="translate(-315.86 -252.91)"/><path class="cls-26" d="M397,272.84a1.06,1.06,0,0,1-.7-.6.82.82,0,0,1,.7-.7.56.56,0,0,1,.68.39.75.75,0,0,1,0,.21.64.64,0,0,1-.56.7Z" transform="translate(-315.86 -252.91)"/><path class="cls-26" d="M399.37,269.64a.87.87,0,0,1,0-1,.85.85,0,0,1,.9-.4c.3.1.3.5,0,1S399.57,269.84,399.37,269.64Z" transform="translate(-315.86 -252.91)"/><path class="cls-26" d="M398.77,266.64a1.21,1.21,0,0,1-1.1.3.77.77,0,0,1,0-1.1c.3-.4.7-.6,1.1-.3S399.07,266.24,398.77,266.64Z" transform="translate(-315.86 -252.91)"/><path class="cls-26" d="M402.47,264.74a.9.9,0,0,0-.1,1.1c.2.2.7,0,1.1-.4s.4-.9.1-1.1a.81.81,0,0,0-1.09.36Z" transform="translate(-315.86 -252.91)"/><path class="cls-26" d="M404.47,261.64a.88.88,0,0,1-.1-1.1,1,1,0,0,1,1.1-.5c.4.1.4.6.1,1.1S404.77,261.84,404.47,261.64Z" transform="translate(-315.86 -252.91)"/><path class="cls-26" d="M405.57,269.64c-.3-.2-.3-.7-.1-1.1a1,1,0,0,1,1-.4c.4.1.4.6.1,1.1S405.77,269.84,405.57,269.64Z" transform="translate(-315.86 -252.91)"/><path class="cls-26" d="M409.47,263.14c.3.2.3.7.2,1.1a.75.75,0,0,1-.95.42l-.05,0c-.4-.1-.5-.6-.2-1.1S409.17,262.94,409.47,263.14Z" transform="translate(-315.86 -252.91)"/><path class="cls-26" d="M411.47,259.74a.91.91,0,0,1,.1,1,.78.78,0,0,1-1,.3c-.4-.2-.4-.6-.1-1S411.17,259.44,411.47,259.74Z" transform="translate(-315.86 -252.91)"/><path class="cls-26" d="M410.57,269.24c-.3-.2-.3-.7-.1-1.1a.84.84,0,0,1,1-.4c.4.1.4.6.1,1.1S410.77,269.44,410.57,269.24Z" transform="translate(-315.86 -252.91)"/><path class="cls-26" d="M413.57,265.14a1,1,0,0,1-.1-1.1.8.8,0,0,1,1-.3c.4.2.4.6.1,1.1S413.77,265.34,413.57,265.14Z" transform="translate(-315.86 -252.91)"/><path class="cls-26" d="M417.47,261.34a1,1,0,0,1,0-1.1.78.78,0,0,1,1.08-.31h0c.4.2.3.7,0,1.1S417.67,261.54,417.47,261.34Z" transform="translate(-315.86 -252.91)"/><path class="cls-26" d="M416.57,269.64a1,1,0,0,1-.1-1.1,1,1,0,0,1,1-.3c.4.2.4.6.1,1.1S416.77,269.84,416.57,269.64Z" transform="translate(-315.86 -252.91)"/><path class="cls-26" d="M422.17,265.74a1.08,1.08,0,0,1-1.1,0c-.2-.2-.1-.7.3-1a.77.77,0,0,1,1.1,0,.72.72,0,0,1-.25,1Z" transform="translate(-315.86 -252.91)"/><path class="cls-26" d="M391,275.84a1.06,1.06,0,0,1-.7-.6.82.82,0,0,1,.7-.7.56.56,0,0,1,.68.39.75.75,0,0,1,0,.21.64.64,0,0,1-.56.7Z" transform="translate(-315.86 -252.91)"/><path class="cls-26" d="M393,273.84a1.06,1.06,0,0,1-.7-.6.82.82,0,0,1,.7-.7.56.56,0,0,1,.68.39.75.75,0,0,1,0,.21.64.64,0,0,1-.56.7Z" transform="translate(-315.86 -252.91)"/><path class="cls-26" d="M350,279.84a1.06,1.06,0,0,1-.7-.6.82.82,0,0,1,.7-.7.56.56,0,0,1,.68.39.75.75,0,0,1,0,.21.64.64,0,0,1-.56.7Z" transform="translate(-315.86 -252.91)"/><path class="cls-26" d="M348,283.84a1.06,1.06,0,0,1-.7-.6.82.82,0,0,1,.7-.7.56.56,0,0,1,.68.39.75.75,0,0,1,0,.21.64.64,0,0,1-.56.7Z" transform="translate(-315.86 -252.91)"/><path class="cls-26" d="M345,281.84a1.06,1.06,0,0,1-.7-.6.82.82,0,0,1,.7-.7.56.56,0,0,1,.68.39.75.75,0,0,1,0,.21.64.64,0,0,1-.56.7Z" transform="translate(-315.86 -252.91)"/><path class="cls-26" d="M342,279.84a1.06,1.06,0,0,1-.7-.6.82.82,0,0,1,.7-.7.56.56,0,0,1,.68.39.75.75,0,0,1,0,.21.64.64,0,0,1-.56.7Z" transform="translate(-315.86 -252.91)"/><path class="cls-26" d="M339,282.84a1.06,1.06,0,0,1-.7-.6.82.82,0,0,1,.7-.7.56.56,0,0,1,.68.39.75.75,0,0,1,0,.21.64.64,0,0,1-.56.7Z" transform="translate(-315.86 -252.91)"/><path class="cls-26" d="M336,280.84a1.06,1.06,0,0,1-.7-.6.82.82,0,0,1,.7-.7.56.56,0,0,1,.68.39.75.75,0,0,1,0,.21.64.64,0,0,1-.56.7Z" transform="translate(-315.86 -252.91)"/><path class="cls-26" d="M334,281.84a1.06,1.06,0,0,1-.7-.6.82.82,0,0,1,.7-.7.56.56,0,0,1,.68.39.75.75,0,0,1,0,.21.64.64,0,0,1-.56.7Z" transform="translate(-315.86 -252.91)"/><g class="cls-27"><path class="cls-26" d="M327.47,286.94c-.4-.1-.8-.4-.8-.8s.3-.7.8-.8a.66.66,0,0,1,.8.48.86.86,0,0,1,0,.32.81.81,0,0,1-.78.8Z" transform="translate(-315.86 -252.91)"/></g><g class="cls-28"><path class="cls-26" d="M331.67,286.94a1.17,1.17,0,0,1-.9-.9,1,1,0,0,1,.9-.9c.5-.1.9.3.9.9S332.07,287,331.67,286.94Z" transform="translate(-315.86 -252.91)"/></g><path class="cls-26" d="M323,284.84a1.06,1.06,0,0,1-.7-.6.82.82,0,0,1,.7-.7.56.56,0,0,1,.68.39.75.75,0,0,1,0,.21.64.64,0,0,1-.56.7Z" transform="translate(-315.86 -252.91)"/><path class="cls-26" d="M471,295.84a1.06,1.06,0,0,1-.7-.6.82.82,0,0,1,.7-.7.56.56,0,0,1,.68.39.75.75,0,0,1,0,.21.64.64,0,0,1-.56.7Z" transform="translate(-315.86 -252.91)"/><path class="cls-26" d="M475,297.84a1.06,1.06,0,0,1-.7-.6.82.82,0,0,1,.7-.7.56.56,0,0,1,.68.39.75.75,0,0,1,0,.21.64.64,0,0,1-.56.7Z" transform="translate(-315.86 -252.91)"/><path class="cls-26" d="M481,299.84a1.06,1.06,0,0,1-.7-.6.82.82,0,0,1,.7-.7.56.56,0,0,1,.68.39.75.75,0,0,1,0,.21.64.64,0,0,1-.56.7Z" transform="translate(-315.86 -252.91)"/><path class="cls-26" d="M485,299.84a1.06,1.06,0,0,1-.7-.6.82.82,0,0,1,.7-.7.56.56,0,0,1,.68.39.75.75,0,0,1,0,.21.64.64,0,0,1-.56.7Z" transform="translate(-315.86 -252.91)"/><path class="cls-26" d="M399,280.84a1.06,1.06,0,0,1-.7-.6.82.82,0,0,1,.7-.7.56.56,0,0,1,.68.39.75.75,0,0,1,0,.21.64.64,0,0,1-.56.7Z" transform="translate(-315.86 -252.91)"/><path class="cls-26" d="M398,277.84a1.06,1.06,0,0,1-.7-.6.82.82,0,0,1,.7-.7.56.56,0,0,1,.68.39.75.75,0,0,1,0,.21.64.64,0,0,1-.56.7Z" transform="translate(-315.86 -252.91)"/><path class="cls-26" d="M395,276.84a1.06,1.06,0,0,1-.7-.6.82.82,0,0,1,.7-.7.56.56,0,0,1,.68.39.75.75,0,0,1,0,.21.64.64,0,0,1-.56.7Z" transform="translate(-315.86 -252.91)"/><path class="cls-26" d="M403,275.84a1.06,1.06,0,0,1-.7-.6.82.82,0,0,1,.7-.7.56.56,0,0,1,.68.39.75.75,0,0,1,0,.21.64.64,0,0,1-.56.7Z" transform="translate(-315.86 -252.91)"/><path class="cls-26" d="M405,279.84a1.06,1.06,0,0,1-.7-.6.82.82,0,0,1,.7-.7.56.56,0,0,1,.68.39.75.75,0,0,1,0,.21.64.64,0,0,1-.56.7Z" transform="translate(-315.86 -252.91)"/><path class="cls-26" d="M417,279.84a1.06,1.06,0,0,1-.7-.6.82.82,0,0,1,.7-.7.56.56,0,0,1,.68.39.75.75,0,0,1,0,.21.64.64,0,0,1-.56.7Z" transform="translate(-315.86 -252.91)"/><g class="cls-29"><path class="cls-26" d="M416,276.84a1.06,1.06,0,0,1-.7-.6.82.82,0,0,1,.7-.7.56.56,0,0,1,.68.39.75.75,0,0,1,0,.21.64.64,0,0,1-.56.7Z" transform="translate(-315.86 -252.91)"/></g><path class="cls-26" d="M420,277.84a1.06,1.06,0,0,1-.7-.6.82.82,0,0,1,.7-.7.56.56,0,0,1,.68.39.75.75,0,0,1,0,.21.64.64,0,0,1-.56.7Z" transform="translate(-315.86 -252.91)"/><path class="cls-26" d="M423,279.84a1.06,1.06,0,0,1-.7-.6.82.82,0,0,1,.7-.7.56.56,0,0,1,.68.39.75.75,0,0,1,0,.21.64.64,0,0,1-.56.7Z" transform="translate(-315.86 -252.91)"/><path class="cls-26" d="M428,279.84a1.06,1.06,0,0,1-.7-.6.82.82,0,0,1,.7-.7.56.56,0,0,1,.68.39.75.75,0,0,1,0,.21.64.64,0,0,1-.56.7Z" transform="translate(-315.86 -252.91)"/><path class="cls-26" d="M431,278.84a1.06,1.06,0,0,1-.7-.6.82.82,0,0,1,.7-.7.56.56,0,0,1,.68.39.75.75,0,0,1,0,.21.64.64,0,0,1-.56.7Z" transform="translate(-315.86 -252.91)"/><path class="cls-26" d="M427,276.84a1.06,1.06,0,0,1-.7-.6.82.82,0,0,1,.7-.7.56.56,0,0,1,.68.39.75.75,0,0,1,0,.21.64.64,0,0,1-.56.7Z" transform="translate(-315.86 -252.91)"/><path class="cls-26" d="M442,278.84a1.06,1.06,0,0,1-.7-.6.82.82,0,0,1,.7-.7.56.56,0,0,1,.68.39.75.75,0,0,1,0,.21.64.64,0,0,1-.56.7Z" transform="translate(-315.86 -252.91)"/><path class="cls-26" d="M444,280.84a1.06,1.06,0,0,1-.7-.6.82.82,0,0,1,.7-.7.56.56,0,0,1,.68.39.75.75,0,0,1,0,.21.64.64,0,0,1-.56.7Z" transform="translate(-315.86 -252.91)"/><path class="cls-26" d="M447,279.84a1.06,1.06,0,0,1-.7-.6.82.82,0,0,1,.7-.7.56.56,0,0,1,.68.39.75.75,0,0,1,0,.21.64.64,0,0,1-.56.7Z" transform="translate(-315.86 -252.91)"/><path class="cls-26" d="M445,277.84a1.06,1.06,0,0,1-.7-.6.82.82,0,0,1,.7-.7.56.56,0,0,1,.68.39.75.75,0,0,1,0,.21.64.64,0,0,1-.56.7Z" transform="translate(-315.86 -252.91)"/><path class="cls-26" d="M440,276.84a1.06,1.06,0,0,1-.7-.6.82.82,0,0,1,.7-.7.56.56,0,0,1,.68.39.75.75,0,0,1,0,.21.64.64,0,0,1-.56.7Z" transform="translate(-315.86 -252.91)"/><path class="cls-26" d="M454,282.84a1.06,1.06,0,0,1-.7-.6.82.82,0,0,1,.7-.7.56.56,0,0,1,.68.39.75.75,0,0,1,0,.21.64.64,0,0,1-.56.7Z" transform="translate(-315.86 -252.91)"/><path class="cls-26" d="M453,279.84a1.06,1.06,0,0,1-.7-.6.82.82,0,0,1,.7-.7.56.56,0,0,1,.68.39.75.75,0,0,1,0,.21.64.64,0,0,1-.56.7Z" transform="translate(-315.86 -252.91)"/><path class="cls-26" d="M457,280.84a1.06,1.06,0,0,1-.7-.6.82.82,0,0,1,.7-.7.56.56,0,0,1,.68.39.75.75,0,0,1,0,.21.64.64,0,0,1-.56.7Z" transform="translate(-315.86 -252.91)"/><path class="cls-26" d="M465,280.84a1.06,1.06,0,0,1-.7-.6.82.82,0,0,1,.7-.7.56.56,0,0,1,.68.39.75.75,0,0,1,0,.21.64.64,0,0,1-.56.7Z" transform="translate(-315.86 -252.91)"/><path class="cls-26" d="M463,283.84a1.06,1.06,0,0,1-.7-.6.82.82,0,0,1,.7-.7.56.56,0,0,1,.68.39.75.75,0,0,1,0,.21.64.64,0,0,1-.56.7Z" transform="translate(-315.86 -252.91)"/><path class="cls-26" d="M472,282.84a1.06,1.06,0,0,1-.7-.6.82.82,0,0,1,.7-.7.56.56,0,0,1,.68.39.75.75,0,0,1,0,.21.64.64,0,0,1-.56.7Z" transform="translate(-315.86 -252.91)"/><path class="cls-26" d="M476,281.84a1.06,1.06,0,0,1-.7-.6.82.82,0,0,1,.7-.7.56.56,0,0,1,.68.39.75.75,0,0,1,0,.21.64.64,0,0,1-.56.7Z" transform="translate(-315.86 -252.91)"/><path class="cls-26" d="M480,279.84a1.06,1.06,0,0,1-.7-.6.82.82,0,0,1,.7-.7.56.56,0,0,1,.68.39.75.75,0,0,1,0,.21.64.64,0,0,1-.56.7Z" transform="translate(-315.86 -252.91)"/><path class="cls-26" d="M486,276.84a1.06,1.06,0,0,1-.7-.6.82.82,0,0,1,.7-.7.56.56,0,0,1,.68.39.75.75,0,0,1,0,.21.64.64,0,0,1-.56.7Z" transform="translate(-315.86 -252.91)"/><path class="cls-26" d="M475,285.84a1.06,1.06,0,0,1-.7-.6.82.82,0,0,1,.7-.7.56.56,0,0,1,.68.39.75.75,0,0,1,0,.21.64.64,0,0,1-.56.7Z" transform="translate(-315.86 -252.91)"/><path class="cls-26" d="M480,283.84a1.06,1.06,0,0,1-.7-.6.82.82,0,0,1,.7-.7.56.56,0,0,1,.68.39.75.75,0,0,1,0,.21.64.64,0,0,1-.56.7Z" transform="translate(-315.86 -252.91)"/><path class="cls-26" d="M485,281.84a1.06,1.06,0,0,1-.7-.6.82.82,0,0,1,.7-.7.56.56,0,0,1,.68.39.75.75,0,0,1,0,.21.64.64,0,0,1-.56.7Z" transform="translate(-315.86 -252.91)"/><path class="cls-26" d="M483,285.84a1.06,1.06,0,0,1-.7-.6.82.82,0,0,1,.7-.7.56.56,0,0,1,.68.39.75.75,0,0,1,0,.21.64.64,0,0,1-.56.7Z" transform="translate(-315.86 -252.91)"/><path class="cls-26" d="M489,285.84a1.06,1.06,0,0,1-.7-.6.82.82,0,0,1,.7-.7.56.56,0,0,1,.68.39.75.75,0,0,1,0,.21.64.64,0,0,1-.56.7Z" transform="translate(-315.86 -252.91)"/><path class="cls-26" d="M480,288.84a1.06,1.06,0,0,1-.7-.6.82.82,0,0,1,.7-.7.56.56,0,0,1,.68.39.75.75,0,0,1,0,.21.64.64,0,0,1-.56.7Z" transform="translate(-315.86 -252.91)"/><path class="cls-26" d="M486,290.84a1.06,1.06,0,0,1-.7-.6.82.82,0,0,1,.7-.7.56.56,0,0,1,.68.39.75.75,0,0,1,0,.21.64.64,0,0,1-.56.7Z" transform="translate(-315.86 -252.91)"/><path class="cls-26" d="M472,290.84a1.06,1.06,0,0,1-.7-.6.82.82,0,0,1,.7-.7.56.56,0,0,1,.68.39.75.75,0,0,1,0,.21.64.64,0,0,1-.56.7Z" transform="translate(-315.86 -252.91)"/><path class="cls-26" d="M476,292.84a1.06,1.06,0,0,1-.7-.6.82.82,0,0,1,.7-.7.56.56,0,0,1,.68.39.75.75,0,0,1,0,.21.64.64,0,0,1-.56.7Z" transform="translate(-315.86 -252.91)"/><path class="cls-26" d="M481,294.84a1.06,1.06,0,0,1-.7-.6.82.82,0,0,1,.7-.7.56.56,0,0,1,.68.39.75.75,0,0,1,0,.21.64.64,0,0,1-.56.7Z" transform="translate(-315.86 -252.91)"/><path class="cls-26" d="M487,297.84a1.06,1.06,0,0,1-.7-.6.82.82,0,0,1,.7-.7.56.56,0,0,1,.68.39.75.75,0,0,1,0,.21.64.64,0,0,1-.56.7Z" transform="translate(-315.86 -252.91)"/><path class="cls-26" d="M462,292.84a1.06,1.06,0,0,1-.7-.6.82.82,0,0,1,.7-.7.56.56,0,0,1,.68.39.75.75,0,0,1,0,.21.64.64,0,0,1-.56.7Z" transform="translate(-315.86 -252.91)"/><g class="cls-30"><path class="cls-31" d="M466.57,285.34c0,1.1-37.8,5-53.9,5.2-14.7.2-53.9-5.2-53.9-5.3.1-2.1,39.6-2.9,53.9-2.7C428.87,282.84,466.57,285.34,466.57,285.34Z" transform="translate(-315.86 -252.91)"/></g><path class="cls-2" d="M438.07,286.54c.1,2.9-1.8,5.4-4.2,5.5s-4.3-2.4-4.2-5.5,1.9-5.6,4.2-5.4S438.07,283.74,438.07,286.54Z" transform="translate(-315.86 -252.91)"/><path class="cls-2" d="M423.27,285.84a3.93,3.93,0,0,1-3.4,4.2c-1.9.1-3.5-1.8-3.4-4.2s1.5-4.3,3.4-4.2A4.15,4.15,0,0,1,423.27,285.84Z" transform="translate(-315.86 -252.91)"/><path class="cls-2" d="M446.57,286.34c-1.9.1-3.6-1.1-3.7-2.7s1.5-2.8,3.6-2.8,3.7,1.2,3.7,2.7S448.47,286.24,446.57,286.34Z" transform="translate(-315.86 -252.91)"/><path class="cls-2" d="M411.27,286.34c0,1.9-1.2,3.5-2.8,3.6s-2.8-1.6-2.8-3.6,1.2-3.7,2.8-3.6A3.5,3.5,0,0,1,411.27,286.34Z" transform="translate(-315.86 -252.91)"/><path class="cls-2" d="M387.87,286c-.1-2.9,1.8-5.4,4.2-5.5s4.3,2.4,4.2,5.5-1.9,5.6-4.2,5.4S388,288.84,387.87,286Z" transform="translate(-315.86 -252.91)"/><path class="cls-2" d="M381.37,286c0,1.9-1.2,3.5-2.8,3.6s-2.8-1.6-2.8-3.6,1.2-3.7,2.8-3.6S381.37,284.14,381.37,286Z" transform="translate(-315.86 -252.91)"/><path class="cls-2" d="M461.37,284.94a2.68,2.68,0,0,1-2.8,2.4,2.48,2.48,0,0,1-2.78-2.14,1.18,1.18,0,0,1,0-.26,2.6,2.6,0,0,1,2.78-2.41h0A2.91,2.91,0,0,1,461.37,284.94Z" transform="translate(-315.86 -252.91)"/><path class="cls-2" d="M470.27,285.54a2.68,2.68,0,0,1-2.8,2.4,2.48,2.48,0,0,1-2.78-2.14,1.18,1.18,0,0,1,0-.26,2.6,2.6,0,0,1,2.78-2.41h0A2.82,2.82,0,0,1,470.27,285.54Z" transform="translate(-315.86 -252.91)"/><path class="cls-2" d="M364.07,283.64a2.59,2.59,0,0,1-3,1.8c-1.2-.4-1.6-1.9-1-3.3s1.9-2.3,2.9-1.8A2.52,2.52,0,0,1,364.07,283.64Z" transform="translate(-315.86 -252.91)"/><path class="cls-2" d="M365.07,287.74a1.63,1.63,0,0,1-.8,2.1c-.7.3-1.5-.3-1.8-1.2a1.4,1.4,0,0,1,2.43-1.4A1.74,1.74,0,0,1,365.07,287.74Z" transform="translate(-315.86 -252.91)"/><g class="cls-15"><path class="cls-2" d="M370.07,293.34a1.49,1.49,0,0,1-.83-1.94l0-.06c.3-.7,1.3-.8,2.2-.3s1.2,1.4.8,2A1.78,1.78,0,0,1,370.07,293.34Z" transform="translate(-315.86 -252.91)"/></g><g class="cls-15"><path class="cls-2" d="M358.37,292.34a1.62,1.62,0,0,1,1.1-1.9c.8-.2,1.5.5,1.6,1.5a1.61,1.61,0,0,1-1.1,1.9C359.27,293.94,358.57,293.24,358.37,292.34Z" transform="translate(-315.86 -252.91)"/></g><path class="cls-32" d="M316.37,292.44a4.68,4.68,0,0,1,1.9,0c1.3.1,1.6.2,1.7.5a1,1,0,0,1,0,1,1.29,1.29,0,0,1-.9.4C317.67,294.44,316.07,292.84,316.37,292.44Z" transform="translate(-315.86 -252.91)"/><path class="cls-33" d="M340.67,286.34c-.2,0,.2,1.5,0,4s-.2,3.7-1.3,4.9c-.5.6-1.3,1.2-1.2,1.4s.7,0,1-.1c2-.7,2.5-4,2.4-6.4A9.06,9.06,0,0,0,340.67,286.34Z" transform="translate(-315.86 -252.91)"/><g class="cls-15"><path class="cls-2" d="M406.67,293.74c-.6-.2-.7-.9-.3-1.5a1.47,1.47,0,0,1,1.8-.6.82.82,0,0,1,.54,1,.88.88,0,0,1-.24.38A1.82,1.82,0,0,1,406.67,293.74Z" transform="translate(-315.86 -252.91)"/></g><g class="cls-15"><path class="cls-2" d="M411.07,294.24a.45.45,0,0,1-.3-.54.34.34,0,0,1,.1-.16.79.79,0,0,1,.9-.3.43.43,0,0,1,.29.53.56.56,0,0,1-.09.17A.83.83,0,0,1,411.07,294.24Z" transform="translate(-315.86 -252.91)"/></g><g class="cls-15"><path class="cls-2" d="M395.07,297.24a.45.45,0,0,1-.3-.54.34.34,0,0,1,.1-.16.79.79,0,0,1,.9-.3.43.43,0,0,1,.29.53.56.56,0,0,1-.09.17A.83.83,0,0,1,395.07,297.24Z" transform="translate(-315.86 -252.91)"/></g><g class="cls-15"><path class="cls-2" d="M385.27,296.34a.44.44,0,0,1-.43-.45.33.33,0,0,1,0-.15.84.84,0,0,1,.7-.6.44.44,0,0,1,.43.45l0,.15A.88.88,0,0,1,385.27,296.34Z" transform="translate(-315.86 -252.91)"/></g><g class="cls-15"><path class="cls-2" d="M418.87,294a.43.43,0,0,1,.05-.62.28.28,0,0,1,.15-.08.64.64,0,0,1,.89.19h0a.43.43,0,0,1,0,.6.39.39,0,0,1-.16.1A1,1,0,0,1,418.87,294Z" transform="translate(-315.86 -252.91)"/></g><g class="cls-15"><path class="cls-2" d="M316.77,289.54a.43.43,0,0,1,.05-.62.28.28,0,0,1,.15-.08.73.73,0,0,1,.9.1.44.44,0,0,1-.06.62l-.14.08A.75.75,0,0,1,316.77,289.54Z" transform="translate(-315.86 -252.91)"/></g><g class="cls-15"><path class="cls-2" d="M318.77,290.34a.43.43,0,0,1,.05-.62.28.28,0,0,1,.15-.08.64.64,0,0,1,.89.19h0a.43.43,0,0,1,0,.6.39.39,0,0,1-.16.1A1,1,0,0,1,318.77,290.34Z" transform="translate(-315.86 -252.91)"/></g><g class="cls-15"><path class="cls-2" d="M320.67,291.34a.43.43,0,0,1,.05-.62.28.28,0,0,1,.15-.08.64.64,0,0,1,.89.19h0a.43.43,0,0,1,0,.6.39.39,0,0,1-.16.1A1,1,0,0,1,320.67,291.34Z" transform="translate(-315.86 -252.91)"/></g><g class="cls-15"><path class="cls-2" d="M432.37,294.34c-.3.1-.5-.2-.5-.5a.66.66,0,0,1,.6-.7c.3,0,.6.2.5.5S432.67,294.34,432.37,294.34Z" transform="translate(-315.86 -252.91)"/></g><g class="cls-15"><path class="cls-2" d="M436.37,296.34c-.3,0-.5-.2-.5-.6a.67.67,0,0,1,.65-.7h.05a.47.47,0,0,1,.51.41.59.59,0,0,1,0,.19A.85.85,0,0,1,436.37,296.34Z" transform="translate(-315.86 -252.91)"/></g><g class="cls-15"><path class="cls-2" d="M455.07,290.24a.45.45,0,0,1-.3-.54.34.34,0,0,1,.1-.16.79.79,0,0,1,.9-.3.43.43,0,0,1,.29.53.56.56,0,0,1-.09.17A.83.83,0,0,1,455.07,290.24Z" transform="translate(-315.86 -252.91)"/></g><g class="cls-15"><path class="cls-2" d="M445.87,292.54a.89.89,0,0,1-.49-1.15.54.54,0,0,1,.09-.15,1.07,1.07,0,0,1,1.49-.31h0a.93.93,0,0,1,.44,1.22.3.3,0,0,0,0,.08A1.23,1.23,0,0,1,445.87,292.54Z" transform="translate(-315.86 -252.91)"/></g><path class="cls-2" d="M370.07,284c.6,1.9.1,3.8-1.2,4.4s-2.9-.8-3.5-2.9-.1-4,1.3-4.3S369.47,282.14,370.07,284Z" transform="translate(-315.86 -252.91)"/><path class="cls-34" d="M465.87,285.44s-35.8,2.4-53.7,2.5-53.6-2.6-53.6-2.6,35.8,1.2,53.7,1.3S465.87,285.44,465.87,285.44Z" transform="translate(-315.86 -252.91)"/><path class="cls-35" d="M354.87,291.74c.2,5.1-9.3,7.5-10.7,7.8h-.1c-7.8,1.8-16.6-1.5-16.5-2.9.2-1.9,15.8,0,17-4.6.7-2.6-3.1-6.5-1.9-8.4.1-.1.1-.2.3-.2C345.07,282.54,354.77,286.54,354.87,291.74Z" transform="translate(-315.86 -252.91)"/><path class="cls-18" d="M354.37,291.74c.2,5.1-8.7,8.7-10.8,7.8-1.3-.6.7-2.7.6-7.5-.2-5.5-2.9-8-1.6-8.6C344.47,282.54,354.17,286.54,354.37,291.74Z" transform="translate(-315.86 -252.91)"/><g class="cls-30"><path class="cls-36" d="M350.57,295.44c-1.6.2-6-5.2-6-5.3,0-2.1,4.4-2.9,6-2.7C352.47,287.74,352.47,295.24,350.57,295.44Z" transform="translate(-315.86 -252.91)"/></g><path class="cls-18" d="M335.47,289.44c-1,1.3-3.1,1.1-3.4.5-.5-.9,2.4-3.9,3.4-3.4C336.07,286.84,336.27,288.44,335.47,289.44Z" transform="translate(-315.86 -252.91)"/><path class="cls-2" d="M350.07,289.74a1.63,1.63,0,0,1-.8,2.1c-.7.3-1.5-.3-1.8-1.2a1.4,1.4,0,0,1,2.43-1.4A1.74,1.74,0,0,1,350.07,289.74Z" transform="translate(-315.86 -252.91)"/><path class="cls-37" d="M331.67,274.44" transform="translate(-315.86 -252.91)"/><g id="Bottom_Fin-3" data-name="Bottom Fin-3"><path class="cls-3" d="M413.17,316.94c1.6,2.4,4.8,2.5,7,.2l.1-.1.1-.1c0-.1-1.7.2-3.3.2-2.3-.1-3.9-1-4.1-.6C413.07,316.54,413.07,316.64,413.17,316.94Z" transform="translate(-315.86 -252.91)"/></g><g id="Bottom_Back_Fin-5" data-name="Bottom Back Fin-5"><path class="cls-3" d="M454.57,310.64c-4,1.3-9.2-3.3-9.1-3.5a5.78,5.78,0,0,0,1.1.5c5,1.9,10,0,10.3.9C457.07,309,456,310.14,454.57,310.64Z" transform="translate(-315.86 -252.91)"/></g></svg>