<?xml version="1.0" standalone="no"?>
<!DOCTYPE svg PUBLIC "-//W3C//DTD SVG 20010904//EN"
 "http://www.w3.org/TR/2001/REC-SVG-20010904/DTD/svg10.dtd">
<svg version="1.0" xmlns="http://www.w3.org/2000/svg"
 width="770.000000pt" height="770.000000pt" viewBox="0 0 770.000000 770.000000"
 preserveAspectRatio="xMidYMid meet">
<metadata>
Created by potrace 1.11, written by Peter Selinger 2001-2013
</metadata>
<g transform="translate(0.000000,770.000000) scale(0.100000,-0.100000)"
fill="#000000" stroke="none">
<path d="M3895 5215 c-125 -28 -219 -108 -420 -360 -100 -125 -145 -253 -117
-334 6 -17 8 -32 4 -32 -4 -1 -41 -2 -82 -4 -222 -7 -471 -17 -515 -20 -27 -2
-90 -7 -140 -10 -49 -3 -118 -8 -152 -10 -34 -3 -99 -7 -145 -10 -45 -4 -99
-8 -118 -10 -19 -3 -69 -7 -110 -10 -41 -3 -88 -7 -105 -9 -76 -10 -169 -20
-285 -31 -41 -4 -77 -12 -78 -17 -2 -5 -9 -5 -15 0 -16 11 -131 -10 -120 -23
4 -5 1 -4 -8 3 -9 6 -18 10 -21 7 -2 -3 -31 -8 -64 -11 -32 -4 -61 -9 -64 -13
-3 -3 -18 -7 -35 -7 -28 -1 -81 -9 -132 -18 -11 -3 -37 -7 -58 -10 -20 -3 -46
-11 -57 -17 -15 -8 -19 -8 -14 0 5 8 0 8 -17 2 -14 -6 -28 -7 -31 -4 -3 4 -6
1 -6 -5 0 -6 -6 -9 -14 -6 -8 3 -17 1 -20 -4 -3 -5 -16 -7 -30 -5 -13 3 -27 0
-30 -6 -4 -5 -14 -7 -23 -4 -9 4 -14 2 -10 -3 4 -6 -6 -9 -24 -6 -16 2 -29 0
-29 -4 0 -5 -17 -10 -37 -11 -21 -1 -39 -7 -41 -13 -2 -6 -15 -7 -29 -4 -15 4
-24 3 -20 -2 3 -5 -5 -10 -18 -10 -43 -3 -185 -49 -292 -96 -23 -10 -47 -18
-52 -18 -6 0 -11 -4 -11 -9 0 -5 -14 -11 -31 -15 -17 -3 -28 -9 -25 -14 2 -4
-4 -14 -16 -21 -16 -10 -19 -10 -13 1 4 7 -2 3 -12 -10 -10 -13 -26 -24 -33
-25 -8 -2 -35 -23 -59 -47 -24 -25 -41 -39 -37 -32 10 18 1 15 -15 -5 -10 -11
-10 -14 -1 -9 6 4 12 2 12 -3 0 -6 -4 -11 -9 -11 -5 0 -16 -13 -24 -29 -11
-22 -12 -32 -3 -41 8 -8 6 -9 -7 -4 -10 3 -17 3 -16 -2 1 -5 0 -11 -1 -14 -7
-18 -5 -50 3 -50 5 0 4 -6 -2 -14 -14 -17 8 -32 155 -104 56 -27 112 -57 124
-65 22 -16 22 -16 2 -14 -11 0 -20 5 -19 10 1 5 -4 12 -11 14 -8 3 -10 -1 -6
-14 6 -16 5 -16 -7 -2 -8 9 -23 19 -34 23 -20 6 -20 6 -1 -9 11 -8 15 -15 10
-15 -6 0 -15 5 -22 12 -6 6 -17 13 -24 14 -7 1 -26 5 -43 8 -73 15 -123 18
-129 7 -23 -36 120 -128 206 -133 27 -2 48 -7 48 -12 0 -5 7 -3 15 4 13 11 14
10 10 -2 -10 -26 37 -31 56 -6 15 20 46 17 33 -3 -3 -6 5 -8 20 -5 26 5 37 -9
14 -17 -18 -6 -50 12 -43 24 4 5 2 9 -3 9 -6 0 -13 -7 -16 -16 -8 -22 -8 -26
4 -19 6 3 10 1 10 -6 0 -7 3 -9 7 -6 3 4 12 2 20 -4 7 -6 13 -8 13 -4 0 4 7 2
15 -5 18 -15 36 -4 28 17 -4 11 -3 14 6 9 7 -5 10 -14 7 -21 -9 -24 8 -26 21
-3 13 22 13 22 7 -7 -4 -20 -3 -26 4 -17 7 11 11 10 16 -4 3 -9 9 -14 13 -11
3 4 14 2 24 -4 14 -7 19 -6 19 3 0 8 4 6 10 -4 6 -10 19 -15 30 -13 11 2 20 0
20 -4 0 -4 6 -8 13 -9 22 -2 42 -7 55 -15 6 -5 16 -6 21 -2 5 3 12 1 15 -4 5
-8 61 -21 108 -26 10 -1 21 -4 24 -8 11 -10 36 -8 29 2 -3 5 0 13 6 17 7 4 9
3 6 -2 -9 -16 6 -30 38 -38 22 -5 26 -4 15 4 -13 8 -13 10 2 10 9 0 18 -4 20
-8 2 -5 15 -12 29 -15 24 -6 26 -4 24 23 -1 16 2 27 7 24 5 -3 6 -15 2 -27 -6
-19 -5 -20 10 -8 10 9 16 10 16 2 0 -6 -4 -11 -10 -11 -5 0 -10 -4 -10 -10 0
-17 28 -11 33 8 4 16 5 16 6 0 0 -10 4 -19 9 -19 50 -8 64 -7 54 3 -11 11 -6
38 8 38 4 0 15 -12 24 -27 l17 -28 -20 23 c-21 24 -37 17 -18 -8 16 -20 102
-27 92 -8 -3 7 0 5 9 -6 13 -16 18 -17 44 -5 20 8 28 18 25 28 -4 13 -3 13 5
2 8 -12 11 -11 15 3 4 14 5 14 3 -1 0 -10 -11 -22 -24 -28 -31 -14 -28 -20 11
-22 38 -2 122 -10 122 -12 0 -1 16 -4 36 -6 29 -3 36 0 35 12 0 9 6 18 14 20
10 3 11 2 3 -4 -26 -19 5 -35 68 -37 35 -1 70 -5 78 -10 10 -7 12 -6 6 4 -6
10 -4 11 6 4 8 -4 19 -9 24 -10 79 -11 341 -27 462 -28 39 0 70 -3 68 -6 -3
-4 95 -6 119 -2 5 1 3 9 -4 17 -9 10 -9 15 -1 15 10 0 15 -14 12 -34 -1 -4 19
-6 44 -4 25 2 47 -1 49 -7 3 -5 5 0 5 12 1 12 6 25 12 29 8 4 9 0 4 -15 -4
-14 -2 -21 7 -22 7 0 43 -2 80 -4 54 -4 66 -2 62 10 -3 7 4 19 16 25 13 7 20
8 16 2 -3 -6 0 -13 6 -16 7 -3 2 -3 -11 0 -17 4 -22 2 -19 -7 3 -9 24 -14 64
-16 33 -1 65 -3 72 -5 7 -2 18 8 25 21 6 14 19 26 27 28 10 3 9 1 -2 -7 -27
-17 -22 -40 7 -38 20 2 24 7 20 23 -6 20 -6 20 7 0 15 -23 43 -33 35 -12 -3 8
-1 20 4 28 8 12 10 12 8 -1 -1 -8 -1 -21 0 -28 1 -17 61 -12 61 5 0 7 4 13 10
13 5 0 7 -7 3 -15 -8 -23 19 -15 35 10 11 17 12 17 8 2 -5 -17 2 -18 109 -14
63 2 118 7 123 12 4 5 -1 5 -11 2 -11 -4 -16 -3 -12 3 7 12 35 13 35 2 0 -4
10 -8 23 -9 l22 -2 -22 19 c-19 15 -20 19 -7 24 9 3 23 1 32 -4 14 -9 12 -10
-8 -4 l-25 7 20 -22 c11 -13 21 -19 22 -14 2 4 35 6 73 3 39 -3 70 -2 70 2 0
5 5 8 11 8 5 0 7 -4 4 -10 -3 -5 1 -10 9 -10 9 0 16 4 16 9 0 5 9 7 20 4 12
-3 20 0 20 7 0 9 3 10 13 1 8 -6 17 -8 21 -4 6 7 17 8 83 14 18 2 35 10 38 19
6 13 8 13 20 -3 14 -20 23 -21 41 -6 6 5 19 7 27 3 15 -5 15 -8 2 -21 -17 -17
-19 -78 -4 -143 8 -38 44 -109 89 -180 5 -8 39 -64 76 -125 96 -159 117 -182
174 -199 35 -11 59 -12 90 -5 99 22 187 122 196 221 7 74 -17 107 -151 208
-60 46 -135 107 -165 137 -30 29 -80 65 -110 80 -30 16 -57 29 -59 30 -1 1 2
14 8 30 l11 28 -6 -29 c-5 -27 -4 -28 12 -15 11 9 15 9 10 2 -4 -7 -2 -13 3
-13 6 0 11 6 11 13 0 9 3 8 9 -2 5 -8 11 -9 15 -3 3 6 2 13 -4 17 -6 4 -8 11
-5 16 4 5 2 9 -4 9 -5 0 -12 -5 -14 -10 -3 -6 -4 -5 -3 2 3 17 31 17 32 1 1
-7 3 -16 4 -20 1 -5 2 -12 1 -17 -1 -5 6 -5 16 -1 10 4 24 10 32 13 10 4 12 1
6 -9 -6 -11 -5 -11 5 -2 13 12 4 37 -11 28 -5 -4 -9 -2 -9 3 0 6 7 13 16 16 9
3 12 11 8 18 -4 7 -4 10 1 6 4 -4 13 -3 20 2 8 7 12 5 12 -5 0 -8 -4 -12 -8
-10 -3 3 -12 -2 -18 -9 -8 -9 -8 -17 -2 -20 5 -3 12 0 15 6 3 7 3 2 0 -11 -4
-16 -3 -21 5 -17 6 4 11 3 11 -3 0 -7 8 -7 25 -1 14 5 32 7 40 4 10 -4 15 0
15 12 1 18 1 18 11 2 5 -10 15 -18 21 -18 9 0 9 3 0 12 -7 7 -12 17 -12 22 0
6 7 0 16 -13 l17 -24 14 24 c11 19 13 20 9 4 -5 -18 -1 -20 37 -18 125 6 197
12 206 17 5 4 12 2 16 -4 4 -6 11 -7 17 -4 6 4 5 10 -3 16 -10 7 -8 8 6 3 32
-11 65 -13 65 -4 0 5 -5 9 -12 9 -6 0 -8 3 -4 7 4 5 14 -1 22 -11 8 -11 14
-14 14 -7 0 8 7 10 20 6 23 -7 58 9 42 19 -6 3 -13 2 -17 -4 -3 -5 -11 -10
-18 -10 -6 0 -2 7 9 15 17 13 21 12 38 -8 l19 -22 -5 21 c-4 16 -1 21 11 19 9
-1 20 3 24 9 6 7 7 6 4 -4 -2 -8 -10 -14 -16 -12 -6 1 -11 -2 -11 -8 0 -5 18
-7 43 -4 23 3 48 6 55 6 15 2 15 4 0 31 -10 20 -10 21 5 8 10 -7 17 -20 17
-28 0 -8 5 -11 12 -7 6 4 32 9 56 10 53 4 59 8 42 29 -9 11 -9 15 -1 15 7 0
10 4 7 8 -2 4 5 9 17 9 20 2 20 1 5 -8 -10 -6 -18 -15 -18 -21 0 -6 7 -5 18 3
14 11 15 11 5 -1 -16 -18 -17 -34 -2 -24 7 4 26 8 43 10 87 9 129 21 122 33
-3 4 -1 13 5 21 6 10 7 -1 4 -32 -7 -80 32 -147 170 -283 92 -92 170 -143 265
-175 96 -32 165 -20 234 40 48 43 63 98 63 235 1 115 -1 107 73 309 12 33 20
71 17 84 -3 16 -1 22 8 18 8 -3 16 2 19 10 9 24 7 27 -9 14 -10 -9 -15 -9 -15
-1 0 6 5 11 10 11 6 0 9 5 8 11 -2 6 4 14 12 16 12 4 12 3 1 -5 -8 -6 -10 -12
-3 -16 6 -4 15 2 21 11 6 10 10 14 10 8 0 -5 -6 -19 -14 -29 -22 -29 -19 -33
20 -38 20 -2 35 0 35 7 0 5 5 3 10 -5 5 -8 10 -12 10 -8 0 4 19 1 43 -6 23 -7
48 -11 55 -8 7 2 19 -2 27 -8 17 -14 20 1 4 17 -16 16 -4 31 25 31 l25 0 -21
-17 c-19 -16 -20 -18 -3 -34 16 -17 18 -17 32 0 8 10 12 13 9 7 -5 -10 15 -24
34 -26 3 0 13 -4 24 -10 14 -8 17 -7 11 3 -5 7 -4 10 3 5 6 -3 13 -2 17 4 3 5
1 10 -6 10 -7 0 -10 3 -6 6 3 3 11 3 17 -1 8 -5 8 -11 -1 -21 -6 -8 -9 -18 -5
-21 4 -4 11 -1 16 7 6 8 10 10 10 4 0 -19 50 -36 66 -23 8 7 17 9 21 5 3 -3 1
-6 -5 -6 -7 0 -12 -5 -12 -11 0 -6 9 -8 20 -4 11 4 20 2 20 -4 0 -6 7 -11 15
-11 9 0 57 -25 107 -56 204 -124 350 -180 573 -219 40 -7 162 -7 199 0 116 23
185 97 205 222 9 59 6 182 -6 218 -8 23 -9 32 -11 63 -1 13 -6 21 -12 17 -5
-3 -8 5 -7 17 3 39 -34 126 -56 132 -17 4 -18 8 -8 20 7 8 8 17 3 20 -9 5 -9
31 0 113 1 12 6 21 11 20 5 -1 12 4 15 12 3 9 0 11 -9 6 -8 -5 -5 1 5 13 11
12 15 22 10 22 -5 0 -4 4 1 8 17 12 79 155 79 184 1 14 4 24 7 22 4 -2 9 5 12
16 3 11 0 20 -6 20 -8 0 -8 3 1 9 7 4 12 12 11 17 -1 5 -1 11 1 14 7 19 3 80
-5 80 -5 0 -5 4 2 8 11 7 9 24 -12 120 -4 17 -11 32 -16 32 -5 0 -9 5 -9 11 0
15 -67 90 -94 106 -53 31 -180 1 -339 -78 -93 -47 -322 -182 -352 -209 -11 -9
-28 -20 -39 -24 -16 -5 -16 -9 -5 -24 13 -16 13 -16 -5 -2 -15 11 -20 12 -23
3 -3 -7 -13 -13 -24 -13 -12 0 -21 -9 -25 -26 -5 -20 -9 -23 -16 -12 -7 10
-11 10 -15 1 -2 -7 -8 -13 -13 -13 -5 0 -36 -12 -69 -27 -43 -19 -60 -32 -56
-42 4 -10 2 -11 -8 -3 -10 8 -16 6 -25 -9 -7 -10 -17 -19 -24 -19 -7 0 -3 7 8
15 18 14 18 14 -3 8 -13 -3 -23 -11 -23 -18 0 -7 -7 -16 -16 -19 -14 -6 -15
-4 -4 10 9 10 2 9 -23 -6 -25 -15 -46 -20 -62 -16 -15 4 -25 2 -25 -4 0 -6 4
-9 9 -6 5 3 15 -2 22 -12 13 -15 12 -16 -3 -3 -10 7 -18 10 -18 6 0 -4 -7 -1
-16 6 -9 7 -21 14 -28 15 -76 14 -80 14 -66 4 20 -13 10 -13 -29 1 -17 6 -31
15 -31 21 0 5 -5 6 -10 3 -6 -4 -7 -11 -4 -17 4 -7 2 -8 -5 -4 -6 4 -9 12 -6
17 4 5 -3 10 -14 10 -12 1 -31 2 -43 3 -13 1 -26 -3 -30 -9 -5 -6 -8 -3 -8 8
0 9 -5 17 -11 17 -5 0 -7 -6 -3 -12 6 -10 5 -10 -8 -1 -8 7 -17 11 -19 8 -3
-2 -4 17 -3 42 2 64 -13 112 -47 146 -28 28 -33 29 -87 22 -31 -4 -93 -9 -137
-11 -59 -3 -87 -9 -105 -23 -14 -11 -24 -24 -23 -29 1 -6 -4 -13 -13 -16 -8
-3 -12 -2 -9 4 4 6 -9 10 -30 10 -26 0 -34 -4 -30 -12 4 -7 1 -6 -7 2 -9 11
-34 15 -90 15 -43 0 -78 3 -78 7 0 8 -21 5 -39 -6 -9 -6 -12 -5 -8 1 7 11
-147 37 -230 37 -28 1 -49 4 -46 9 2 4 -15 8 -39 8 -24 1 -55 2 -70 3 -16 0
-28 4 -28 8 0 4 -10 7 -22 6 -13 0 -66 5 -118 12 -52 7 -111 14 -130 15 -19 2
-62 6 -95 9 -164 18 -162 18 -107 34 52 16 129 85 141 125 14 51 5 139 -18
185 -22 44 -163 164 -288 246 -35 23 -63 46 -63 53 0 22 -73 83 -134 113 -80
39 -138 49 -201 35z m2805 -989 c0 -2 -7 -7 -16 -10 -8 -3 -12 -2 -9 4 6 10
25 14 25 6z m-40 -20 c0 -2 -7 -6 -15 -10 -8 -3 -15 -1 -15 4 0 6 7 10 15 10
8 0 15 -2 15 -4z m-50 -20 c0 -3 -4 -8 -10 -11 -5 -3 -10 -1 -10 4 0 6 5 11
10 11 6 0 10 -2 10 -4z m-443 -50 c2 -2 -9 -3 -26 -2 -16 0 -27 4 -25 8 4 7
43 3 51 -6z m183 -52 c0 -8 -19 -13 -24 -6 -3 5 1 9 9 9 8 0 15 -2 15 -3z
m-87 -39 c-3 -9 -8 -14 -10 -11 -3 3 -2 9 2 15 9 16 15 13 8 -4z m1264 -190
c0 -8 -4 -12 -9 -9 -5 3 -6 10 -3 15 9 13 12 11 12 -6z m-7437 -19 c0 -2 -8
-10 -17 -17 -16 -13 -17 -12 -4 4 13 16 21 21 21 13z m30 -36 c-8 -5 -19 -10
-25 -10 -5 0 -3 5 5 10 8 5 20 10 25 10 6 0 3 -5 -5 -10z m-40 -20 c0 -5 -5
-10 -11 -10 -5 0 -7 5 -4 10 3 6 8 10 11 10 2 0 4 -4 4 -10z m-30 -20 c0 -5
-4 -10 -10 -10 -5 0 -10 5 -10 10 0 6 5 10 10 10 6 0 10 -4 10 -10z m35 -10
c-3 -5 -12 -10 -18 -10 -7 0 -6 4 3 10 19 12 23 12 15 0z m6198 -5 c-3 -9 -8
-14 -10 -11 -3 3 -2 9 2 15 9 16 15 13 8 -4z m1267 1 c0 -3 -4 -8 -10 -11 -5
-3 -10 -1 -10 4 0 6 5 11 10 11 6 0 10 -2 10 -4z m30 -22 c0 -8 -19 -13 -24
-6 -3 5 1 9 9 9 8 0 15 -2 15 -3z m-7213 -29 c0 -8 -4 -12 -9 -9 -5 3 -6 10
-3 15 9 13 12 11 12 -6z m43 -9 c0 -2 -7 -7 -16 -10 -8 -3 -12 -2 -9 4 6 10
25 14 25 6z m53 -41 c-3 -9 -8 -14 -10 -11 -3 3 -2 9 2 15 9 16 15 13 8 -4z
m5697 -27 c16 5 15 3 -15 -18 -11 -8 -17 -11 -13 -6 4 5 3 18 -3 30 -9 18 -8
19 3 5 7 -9 20 -14 28 -11z m-90 -12 c0 -3 -4 -8 -10 -11 -5 -3 -10 -1 -10 4
0 6 5 11 10 11 6 0 10 -2 10 -4z m90 -26 c-24 -15 -36 -11 -14 4 10 8 21 12
24 10 2 -3 -2 -9 -10 -14z m-130 0 c0 -5 -4 -10 -10 -10 -5 0 -10 5 -10 10 0
6 5 10 10 10 6 0 10 -4 10 -10z m186 -11 c19 -22 19 -22 -3 -8 -13 8 -23 17
-23 21 0 12 6 9 26 -13z m-220 2 c-4 -5 -1 -11 6 -13 8 -3 8 -9 -1 -24 -10
-14 -11 -15 -7 -2 3 10 1 20 -4 23 -6 4 -10 -2 -11 -12 0 -11 -3 -13 -6 -5 -3
7 1 19 7 27 14 16 25 20 16 6z m220 -38 c-6 -6 -46 20 -46 30 0 4 11 0 25 -9
14 -9 24 -19 21 -21z m-326 19 c0 -5 -6 -16 -13 -26 -12 -16 -13 -16 -13 3 0
11 4 17 8 15 4 -3 8 0 8 5 0 6 2 11 5 11 3 0 5 -4 5 -8z m267 -11 c-5 -20 14
-43 46 -54 28 -10 19 13 -9 24 -15 5 -24 12 -21 16 8 7 57 -24 57 -37 0 -17
-16 -19 -43 -5 -14 7 -29 10 -33 7 -4 -4 -4 -2 0 5 3 6 2 14 -4 18 -5 3 -10 1
-10 -6 0 -7 -2 -10 -5 -7 -5 4 17 58 24 58 2 0 1 -9 -2 -19z m-217 -7 c0 -8 3
-13 8 -10 4 2 16 -2 27 -10 10 -8 14 -14 8 -14 -7 0 -14 4 -18 9 -3 6 -14 8
-25 6 -14 -3 -17 1 -13 13 5 14 3 15 -8 5 -7 -7 -17 -13 -23 -13 -11 0 25 29
37 30 4 0 7 -7 7 -16z m187 1 c5 -4 2 -5 -6 0 -11 6 -13 4 -8 -8 9 -23 0 -21
-13 2 -7 15 -7 19 5 17 8 -1 18 -6 22 -11z m-291 -4 c8 7 14 7 14 1 0 -12 -26
-23 -34 -15 -3 4 -6 11 -5 17 0 6 3 5 6 -2 4 -10 8 -10 19 -1z m449 -9 c-3 -3
-11 0 -18 7 -9 10 -8 11 6 5 10 -3 15 -9 12 -12z m-5941 0 c3 -5 -1 -9 -9 -9
-8 0 -12 4 -9 9 3 4 7 8 9 8 2 0 6 -4 9 -8z m5906 -2 c0 -5 -4 -10 -10 -10 -5
0 -10 5 -10 10 0 6 5 10 10 10 6 0 10 -4 10 -10z m-157 -17 c-7 -2 -19 -2 -25
0 -7 3 -2 5 12 5 14 0 19 -2 13 -5z m297 -45 c0 -4 -4 -8 -10 -8 -5 0 -10 3
-10 8 0 12 -49 31 -56 21 -3 -5 -11 -9 -17 -9 -7 0 -4 7 7 15 16 12 23 12 52
-3 19 -8 34 -19 34 -24z m-5980 12 c-6 -11 -13 -20 -16 -20 -3 0 -2 5 1 10 3
6 0 10 -7 11 -10 0 12 14 30 18 1 1 -2 -8 -8 -19z m46 -10 c5 1 9 -3 11 -10 1
-7 0 -7 -4 0 -3 7 -9 8 -17 1 -8 -7 -12 -4 -13 12 -2 15 0 18 6 9 5 -8 12 -13
17 -12z m-106 0 c0 -5 -5 -10 -11 -10 -5 0 -7 5 -4 10 3 6 8 10 11 10 2 0 4
-4 4 -10z m1247 -22 c-16 -9 -27 0 -21 17 5 11 9 12 19 2 9 -8 10 -14 2 -19z
m-473 -4 c3 -8 2 -12 -4 -9 -6 3 -10 10 -10 16 0 14 7 11 14 -7z m-794 -4 c0
-5 -2 -10 -4 -10 -3 0 -8 5 -11 10 -3 6 -1 10 4 10 6 0 11 -4 11 -10z m181 -7
c13 -16 12 -17 -3 -4 -10 7 -18 15 -18 17 0 8 8 3 21 -13z m2940 0 c13 -16 12
-17 -3 -4 -17 13 -22 21 -14 21 2 0 10 -8 17 -17z m-2966 -11 c-3 -3 -11 0
-18 7 -9 10 -8 11 6 5 10 -3 15 -9 12 -12z m1085 3 c0 -8 -2 -15 -4 -15 -2 0
-6 7 -10 15 -3 8 -1 15 4 15 6 0 10 -7 10 -15z m3827 -7 c-3 -8 -6 -5 -6 6 -1
11 2 17 5 13 3 -3 4 -12 1 -19z m-102 -15 c-11 -7 -24 -13 -29 -13 -6 1 -1 6
12 13 12 7 19 17 15 22 -4 4 -2 5 6 0 12 -7 11 -10 -4 -22z m1195 17 c0 -5 -2
-10 -4 -10 -3 0 -8 5 -11 10 -3 6 -1 10 4 10 6 0 11 -4 11 -10z m-1244 -25 c1
-8 -2 -15 -6 -15 -5 0 -8 9 -7 20 1 21 10 18 13 -5z m110 13 c4 -6 3 -8 -3 -5
-6 4 -19 0 -29 -8 -29 -22 -40 -18 -13 5 28 23 35 24 45 8z m-4770 -13 c-1 -8
-5 -17 -8 -21 -5 -4 -4 16 1 34 3 9 9 -1 7 -13z m3105 -2 c13 -16 12 -17 -3
-4 -17 13 -22 21 -14 21 2 0 10 -8 17 -17z m-2817 -1 c3 -5 -1 -9 -9 -9 -8 0
-12 4 -9 9 3 4 7 8 9 8 2 0 6 -4 9 -8z m1811 -10 c-3 -3 -11 0 -18 7 -9 10 -8
11 6 5 10 -3 15 -9 12 -12z m1302 -1 c0 -11 -5 -18 -9 -15 -4 3 -5 11 -1 19 7
21 12 19 10 -4z m1189 -1 c0 -12 -4 -16 -9 -11 -5 5 -6 14 -3 20 10 15 12 14
12 -9z m27 5 c-3 -9 -8 -14 -10 -11 -3 3 -2 9 2 15 9 16 15 13 8 -4z m-1738
-4 c3 -5 2 -12 -3 -15 -5 -3 -9 1 -9 9 0 17 3 19 12 6z m840 0 c3 -5 2 -12 -3
-15 -5 -3 -9 1 -9 9 0 17 3 19 12 6z m-1785 -7 c0 -8 -19 -13 -24 -6 -3 5 1 9
9 9 8 0 15 -2 15 -3z m280 0 c0 -8 -19 -13 -24 -6 -3 5 1 9 9 9 8 0 15 -2 15
-3z m70 0 c0 -8 -19 -13 -24 -6 -3 5 1 9 9 9 8 0 15 -2 15 -3z m1000 2 c0 -3
-4 -8 -10 -11 -5 -3 -10 -1 -10 4 0 6 5 11 10 11 6 0 10 -2 10 -4z m200 -2 c0
-8 -19 -13 -24 -6 -3 5 1 9 9 9 8 0 15 -2 15 -3z m50 0 c0 -8 -19 -13 -24 -6
-3 5 1 9 9 9 8 0 15 -2 15 -3z m324 -2 c2 -4 -5 -9 -17 -9 -17 -2 -19 0 -7 7
18 12 18 12 24 2z m120 0 c2 -4 -5 -9 -17 -9 -17 -2 -19 0 -7 7 18 12 18 12
24 2z m122 -4 c3 -4 -1 -5 -10 -4 -8 1 -18 5 -22 8 -3 4 1 5 10 4 8 -1 18 -5
22 -8z m464 2 c0 -5 -2 -10 -4 -10 -3 0 -8 5 -11 10 -3 6 -1 10 4 10 6 0 11
-4 11 -10z m105 0 c18 15 20 4 2 -14 -11 -11 -17 -11 -30 -1 -9 7 -17 16 -17
20 0 4 7 2 15 -5 12 -10 18 -10 30 0z m-4635 -4 c0 -2 -7 -7 -16 -10 -8 -3
-12 -2 -9 4 6 10 25 14 25 6z m50 0 c0 -2 -8 -10 -17 -17 -16 -13 -17 -12 -4
4 13 16 21 21 21 13z m1896 -16 c0 -12 -4 -16 -9 -11 -5 5 -6 14 -3 20 10 15
12 14 12 -9z m964 16 c0 -2 -8 -10 -17 -17 -16 -13 -17 -12 -4 4 13 16 21 21
21 13z m636 -11 c-1 -8 -5 -17 -8 -21 -5 -4 -4 16 1 34 3 9 9 -1 7 -13z
m-3465 -12 c13 -16 12 -17 -3 -4 -10 7 -18 15 -18 17 0 8 8 3 21 -13z m81 6
c2 -2 1 -3 -1 -2 -2 2 -9 -2 -16 -7 -8 -7 -12 -5 -12 4 0 12 22 16 29 5z m238
7 c0 -2 -8 -10 -17 -17 -16 -13 -17 -12 -4 4 13 16 21 21 21 13z m1974 -4 c3
-5 -1 -9 -9 -9 -8 0 -12 4 -9 9 3 4 7 8 9 8 2 0 6 -4 9 -8z m156 4 c0 -3 -4
-8 -10 -11 -5 -3 -10 -1 -10 4 0 6 5 11 10 11 6 0 10 -2 10 -4z m274 -4 c3 -5
-1 -9 -9 -9 -8 0 -12 4 -9 9 3 4 7 8 9 8 2 0 6 -4 9 -8z m210 0 c3 -5 -1 -9
-9 -9 -8 0 -12 4 -9 9 3 4 7 8 9 8 2 0 6 -4 9 -8z m156 4 c0 -3 -4 -8 -10 -11
-5 -3 -10 -1 -10 4 0 6 5 11 10 11 6 0 10 -2 10 -4z m140 -6 c0 -5 -4 -10 -10
-10 -5 0 -10 5 -10 10 0 6 5 10 10 10 6 0 10 -4 10 -10z m860 0 c0 -5 -5 -10
-11 -10 -5 0 -7 5 -4 10 3 6 8 10 11 10 2 0 4 -4 4 -10z m418 -15 c-3 -3 -13
-2 -22 1 -14 5 -15 9 -4 15 13 8 36 -6 26 -16z m-62 -11 c-6 -16 10 -19 17 -4
3 6 4 5 3 -2 -5 -22 -31 -14 -32 9 -1 12 3 20 8 17 5 -3 7 -12 4 -20z m-4021
7 c3 -5 2 -12 -3 -15 -5 -3 -9 1 -9 9 0 17 3 19 12 6z m2459 1 c2 -4 -5 -9
-17 -9 -17 -2 -19 0 -7 7 18 12 18 12 24 2z m1090 0 c3 -5 -1 -9 -9 -9 -8 0
-12 4 -9 9 3 4 7 8 9 8 2 0 6 -4 9 -8z m440 -4 c-4 -7 -14 -21 -22 -30 -12
-14 -12 -18 -2 -18 7 0 11 -2 8 -5 -3 -3 -12 -3 -20 0 -12 5 -10 12 11 35 28
32 36 37 25 18z m107 -11 c-10 -9 -11 -8 -5 6 3 10 9 15 12 12 3 -3 0 -11 -7
-18z m-4435 -7 c0 -12 -4 -16 -9 -11 -5 5 -6 14 -3 20 10 15 12 14 12 -9z m56
5 c2 3 5 -2 5 -10 0 -10 -4 -12 -12 -5 -7 5 -14 8 -17 5 -2 -3 -5 2 -5 10 0
10 4 12 12 5 7 -5 14 -8 17 -5z m124 -3 c-3 -3 0 -12 6 -21 10 -13 10 -14 -2
-4 -16 15 -23 46 -8 37 5 -3 7 -9 4 -12z m104 14 c0 -2 -8 -10 -17 -17 -16
-13 -17 -12 -4 4 13 16 21 21 21 13z m3035 -5 c3 -5 2 -12 -3 -15 -5 -3 -9 1
-9 9 0 17 3 19 12 6z m963 -16 c-3 -3 -9 2 -12 12 -6 14 -5 15 5 6 7 -7 10
-15 7 -18z m-4144 4 c3 -3 -5 -5 -19 -5 -13 0 -22 3 -19 7 4 8 30 6 38 -2z
m77 -12 c-10 -9 -11 -8 -5 6 3 10 9 15 12 12 3 -3 0 -11 -7 -18z m384 14 c-3
-5 2 -12 10 -14 12 -4 12 -5 -1 -3 -19 1 -32 26 -14 26 6 0 9 -4 5 -9z m1185
4 c0 -7 -30 -13 -34 -7 -3 4 4 9 15 9 10 1 19 0 19 -2z m54 -3 c3 -5 -1 -9 -9
-9 -8 0 -12 4 -9 9 3 4 7 8 9 8 2 0 6 -4 9 -8z m63 -16 c18 -21 18 -21 -3 -3
-11 9 -23 14 -26 11 -3 -3 -8 -1 -12 4 -11 18 25 8 41 -12z m67 13 c3 -3 -5
-5 -19 -5 -13 0 -22 3 -19 7 4 8 30 6 38 -2z m53 4 c-4 -3 -1 -13 6 -22 11
-14 10 -14 -5 -2 -16 12 -16 31 -1 31 4 0 3 -3 0 -7z m403 -8 c-5 -7 -8 -14
-5 -17 3 -2 -2 -5 -10 -5 -10 0 -12 4 -5 12 5 7 8 14 5 17 -3 2 2 5 10 5 10 0
12 -4 5 -12z m50 12 c0 -2 -10 -12 -22 -23 l-23 -19 19 23 c18 21 26 27 26 19z
m770 -3 c0 -8 -19 -13 -24 -6 -3 5 1 9 9 9 8 0 15 -2 15 -3z m151 -11 c12 -16
12 -17 -2 -6 -9 7 -20 9 -24 5 -5 -4 -5 -1 -1 6 9 16 11 15 27 -5z m82 -3 c10
-12 9 -12 -4 -2 -9 6 -18 9 -21 6 -3 -3 -9 -1 -12 4 -9 15 22 8 37 -8z m783
-5 c-2 -7 1 -18 7 -24 9 -9 8 -11 -4 -6 -9 3 -16 17 -16 30 0 14 4 22 9 19 5
-3 7 -12 4 -19z m-1519 -15 c2 -11 -1 -20 -5 -20 -4 0 -8 11 -8 25 0 28 8 24
13 -5z m-2433 12 c3 -5 -1 -9 -9 -9 -8 0 -15 4 -15 9 0 4 4 8 9 8 6 0 12 -4
15 -8z m250 -3 c-3 -6 -12 -8 -20 -5 -7 3 -16 1 -19 -4 -3 -5 5 -12 16 -15 20
-7 20 -8 5 -17 -9 -5 -14 -13 -11 -19 4 -5 1 -9 -4 -9 -14 0 -14 17 0 25 6 5
4 12 -8 21 -13 10 -15 16 -6 22 18 12 54 12 47 1z m1627 -2 c-6 -8 -8 -17 -4
-20 3 -4 1 -7 -5 -7 -15 0 -15 13 0 28 16 16 23 15 9 -1z m31 -13 c-9 -12 -19
-20 -21 -18 -2 2 1 10 7 17 7 8 10 16 7 19 -3 2 1 5 9 5 12 0 11 -5 -2 -23z
m98 22 c0 -2 -8 -10 -17 -17 -16 -13 -17 -12 -4 4 13 16 21 21 21 13z m305 -4
c-3 -3 0 -11 6 -19 17 -20 5 -16 -14 5 -15 16 -15 19 -2 19 8 0 13 -3 10 -5z
m206 -5 c-6 -8 -8 -17 -4 -20 3 -4 1 -7 -5 -7 -15 0 -15 13 0 28 16 16 23 15
9 -1z m31 -13 c-9 -12 -19 -20 -21 -18 -2 2 1 10 7 17 7 8 10 16 7 19 -3 2 1
5 9 5 12 0 11 -5 -2 -23z m98 22 c0 -2 -8 -10 -17 -17 -16 -13 -17 -12 -4 4
13 16 21 21 21 13z m110 -4 c0 -5 -7 -9 -15 -9 -8 0 -12 4 -9 9 3 4 9 8 15 8
5 0 9 -4 9 -8z m80 -4 c0 -4 -4 -8 -9 -8 -6 0 -12 4 -15 8 -3 5 1 9 9 9 8 0
15 -4 15 -9z m71 -5 c13 -16 12 -17 -3 -4 -10 7 -18 15 -18 17 0 8 8 3 21 -13z
m329 3 c-7 -7 -13 -7 -20 0 -6 6 -3 10 10 10 13 0 16 -4 10 -10z m84 2 c-3 -4
-9 -8 -15 -8 -5 0 -9 4 -9 8 0 5 7 9 15 9 8 0 12 -4 9 -9z m722 -6 c1 -7 0 -8
-3 -2 -2 5 -9 8 -14 4 -5 -3 -9 0 -9 6 0 15 23 7 26 -8z m-3999 -17 c-9 -7
-13 -16 -9 -20 4 -4 -3 -2 -15 4 -13 6 -23 14 -23 17 0 3 4 3 9 0 14 -9 42 5
34 17 -4 6 -1 7 7 2 10 -6 10 -11 -3 -20z m225 3 c-7 -7 -12 -8 -12 -2 0 14
12 26 19 19 2 -3 -1 -11 -7 -17z m1065 7 c0 -8 -5 -11 -10 -8 -6 4 -8 0 -4
-10 9 -24 0 -21 -14 4 -7 13 -7 19 -1 15 6 -3 13 -2 17 4 9 14 12 13 12 -5z
m66 4 c10 8 14 7 14 -4 0 -8 -5 -11 -10 -8 -6 4 -8 0 -5 -8 4 -10 -1 -15 -12
-15 -11 0 -16 5 -12 15 3 8 1 12 -5 8 -5 -3 -10 0 -10 8 0 11 4 12 14 4 9 -8
17 -8 26 0z m81 -21 c4 3 4 -2 0 -13 -5 -11 -9 -14 -12 -7 -2 7 -8 10 -13 7
-5 -4 -6 2 -2 11 4 10 2 15 -4 11 -5 -3 -10 1 -10 10 0 13 4 12 17 -5 10 -12
21 -18 24 -14z m52 13 c0 -12 -6 -17 -18 -13 -18 4 -18 5 -1 18 10 7 18 14 18
14 1 0 1 -8 1 -19z m143 -25 c-2 -2 -13 8 -23 22 l-19 27 24 -22 c12 -12 21
-24 18 -27z m94 36 c3 7 5 3 3 -9 -1 -12 -5 -25 -9 -28 -4 -3 -5 -2 -2 2 3 3
-3 16 -12 27 -15 17 -15 18 -1 8 13 -10 17 -10 21 0z m307 2 c0 0 -8 -8 -18
-17 -16 -15 -18 -15 -18 1 0 10 8 18 18 18 10 0 18 -1 18 -2z m638 -20 c1 -1
-5 -4 -15 -6 -13 -4 -19 0 -19 13 0 14 3 16 16 6 8 -6 16 -12 18 -13z m275 12
c3 3 4 -2 3 -12 -2 -10 -9 -20 -17 -22 -11 -3 -11 -1 1 7 13 9 8 15 -11 13 -3
-1 -6 6 -6 13 0 10 4 12 12 5 7 -5 14 -7 18 -4z m80 0 c3 3 4 -2 3 -12 -2 -10
-9 -20 -17 -22 -11 -3 -11 -1 1 7 13 9 8 15 -11 13 -3 -1 -6 6 -6 13 0 10 4
12 12 5 7 -5 14 -7 18 -4z m308 -3 c13 -16 12 -17 -3 -4 -17 13 -22 21 -14 21
2 0 10 -8 17 -17z m-3521 3 c0 -3 -4 -8 -10 -11 -5 -3 -10 -1 -10 4 0 6 5 11
10 11 6 0 10 -2 10 -4z m262 -4 c3 8 7 8 11 2 3 -5 -4 -16 -16 -23 -12 -8 -19
-10 -15 -6 4 5 0 14 -10 22 -15 13 -15 13 5 4 16 -8 22 -8 25 1z m192 -12
c-16 -9 -31 -15 -34 -12 -3 2 1 7 8 9 6 3 10 8 8 11 -2 4 7 8 21 9 l25 1 -28
-18z m1286 5 c0 -2 -9 -3 -19 -2 -11 0 -18 5 -15 9 4 6 34 0 34 -7z m350 11
c0 -2 -8 -10 -17 -17 -16 -13 -17 -12 -4 4 13 16 21 21 21 13z m401 -19 c-10
-9 -11 -8 -5 6 3 10 9 15 12 12 3 -3 0 -11 -7 -18z m446 8 c0 -8 -6 -16 -13
-19 -7 -3 -10 2 -7 15 6 22 20 26 20 4z m80 0 c0 -8 -6 -16 -13 -19 -7 -3 -10
2 -7 15 6 22 20 26 20 4z m327 0 c-4 -8 -11 -15 -16 -15 -6 0 -5 6 2 15 7 8
14 15 16 15 2 0 1 -7 -2 -15z m63 4 c-18 -10 -18 -11 0 -25 17 -14 16 -14 -5
-4 -19 9 -21 14 -11 26 6 8 17 14 23 14 6 0 3 -5 -7 -11z m83 7 c0 -2 -8 -10
-17 -17 -16 -13 -17 -12 -4 4 13 16 21 21 21 13z m453 -22 c-4 -12 -8 -13 -14
-3 -9 15 -2 32 11 24 5 -3 6 -13 3 -21z m71 10 c3 -8 2 -12 -4 -9 -6 3 -10 10
-10 16 0 14 7 11 14 -7z m-3944 2 c0 -2 -7 -7 -16 -10 -8 -3 -12 -2 -9 4 6 10
25 14 25 6z m268 -21 c-3 -3 -9 2 -12 12 -6 14 -5 15 5 6 7 -7 10 -15 7 -18z
m2397 16 c3 -5 0 -13 -6 -17 -8 -5 -9 -3 -4 6 6 10 4 12 -9 7 -10 -4 -15 -3
-11 3 8 13 22 13 30 1z m-2395 -55 c0 -5 -9 3 -20 17 -11 14 -20 29 -20 34 1
10 39 -39 40 -51z m134 28 c-5 -19 -4 -25 5 -20 6 4 11 13 11 21 0 8 4 16 9
19 4 3 6 -6 3 -19 -2 -14 -9 -25 -14 -25 -5 0 -6 -6 -2 -12 5 -9 2 -9 -9 1
-17 14 -23 42 -10 54 12 12 13 7 7 -19z m1389 6 c-3 -12 -8 -19 -11 -16 -5 6
5 36 12 36 2 0 2 -9 -1 -20z m105 -4 c-8 -6 -17 -15 -19 -21 -6 -16 -42 -12
-46 5 -3 9 -1 11 4 5 11 -14 47 -19 38 -6 -3 6 1 14 9 17 9 3 13 11 9 17 -4 6
-1 7 7 2 10 -6 10 -10 -2 -19z m155 -7 c-8 -8 -13 -7 -18 2 -6 8 -4 10 5 4 10
-6 12 -4 6 11 -6 15 -5 17 5 7 9 -10 10 -16 2 -24z m47 -3 c-7 -7 -15 -5 -22
3 -11 10 -10 11 5 5 14 -5 16 -2 11 12 -5 16 -4 16 5 4 6 -9 7 -18 1 -24z m86
-1 c2 -33 -2 -32 -14 4 -8 22 -8 29 1 25 7 -2 13 -15 13 -29z m367 20 c-3 -9
-8 -14 -10 -11 -3 3 -2 9 2 15 9 16 15 13 8 -4z m150 -15 c3 -11 2 -18 -3 -15
-4 3 -10 14 -13 25 -3 11 -2 18 3 15 4 -3 10 -14 13 -25z m40 17 c3 -8 2 -20
-3 -26 -5 -9 -7 -4 -7 13 0 29 2 32 10 13z m76 -1 c9 -10 8 -15 -3 -19 -9 -4
-18 -1 -22 5 -5 7 -2 8 6 3 10 -6 12 -4 7 8 -8 21 -3 22 12 3z m981 -18 c0 -5
-7 -3 -15 6 -8 8 -15 18 -15 22 0 3 7 1 15 -6 8 -7 15 -17 15 -22z m18 7 c-3
-3 -9 2 -12 12 -6 14 -5 15 5 6 7 -7 10 -15 7 -18z m106 16 c4 -5 -3 -7 -14
-4 -23 6 -26 13 -6 13 8 0 17 -4 20 -9z m-3708 -26 c-6 -18 -26 -11 -26 8 0 7
4 6 10 -3 8 -13 10 -12 10 4 0 11 3 17 6 13 4 -3 4 -13 0 -22z m1415 -2 c-6
-11 -11 -13 -11 -5 0 7 -5 10 -12 6 -7 -4 -8 -3 -4 5 4 6 12 9 17 6 5 -4 9 -1
9 6 0 7 3 10 6 6 3 -3 1 -14 -5 -24z m93 14 c-3 -8 -12 -14 -21 -14 -13 0 -13
2 3 14 10 7 19 13 21 13 1 0 0 -6 -3 -13z m537 -2 c5 4 6 -2 2 -11 -4 -11 -3
-15 5 -10 12 7 38 -32 28 -42 -3 -3 -6 0 -6 7 0 7 -4 9 -10 6 -6 -4 -7 1 -3
11 4 11 3 15 -5 10 -10 -6 -33 23 -31 41 0 4 3 2 6 -5 2 -6 9 -10 14 -7z m762
0 c-3 -9 -8 -14 -10 -11 -3 3 -2 9 2 15 9 16 15 13 8 -4z m-2567 -4 c-3 -5 1
-11 9 -15 8 -3 15 0 15 6 0 6 3 9 6 5 14 -14 -7 -27 -27 -17 -17 9 -19 30 -3
30 3 0 3 -4 0 -9z m914 5 c0 -2 -7 -7 -16 -10 -8 -3 -12 -2 -9 4 6 10 25 14
25 6z m305 -24 c6 2 11 -8 12 -22 2 -24 2 -24 -5 -2 -4 13 -11 23 -17 22 -5
-1 -11 7 -12 17 -3 17 -2 17 5 0 4 -10 12 -17 17 -15z m127 -4 c-8 -8 -9 -4
-5 13 4 13 8 18 11 10 2 -7 -1 -18 -6 -23z m120 0 c-6 -6 -12 -6 -17 3 -5 8
-4 10 3 5 7 -4 12 0 13 11 0 12 2 13 6 5 3 -8 1 -18 -5 -24z m62 20 c-3 -5
-10 -5 -16 -2 -8 5 -9 1 -4 -12 5 -14 4 -16 -5 -7 -14 14 -6 30 15 30 8 0 13
-4 10 -9z m323 -10 c2 -17 0 -19 -7 -8 -5 8 -6 18 -4 22 8 12 10 10 11 -14z
m41 -3 c-3 -3 -9 2 -12 12 -6 14 -5 15 5 6 7 -7 10 -15 7 -18z m29 3 c-3 -8
-6 -5 -6 6 -1 11 2 17 5 13 3 -3 4 -12 1 -19z m90 8 c0 -8 -6 -12 -15 -8 -11
4 -13 1 -7 -8 6 -9 4 -11 -5 -5 -10 6 -9 11 5 22 23 16 22 16 22 -1z m439 5
c-3 -5 1 -11 9 -15 12 -4 13 -10 3 -31 -7 -16 -14 -21 -19 -14 -4 8 -10 5 -18
-7 -6 -11 -11 -14 -11 -8 0 14 25 36 32 28 3 -2 8 2 11 10 3 8 -1 17 -9 20
-16 6 -19 26 -3 26 5 0 8 -4 5 -9z m68 -3 c-3 -4 -9 -8 -15 -8 -5 0 -9 4 -9 8
0 5 7 9 15 9 8 0 12 -4 9 -9z m196 1 c0 -7 9 -9 21 -6 15 4 19 3 11 -5 -11
-11 -52 -2 -52 13 0 5 5 9 10 9 6 0 10 -5 10 -11z m83 5 c8 -8 -3 -34 -15 -34
-6 0 -4 8 3 17 12 15 12 16 -4 10 -11 -4 -16 -3 -12 3 7 11 19 13 28 4z m37
-6 c0 -9 4 -8 10 2 5 8 10 10 10 4 0 -16 -10 -23 -26 -17 -16 6 -19 23 -4 23
6 0 10 -6 10 -12z m-1963 -5 c-4 -3 -3 -11 3 -17 5 -7 5 -17 0 -26 -9 -13 -10
-13 -11 0 -1 8 -1 18 0 23 0 4 -3 7 -9 7 -5 0 -10 -5 -10 -12 0 -6 -3 -8 -7
-4 -5 4 1 14 11 22 20 14 35 19 23 7z m49 -8 c-11 -8 -16 -15 -12 -15 4 0 -1
-13 -10 -29 -16 -27 -54 -40 -54 -18 0 5 6 7 14 4 16 -6 36 13 40 38 1 9 9 21
17 26 22 14 26 10 5 -6z m389 -6 c-8 -12 -35 -12 -35 1 0 5 7 6 17 3 12 -5 14
-3 8 7 -5 9 -4 11 4 6 6 -4 9 -12 6 -17z m239 10 c-4 -7 -1 -10 7 -7 8 3 25 0
39 -7 14 -7 33 -11 43 -10 23 4 22 -7 -4 -23 -16 -10 -24 -10 -35 -1 -7 6 -11
15 -8 20 3 5 -1 10 -8 10 -7 1 -17 2 -23 4 -5 1 -14 3 -18 3 -8 2 0 22 9 22 3
0 2 -5 -2 -11z m120 -1 c-5 -8 0 -9 16 -5 16 4 23 1 27 -14 3 -10 9 -16 14
-13 5 3 6 -3 2 -13 -6 -16 -5 -16 10 -4 10 7 17 9 17 3 0 -6 -6 -13 -12 -16
-10 -5 -10 -7 0 -12 6 -3 12 -10 12 -16 0 -6 -7 -4 -17 3 -15 12 -16 12 -10
-4 4 -11 3 -16 -4 -12 -6 4 -8 13 -5 21 6 16 -18 77 -27 68 -10 -10 -39 5 -32
16 3 5 8 10 11 10 3 0 2 -5 -2 -12z m-1754 -19 c0 -6 -4 -7 -10 -4 -5 3 -10
11 -10 16 0 6 5 7 10 4 6 -3 10 -11 10 -16z m131 -6 c-12 -20 -14 -14 -5 12 4
9 9 14 11 11 3 -2 0 -13 -6 -23z m930 18 c-8 -5 -11 -18 -7 -32 5 -20 4 -19
-7 3 -11 23 -15 26 -27 15 -12 -10 -12 -9 -3 3 7 9 22 16 35 17 16 2 19 0 9
-6z m74 -5 c-13 -9 -15 -15 -7 -20 7 -4 12 -12 12 -18 0 -5 -9 0 -19 13 -22
28 -21 34 9 36 21 2 21 1 5 -11z m85 4 c0 -5 -4 -10 -10 -10 -5 0 -8 -6 -6
-12 1 -7 1 -10 -1 -5 -3 4 -9 5 -13 2 -5 -3 -12 0 -16 6 -4 8 -3 9 5 5 6 -4
14 0 17 8 7 18 24 22 24 6z m840 -25 c0 -5 -5 -3 -10 5 -5 8 -10 20 -10 25 0
6 5 3 10 -5 5 -8 10 -19 10 -25z m360 25 c0 -5 -5 -10 -12 -10 -6 0 -8 -3 -5
-7 9 -8 -12 -33 -27 -33 -6 0 -4 6 5 13 16 12 19 18 19 37 0 6 5 10 10 10 6 0
10 -4 10 -10z m95 -2 c5 4 0 -5 -11 -20 -10 -14 -21 -24 -23 -22 -2 2 1 10 7
17 9 10 8 17 -1 27 -10 12 -9 12 4 2 9 -6 20 -8 24 -4z m261 1 c3 -6 1 -16 -5
-22 -9 -9 -14 -8 -21 3 -9 15 -4 30 10 30 5 0 12 -5 16 -11z m-1871 -20 c-4
-5 -1 -9 4 -9 6 0 11 -5 11 -11 0 -8 -5 -7 -16 2 -9 7 -30 12 -47 11 -17 -2
-28 0 -25 3 3 4 20 7 37 7 17 1 28 5 24 11 -3 6 -1 7 6 3 6 -4 9 -12 6 -17z
m465 -9 c5 0 24 -9 42 -21 18 -12 24 -18 13 -14 -11 4 -26 8 -32 8 -7 0 -11 3
-8 5 3 3 -5 10 -17 16 -12 6 -23 18 -25 26 -3 10 -1 9 7 -2 6 -10 15 -18 20
-18z m1294 14 c3 -8 2 -12 -4 -9 -6 3 -10 10 -10 16 0 14 7 11 14 -7z m-2569
-4 c13 -6 15 -9 5 -9 -8 0 -22 4 -30 9 -18 12 -2 12 25 0z m1003 -6 c12 -8 22
-21 22 -27 0 -9 -2 -9 -8 0 -11 17 -36 -1 -29 -22 4 -9 3 -14 -3 -10 -16 10
-12 33 8 44 16 10 16 10 0 11 -9 0 -20 5 -23 10 -9 15 8 12 33 -6z m70 -1 c17
-17 17 -19 -3 -36 l-20 -18 21 6 c21 6 53 -19 40 -32 -3 -3 -6 -1 -6 7 0 10
-4 10 -17 -1 -17 -13 -17 -13 -3 5 14 17 13 18 -6 12 -14 -4 -26 -1 -35 11 -7
10 -10 15 -5 11 4 -4 14 -1 21 5 11 10 10 15 -2 30 -9 9 -13 17 -10 17 4 0 15
-8 25 -17z m124 -2 c10 -13 10 -14 -2 -3 -20 17 -35 15 -20 -3 18 -21 4 -19
-19 4 -18 18 -18 19 5 19 13 0 29 -8 36 -17z m145 11 c9 7 17 8 24 1 7 -7 5
-14 -5 -22 -11 -10 -19 -9 -35 1 -12 7 -21 17 -21 22 0 6 5 5 12 -2 9 -9 15
-9 25 0z m105 -10 c-7 -2 -9 -8 -6 -14 3 -5 -3 -4 -15 3 -22 15 -9 31 18 21
10 -4 11 -7 3 -10z m96 4 c-2 -1 -12 -8 -22 -16 -13 -10 -17 -10 -12 -2 4 7 2
12 -6 12 -10 0 -10 2 1 9 8 5 20 7 28 4 8 -3 13 -6 11 -7z m237 5 c-3 -5 4
-13 16 -16 11 -4 18 -9 16 -12 -8 -7 -47 16 -47 27 0 6 5 10 11 10 5 0 8 -4 4
-9z m125 -1 c0 -5 -4 -10 -10 -10 -5 0 -10 5 -10 10 0 6 5 10 10 10 6 0 10 -4
10 -10z m35 0 c3 -6 -1 -7 -9 -4 -18 7 -21 14 -7 14 6 0 13 -4 16 -10z m437
-2 c-7 -7 -16 -7 -28 0 -14 8 -13 10 10 10 18 0 24 -4 18 -10z m-979 -39 c-4
-4 -15 -4 -23 2 -12 9 -12 10 3 5 15 -5 17 -2 12 17 -5 20 -5 20 6 4 6 -11 7
-23 2 -28z m158 14 c-12 -20 -14 -14 -5 12 4 9 9 14 11 11 3 -2 0 -13 -6 -23z
m-1456 7 c3 -6 -1 -7 -9 -4 -18 7 -21 14 -7 14 6 0 13 -4 16 -10z m845 -18 c0
-15 -2 -15 -10 -2 -13 20 -13 33 0 25 6 -3 10 -14 10 -23z m205 18 c3 -5 2
-10 -4 -10 -5 0 -13 5 -16 10 -3 6 -2 10 4 10 5 0 13 -4 16 -10z m87 -12 c-15
-15 -16 -32 -2 -23 6 3 10 1 10 -4 0 -17 -14 -13 -34 11 -16 18 -16 20 -2 15
10 -4 19 -1 23 9 3 8 8 12 11 9 3 -3 0 -11 -6 -17z m258 1 c12 -22 -4 -54 -21
-43 -5 3 -9 0 -9 -7 0 -7 -3 -9 -6 -6 -4 4 -2 13 5 21 9 11 9 15 0 18 -14 5
-5 38 10 38 6 0 15 -9 21 -21z m180 11 c-20 -13 -33 -13 -25 0 3 6 14 10 23
10 15 0 15 -2 2 -10z m200 0 c8 -5 12 -11 9 -14 -3 -3 -14 1 -25 9 -21 16 -8
20 16 5z m43 -7 c-7 -3 -13 -11 -13 -19 0 -8 -5 -14 -11 -14 -5 0 -7 6 -3 13
15 26 27 37 33 31 3 -4 0 -9 -6 -11z m441 2 c11 -8 15 -15 10 -15 -6 0 -19 7
-30 15 -10 8 -14 14 -9 14 6 0 19 -6 29 -14z m-1620 -11 c3 -8 2 -12 -4 -9 -6
3 -10 1 -10 -6 0 -7 -2 -10 -5 -7 -5 5 4 38 10 38 2 0 6 -7 9 -16z m57 1 c5 4
6 -2 2 -11 -4 -12 -8 -14 -11 -5 -3 9 -10 7 -25 -6 l-21 -18 20 27 c10 14 21
22 22 17 2 -5 8 -7 13 -4z m966 -17 c-3 -7 -5 -2 -5 12 0 14 2 19 5 13 2 -7 2
-19 0 -25z m-1057 -11 c0 -5 -4 -5 -10 -2 -5 3 -10 14 -10 23 0 15 2 15 10 2
5 -8 10 -19 10 -23z m215 22 c11 -16 1 -19 -13 -3 -7 8 -8 14 -3 14 5 0 13 -5
16 -11z m205 1 c0 -5 -4 -10 -10 -10 -5 0 -10 5 -10 10 0 6 5 10 10 10 6 0 10
-4 10 -10z m150 0 c0 -5 -4 -10 -10 -10 -5 0 -10 5 -10 10 0 6 5 10 10 10 6 0
10 -4 10 -10z m146 -16 c-4 -9 -9 -15 -11 -12 -3 3 -3 13 1 22 4 9 9 15 11 12
3 -3 3 -13 -1 -22z m109 16 c-3 -5 -1 -10 4 -10 6 0 11 -5 11 -11 0 -8 -5 -8
-15 1 -13 11 -12 30 1 30 3 0 2 -4 -1 -10z m49 -2 c-5 -7 -1 -9 12 -6 10 3 26
7 34 9 9 3 15 -4 16 -18 1 -13 -3 -23 -8 -23 -5 0 -6 9 -3 21 6 19 5 20 -15 9
-12 -6 -28 -9 -36 -6 -16 6 -19 26 -3 26 5 0 7 -5 3 -12z m116 3 c0 -6 -5 -13
-11 -17 -8 -4 -7 -9 2 -15 8 -5 10 -9 4 -9 -5 0 -16 4 -23 9 -11 7 -10 9 3 15
9 3 13 10 10 16 -3 5 -1 10 4 10 6 0 11 -4 11 -9z m-1043 -16 c0 -8 -4 -12 -9
-9 -5 3 -6 10 -3 15 9 13 12 11 12 -6z m165 -7 c-7 -7 -12 -8 -12 -2 0 14 12
26 19 19 2 -3 -1 -11 -7 -17z m338 2 c-24 -15 -37 -11 -16 5 11 8 22 12 25 9
3 -3 -1 -9 -9 -14z m-194 1 c-4 -5 0 -11 6 -14 7 -2 1 -4 -15 -4 -25 0 -26 1
-10 13 21 16 26 17 19 5z m344 5 c0 -3 -15 -12 -32 -20 l-33 -16 24 20 c21 19
41 26 41 16z m10 -26 c-24 -15 -36 -11 -14 4 10 8 21 12 24 10 2 -3 -2 -9 -10
-14z"/>
<path d="M3079 3167 c7 -7 14 -8 21 -1 6 6 2 10 -12 11 -16 2 -18 -1 -9 -10z"/>
<path d="M4145 3190 c3 -5 8 -10 11 -10 2 0 4 5 4 10 0 6 -5 10 -11 10 -5 0
-7 -4 -4 -10z"/>
<path d="M2825 3170 c-3 -5 -2 -10 4 -10 5 0 13 5 16 10 3 6 2 10 -4 10 -5 0
-13 -4 -16 -10z"/>
<path d="M2950 3151 c0 -6 5 -13 10 -16 6 -4 7 -12 4 -18 -5 -9 -4 -9 5 -1 6
6 9 18 5 27 -7 18 -24 23 -24 8z"/>
<path d="M6260 3489 c0 -5 5 -7 10 -4 6 3 10 8 10 11 0 2 -4 4 -10 4 -5 0 -10
-5 -10 -11z"/>
</g>
</svg>
