<?xml version="1.0" encoding="utf-8"?>
<!-- Generator: Adobe Illustrator 22.0.1, SVG Export Plug-In . SVG Version: 6.00 Build 0)  -->
<svg version="1.1" id="Layer_1" xmlns="http://www.w3.org/2000/svg" xmlns:xlink="http://www.w3.org/1999/xlink" x="0px" y="0px"
	 viewBox="0 0 184.4 66" style="enable-background:new 0 0 184.4 66;" xml:space="preserve">
<style type="text/css">
	.st0{fill:url(#SVGID_1_);}
	.st1{fill:#4A5853;}
	.st2{fill:#FFFFFF;}
	.st3{fill:url(#SVGID_2_);}
	.st4{fill:url(#SVGID_3_);}
	.st5{fill:#B5963E;}
	.st6{fill:#E0DFC2;fill-opacity:0.61;}
	.st7{display:none;fill:none;stroke:#000000;stroke-width:0.25;stroke-miterlimit:10;}
	.st8{fill:url(#Body_2_);}
	.st9{fill:url(#SVGID_4_);}
	.st10{fill:url(#SVGID_5_);}
	.st11{fill:url(#SVGID_6_);}
	.st12{fill:url(#SVGID_7_);}
	.st13{fill:url(#SVGID_8_);}
	.st14{opacity:0.66;}
	.st15{opacity:0.6;}
	.st16{fill:#E0D38E;}
	.st17{fill:#EA8D2F;}
	.st18{fill:url(#SVGID_9_);}
	.st19{fill:url(#SVGID_10_);}
	.st20{fill:url(#SVGID_11_);}
	.st21{fill:url(#SVGID_12_);}
	.st22{opacity:0.58;}
	.st23{fill:#BE9A44;fill-opacity:0.61;stroke:#000000;stroke-width:0.25;stroke-miterlimit:10;}
	.st24{fill:#FFFFFF;stroke:#000000;stroke-width:0.1;stroke-miterlimit:10;}
	.st25{stroke:#000000;stroke-width:0.25;stroke-miterlimit:10;}
	.st26{opacity:0.7;}
	.st27{opacity:0.73;}
	.st28{opacity:0.83;}
	.st29{opacity:0.68;}
	.st30{fill:url(#SVGID_13_);}
	.st31{fill:url(#SVGID_14_);}
	.st32{fill:url(#SVGID_15_);}
	.st33{fill:#C25530;}
	.st34{fill:url(#SVGID_16_);}
	.st35{fill:url(#SVGID_17_);}
	.st36{fill:url(#SVGID_18_);}
</style>
<g>
	
		<radialGradient id="SVGID_1_" cx="48.7177" cy="-47.7845" r="15.0311" gradientTransform="matrix(0.2924 0 0 0.3169 -8.2528 49.2466)" gradientUnits="userSpaceOnUse">
		<stop  offset="0" style="stop-color:#E2C45B"/>
		<stop  offset="6.420273e-02" style="stop-color:#E2C45B"/>
		<stop  offset="1" style="stop-color:#FFFFFF;stop-opacity:0"/>
	</radialGradient>
	<path class="st0" d="M11.5,33.5c0-1.1-1.6-1.9-2.4-2.2c-1-0.4-1.8-0.3-2.4-0.2c-0.8,0.1-1.4,0.2-1.9,0.4c0,0-2.2,0.5-3.2,1.4
		c-0.2,0.2-0.4,0.4-0.4,0.4c0,0-0.2,0.2-0.3,0.4c-0.3,0.4-0.5,1.3-0.4,1.7c0.1,1.2,3,2.4,5.6,1.9c0.2,0,1.9-0.4,4-2
		C11,34.4,11.5,34,11.5,33.5z"/>
</g>
<g id="Bottom_Back_Fin_4_">
	<path class="st1" d="M96.1,0.2c3.7,1.2,5.3,6.6,5,6.8c-0.1,0.1-0.7-1.2-1.9-2.2c-4.4-3.3-12,1.2-12.5,0.3
		C86.3,4.3,91.7-1.2,96.1,0.2z"/>
</g>
<g id="Bottom_Back_Fin_3_">
	<path class="st2" d="M96.6,0.4c2.5,0.6,5,3,4.7,3.6c-0.1,0.3-0.9,0.2-1.2,0.2c-5.3-0.5-13.3,3-13.8,1.7C85.7,4.8,91.5-0.9,96.6,0.4
		z"/>
</g>
<g>
	<path class="st1" d="M151.4,33.5c-1.3,5.8,8.3,13.5,16.9,16.2c2,0.6,10.3,3.2,13.6-0.6c2-2.3,1.5-6,1.4-7c-0.5-4.6-3.3-5.1-3.3-8.8
		c0-3.2,2.2-3.5,3.3-8.1c0.3-1.1,1.6-7.3-1.1-9.3c-2.6-2-7.8,0.8-12.5,3.4c-0.7,0.4-2.6,1.4-8.2,5.6C155,29.6,151.8,32,151.4,33.5z"
		/>
</g>
<g id="Top_Back_Fin_1_">
	<path class="st1" d="M137.5,24.1c2.1,0.9,3.1,1.3,5.3,2c1.3,0.4,2.2-0.8,2-2.7c0-0.1,0-0.1,0-0.2c-0.2-1.8-1.3-3.1-2.4-3
		c-1.9,0.3-2.8,0.4-4.8,0.4c-1.2,0-2.2,0.5-2.3,1.1c0,0,0,0,0,0.1C135.3,22.5,136.3,23.6,137.5,24.1z"/>
</g>
<g id="Top_Fin_1_">
	<path class="st1" d="M108.3,9.2c-4.2-3.5-6.6-5.1-11.8-7.9c-2.8-1.5-8.3,1.3-12.1,6c-0.5,0.7-0.8,1-1.3,1.6
		c-3.8,4.7-3.8,8.4-0.1,8.4c6.8-0.1,10.2,0.1,16.5,0.8c3.4,0.4,7.5-0.4,9.2-2c0.2-0.2,0.3-0.3,0.6-0.5
		C110.9,14,110.5,11.1,108.3,9.2z"/>
</g>
<g id="Bottom_Back_Fin_1_">
	<path class="st1" d="M141.6,48.2c-1,3.8,1.3,8-3.3,9.8c-2.3,0.9-6.2-0.8-9.1-3.5c-0.6-0.6-0.9-0.9-1.5-1.5
		c-2.8-2.7-4.2-5.3-3.2-6.4c1.2-1.4,4.1-2.5,4.7-2.8c1.3-0.6,5.2-2.4,7.8-2.4c3.3,0,6.1,0.2,6.3,0.3
		C144.4,42.1,142.1,46.3,141.6,48.2z"/>
</g>
<g id="Bottom_Back_Fin">
	<linearGradient id="SVGID_2_" gradientUnits="userSpaceOnUse" x1="135.0461" y1="40.0007" x2="132.3182" y2="57.224">
		<stop  offset="3.585737e-03" style="stop-color:#ECDA00"/>
		<stop  offset="0.5833" style="stop-color:#EA8C2D"/>
	</linearGradient>
	<path class="st3" d="M142,47.9c-1,3.8,1.3,8-3.3,9.8c-2.3,0.9-6.2-0.8-9.1-3.5c-0.6-0.6-0.9-0.9-1.5-1.5c-2.8-2.7-4.2-5.3-3.2-6.4
		c1.2-1.4,4.1-2.5,4.7-2.8c1.3-0.6,5.2-2.4,7.8-2.4c3.3,0,6.1,0.2,6.3,0.3C144.8,41.7,142.4,46,142,47.9z"/>
</g>
<g id="Top_Fin">
	<linearGradient id="SVGID_3_" gradientUnits="userSpaceOnUse" x1="94.2665" y1="20.382" x2="97.4524" y2="2.3141">
		<stop  offset="3.585737e-03" style="stop-color:#ECDA00"/>
		<stop  offset="0.5833" style="stop-color:#C08438"/>
	</linearGradient>
	<path class="st4" d="M108.3,10.2c-4.2-3.5-6.6-5.1-11.8-7.9c-2.8-1.5-8.3,1.3-12.1,6c-0.5,0.7-0.8,1-1.3,1.6
		c-3.8,4.7-3.8,8.4-0.1,8.4c6.8-0.1,10.2,0.1,16.5,0.8c3.4,0.4,7.5-0.4,9.2-2c0.2-0.2,0.3-0.3,0.6-0.5
		C110.9,15,110.5,12.1,108.3,10.2z"/>
</g>
<g id="Top_Back_Fin">
	<path class="st5" d="M137.5,24.5c2.1,0.9,3.1,1.3,5.3,2c1.3,0.4,2.2-0.8,2-2.7c0-0.1,0-0.1,0-0.2c-0.2-1.8-1.3-3.1-2.4-3
		c-1.9,0.3-2.8,0.4-4.8,0.4c-1.2,0-2.2,0.5-2.3,1.1c0,0,0,0,0,0.1C135.3,22.9,136.3,23.9,137.5,24.5z"/>
</g>
<path id="Body" class="st6" d="M181.9,15.1c-3-4.3-19.9,8.3-22,9.2c-2.6,1.2-4.8,2-5.8,2.7c-0.8,0-1.7,0-3-0.2
	c-1.6-0.3-3.6-0.7-5.3-1c-2.7-0.5-7.8-2.9-10.5-3.3c-2.7-0.4-5.3-0.3-8.1-0.7c-15.5-2.2-30.6-3.6-38.3-3.7
	c-8.6-0.2-38.8,0.6-61.6,4.7C11.7,25.4-0.4,29.7,0.1,36.2c0.1,1.1,6.1,3,7.2,3.7c0.5,0.3-3.3-0.4-6.8-0.7c-1.1-0.1,0.7,1.5,0.9,1.6
	c4.9,2.6,17.2,6.4,25.9,7.7c11,1.6,23.7,2.4,35,2.8c11.7,0.4,21.8-1,26.7-1.2c2.5-0.1,8.7-0.7,13.8-0.8c6.1-0.1,13.7-1,19.2-2
	c5.1-0.9,6.5-3.3,10-4.7c0.1,0,2-0.6,3.8-0.9c6.9-1.2,13.8,0.4,16.9,1.3c13.7,3.8,17.8,9.4,25.1,7.3c2.5-0.7,3.5-1.8,3.8-2.2
	c3.1-3.5,1.7-9.9-0.8-14.6C179.8,31.7,187.5,23.1,181.9,15.1z"/>
<path id="Jawline" class="st7" d="M27.6,22.8c2.5,0.7,15.9,9.1,16.3,11.5c0.8,4.4-5.9,10.3-16.3,14.4"/>
<linearGradient id="Body_2_" gradientUnits="userSpaceOnUse" x1="91.953" y1="13.6752" x2="91.953" y2="36.6024">
	<stop  offset="0" style="stop-color:#6E8068"/>
	<stop  offset="0.1321" style="stop-color:#6E8068"/>
	<stop  offset="1" style="stop-color:#FFFFFF;stop-opacity:0"/>
</linearGradient>
<path id="Body_1_" class="st8" d="M181.8,14.6c-3-4.3-19.9,8.3-22,9.2c-2.6,1.2-4.8,2-5.8,2.7c-0.8,0-1.7,0-3-0.2
	c-1.6-0.3-3.6-0.7-5.3-1c-2.7-0.5-7.8-2.9-10.5-3.3c-2.7-0.4-5.3-0.3-8.1-0.7c-15.5-2.2-30.6-3.6-38.3-3.7
	c-8.6-0.2-38.8,0.6-61.6,4.7C11.7,24.9-0.4,29.2,0,35.7c0.1,1.1,183.2,2.2,180.8-2.6C179.8,31.2,187.4,22.6,181.8,14.6z"/>
<g>
	<path class="st1" d="M16.7,44.3c0.2-0.1,0.3-0.1,0.4-0.2c0.5-0.9-3.5-4.1-7.2-5.9c-4.4-2.2-9-2.7-9.2-2.2c-0.2,0.4,2.7,1.9,8.1,4.5
		c0.8,0.4,1,0.5,1.7,0.8c1.1,0.5,1.9,0.9,2.5,1.2C15.2,43.6,15.9,44.6,16.7,44.3z"/>
</g>
<g id="Bottom_Fin_2_">
	<path class="st1" d="M91.4,54.2c0.5,1.8,1.2,2.4,2.7,5c0.9,1.5,1.8,3,3.1,5c1.6,2.4,4.8,2.5,7,0.2c0.1-0.1,0.1-0.1,0.2-0.2
		c2.3-2.2,2.3-5.2,0.2-6.7c-1.7-1.2-3-2.2-4.2-3.2c-1.8-1.4-2.2-2.1-3.1-2.8c-0.1-0.1-0.5-0.3-1-0.6c-0.8-0.5-1.4-0.8-2.2-0.9
		c-0.5-0.1-0.9,0-1.6,0.1c-0.6,0.1-0.9,0.1-1,0.2C90.7,50.7,91,52.7,91.4,54.2z"/>
</g>
<g id="Bottom_Fin">
	<linearGradient id="SVGID_4_" gradientUnits="userSpaceOnUse" x1="99.5949" y1="50.6097" x2="97.2671" y2="65.3071">
		<stop  offset="3.585737e-03" style="stop-color:#ECDA00"/>
		<stop  offset="0.5833" style="stop-color:#EA8C2D"/>
	</linearGradient>
	<path class="st9" d="M91.5,54c0.5,1.8,1.2,2.4,2.7,5c0.9,1.5,1.8,3,3.1,5c1.6,2.4,4.8,2.5,7,0.2c0.1-0.1,0.1-0.1,0.2-0.2
		c2.3-2.2,2.3-5.2,0.2-6.7c-1.7-1.2-3-2.2-4.2-3.2c-1.8-1.4-2.2-2.1-3.1-2.8c-0.1-0.1-0.5-0.3-1-0.6c-0.8-0.5-1.4-0.8-2.2-0.9
		c-0.5-0.1-0.9,0-1.6,0.1c-0.6,0.1-0.9,0.1-1,0.2C90.9,50.5,91.1,52.5,91.5,54z"/>
</g>
<g>
	<linearGradient id="SVGID_5_" gradientUnits="userSpaceOnUse" x1="83.0381" y1="18.3013" x2="83.0381" y2="28.2392">
		<stop  offset="0" style="stop-color:#B5963E"/>
		<stop  offset="1" style="stop-color:#FFFFFF;stop-opacity:0"/>
	</linearGradient>
	<path class="st10" d="M149.9,28.2c0.2-1-30.4-9.8-66.9-9.9c-14.2,0-25.6,1.2-33.8,2c-16.2,1.7-33,5.1-32.9,5.9
		c0.1,1,28.9-5,67.5-4.5C123.7,22.1,149.7,29.1,149.9,28.2z"/>
</g>
<g>
	<linearGradient id="SVGID_6_" gradientUnits="userSpaceOnUse" x1="82.1002" y1="18.8833" x2="82.1002" y2="45.3068">
		<stop  offset="0" style="stop-color:#CB9831"/>
		<stop  offset="1" style="stop-color:#FFFFFF;stop-opacity:0"/>
	</linearGradient>
	<path class="st11" d="M148.9,32.8c0-6.8-37.8-13.9-66.9-13.9c-14.2,0-25.6,1.6-33.8,2.8c-19,2.8-32.8,4.8-32.9,8.3
		c-0.2,5.5,33.4,14.7,67.7,15.3C113.6,45.8,148.9,39.3,148.9,32.8z"/>
</g>
<g>
	<linearGradient id="SVGID_7_" gradientUnits="userSpaceOnUse" x1="90.5308" y1="49.1751" x2="90.5308" y2="23.9261">
		<stop  offset="0" style="stop-color:#FFFFFF;stop-opacity:0"/>
		<stop  offset="0.4023" style="stop-color:#E2C45B"/>
		<stop  offset="0.5847" style="stop-color:#E2C45B"/>
		<stop  offset="1" style="stop-color:#FFFFFF;stop-opacity:0"/>
	</linearGradient>
	<path class="st12" d="M148.9,35.9c0.1-5-32.9-9.5-55.2-11.1c-37.7-2.7-61.4,1.8-61.5,4.7c0,1.3,4.9,2,6.3,6.4
		c0.9,2.8-0.5,4.4-0.2,6c1.2,6.7,29.7,8.3,56,6.6c2-0.1,18.7-1.2,39.8-6.8C143.9,39.1,148.9,37.8,148.9,35.9z"/>
</g>
<g>
	<radialGradient id="SVGID_8_" cx="20.3599" cy="34.0187" r="15.0311" gradientUnits="userSpaceOnUse">
		<stop  offset="0" style="stop-color:#E2C45B"/>
		<stop  offset="0.3566" style="stop-color:#E2C45B"/>
		<stop  offset="1" style="stop-color:#FFFFFF;stop-opacity:0"/>
	</radialGradient>
	<path class="st13" d="M39.2,32c0-3.4-5.6-6.1-8.4-7c-3.3-1.1-6.3-1-8.1-0.8c-2.6,0.3-4.8,0.8-6.4,1.1c0,0-7.5,1.7-10.8,4.3
		C4.7,30.3,4.1,31,4.1,31s-0.6,0.6-1,1.3c-0.9,1.4-1.7,4-1.5,5.3c0.5,3.8,10.3,7.5,19,6.1c0.7-0.1,6.3-1.1,13.5-6.2
		C37.5,35,39.1,33.7,39.2,32z"/>
</g>
<g class="st14">
	<path class="st1" d="M58.2,43.4c-0.2-0.4-0.6-0.6-1-0.5c-0.4,0.2-0.5,0.7-0.3,1.1s0.6,0.6,1,0.4C58.2,44.2,58.4,43.8,58.2,43.4z"/>
</g>
<g class="st15">
	<path class="st16" d="M123.8,44.7c0-0.4-6.5,0.4-10.8,1c-7.3,1.1-10.5,3.3-10.4,3.4c0.3,0.5,5.9-0.4,10.9-1.4
		c0.4-0.1,3.6-0.8,7.6-2C122.9,45.2,123.8,44.9,123.8,44.7z"/>
</g>
<g class="st15">
	<path class="st16" d="M90.4,48.8c0-0.5-2.7-0.8-4.6-0.8c-3.1,0-4.4,2.1-4.3,2.2c0.2,0.7,2.5,0.7,4.6,0.3c0.2,0,1.5-0.3,3.2-1
		C90.1,49.2,90.5,49,90.4,48.8z"/>
</g>
<g>
	<path class="st17" d="M16.4,44.4c0.2-0.1,0.3-0.1,0.4-0.2c0.5-0.9-3.5-4.1-7.2-5.9c-4.4-2.2-9-2.7-9.2-2.2
		c-0.2,0.4,2.7,1.9,8.1,4.5c0.8,0.4,1,0.5,1.7,0.8c1.1,0.5,1.9,0.9,2.5,1.2C14.9,43.8,15.6,44.8,16.4,44.4z"/>
</g>
<g>
	<path class="st17" d="M8.8,41.4c-0.1,0.3-2.5,1.4-4.9,0.9c-2.3-0.6-4-2.4-3.8-2.9c0.2-0.6,3.2,0.3,4.5,0.8c0.5,0.2,0.8,0.3,1.4,0.5
		C7.9,41.2,8.9,41.1,8.8,41.4z"/>
</g>
<g>
	<linearGradient id="SVGID_9_" gradientUnits="userSpaceOnUse" x1="8.6055" y1="44.3985" x2="8.6055" y2="36.1422">
		<stop  offset="0" style="stop-color:#FFFFFF;stop-opacity:0"/>
		<stop  offset="0.4023" style="stop-color:#E2C45B"/>
		<stop  offset="0.5847" style="stop-color:#E2C45B"/>
		<stop  offset="1" style="stop-color:#FFFFFF;stop-opacity:0"/>
	</linearGradient>
	<path class="st18" d="M16.8,44.4c0.2-0.3-2.7-3.7-7.2-5.9c-4.4-2.1-9-2.7-9.2-2.2c-0.2,0.6,5.6,3.2,8.1,4.3
		c1.1,0.4,1.6,0.6,2.9,1.2C15.2,43.5,16.6,44.6,16.8,44.4z"/>
</g>
<g>
	
		<linearGradient id="SVGID_10_" gradientUnits="userSpaceOnUse" x1="4.3042" y1="56.5886" x2="4.3042" y2="48.3322" gradientTransform="matrix(0.3119 0.5039 0.4572 -0.7669 -20.888 78.465)">
		<stop  offset="0" style="stop-color:#FFFFFF;stop-opacity:0"/>
		<stop  offset="0.4023" style="stop-color:#E2C45B"/>
		<stop  offset="0.5847" style="stop-color:#E2C45B"/>
		<stop  offset="1" style="stop-color:#FFFFFF;stop-opacity:0"/>
	</linearGradient>
	<path class="st19" d="M8.9,41.4c-0.1,0.3-2.5,1.4-4.9,0.9c-2.3-0.6-4-2.4-3.9-2.9c0.2-0.6,3.2,0.3,4.5,0.8c0.5,0.2,0.8,0.3,1.5,0.5
		C8,41.2,8.9,41.2,8.9,41.4z"/>
</g>
<g>
	<linearGradient id="SVGID_11_" gradientUnits="userSpaceOnUse" x1="164.7345" y1="14.5323" x2="164.7345" y2="50.3559">
		<stop  offset="0" style="stop-color:#E2C45B"/>
		<stop  offset="0.3971" style="stop-color:#E0D38E;stop-opacity:0.5"/>
		<stop  offset="0.6151" style="stop-color:#E0D38E;stop-opacity:0.5"/>
		<stop  offset="1" style="stop-color:#E2C45B"/>
	</linearGradient>
	<path class="st20" d="M145.1,32.9c-0.1,0.7,0,1.2,0.3,2.1c1.1,3.6,4.3,5.3,14.5,10.2c6.9,3.3,7.5,3.5,8.4,3.8
		c3.2,0.9,10.5,3,13.6-0.6c2-2.3,1.5-6,1.4-7c-0.6-4.7-3.4-5.3-3.3-8.8c0.1-3.6,3.1-3.9,4.1-8.5c0.6-2.7,0.6-7.2-1.9-8.9
		c-2.8-1.9-7.4,0.6-12.5,3.4c-4.4,2.3-4.2,3.1-8.2,5.6C156.5,27.1,146,28.6,145.1,32.9z"/>
</g>
<g>
	<linearGradient id="SVGID_12_" gradientUnits="userSpaceOnUse" x1="39.0723" y1="19.8965" x2="40.9695" y2="28.4836">
		<stop  offset="0" style="stop-color:#6E8068"/>
		<stop  offset="0.185" style="stop-color:#6E8068"/>
		<stop  offset="0.4849" style="stop-color:#6E8068;stop-opacity:0.5"/>
		<stop  offset="0.8076" style="stop-color:#D9DBD4;stop-opacity:0.1924"/>
		<stop  offset="1" style="stop-color:#FFFFFF;stop-opacity:0"/>
	</linearGradient>
	<path class="st21" d="M80.4,19.2c-0.3-2.3-37.7,1.2-49.5,2.8c-2.7,0.4-5.6,1-11.4,2.2c-6.9,1.5-10.2,2.4-13.6,4.7
		c-1.1,0.7-5.6,3.7-5,5.1c0.8,2.2,13.5-0.8,24.2-3.2C65.3,21.8,80.5,20.7,80.4,19.2z"/>
</g>
<g id="Forearm_1_">
	<path class="st1" d="M37.3,43.7c3.6-0.9,8.2-1.6,15.5-0.8c5,0.5,5.4,1.1,5.4,1.3c0.4,1.5-3.8,4.4-8.1,5.4c-2.5,0.6-4.6,0.4-6.1,0.2
		c-5.1-0.6-10.7-2.9-10.5-4.5C33.7,45.1,33.8,44.6,37.3,43.7z"/>
</g>
<g class="st22">
	<path class="st1" d="M9.5,32.9c-0.1-2,1.8-3.7,4.2-3.8c2.4-0.1,4.3,1.6,4.2,3.8c-0.1,2.2-1.9,3.8-4.2,3.7
		C11.4,36.5,9.6,34.8,9.5,32.9z"/>
</g>
<g id="Forearm">
	<path class="st17" d="M37.3,44.1c3.6-0.9,8.2-1.6,15.5-0.8c5,0.5,5.4,1.1,5.4,1.3c0.4,1.5-3.8,4.4-8.1,5.4
		c-2.5,0.6-4.6,0.4-6.1,0.2c-5.1-0.6-10.7-2.9-10.5-4.5C33.7,45.5,33.9,45,37.3,44.1z"/>
</g>
<g id="Eye_1_">
	<circle id="Eye" class="st23" cx="13.7" cy="32.8" r="3.2"/>
	<g id="Iris_1_">
		<path d="M14.7,33c0,0.6-0.5,1.1-1.1,1.1c-0.6,0-1.1-0.5-1.1-1.1c0-0.7,0.5-1.2,1.1-1.1C14.2,31.9,14.7,32.4,14.7,33z"/>
	</g>
	<circle id="Pupil" class="st24" cx="14.2" cy="32.5" r="0.3"/>
	<g>
		<path class="st25" d="M38.4,28.8c-0.3-0.1-0.6-0.3-0.7-0.6c0-0.3,0.3-0.6,0.7-0.7c0.4-0.1,0.7,0.2,0.7,0.6
			C39,28.6,38.7,28.9,38.4,28.8z"/>
	</g>
	<g>
		<path class="st25" d="M65.5,28.8c-0.3-0.1-0.6-0.3-0.7-0.6c0-0.3,0.3-0.6,0.7-0.7c0.4-0.1,0.7,0.2,0.7,0.6
			C66.1,28.6,65.9,28.9,65.5,28.8z"/>
	</g>
	<g>
		<path class="st25" d="M70.1,26.9c-0.3-0.1-0.6-0.3-0.7-0.6c0-0.3,0.3-0.6,0.7-0.7c0.4-0.1,0.7,0.2,0.7,0.6
			C70.8,26.7,70.5,26.9,70.1,26.9z"/>
	</g>
	<g>
		<path class="st25" d="M62.1,26.9c-0.3-0.1-0.6-0.3-0.7-0.6c0-0.3,0.3-0.6,0.7-0.7c0.4-0.1,0.7,0.2,0.7,0.6
			C62.8,26.7,62.5,26.9,62.1,26.9z"/>
	</g>
	<g>
		<path class="st25" d="M59.1,28.9c-0.3-0.1-0.6-0.3-0.7-0.6c0-0.3,0.3-0.6,0.7-0.7c0.4-0.1,0.7,0.2,0.7,0.6
			C59.8,28.7,59.5,28.9,59.1,28.9z"/>
	</g>
	<g>
		<path class="st25" d="M51.1,26.9c-0.3-0.1-0.6-0.3-0.7-0.6c0-0.3,0.3-0.6,0.7-0.7c0.4-0.1,0.7,0.2,0.7,0.6
			C51.8,26.7,51.5,26.9,51.1,26.9z"/>
	</g>
	<g>
		<path class="st25" d="M47.1,25.9c-0.3-0.1-0.6-0.3-0.7-0.6c0-0.3,0.3-0.6,0.7-0.7c0.4-0.1,0.7,0.2,0.7,0.6
			C47.8,25.7,47.5,25.9,47.1,25.9z"/>
	</g>
	<g>
		<path class="st25" d="M54.1,23.9c-0.3-0.1-0.6-0.3-0.7-0.6c0-0.3,0.3-0.6,0.7-0.7c0.4-0.1,0.7,0.2,0.7,0.6
			C54.8,23.7,54.5,23.9,54.1,23.9z"/>
	</g>
	<g>
		<path class="st25" d="M60.1,22.9c-0.3-0.1-0.6-0.3-0.7-0.6c0-0.3,0.3-0.6,0.7-0.7c0.4-0.1,0.7,0.2,0.7,0.6
			C60.8,22.7,60.5,22.9,60.1,22.9z"/>
	</g>
	<g>
		<path class="st25" d="M81.1,19.9c-0.3-0.1-0.6-0.3-0.7-0.6c0-0.3,0.3-0.6,0.7-0.7c0.4-0.1,0.7,0.2,0.7,0.6
			C81.8,19.7,81.5,19.9,81.1,19.9z"/>
	</g>
	<g>
		<path class="st25" d="M83.5,16.7c-0.2-0.2-0.2-0.6,0-1c0.2-0.3,0.6-0.5,0.9-0.4s0.3,0.5,0,1C84.1,16.7,83.7,16.9,83.5,16.7z"/>
	</g>
	<g>
		<path class="st25" d="M82.9,13.7c-0.3,0.3-0.8,0.4-1.1,0.3c-0.3-0.2-0.3-0.7,0-1.1s0.7-0.6,1.1-0.3C83.3,12.8,83.2,13.3,82.9,13.7
			z"/>
	</g>
	<g>
		<path class="st25" d="M86.6,11.8c-0.3,0.4-0.3,0.9-0.1,1.1c0.2,0.2,0.7,0,1.1-0.4c0.4-0.4,0.4-0.9,0.1-1.1
			C87.4,11.2,86.9,11.3,86.6,11.8z"/>
	</g>
	<g>
		<path class="st25" d="M88.6,8.7c-0.3-0.2-0.3-0.8-0.1-1.1c0.2-0.4,0.7-0.6,1.1-0.5C90,7.2,90,7.7,89.7,8.2S88.9,8.9,88.6,8.7z"/>
	</g>
	<g>
		<path class="st25" d="M89.7,16.7c-0.3-0.2-0.3-0.7-0.1-1.1c0.2-0.3,0.6-0.5,1-0.4c0.4,0.1,0.4,0.6,0.1,1.1
			C90.4,16.8,89.9,16.9,89.7,16.7z"/>
	</g>
	<g>
		<path class="st25" d="M93.6,10.2c0.3,0.2,0.3,0.7,0.2,1.1c-0.2,0.4-0.6,0.6-1,0.4c-0.4-0.1-0.5-0.6-0.2-1.1
			C92.9,10.1,93.3,10,93.6,10.2z"/>
	</g>
	<g>
		<path class="st25" d="M95.6,6.8c0.2,0.2,0.3,0.7,0.1,1c-0.2,0.3-0.6,0.5-1,0.3c-0.4-0.2-0.4-0.6-0.1-1C94.9,6.6,95.3,6.5,95.6,6.8
			z"/>
	</g>
	<g>
		<path class="st25" d="M94.7,16.3c-0.3-0.2-0.3-0.7-0.1-1.1c0.2-0.4,0.7-0.5,1-0.4c0.4,0.1,0.4,0.6,0.1,1.1
			C95.4,16.4,94.9,16.5,94.7,16.3z"/>
	</g>
	<g>
		<path class="st25" d="M97.7,12.2c-0.2-0.3-0.3-0.7-0.1-1.1c0.2-0.3,0.7-0.5,1-0.3c0.4,0.2,0.4,0.6,0.1,1.1
			C98.4,12.3,97.9,12.4,97.7,12.2z"/>
	</g>
	<g>
		<path class="st25" d="M101.6,8.4c-0.2-0.3-0.2-0.8,0-1.1c0.2-0.4,0.7-0.5,1.1-0.3c0.4,0.2,0.3,0.7,0,1.1
			C102.3,8.5,101.8,8.6,101.6,8.4z"/>
	</g>
	<g>
		<path class="st25" d="M100.7,16.7c-0.2-0.3-0.3-0.7-0.1-1.1c0.2-0.3,0.7-0.4,1-0.3c0.4,0.2,0.4,0.6,0.1,1.1
			C101.3,16.8,100.9,16.9,100.7,16.7z"/>
	</g>
	<g>
		<path class="st25" d="M106.3,12.8c-0.4,0.2-0.9,0.2-1.1,0c-0.2-0.2-0.1-0.7,0.3-1c0.4-0.3,0.8-0.3,1.1,0
			C106.8,12.1,106.7,12.6,106.3,12.8z"/>
	</g>
	<g>
		<path class="st25" d="M75.1,22.9c-0.3-0.1-0.6-0.3-0.7-0.6c0-0.3,0.3-0.6,0.7-0.7c0.4-0.1,0.7,0.2,0.7,0.6
			C75.8,22.7,75.5,22.9,75.1,22.9z"/>
	</g>
	<g>
		<path class="st25" d="M77.1,20.9c-0.3-0.1-0.6-0.3-0.7-0.6c0-0.3,0.3-0.6,0.7-0.7c0.4-0.1,0.7,0.2,0.7,0.6
			C77.8,20.7,77.5,20.9,77.1,20.9z"/>
	</g>
	<g>
		<path class="st25" d="M34.1,26.9c-0.3-0.1-0.6-0.3-0.7-0.6c0-0.3,0.3-0.6,0.7-0.7c0.4-0.1,0.7,0.2,0.7,0.6
			C34.8,26.7,34.5,26.9,34.1,26.9z"/>
	</g>
	<g>
		<path class="st25" d="M32.1,30.9c-0.3-0.1-0.6-0.3-0.7-0.6c0-0.3,0.3-0.6,0.7-0.7c0.4-0.1,0.7,0.2,0.7,0.6
			C32.8,30.7,32.5,30.9,32.1,30.9z"/>
	</g>
	<g>
		<path class="st25" d="M29.1,28.9c-0.3-0.1-0.6-0.3-0.7-0.6c0-0.3,0.3-0.6,0.7-0.7c0.4-0.1,0.7,0.2,0.7,0.6
			C29.8,28.7,29.5,28.9,29.1,28.9z"/>
	</g>
	<g>
		<path class="st25" d="M26.1,26.9c-0.3-0.1-0.6-0.3-0.7-0.6c0-0.3,0.3-0.6,0.7-0.7c0.4-0.1,0.7,0.2,0.7,0.6
			C26.8,26.7,26.5,26.9,26.1,26.9z"/>
	</g>
	<g>
		<path class="st25" d="M23.1,29.9c-0.3-0.1-0.6-0.3-0.7-0.6c0-0.3,0.3-0.6,0.7-0.7c0.4-0.1,0.7,0.2,0.7,0.6
			C23.8,29.7,23.5,29.9,23.1,29.9z"/>
	</g>
	<g>
		<path class="st25" d="M20.1,27.9c-0.3-0.1-0.6-0.3-0.7-0.6c0-0.3,0.3-0.6,0.7-0.7c0.4-0.1,0.7,0.2,0.7,0.6
			C20.8,27.7,20.5,27.9,20.1,27.9z"/>
	</g>
	<g>
		<path class="st25" d="M18.1,28.9c-0.3-0.1-0.6-0.3-0.7-0.6c0-0.3,0.3-0.6,0.7-0.7c0.4-0.1,0.7,0.2,0.7,0.6
			C18.8,28.7,18.5,28.9,18.1,28.9z"/>
	</g>
	<g class="st26">
		<path class="st25" d="M11.6,34c-0.4-0.1-0.8-0.4-0.8-0.8c0-0.4,0.3-0.7,0.8-0.8c0.5-0.1,0.9,0.3,0.8,0.8C12.4,33.7,12,34,11.6,34z
			"/>
	</g>
	<g class="st27">
		<path class="st25" d="M15.8,34c-0.5-0.1-0.8-0.5-0.9-0.9c0-0.4,0.4-0.8,0.9-0.9c0.5-0.1,0.9,0.3,0.9,0.9
			C16.6,33.7,16.2,34.1,15.8,34z"/>
	</g>
	<g>
		<path class="st25" d="M7.1,31.9c-0.3-0.1-0.6-0.3-0.7-0.6c0-0.3,0.3-0.6,0.7-0.7c0.4-0.1,0.7,0.2,0.7,0.6
			C7.8,31.7,7.5,31.9,7.1,31.9z"/>
	</g>
	<g>
		<path class="st25" d="M155.1,42.9c-0.3-0.1-0.6-0.3-0.7-0.6c0-0.3,0.3-0.6,0.7-0.7c0.4-0.1,0.7,0.2,0.7,0.6
			C155.8,42.7,155.5,42.9,155.1,42.9z"/>
	</g>
	<g>
		<path class="st25" d="M159.1,44.9c-0.3-0.1-0.6-0.3-0.7-0.6c0-0.3,0.3-0.6,0.7-0.7c0.4-0.1,0.7,0.2,0.7,0.6
			C159.8,44.7,159.5,44.9,159.1,44.9z"/>
	</g>
	<g>
		<path class="st25" d="M165.1,46.9c-0.3-0.1-0.6-0.3-0.7-0.6c0-0.3,0.3-0.6,0.7-0.7c0.4-0.1,0.7,0.2,0.7,0.6
			C165.8,46.7,165.5,46.9,165.1,46.9z"/>
	</g>
	<g>
		<path class="st25" d="M169.1,46.9c-0.3-0.1-0.6-0.3-0.7-0.6c0-0.3,0.3-0.6,0.7-0.7c0.4-0.1,0.7,0.2,0.7,0.6
			C169.8,46.7,169.5,46.9,169.1,46.9z"/>
	</g>
	<g>
		<path class="st25" d="M83.1,27.9c-0.3-0.1-0.6-0.3-0.7-0.6c0-0.3,0.3-0.6,0.7-0.7c0.4-0.1,0.7,0.2,0.7,0.6
			C83.8,27.7,83.5,27.9,83.1,27.9z"/>
	</g>
	<g>
		<path class="st25" d="M82.1,24.9c-0.3-0.1-0.6-0.3-0.7-0.6c0-0.3,0.3-0.6,0.7-0.7c0.4-0.1,0.7,0.2,0.7,0.6
			C82.8,24.7,82.5,24.9,82.1,24.9z"/>
	</g>
	<g>
		<path class="st25" d="M79.1,23.9c-0.3-0.1-0.6-0.3-0.7-0.6c0-0.3,0.3-0.6,0.7-0.7c0.4-0.1,0.7,0.2,0.7,0.6
			C79.8,23.7,79.5,23.9,79.1,23.9z"/>
	</g>
	<g>
		<path class="st25" d="M87.1,22.9c-0.3-0.1-0.6-0.3-0.7-0.6c0-0.3,0.3-0.6,0.7-0.7c0.4-0.1,0.7,0.2,0.7,0.6
			C87.8,22.7,87.5,22.9,87.1,22.9z"/>
	</g>
	<g>
		<path class="st25" d="M89.1,26.9c-0.3-0.1-0.6-0.3-0.7-0.6c0-0.3,0.3-0.6,0.7-0.7c0.4-0.1,0.7,0.2,0.7,0.6
			C89.8,26.7,89.5,26.9,89.1,26.9z"/>
	</g>
	<g>
		<path class="st25" d="M101.1,26.9c-0.3-0.1-0.6-0.3-0.7-0.6c0-0.3,0.3-0.6,0.7-0.7c0.4-0.1,0.7,0.2,0.7,0.6
			C101.8,26.7,101.5,26.9,101.1,26.9z"/>
	</g>
	<g class="st28">
		<path class="st25" d="M100.1,23.9c-0.3-0.1-0.6-0.3-0.7-0.6c0-0.3,0.3-0.6,0.7-0.7c0.4-0.1,0.7,0.2,0.7,0.6
			C100.8,23.7,100.5,23.9,100.1,23.9z"/>
	</g>
	<g>
		<path class="st25" d="M104.1,24.9c-0.3-0.1-0.6-0.3-0.7-0.6c0-0.3,0.3-0.6,0.7-0.7c0.4-0.1,0.7,0.2,0.7,0.6
			C104.8,24.7,104.5,24.9,104.1,24.9z"/>
	</g>
	<g>
		<path class="st25" d="M107.1,26.9c-0.3-0.1-0.6-0.3-0.7-0.6c0-0.3,0.3-0.6,0.7-0.7c0.4-0.1,0.7,0.2,0.7,0.6
			C107.8,26.7,107.5,26.9,107.1,26.9z"/>
	</g>
	<g>
		<path class="st25" d="M112.1,26.9c-0.3-0.1-0.6-0.3-0.7-0.6c0-0.3,0.3-0.6,0.7-0.7c0.4-0.1,0.7,0.2,0.7,0.6
			C112.8,26.7,112.5,26.9,112.1,26.9z"/>
	</g>
	<g>
		<path class="st25" d="M115.1,25.9c-0.3-0.1-0.6-0.3-0.7-0.6c0-0.3,0.3-0.6,0.7-0.7c0.4-0.1,0.7,0.2,0.7,0.6
			C115.8,25.7,115.5,25.9,115.1,25.9z"/>
	</g>
	<g>
		<path class="st25" d="M111.1,23.9c-0.3-0.1-0.6-0.3-0.7-0.6c0-0.3,0.3-0.6,0.7-0.7c0.4-0.1,0.7,0.2,0.7,0.6
			C111.8,23.7,111.5,23.9,111.1,23.9z"/>
	</g>
	<g>
		<path class="st25" d="M126.1,25.9c-0.3-0.1-0.6-0.3-0.7-0.6c0-0.3,0.3-0.6,0.7-0.7c0.4-0.1,0.7,0.2,0.7,0.6
			C126.8,25.7,126.5,25.9,126.1,25.9z"/>
	</g>
	<g>
		<path class="st25" d="M128.1,27.9c-0.3-0.1-0.6-0.3-0.7-0.6c0-0.3,0.3-0.6,0.7-0.7c0.4-0.1,0.7,0.2,0.7,0.6
			C128.8,27.7,128.5,27.9,128.1,27.9z"/>
	</g>
	<g>
		<path class="st25" d="M131.1,26.9c-0.3-0.1-0.6-0.3-0.7-0.6c0-0.3,0.3-0.6,0.7-0.7c0.4-0.1,0.7,0.2,0.7,0.6
			C131.8,26.7,131.5,26.9,131.1,26.9z"/>
	</g>
	<g>
		<path class="st25" d="M129.1,24.9c-0.3-0.1-0.6-0.3-0.7-0.6c0-0.3,0.3-0.6,0.7-0.7c0.4-0.1,0.7,0.2,0.7,0.6
			C129.8,24.7,129.5,24.9,129.1,24.9z"/>
	</g>
	<g>
		<path class="st25" d="M124.1,23.9c-0.3-0.1-0.6-0.3-0.7-0.6c0-0.3,0.3-0.6,0.7-0.7c0.4-0.1,0.7,0.2,0.7,0.6
			C124.8,23.7,124.5,23.9,124.1,23.9z"/>
	</g>
	<g>
		<path class="st25" d="M138.1,29.9c-0.3-0.1-0.6-0.3-0.7-0.6c0-0.3,0.3-0.6,0.7-0.7c0.4-0.1,0.7,0.2,0.7,0.6
			C138.8,29.7,138.5,29.9,138.1,29.9z"/>
	</g>
	<g>
		<path class="st25" d="M137.1,26.9c-0.3-0.1-0.6-0.3-0.7-0.6c0-0.3,0.3-0.6,0.7-0.7c0.4-0.1,0.7,0.2,0.7,0.6
			C137.8,26.7,137.5,26.9,137.1,26.9z"/>
	</g>
	<g>
		<path class="st25" d="M141.1,27.9c-0.3-0.1-0.6-0.3-0.7-0.6c0-0.3,0.3-0.6,0.7-0.7c0.4-0.1,0.7,0.2,0.7,0.6
			C141.8,27.7,141.5,27.9,141.1,27.9z"/>
	</g>
	<g>
		<path class="st25" d="M149.1,27.9c-0.3-0.1-0.6-0.3-0.7-0.6c0-0.3,0.3-0.6,0.7-0.7c0.4-0.1,0.7,0.2,0.7,0.6
			C149.8,27.7,149.5,27.9,149.1,27.9z"/>
	</g>
	<g>
		<path class="st25" d="M147.1,30.9c-0.3-0.1-0.6-0.3-0.7-0.6c0-0.3,0.3-0.6,0.7-0.7c0.4-0.1,0.7,0.2,0.7,0.6
			C147.8,30.7,147.5,30.9,147.1,30.9z"/>
	</g>
	<g>
		<path class="st25" d="M156.1,29.9c-0.3-0.1-0.6-0.3-0.7-0.6c0-0.3,0.3-0.6,0.7-0.7c0.4-0.1,0.7,0.2,0.7,0.6
			C156.8,29.7,156.5,29.9,156.1,29.9z"/>
	</g>
	<g>
		<path class="st25" d="M160.1,28.9c-0.3-0.1-0.6-0.3-0.7-0.6c0-0.3,0.3-0.6,0.7-0.7c0.4-0.1,0.7,0.2,0.7,0.6
			C160.8,28.7,160.5,28.9,160.1,28.9z"/>
	</g>
	<g>
		<path class="st25" d="M164.1,26.9c-0.3-0.1-0.6-0.3-0.7-0.6c0-0.3,0.3-0.6,0.7-0.7c0.4-0.1,0.7,0.2,0.7,0.6
			C164.8,26.7,164.5,26.9,164.1,26.9z"/>
	</g>
	<g>
		<path class="st25" d="M170.1,23.9c-0.3-0.1-0.6-0.3-0.7-0.6c0-0.3,0.3-0.6,0.7-0.7c0.4-0.1,0.7,0.2,0.7,0.6
			C170.8,23.7,170.5,23.9,170.1,23.9z"/>
	</g>
	<g>
		<path class="st25" d="M159.1,32.9c-0.3-0.1-0.6-0.3-0.7-0.6c0-0.3,0.3-0.6,0.7-0.7c0.4-0.1,0.7,0.2,0.7,0.6
			C159.8,32.7,159.5,32.9,159.1,32.9z"/>
	</g>
	<g>
		<path class="st25" d="M164.1,30.9c-0.3-0.1-0.6-0.3-0.7-0.6c0-0.3,0.3-0.6,0.7-0.7c0.4-0.1,0.7,0.2,0.7,0.6
			C164.8,30.7,164.5,30.9,164.1,30.9z"/>
	</g>
	<g>
		<path class="st25" d="M169.1,28.9c-0.3-0.1-0.6-0.3-0.7-0.6c0-0.3,0.3-0.6,0.7-0.7c0.4-0.1,0.7,0.2,0.7,0.6
			C169.8,28.7,169.5,28.9,169.1,28.9z"/>
	</g>
	<g>
		<path class="st25" d="M167.1,32.9c-0.3-0.1-0.6-0.3-0.7-0.6c0-0.3,0.3-0.6,0.7-0.7c0.4-0.1,0.7,0.2,0.7,0.6
			C167.8,32.7,167.5,32.9,167.1,32.9z"/>
	</g>
	<g>
		<path class="st25" d="M173.1,32.9c-0.3-0.1-0.6-0.3-0.7-0.6c0-0.3,0.3-0.6,0.7-0.7c0.4-0.1,0.7,0.2,0.7,0.6
			C173.8,32.7,173.5,32.9,173.1,32.9z"/>
	</g>
	<g>
		<path class="st25" d="M164.1,35.9c-0.3-0.1-0.6-0.3-0.7-0.6c0-0.3,0.3-0.6,0.7-0.7c0.4-0.1,0.7,0.2,0.7,0.6
			C164.8,35.7,164.5,35.9,164.1,35.9z"/>
	</g>
	<g>
		<path class="st25" d="M170.1,37.9c-0.3-0.1-0.6-0.3-0.7-0.6c0-0.3,0.3-0.6,0.7-0.7c0.4-0.1,0.7,0.2,0.7,0.6
			C170.8,37.7,170.5,37.9,170.1,37.9z"/>
	</g>
	<g>
		<path class="st25" d="M156.1,37.9c-0.3-0.1-0.6-0.3-0.7-0.6c0-0.3,0.3-0.6,0.7-0.7c0.4-0.1,0.7,0.2,0.7,0.6
			C156.8,37.7,156.5,37.9,156.1,37.9z"/>
	</g>
	<g>
		<path class="st25" d="M160.1,39.9c-0.3-0.1-0.6-0.3-0.7-0.6c0-0.3,0.3-0.6,0.7-0.7c0.4-0.1,0.7,0.2,0.7,0.6
			C160.8,39.7,160.5,39.9,160.1,39.9z"/>
	</g>
	<g>
		<path class="st25" d="M165.1,41.9c-0.3-0.1-0.6-0.3-0.7-0.6c0-0.3,0.3-0.6,0.7-0.7c0.4-0.1,0.7,0.2,0.7,0.6
			C165.8,41.7,165.5,41.9,165.1,41.9z"/>
	</g>
	<g>
		<path class="st25" d="M171.1,44.9c-0.3-0.1-0.6-0.3-0.7-0.6c0-0.3,0.3-0.6,0.7-0.7c0.4-0.1,0.7,0.2,0.7,0.6
			C171.8,44.7,171.5,44.9,171.1,44.9z"/>
	</g>
	<g>
		<path class="st25" d="M146.1,39.9c-0.3-0.1-0.6-0.3-0.7-0.6c0-0.3,0.3-0.6,0.7-0.7c0.4-0.1,0.7,0.2,0.7,0.6
			C146.8,39.7,146.5,39.9,146.1,39.9z"/>
	</g>
</g>
<g class="st29">
	<linearGradient id="SVGID_13_" gradientUnits="userSpaceOnUse" x1="96.749" y1="37.6655" x2="96.749" y2="29.6506">
		<stop  offset="0" style="stop-color:#C25530;stop-opacity:0.6"/>
		<stop  offset="0.4998" style="stop-color:#C25530"/>
		<stop  offset="1" style="stop-color:#C25530;stop-opacity:0.6"/>
	</linearGradient>
	<path class="st30" d="M150.7,32.4c0,1.1-37.8,5-53.9,5.2c-14.7,0.2-53.9-5.2-53.9-5.3c0.1-2.1,39.6-2.9,53.9-2.7
		C113,29.9,150.7,32.4,150.7,32.4z"/>
</g>
<g>
	<path class="st1" d="M122.2,33.6c0.1,2.9-1.8,5.4-4.2,5.5c-2.4,0.1-4.3-2.4-4.2-5.5c0.1-3.2,1.9-5.6,4.2-5.4
		C120.3,28.3,122.2,30.8,122.2,33.6z"/>
</g>
<g>
	<path class="st1" d="M107.4,32.9c0.1,2.2-1.5,4.1-3.4,4.2s-3.5-1.8-3.4-4.2c0.1-2.4,1.5-4.3,3.4-4.2
		C105.9,28.9,107.3,30.7,107.4,32.9z"/>
</g>
<g>
	<path class="st1" d="M130.7,33.4c-1.9,0.1-3.6-1.1-3.7-2.7c-0.1-1.6,1.5-2.8,3.6-2.8s3.7,1.2,3.7,2.7
		C134.2,32.1,132.6,33.3,130.7,33.4z"/>
</g>
<g>
	<path class="st1" d="M95.4,33.4c0,1.9-1.2,3.5-2.8,3.6c-1.6,0.1-2.8-1.6-2.8-3.6c0.1-2.1,1.2-3.7,2.8-3.6
		C94.2,30,95.4,31.6,95.4,33.4z"/>
</g>
<g>
	<path class="st1" d="M72,33.1c-0.1-2.9,1.8-5.4,4.2-5.5c2.4-0.1,4.3,2.4,4.2,5.5c-0.1,3.2-1.9,5.6-4.2,5.4
		C73.9,38.4,72.1,35.9,72,33.1z"/>
</g>
<g>
	<path class="st1" d="M65.5,33.1c0,1.9-1.2,3.5-2.8,3.6c-1.6,0.1-2.8-1.6-2.8-3.6c0.1-2.1,1.2-3.7,2.8-3.6
		C64.3,29.6,65.5,31.2,65.5,33.1z"/>
</g>
<g>
	<path class="st1" d="M145.5,32c0,1.2-1.2,2.4-2.8,2.4c-1.6,0.1-2.8-1-2.8-2.4c0.1-1.4,1.2-2.4,2.8-2.4
		C144.2,29.7,145.4,30.8,145.5,32z"/>
</g>
<g>
	<path class="st1" d="M154.4,32.6c0,1.2-1.2,2.4-2.8,2.4c-1.6,0.1-2.8-1-2.8-2.4c0.1-1.4,1.2-2.4,2.8-2.4
		C153.1,30.3,154.3,31.3,154.4,32.6z"/>
</g>
<g>
	<path class="st1" d="M48.2,30.7c-0.5,1.3-1.8,2.2-3,1.8s-1.6-1.9-1-3.3s1.9-2.3,2.9-1.8C48.3,27.9,48.7,29.4,48.2,30.7z"/>
</g>
<g>
	<path class="st1" d="M49.2,34.8c0.3,0.8,0,1.8-0.8,2.1c-0.7,0.3-1.5-0.3-1.8-1.2s0.1-1.8,0.8-2S48.9,33.9,49.2,34.8z"/>
</g>
<g class="st14">
	<path class="st1" d="M54.2,40.4c-0.8-0.4-1.2-1.3-0.8-2c0.3-0.7,1.3-0.8,2.2-0.3s1.2,1.4,0.8,2C56,40.7,55,40.8,54.2,40.4z"/>
</g>
<g class="st14">
	<path class="st1" d="M42.5,39.4c-0.1-0.9,0.3-1.7,1.1-1.9c0.8-0.2,1.5,0.5,1.6,1.5c0.1,1-0.4,1.8-1.1,1.9
		C43.4,41,42.7,40.3,42.5,39.4z"/>
</g>
<g>
	<linearGradient id="SVGID_14_" gradientUnits="userSpaceOnUse" x1="0.4393" y1="40.3825" x2="4.247" y2="40.3825">
		<stop  offset="0" style="stop-color:#4A5854"/>
		<stop  offset="0.1297" style="stop-color:#4A5854"/>
		<stop  offset="1" style="stop-color:#4A5854;stop-opacity:0.2"/>
	</linearGradient>
	<path class="st31" d="M0.5,39.5c0.1-0.1,0.7-0.1,1.9,0c1.3,0.1,1.6,0.2,1.7,0.5c0.2,0.3,0.2,0.7,0,1c-0.2,0.3-0.7,0.4-0.9,0.4
		C1.8,41.5,0.2,39.9,0.5,39.5z"/>
</g>
<g>
	
		<linearGradient id="SVGID_15_" gradientUnits="userSpaceOnUse" x1="18.4145" y1="39.5636" x2="22.3194" y2="39.5636" gradientTransform="matrix(-0.758 2.5187 0.8581 0.6623 5.9272 -38.3004)">
		<stop  offset="0" style="stop-color:#4A5854"/>
		<stop  offset="0.1297" style="stop-color:#4A5854"/>
		<stop  offset="1" style="stop-color:#4A5854;stop-opacity:0.2"/>
	</linearGradient>
	<path class="st32" d="M24.8,33.4c-0.2,0,0.2,1.5,0,4c-0.1,2.4-0.2,3.7-1.3,4.9c-0.5,0.6-1.3,1.2-1.2,1.4c0.1,0.1,0.7,0,1-0.1
		c2-0.7,2.5-4,2.4-6.4C25.6,35.1,24.9,33.4,24.8,33.4z"/>
</g>
<g class="st14">
	<path class="st1" d="M90.8,40.8c-0.6-0.2-0.7-0.9-0.3-1.5c0.4-0.6,1.2-0.9,1.8-0.6s0.8,0.9,0.3,1.4C92.1,40.7,91.3,41,90.8,40.8z"
		/>
</g>
<g class="st14">
	<path class="st1" d="M95.2,41.3c-0.3-0.1-0.4-0.4-0.2-0.7c0.2-0.3,0.6-0.4,0.9-0.3c0.3,0.1,0.4,0.4,0.2,0.7
		C95.9,41.3,95.5,41.4,95.2,41.3z"/>
</g>
<g class="st14">
	<path class="st1" d="M79.2,44.3c-0.3-0.1-0.4-0.4-0.2-0.7c0.2-0.3,0.6-0.4,0.9-0.3c0.3,0.1,0.4,0.4,0.2,0.7
		C79.9,44.3,79.5,44.4,79.2,44.3z"/>
</g>
<g class="st14">
	<path class="st1" d="M69.4,43.4c-0.3,0-0.5-0.3-0.4-0.6c0.1-0.3,0.4-0.6,0.7-0.6c0.3,0,0.5,0.3,0.4,0.6
		C70,43.1,69.7,43.4,69.4,43.4z"/>
</g>
<g class="st14">
	<path class="st1" d="M103,41.1c-0.2-0.2-0.1-0.6,0.2-0.7c0.3-0.2,0.7-0.1,0.9,0.2c0.2,0.3,0.1,0.6-0.2,0.7
		C103.6,41.4,103.2,41.3,103,41.1z"/>
</g>
<g class="st14">
	<path class="st1" d="M0.9,36.6c-0.2-0.2-0.1-0.6,0.2-0.7C1.4,35.7,1.8,35.8,2,36s0.1,0.6-0.2,0.7C1.5,36.9,1.1,36.8,0.9,36.6z"/>
</g>
<g class="st14">
	<path class="st1" d="M2.9,37.4c-0.2-0.2-0.1-0.6,0.2-0.7c0.3-0.2,0.7-0.1,0.9,0.2c0.2,0.3,0.1,0.6-0.2,0.7S3.1,37.6,2.9,37.4z"/>
</g>
<g class="st14">
	<path class="st1" d="M4.8,38.4c-0.2-0.2-0.1-0.6,0.2-0.7c0.3-0.2,0.7-0.1,0.9,0.2c0.2,0.3,0.1,0.6-0.2,0.7
		C5.4,38.7,5,38.6,4.8,38.4z"/>
</g>
<g class="st14">
	<path class="st1" d="M116.5,41.4c-0.3,0.1-0.5-0.2-0.5-0.5c0-0.4,0.3-0.7,0.6-0.7c0.3,0,0.6,0.2,0.5,0.5S116.8,41.4,116.5,41.4z"/>
</g>
<g class="st14">
	<path class="st1" d="M120.5,43.4c-0.3,0-0.5-0.2-0.5-0.6c0-0.4,0.3-0.7,0.7-0.7c0.3,0,0.6,0.2,0.5,0.6
		C121.1,43.1,120.8,43.4,120.5,43.4z"/>
</g>
<g class="st14">
	<path class="st1" d="M139.2,37.3c-0.3-0.1-0.4-0.4-0.2-0.7s0.6-0.4,0.9-0.3c0.3,0.1,0.4,0.4,0.2,0.7
		C139.9,37.3,139.5,37.4,139.2,37.3z"/>
</g>
<g class="st14">
	<path class="st1" d="M130,39.6c-0.5-0.2-0.7-0.8-0.4-1.3c0.3-0.5,0.9-0.6,1.5-0.3c0.5,0.3,0.7,0.9,0.4,1.3
		C131.2,39.7,130.5,39.9,130,39.6z"/>
</g>
<g>
	<path class="st1" d="M54.2,31.1c0.6,1.9,0.1,3.8-1.2,4.4c-1.3,0.5-2.9-0.8-3.5-2.9s-0.1-4,1.3-4.3C52.1,27.9,53.6,29.2,54.2,31.1z"
		/>
</g>
<g>
	<g>
		<path class="st33" d="M150,32.5c0,0-35.8,2.4-53.7,2.5c-17.8,0.1-53.6-2.6-53.6-2.6c0,0,35.8,1.2,53.7,1.3
			C114.2,33.8,150,32.5,150,32.5z"/>
	</g>
</g>
<g>
	<linearGradient id="SVGID_16_" gradientUnits="userSpaceOnUse" x1="28.8201" y1="30.3281" x2="23.4021" y2="48.3305">
		<stop  offset="0" style="stop-color:#4A5854"/>
		<stop  offset="0.1297" style="stop-color:#4A5854"/>
		<stop  offset="1" style="stop-color:#4A5854;stop-opacity:0.2"/>
	</linearGradient>
	<path class="st34" d="M39,38.8c0.2,5.1-9.3,7.5-10.7,7.8c0,0,0,0-0.1,0c-7.8,1.8-16.6-1.5-16.5-2.9c0.2-1.9,15.8,0,17-4.6
		c0.7-2.6-3.1-6.5-1.9-8.4c0.1-0.1,0.1-0.2,0.3-0.2C29.2,29.6,38.9,33.6,39,38.8z"/>
</g>
<g>
	<path class="st17" d="M38.5,38.8c0.2,5.1-8.7,8.7-10.8,7.8c-1.3-0.6,0.7-2.7,0.6-7.5c-0.2-5.5-2.9-8-1.6-8.6
		C28.6,29.6,38.3,33.6,38.5,38.8z"/>
</g>
<g class="st29">
	<linearGradient id="SVGID_17_" gradientUnits="userSpaceOnUse" x1="32.4181" y1="42.5506" x2="32.4181" y2="34.5357">
		<stop  offset="0" style="stop-color:#C25530;stop-opacity:0.6"/>
		<stop  offset="0.4998" style="stop-color:#C25530"/>
		<stop  offset="1" style="stop-color:#C25530;stop-opacity:0.6"/>
	</linearGradient>
	<path class="st35" d="M34.7,42.5c-1.6,0.2-6-5.2-6-5.3c0-2.1,4.4-2.9,6-2.7C36.6,34.8,36.6,42.3,34.7,42.5z"/>
</g>
<g>
	<path class="st17" d="M19.6,36.5c-1,1.3-3.1,1.1-3.4,0.5c-0.5-0.9,2.4-3.9,3.4-3.4C20.2,33.9,20.4,35.5,19.6,36.5z"/>
</g>
<g>
	<path class="st1" d="M34.2,36.8c0.3,0.8,0,1.8-0.8,2.1c-0.7,0.3-1.5-0.3-1.8-1.2s0.1-1.8,0.8-2S33.9,35.9,34.2,36.8z"/>
</g>
<linearGradient id="SVGID_18_" gradientUnits="userSpaceOnUse" x1="15.7933" y1="21.5221" x2="15.7933" y2="21.5221">
	<stop  offset="0" style="stop-color:#6E8068"/>
	<stop  offset="0.185" style="stop-color:#6E8068"/>
	<stop  offset="0.4849" style="stop-color:#6E8068;stop-opacity:0.5"/>
	<stop  offset="0.8076" style="stop-color:#D9DBD4;stop-opacity:0.1924"/>
	<stop  offset="1" style="stop-color:#FFFFFF;stop-opacity:0"/>
</linearGradient>
<path class="st36" d="M15.8,21.5"/>
<g id="Bottom_Fin_1_">
	<path class="st2" d="M97.3,64c1.6,2.4,4.8,2.5,7,0.2c0.1-0.1,0.1-0.1,0.1-0.1c0.1-0.1,0.1-0.1,0.1-0.1c0-0.1-1.7,0.2-3.3,0.2
		c-2.3-0.1-3.9-1-4.1-0.6C97.2,63.6,97.2,63.7,97.3,64z"/>
</g>
<g id="Bottom_Back_Fin_2_">
	<path class="st2" d="M138.7,57.7c-4,1.3-9.2-3.3-9.1-3.5c0,0,0.3,0.2,1.1,0.5c5,1.9,10,0,10.3,0.9
		C141.2,56.1,140.1,57.2,138.7,57.7z"/>
</g>
</svg>
